<svg width="24" height="24" viewBox="0 0 24 24" fill="none" xmlns="http://www.w3.org/2000/svg">
<g clip-path="url(#clip0_251_10731)">
<path d="M11.5202 23.04C17.8826 23.04 23.0402 17.8823 23.0402 11.52C23.0402 5.15768 17.8826 0 11.5202 0C5.15792 0 0.000244141 5.15768 0.000244141 11.52C0.000244141 17.8823 5.15792 23.04 11.5202 23.04Z" fill="#FF0420"/>
<path d="M8.35526 14.7451C7.66042 14.7451 7.09115 14.5779 6.64735 14.2434C6.20945 13.9029 5.99048 13.4191 5.99048 12.7919C5.99048 12.6604 6.00509 12.4992 6.03425 12.308C6.11019 11.878 6.21821 11.3613 6.35834 10.7579C6.75536 9.11528 7.78013 8.29395 9.43256 8.29395C9.88217 8.29395 10.285 8.37159 10.6412 8.52693C10.9974 8.67622 11.2777 8.90321 11.482 9.20785C11.6864 9.50654 11.7886 9.86495 11.7886 10.2831C11.7886 10.4085 11.774 10.5668 11.7448 10.7579C11.6572 11.2896 11.5521 11.8063 11.4295 12.308C11.2251 13.1264 10.8719 13.7386 10.3697 14.1448C9.86756 14.545 9.19608 14.7451 8.35526 14.7451ZM8.47788 13.4549C8.80486 13.4549 9.08222 13.3563 9.30994 13.1592C9.54348 12.9621 9.70992 12.6604 9.80917 12.2542C9.94345 11.6928 10.0457 11.203 10.1157 10.7848C10.1391 10.6594 10.1507 10.5309 10.1507 10.3995C10.1507 9.85597 9.87341 9.58418 9.3187 9.58418C8.99172 9.58418 8.71146 9.68275 8.47788 9.87988C8.25015 10.077 8.08666 10.3787 7.9874 10.7848C7.88229 11.1851 7.77719 11.6748 7.67212 12.2542C7.64876 12.3737 7.63706 12.4992 7.63706 12.6306C7.63706 13.1801 7.91731 13.4549 8.47788 13.4549Z" fill="white"/>
<path d="M12.1907 14.6558C12.1265 14.6558 12.0768 14.6349 12.0418 14.5931C12.0126 14.5453 12.0038 14.4916 12.0155 14.4318L13.2242 8.60783C13.2358 8.54212 13.2679 8.48834 13.3205 8.44655C13.3731 8.40471 13.4285 8.38379 13.4869 8.38379H15.8167C16.4648 8.38379 16.9844 8.5212 17.3757 8.79597C17.7727 9.07075 17.9712 9.46796 17.9712 9.98765C17.9712 10.137 17.9537 10.2923 17.9187 10.4536C17.7727 11.1405 17.4779 11.6482 17.0341 11.9768C16.5962 12.3053 15.9947 12.4696 15.2298 12.4696H14.0474L13.6446 14.4318C13.6329 14.4975 13.6008 14.5513 13.5482 14.5931C13.4957 14.6349 13.4402 14.6558 13.3818 14.6558H12.1907ZM15.2911 11.2331C15.5364 11.2331 15.7495 11.1644 15.9305 11.027C16.1173 10.8896 16.24 10.6925 16.2984 10.4356C16.3159 10.3341 16.3247 10.2445 16.3247 10.1669C16.3247 9.99364 16.275 9.86222 16.1758 9.77259C16.0765 9.67702 15.9072 9.62924 15.6677 9.62924H14.6168L14.2839 11.2331H15.2911Z" fill="white"/>
</g>
<defs>
<clipPath id="clip0_251_10731">
<rect width="23.04" height="23.04" fill="white"/>
</clipPath>
</defs>
</svg>
