<svg width="21" height="23" viewBox="0 0 21 23" fill="none" xmlns="http://www.w3.org/2000/svg">
<path d="M12.6669 10.4016L14.3339 7.57294L18.8273 14.5714L18.8294 15.9145L18.8147 6.67231C18.8041 6.44631 18.6841 6.23959 18.4927 6.11765L10.403 1.4645C10.2139 1.37147 9.97379 1.37259 9.78495 1.46743C9.75939 1.48028 9.7355 1.49411 9.7126 1.50933L9.68438 1.52707L1.83196 6.07743L1.80151 6.0914C1.76226 6.10927 1.72273 6.13232 1.68544 6.15886C1.53654 6.26557 1.43765 6.42354 1.40567 6.60051C1.40092 6.62733 1.39729 6.65471 1.39575 6.68236L1.40804 14.2138L5.59342 7.72686C6.12028 6.86674 7.26841 6.58948 8.33428 6.6047L9.58507 6.63767L2.21481 18.4574L3.08359 18.9576L10.5421 6.64968L13.8389 6.63767L6.39963 19.2563L9.49973 21.0395L9.87015 21.2524C10.0269 21.316 10.2115 21.3193 10.3695 21.2621L18.5729 16.5081L17.0045 17.417L12.6669 10.4016ZM13.3028 19.5623L10.1717 14.6478L12.0832 11.4042L16.1954 17.8859L13.3028 19.5623Z" fill="#2D374B"/>
<path d="M10.1711 14.6479L13.3024 19.5622L16.1948 17.886L12.0826 11.4043L10.1711 14.6479Z" fill="#28A0F0"/>
<path d="M18.8292 15.9148L18.8271 14.5717L14.3338 7.57324L12.6667 10.402L17.0045 17.4173L18.5729 16.5084C18.7267 16.3836 18.8199 16.2002 18.8297 16.0024L18.8292 15.9148Z" fill="#28A0F0"/>
<path d="M0 17.1796L2.21484 18.4558L9.58509 6.63608L8.3343 6.60312C7.26857 6.58803 6.12044 6.86515 5.59345 7.72527L1.40807 14.2122L0 16.3757V17.1796V17.1796Z" fill="white"/>
<path d="M13.8385 6.6377L10.5418 6.64971L3.08325 18.9576L5.6903 20.4586L6.39915 19.2563L13.8385 6.6377Z" fill="white"/>
<path d="M20.2186 6.61979C20.1911 5.93035 19.8177 5.29929 19.233 4.93181L11.0373 0.218592C10.4589 -0.0726313 9.73636 -0.0730502 9.15685 0.218453C9.08841 0.252953 1.18668 4.83571 1.18668 4.83571C1.07732 4.88809 0.972002 4.95052 0.872972 5.02148C0.351005 5.39567 0.0328237 5.977 0 6.6156V16.3765L1.40807 14.2131L1.39578 6.68152C1.39745 6.65401 1.40095 6.62677 1.40569 6.60009C1.43754 6.42284 1.53657 6.26487 1.68546 6.15802C1.72276 6.13148 9.75927 1.47944 9.78483 1.46659C9.97381 1.37175 10.2138 1.37064 10.4029 1.46366L18.4926 6.11681C18.684 6.23875 18.804 6.44547 18.8146 6.67146V16.0011C18.8048 16.1989 18.7266 16.3823 18.5728 16.5071L17.0044 17.416L16.1951 17.885L13.3027 19.5613L10.3694 21.2611C10.2114 21.3183 10.0266 21.3151 9.87003 21.2514L6.39951 19.2553L5.69052 20.4576L8.80947 22.2533C8.91255 22.3119 9.00446 22.3639 9.07989 22.4063C9.19665 22.4718 9.27627 22.5156 9.30434 22.5293C9.52601 22.6369 9.84489 22.6995 10.1323 22.6995C10.3958 22.6995 10.6528 22.6512 10.8959 22.5559L19.416 17.6219C19.905 17.243 20.1927 16.6715 20.2186 16.0526V6.61979Z" fill="#96BEDC"/>
</svg>
