<svg width="25" height="25" viewBox="0 0 25 25" fill="none" xmlns="http://www.w3.org/2000/svg">
<g clip-path="url(#clip0_440_3083)">
<path d="M25 0H0V24.7611H25V0Z" fill="black"/>
<path d="M12.3805 23.0179V19.3793C12.0143 19.3793 11.6401 19.3475 11.2738 19.2918L10.7006 22.8825C11.2579 22.9781 11.8232 23.0179 12.3805 23.0179ZM14.0525 22.8905C14.6098 22.8029 15.1592 22.6755 15.6926 22.5003L14.57 19.037C14.2197 19.1484 13.8535 19.236 13.4872 19.2918L14.0525 22.8905ZM9.06843 22.5003L10.191 19.0449C9.84072 18.9335 9.49836 18.7902 9.16397 18.623L7.50792 21.8634C8.00951 22.1102 8.53499 22.3252 9.06843 22.5003ZM17.2452 21.8634C17.7468 21.6086 18.2245 21.314 18.6783 20.9876L16.5286 18.0497C16.234 18.2647 15.9156 18.4637 15.5812 18.623L17.2452 21.8634ZM6.0748 20.9796L8.22448 18.0418C7.92989 17.8268 7.64327 17.5879 7.38053 17.3252L4.80091 19.8968C5.199 20.287 5.62894 20.6532 6.0748 20.9796ZM19.9442 19.9128L19.9681 19.8889C20.3662 19.4988 20.7324 19.0688 21.0589 18.623L18.113 16.4812C17.898 16.7758 17.6512 17.0625 17.3965 17.3172L17.3566 17.357L18.5987 18.5274L19.9442 19.9128ZM3.71015 18.615L6.65601 16.4733C6.44104 16.1787 6.24199 15.8602 6.0748 15.5338L2.82639 17.1819C3.08117 17.6835 3.37575 18.1612 3.71015 18.615ZM21.9347 17.1898C22.1894 16.6962 22.4044 16.1707 22.5796 15.6373L19.1082 14.5226C18.9968 14.873 18.8535 15.2153 18.6863 15.5417L21.9347 17.1898ZM2.18148 15.6373L5.65282 14.5147C5.54136 14.1644 5.45378 13.8061 5.39804 13.4398L1.79136 14.0051C1.87894 14.5545 2.01429 15.1039 2.18148 15.6373ZM22.9697 14.0131C23.0573 13.4637 23.1051 12.8984 23.1051 12.3411H19.4586C19.4586 12.7074 19.4267 13.0816 19.371 13.4478L22.9697 14.0131ZM5.31046 12.3332C5.31046 11.9669 5.34231 11.5927 5.39804 11.2265L1.79136 10.6612C1.70378 11.2105 1.66397 11.7758 1.65601 12.3332H5.31046ZM19.371 11.2344L22.9777 10.6691C22.8901 10.1198 22.7627 9.57041 22.5875 9.03697L19.1162 10.1516C19.2277 10.5099 19.3152 10.8682 19.371 11.2344ZM5.65282 10.1516C5.76429 9.8013 5.9076 9.45895 6.0748 9.13251L2.82639 7.48443C2.57161 7.97806 2.35664 8.50353 2.18148 9.03697L5.65282 10.1516ZM18.6942 9.14048L21.9506 7.49239C21.6958 6.99079 21.4012 6.51309 21.0668 6.05927L18.113 8.20099C18.328 8.49557 18.527 8.81404 18.6942 9.14048ZM6.65601 8.19302C6.87097 7.89844 7.11779 7.61181 7.38053 7.34908L7.38849 7.34111L4.80887 4.76946L4.80091 4.77742C4.40282 5.17551 4.03658 5.59748 3.71015 6.0513L6.65601 8.19302ZM17.3965 7.365L18.1767 6.57678L19.9681 4.79334L19.9601 4.78538C19.5621 4.39525 19.1401 4.02901 18.6942 3.70258L16.5445 6.64048C16.8391 6.85544 17.1258 7.0943 17.3805 7.35704L17.3965 7.365ZM8.23244 6.62455C8.52703 6.40958 8.8455 6.2185 9.17989 6.0513L7.52384 2.81086C7.02225 3.06563 6.54454 3.36022 6.09072 3.68665L8.23244 6.62455ZM15.6051 6.05927L17.2691 2.81882C16.7675 2.56404 16.25 2.34907 15.7165 2.17392L14.5859 5.62933C14.9283 5.74876 15.2707 5.89207 15.6051 6.05927ZM10.207 5.62933C10.5573 5.51786 10.9235 5.43028 11.2898 5.37455L10.7245 1.78379C10.1751 1.87137 9.61779 1.99876 9.08435 2.17392L10.207 5.62933ZM13.4952 5.37455L14.0684 1.78379C13.5191 1.69621 12.9538 1.64844 12.3965 1.64844V5.28697C12.7627 5.28697 13.1369 5.31882 13.4952 5.37455Z" fill="white"/>
<path d="M12.3806 19.5463V15.8918C12.0701 15.8918 11.7676 15.852 11.465 15.7724L10.5096 19.2995C11.1227 19.4587 11.7516 19.5463 12.3806 19.5463ZM14.2516 19.2995C14.8647 19.1402 15.4459 18.9014 15.9953 18.5829L14.1481 15.4221C13.8854 15.5734 13.5988 15.6928 13.3042 15.7724L14.2516 19.2995ZM8.77392 18.5829L10.6211 15.4221C10.3583 15.2708 10.1115 15.0797 9.88857 14.8648L9.85673 14.8329L8.69431 16.0511L7.26119 17.4284L7.28507 17.4523C7.73093 17.8902 8.23252 18.2724 8.77392 18.5829ZM17.4841 17.4523C17.93 17.0065 18.3201 16.5128 18.6306 15.9714L15.4379 14.1402C15.2867 14.403 15.0956 14.6418 14.8727 14.8648L17.4841 17.4523ZM6.13061 15.9635L9.32329 14.1402C9.17201 13.8775 9.05259 13.5988 8.97297 13.3042L5.41405 14.2437C5.57329 14.8409 5.8201 15.4221 6.13061 15.9635ZM19.3551 14.2517C19.5144 13.6466 19.6019 13.0256 19.6019 12.4046H15.9156C15.9156 12.7071 15.8758 13.0176 15.7962 13.3122L19.3551 14.2517ZM8.8615 12.3966C8.8615 12.0941 8.90131 11.7835 8.98093 11.489L5.41405 10.5495C5.25482 11.1546 5.16724 11.7756 5.16724 12.3966H8.8615ZM15.7883 11.4969L19.3551 10.5574C19.1959 9.95234 18.9491 9.37113 18.6386 8.82972L15.4459 10.653C15.5892 10.9237 15.7086 11.2023 15.7883 11.4969ZM9.33125 10.653C9.48252 10.3982 9.66564 10.1514 9.88857 9.93641L9.89654 9.92845L8.57488 8.62272L7.30896 7.32495L7.28507 7.34883C6.83921 7.78673 6.45705 8.28832 6.13857 8.82176L9.33125 10.653ZM14.8727 9.93641L16.1784 8.63864L17.516 7.38068L17.4841 7.34883C17.0383 6.90297 16.5367 6.52877 15.9953 6.2103L14.1481 9.37112C14.4109 9.5224 14.6497 9.70552 14.8727 9.92049V9.93641ZM10.6211 9.37112C10.8838 9.21985 11.1704 9.10042 11.465 9.02081L10.5255 5.49374C9.91246 5.65297 9.33125 5.89183 8.78189 6.2103L10.6211 9.37112ZM13.2962 9.02877L14.2516 5.5017C13.6465 5.34246 13.0176 5.25488 12.3886 5.25488V8.90934C12.6911 8.90934 13.0016 8.94915 13.2962 9.02877Z" fill="white"/>
</g>
<defs>
<clipPath id="clip0_440_3083">
<rect width="25" height="24.7611" rx="12.3806" fill="white"/>
</clipPath>
</defs>
</svg>
