<svg width="25" height="25" viewBox="0 0 25 25" fill="none" xmlns="http://www.w3.org/2000/svg">
<rect width="25" height="25" rx="12.5" fill="black"/>
<path d="M5.53655 17.9741C6.43128 15.164 7.30561 12.4179 8.19237 9.63262C8.78861 10.0782 9.35203 10.4993 9.93752 10.9368C9.40951 12.5878 8.88409 14.2305 8.35867 15.8735C8.61267 15.9511 15.1969 15.9823 16.1292 15.9142C16.4179 15.0241 16.7114 14.119 17.0173 13.1753H11.4941C11.646 12.6112 11.8319 12.099 12.0049 11.5568H17.5336C17.7804 10.7961 18.0227 10.0489 18.2736 9.27583C18.1792 9.25632 18.1134 9.23459 18.0463 9.23051C17.9319 9.22363 17.8169 9.22735 17.7023 9.22735C13.3959 9.22809 9.08951 9.22921 4.78309 9.22958C4.72209 9.22958 4.6611 9.22419 4.54541 9.21862C4.77178 9.04236 4.9557 8.89377 5.14536 8.75243C5.74697 8.30406 6.35359 7.8622 6.95187 7.4092C7.11836 7.2829 7.28948 7.23238 7.49824 7.23275C11.1686 7.23758 14.8389 7.23906 18.5092 7.23145C18.786 7.23089 19.0083 7.30184 19.2254 7.46863C19.6872 7.82357 20.1628 8.16086 20.6611 8.5262C20.3682 9.43036 20.0775 10.3282 19.7894 11.2173C18.9269 11.6499 18.0839 12.0728 17.1916 12.5204C17.7849 12.9922 18.3672 13.3882 18.9369 13.8243C18.8019 14.2589 18.672 14.6848 18.5372 15.1092C18.4017 15.536 18.2552 15.9595 18.1254 16.388C18.0678 16.5783 17.976 16.7095 17.7863 16.8003C17.0818 17.137 16.3853 17.4905 15.688 17.8424C15.5065 17.934 15.322 17.9753 15.1175 17.9751C12.0416 17.9719 8.96548 17.9734 5.88954 17.9738C5.78739 17.9738 5.68505 17.9738 5.53655 17.9738V17.9741Z" fill="#FDFE01"/>
</svg>
