<svg width="36" height="36" viewBox="0 0 36 36" fill="none" xmlns="http://www.w3.org/2000/svg">
<path d="M18.0281 7.19922L17.8833 7.69131V21.9705L18.0281 22.115L24.6563 18.1971L18.0281 7.19922Z" fill="#343434"/>
<path d="M18.0282 7.19922L11.3999 18.1971L18.0282 22.1151V15.1844V7.19922Z" fill="#8C8C8C"/>
<path d="M18.0281 23.3691L17.9465 23.4685V28.5551L18.0281 28.7934L24.6603 19.4531L18.0281 23.3691Z" fill="#3C3C3B"/>
<path d="M18.0282 28.7934V23.3691L11.3999 19.4531L18.0282 28.7934Z" fill="#8C8C8C"/>
<path d="M18.0283 22.1142L24.6565 18.1963L18.0283 15.1836V22.1142Z" fill="#141414"/>
<path d="M11.3999 18.1963L18.028 22.1142V15.1836L11.3999 18.1963Z" fill="#393939"/>
<g clip-path="url(#clip0_253_184)">
<path d="M24.6372 9.95801H10.4023V22.9044H24.6372V9.95801Z" fill="white"/>
<path fill-rule="evenodd" clip-rule="evenodd" d="M29.0472 17.5354C29.0472 23.8977 23.8896 29.0552 17.5274 29.0552C11.1652 29.0552 6.00757 23.8977 6.00757 17.5354C6.00757 11.1732 11.1652 6.01562 17.5274 6.01562C23.8896 6.01562 29.0472 11.1732 29.0472 17.5354ZM14.263 22.1197H12.0273C11.5575 22.1197 11.3255 22.1197 11.184 22.0292C11.0312 21.9301 10.9378 21.766 10.9265 21.5848C10.918 21.4179 11.034 21.2141 11.2661 20.8066L16.7862 11.0766C17.0211 10.6634 17.1399 10.4568 17.2899 10.3804C17.4512 10.2983 17.6437 10.2983 17.805 10.3804C17.955 10.4568 18.0738 10.6634 18.3087 11.0766L19.4435 13.0576L19.4493 13.0677C19.703 13.5109 19.8317 13.7357 19.8878 13.9716C19.9501 14.2292 19.9501 14.5008 19.8878 14.7584C19.8312 14.9961 19.7039 15.2225 19.4464 15.6724L16.5468 20.7981L16.5393 20.8112C16.2839 21.2582 16.1545 21.4847 15.9751 21.6555C15.7799 21.8424 15.545 21.9781 15.2874 22.0547C15.0525 22.1197 14.7894 22.1197 14.263 22.1197ZM19.9088 22.1197H23.1122C23.5848 22.1197 23.8226 22.1197 23.9642 22.0264C24.117 21.9274 24.2131 21.7603 24.2217 21.5793C24.2299 21.4178 24.1163 21.2219 23.8939 20.8381C23.8863 20.825 23.8786 20.8117 23.8708 20.7982L22.2661 18.0531L22.2479 18.0222C22.0224 17.6409 21.9086 17.4484 21.7624 17.3739C21.6012 17.2918 21.4114 17.2918 21.2502 17.3739C21.103 17.4503 20.9842 17.6513 20.7493 18.0559L19.1503 20.801L19.1449 20.8105C18.9108 21.2145 18.7938 21.4164 18.8023 21.5821C18.8136 21.7632 18.907 21.9301 19.0598 22.0292C19.1985 22.1197 19.4362 22.1197 19.9088 22.1197Z" fill="#E84142"/>
</g>
<defs>
<clipPath id="clip0_253_184">
<rect width="23.0549" height="23.0703" fill="white" transform="translate(6 6)"/>
</clipPath>
</defs>
</svg>
