<svg width="101" height="35" viewBox="0 0 101 35" fill="none" xmlns="http://www.w3.org/2000/svg">
<rect width="100.5" height="35" rx="8.77578" fill="#1B1F32"/>
<path d="M52.9058 13.7676L48.8725 11.0609C48.6602 10.9167 48.4107 10.8368 48.1541 10.8309C47.8975 10.825 47.6446 10.8933 47.4258 11.0276L40.7925 15.1076C40.5991 15.2269 40.4394 15.3936 40.3286 15.592C40.2177 15.7903 40.1594 16.0137 40.1592 16.2409V20.1209C40.1589 20.3393 40.2122 20.5545 40.3145 20.7474C40.4168 20.9404 40.5649 21.1053 40.7458 21.2276L44.7792 23.9409C44.9915 24.0851 45.241 24.165 45.4976 24.1709C45.7542 24.1768 46.0071 24.1085 46.2258 23.9742L52.8592 19.8942C53.0526 19.775 53.2123 19.6082 53.3231 19.4099C53.4339 19.2115 53.4923 18.9881 53.4925 18.7609V14.8742C53.4928 14.6558 53.4395 14.4407 53.3372 14.2477C53.2349 14.0548 53.0868 13.8899 52.9058 13.7676Z" stroke="#B0B0B0" stroke-width="1.33333" stroke-linecap="round" stroke-linejoin="round"/>
<path d="M45.4928 24.1673V18.8339L40.3262 15.6006" stroke="#B0B0B0" stroke-width="1.33333" stroke-linecap="round" stroke-linejoin="round"/>
<path d="M45.4941 18.8339L53.3408 14.2539" stroke="#B0B0B0" stroke-width="1.33333" stroke-linecap="round" stroke-linejoin="round"/>
<path d="M56.949 21.956L61.1279 17.7771L56.949 13.5981" stroke="#B0B0B0" stroke-width="1.39298" stroke-linecap="round" stroke-linejoin="round"/>
</svg>
