<svg width="101" height="35" viewBox="0 0 101 35" fill="none" xmlns="http://www.w3.org/2000/svg">
<rect x="0.5" width="100.5" height="35" rx="8.77578" fill="#1B1F32"/>
<path d="M45.1926 13.044L41.0137 17.2229L45.1926 21.4019" stroke="#B0B0B0" stroke-width="1.39298" stroke-linecap="round" stroke-linejoin="round"/>
<path d="M61.4039 13.7676L57.3706 11.0609C57.1582 10.9167 56.9088 10.8368 56.6521 10.8309C56.3955 10.825 56.1427 10.8933 55.9239 11.0276L49.2906 15.1076C49.0972 15.2269 48.9375 15.3936 48.8266 15.592C48.7158 15.7903 48.6575 16.0137 48.6572 16.2409V20.1209C48.6569 20.3393 48.7102 20.5545 48.8125 20.7474C48.9148 20.9404 49.0629 21.1053 49.2439 21.2276L53.2772 23.9409C53.4896 24.0851 53.739 24.165 53.9956 24.1709C54.2523 24.1768 54.5051 24.1085 54.7239 23.9742L61.3572 19.8942C61.5506 19.775 61.7103 19.6082 61.8212 19.4099C61.932 19.2115 61.9903 18.9881 61.9906 18.7609V14.8742C61.9909 14.6558 61.9376 14.4407 61.8353 14.2477C61.733 14.0548 61.5848 13.8899 61.4039 13.7676Z" stroke="#B0B0B0" stroke-width="1.33333" stroke-linecap="round" stroke-linejoin="round"/>
<path d="M53.9928 24.1673V18.8339L48.8262 15.6006" stroke="#B0B0B0" stroke-width="1.33333" stroke-linecap="round" stroke-linejoin="round"/>
<path d="M53.9941 18.8339L61.8408 14.2539" stroke="#B0B0B0" stroke-width="1.33333" stroke-linecap="round" stroke-linejoin="round"/>
</svg>
