<svg width="27" height="21" viewBox="0 0 27 21" fill="none" xmlns="http://www.w3.org/2000/svg">
<g clip-path="url(#clip0_413_11994)">
<path d="M2.02621 20.6976C2.32741 20.0478 2.62631 19.3969 2.93039 18.7483C3.30222 17.9557 3.65022 17.1506 4.06484 16.3794C4.26612 16.0052 4.15758 15.8116 3.86672 15.5785C2.79687 14.7215 1.93978 13.6939 1.41319 12.4452C0.356544 9.93919 0.776042 7.60955 2.4526 5.4927C4.06168 3.46142 6.25421 2.23465 8.75283 1.54543C13.3986 0.263935 17.9074 0.568682 22.1561 2.91943C24.1637 4.03008 25.749 5.56854 26.4714 7.75261C27.3457 10.3956 26.5989 12.7186 24.7251 14.7235C23.0118 16.5564 20.8132 17.6215 18.3775 18.2527C15.6173 18.968 12.7905 19.1377 10.0584 18.3802C8.48895 17.9449 7.36024 18.5257 6.10692 19.0672C4.7841 19.6383 3.46617 20.2198 2.14594 20.7968C2.10603 20.7637 2.06612 20.7304 2.02621 20.6973V20.6976ZM13.8606 8.4924C13.1858 8.47934 12.5909 9.02994 12.572 9.685C12.5536 10.3251 13.1382 10.9126 13.8109 10.9307C14.4682 10.9482 15.0844 10.3753 15.1004 9.73167C15.1165 9.08467 14.5371 8.50546 13.8606 8.4924ZM7.31172 9.68639C7.29794 10.3448 7.86387 10.9182 8.53834 10.9293C9.20047 10.9401 9.80832 10.3737 9.82498 9.73C9.84192 9.083 9.27828 8.52379 8.58399 8.49851C7.90866 8.47379 7.32579 9.018 7.31172 9.68666V9.68639ZM20.3555 9.69917C20.3509 9.03494 19.77 8.47712 19.0993 8.49323C18.4202 8.50962 17.8371 9.07773 17.842 9.71833C17.8466 10.3581 18.4538 10.9359 19.1165 10.9312C19.793 10.9265 20.3601 10.3626 20.3558 9.69917H20.3555Z" fill="#C0C1C3"/>
</g>
<defs>
<clipPath id="clip0_413_11994">
<rect width="26" height="20" fill="white" transform="translate(0.83551 0.797363)"/>
</clipPath>
</defs>
</svg>
