<svg width="18" height="17" viewBox="0 0 18 17" fill="none" xmlns="http://www.w3.org/2000/svg">
<path d="M9.64774 8.87088L4.40021 14.1184C4.30175 14.2169 4.1682 14.2722 4.02895 14.2722C3.8897 14.2722 3.75615 14.2169 3.65769 14.1184C3.55922 14.0199 3.50391 13.8864 3.50391 13.7471C3.50391 13.6079 3.55922 13.4743 3.65769 13.3759L8.53461 8.49962L3.65769 3.62336C3.55922 3.52489 3.50391 3.39135 3.50391 3.2521C3.50391 3.11284 3.55922 2.9793 3.65769 2.88083C3.75615 2.78237 3.8897 2.72705 4.02895 2.72705C4.1682 2.72705 4.30175 2.78237 4.40021 2.88083L9.64774 8.12836C9.69653 8.17709 9.73523 8.23497 9.76164 8.29867C9.78805 8.36238 9.80164 8.43066 9.80164 8.49962C9.80164 8.56858 9.78805 8.63687 9.76164 8.70057C9.73523 8.76427 9.69653 8.82215 9.64774 8.87088ZM14.8953 8.12836L9.64774 2.88083C9.54927 2.78237 9.41573 2.72705 9.27648 2.72705C9.13723 2.72705 9.00368 2.78237 8.90521 2.88083C8.80675 2.9793 8.75143 3.11284 8.75143 3.2521C8.75143 3.39135 8.80675 3.52489 8.90521 3.62336L13.7821 8.49962L8.90521 13.3759C8.80675 13.4743 8.75143 13.6079 8.75143 13.7471C8.75143 13.8864 8.80675 14.0199 8.90521 14.1184C9.00368 14.2169 9.13723 14.2722 9.27648 14.2722C9.41573 14.2722 9.54927 14.2169 9.64774 14.1184L14.8953 8.87088C14.9441 8.82215 14.9828 8.76427 15.0092 8.70057C15.0356 8.63687 15.0492 8.56858 15.0492 8.49962C15.0492 8.43066 15.0356 8.36238 15.0092 8.29867C14.9828 8.23497 14.9441 8.17709 14.8953 8.12836Z" fill="#D7D7D7"/>
</svg>
