<svg width="18" height="17" viewBox="0 0 18 17" fill="none" xmlns="http://www.w3.org/2000/svg">
<path d="M8.35226 8.12912L13.5998 2.88159C13.6983 2.78313 13.8318 2.72781 13.9711 2.72781C14.1103 2.72781 14.2438 2.78313 14.3423 2.88159C14.4408 2.98006 14.4961 3.1136 14.4961 3.25285C14.4961 3.39211 14.4408 3.52565 14.3423 3.62412L9.46539 8.50038L14.3423 13.3766C14.4408 13.4751 14.4961 13.6087 14.4961 13.7479C14.4961 13.8872 14.4408 14.0207 14.3423 14.1192C14.2438 14.2176 14.1103 14.2729 13.971 14.2729C13.8318 14.2729 13.6983 14.2176 13.5998 14.1192L8.35226 8.87164C8.30347 8.82291 8.26477 8.76503 8.23836 8.70133C8.21195 8.63762 8.19836 8.56934 8.19836 8.50038C8.19836 8.43142 8.21195 8.36313 8.23836 8.29943C8.26477 8.23573 8.30347 8.17785 8.35226 8.12912ZM3.10474 8.87164L8.35226 14.1192C8.45073 14.2176 8.58427 14.2729 8.72352 14.2729C8.86277 14.2729 8.99632 14.2176 9.09479 14.1192C9.19325 14.0207 9.24857 13.8872 9.24857 13.7479C9.24857 13.6087 9.19325 13.4751 9.09479 13.3766L4.21787 8.50038L9.09479 3.62412C9.19325 3.52565 9.24857 3.3921 9.24857 3.25285C9.24857 3.1136 9.19325 2.98006 9.09479 2.88159C8.99632 2.78313 8.86278 2.72781 8.72353 2.72781C8.58428 2.72781 8.45073 2.78313 8.35226 2.88159L3.10474 8.12912C3.05595 8.17785 3.01724 8.23573 2.99083 8.29943C2.96443 8.36313 2.95083 8.43142 2.95083 8.50038C2.95083 8.56934 2.96443 8.63762 2.99083 8.70133C3.01724 8.76503 3.05595 8.82291 3.10474 8.87164Z" fill="#D7D7D7"/>
</svg>
