<svg width="22" height="22" viewBox="0 0 22 22" fill="none" xmlns="http://www.w3.org/2000/svg">
<path d="M18.2929 3.64359C16.8741 2.98294 15.3762 2.51426 13.8377 2.24951C13.6271 2.6323 13.4367 3.02614 13.267 3.42938C11.6281 3.17821 9.96151 3.17821 8.32265 3.42938C8.1529 3.02618 7.9624 2.63235 7.75195 2.24951C6.21241 2.5165 4.71361 2.98629 3.29338 3.64704C0.473866 7.88972 -0.29046 12.027 0.0917029 16.1056C1.74288 17.3464 3.59102 18.29 5.55579 18.8955C5.99819 18.2903 6.38967 17.6483 6.72606 16.9763C6.08714 16.7336 5.47046 16.4341 4.88318 16.0814C5.03774 15.9674 5.18891 15.8499 5.33498 15.7359C7.04384 16.5533 8.90897 16.9771 10.7974 16.9771C12.6858 16.9771 14.5509 16.5533 16.2598 15.7359C16.4075 15.8586 16.5587 15.976 16.7116 16.0814C16.1231 16.4347 15.5053 16.7347 14.8653 16.978C15.2013 17.6497 15.5928 18.2912 16.0355 18.8955C18.002 18.2924 19.8515 17.3493 21.503 16.1073C21.9514 11.3775 20.737 7.2782 18.2929 3.64359ZM7.21013 13.5973C6.14517 13.5973 5.26534 12.6144 5.26534 11.4051C5.26534 10.1959 6.11459 9.20433 7.20673 9.20433C8.29887 9.20433 9.1719 10.1959 9.15322 11.4051C9.13453 12.6144 8.29547 13.5973 7.21013 13.5973ZM14.3846 13.5973C13.3179 13.5973 12.4415 12.6144 12.4415 11.4051C12.4415 10.1959 13.2908 9.20433 14.3846 9.20433C15.4784 9.20433 16.3447 10.1959 16.326 11.4051C16.3073 12.6144 15.4699 13.5973 14.3846 13.5973Z" fill="#C0C1C3"/>
</svg>
