<svg width="98" height="29" viewBox="0 0 98 29" fill="none" xmlns="http://www.w3.org/2000/svg">
<g clip-path="url(#clip0_103_28824)">
<path d="M88.1906 8.3457H80.4685V26.1206H82.9825V10.8641H88.1906C91.8454 10.8641 94.8193 13.8431 94.8193 17.5047V26.1206H97.3333V17.5047C97.3333 12.454 93.232 8.3457 88.1906 8.3457Z" fill="#D7D7D7"/>
<path d="M25.3341 15.6865V26.1202H39.7079V23.617H27.833V18.1902H39.7079V15.6865H25.3341Z" fill="#D7D7D7"/>
<path d="M25.3341 8.3457H39.6852V10.8485H25.3341V8.3457Z" fill="#D7D7D7"/>
<path d="M54.7509 10.7306C53.9349 9.96779 53.0261 9.3777 52.0515 8.97632C51.0722 8.57284 50.1303 8.36816 49.2521 8.36816H44.3722V10.826H48.7545C49.7309 10.826 50.6212 11.0109 51.4003 11.377C52.1866 11.746 52.8637 12.2344 53.4142 12.8274C53.9655 13.4221 54.3998 14.1123 54.7039 14.8776C55.0077 15.6421 55.1617 16.4381 55.1617 17.2438C55.1617 18.1937 54.9834 19.0717 54.6314 19.8543C54.2777 20.641 53.7981 21.3219 53.2069 21.8792C52.6137 22.4386 51.9214 22.8808 51.149 23.1926C50.3791 23.5041 49.5735 23.6621 48.7545 23.6621H48.3534V26.1653H49.2521C50.2855 26.1653 51.3151 25.9363 52.3128 25.484C53.303 25.0348 54.1996 24.4085 54.9767 23.6217C55.7533 22.8366 56.3893 21.8931 56.8681 20.8171C57.3489 19.7357 57.5922 18.5488 57.5922 17.2897C57.5922 15.9052 57.3199 14.6418 56.7833 13.5331C56.2513 12.4366 55.5674 11.4939 54.7509 10.7306Z" fill="#D7D7D7"/>
<path d="M61.5328 8.3457H75.8839V10.8485H61.5328V8.3457Z" fill="#D7D7D7"/>
<path d="M61.5328 15.6865V26.1202H75.9062V23.617H64.0317V18.1902H75.9062V15.6865H61.5328Z" fill="#D7D7D7"/>
<path d="M-0.000276819 10.278L-0.000276419 20.5466L5.88561 26.1685L8.69928 22.8319L8.69928 28.6518H11.1631L11.1479 22.6339L14.4331 26.1685L19.8627 20.5161L19.8627 10.3389L9.90079 -0.00585938L-0.000276819 10.278ZM2.90464 10.8722L8.69928 4.85421V16.9206L2.90464 10.8722ZM11.1479 4.89992L16.9273 10.9026L11.1631 16.9206L11.1479 4.89992ZM11.8932 19.7544L17.414 14.0107L17.414 19.4649L14.4483 22.5272L11.8932 19.7544ZM2.44837 19.4344L2.44837 14.0107L8.01487 19.8001L5.68789 22.5272L2.44837 19.4344Z" fill="#ADEB2A"/>
</g>
<defs>
<clipPath id="clip0_103_28824">
<rect width="97.3387" height="29" fill="white"/>
</clipPath>
</defs>
</svg>
