<svg width="58" height="21" viewBox="0 0 58 21" fill="none" xmlns="http://www.w3.org/2000/svg">
<g clip-path="url(#clip0_106_29090)">
<path fill-rule="evenodd" clip-rule="evenodd" d="M7.43752 2.10254C3.32829 2.10254 0 5.38214 0 9.43127C0 12.6742 2.12899 15.4133 5.0854 16.3844C5.45728 16.4485 5.59673 16.2287 5.59673 16.0363C5.59673 15.8622 5.58744 15.2851 5.58744 14.6713C3.71876 15.0103 3.23532 14.2224 3.08657 13.8102C3.0029 13.5995 2.64032 12.9491 2.32423 12.775C2.06391 12.6376 1.69204 12.2986 2.31493 12.2895C2.90063 12.2803 3.31899 12.8208 3.45845 13.0407C4.12782 14.1491 5.19697 13.8377 5.62463 13.6453C5.6897 13.1689 5.88494 12.8483 6.09877 12.6651C4.44392 12.4818 2.71469 11.8497 2.71469 9.04651C2.71469 8.24951 3.0029 7.58992 3.47704 7.07691C3.40267 6.89369 3.14235 6.1425 3.55142 5.1348C3.55142 5.1348 4.17431 4.94242 5.59673 5.88599C6.19174 5.7211 6.82393 5.63865 7.45611 5.63865C8.0883 5.63865 8.72049 5.7211 9.31549 5.88599C10.7379 4.93326 11.3608 5.1348 11.3608 5.1348C11.7699 6.1425 11.5096 6.89369 11.4352 7.07691C11.9093 7.58992 12.1975 8.24035 12.1975 9.04651C12.1975 11.8589 10.459 12.4818 8.80416 12.6651C9.07378 12.8941 9.3062 13.3338 9.3062 14.0209C9.3062 15.0011 9.2969 15.7889 9.2969 16.0363C9.2969 16.2287 9.43635 16.4577 9.80823 16.3844C11.2847 15.8932 12.5677 14.9582 13.4766 13.7109C14.3856 12.4636 14.8746 10.9668 14.875 9.43127C14.875 5.38214 11.5468 2.10254 7.43752 2.10254Z" fill="#E0E0E0"/>
<path d="M34.6725 12.9687H34.6551C34.6629 12.9687 34.6681 12.9772 34.676 12.9781H34.6812L34.6725 12.9695V12.9687ZM34.676 12.9781C34.5953 12.9789 34.3922 13.0208 34.1779 13.0208C33.5011 13.0208 33.2668 12.713 33.2668 12.3111V9.63409H34.6465C34.7245 9.63409 34.7853 9.56569 34.7853 9.47163V8.0181C34.7853 7.94115 34.7159 7.87275 34.6465 7.87275H33.2668V6.06866C33.2668 6.00026 33.2234 5.95751 33.1453 5.95751H31.2711C31.193 5.95751 31.1496 6.00026 31.1496 6.06866V7.92405C31.1496 7.92405 30.2038 8.15491 30.143 8.16346C30.0736 8.18056 30.0302 8.24041 30.0302 8.30881V9.47163C30.0302 9.56569 30.0996 9.63409 30.1777 9.63409H31.1409V12.4385C31.1409 14.5248 32.616 14.7385 33.6226 14.7385C34.0824 14.7385 34.6378 14.5932 34.7245 14.5504C34.7766 14.5333 34.8026 14.4735 34.8026 14.4136V13.1311C34.8038 13.0947 34.7917 13.0592 34.7684 13.0309C34.7451 13.0026 34.7123 12.9836 34.676 12.9772V12.9781ZM55.2372 11.0962C55.2372 9.54858 54.6038 9.34338 53.9357 9.41178C53.415 9.44598 52.9985 9.70249 52.9985 9.70249V12.7122C52.9985 12.7122 53.4237 13.0029 54.0571 13.02C54.9509 13.0456 55.2372 12.7293 55.2372 11.0962ZM57.3458 10.9594C57.3458 13.8921 56.3826 14.73 54.6992 14.73C53.2762 14.73 52.5126 14.0203 52.5126 14.0203C52.5126 14.0203 52.4779 14.4136 52.4345 14.4649C52.4085 14.5162 52.3651 14.5333 52.313 14.5333H51.0288C50.9421 14.5333 50.864 14.4649 50.864 14.388L50.8813 4.88874C50.8813 4.81178 50.9507 4.74338 51.0288 4.74338H52.8771C52.9551 4.74338 53.0246 4.81178 53.0246 4.88874V8.11215C53.0246 8.11215 53.7361 7.659 54.7773 7.659L54.7687 7.64189C55.8099 7.64189 57.3458 8.02665 57.3458 10.9594ZM49.7793 7.87275H47.9571C47.8617 7.87275 47.8096 7.94115 47.8096 8.0352V12.6865C47.8096 12.6865 47.3324 13.02 46.6816 13.02C46.0308 13.02 45.8399 12.7293 45.8399 12.088V8.02665C45.8399 7.9497 45.7705 7.8813 45.6924 7.8813H43.8355C43.7574 7.8813 43.688 7.9497 43.688 8.02665V12.3958C43.688 14.2768 44.7553 14.7471 46.2217 14.7471C47.4278 14.7471 48.4083 14.0887 48.4083 14.0887C48.4083 14.0887 48.4517 14.4222 48.4778 14.4735C48.4951 14.5162 48.5559 14.5504 48.6166 14.5504H49.7793C49.8748 14.5504 49.9268 14.482 49.9268 14.4051L49.9442 8.0181C49.9442 7.94115 49.8748 7.87275 49.7793 7.87275ZM29.2146 7.8642H27.3664C27.2883 7.8642 27.2188 7.94115 27.2188 8.0352V14.311C27.2188 14.482 27.3316 14.5419 27.4792 14.5419H29.1452C29.3187 14.5419 29.3621 14.4649 29.3621 14.311V8.00955C29.3621 7.9326 29.2927 7.8642 29.2146 7.8642ZM28.3035 4.97424C27.6353 4.97424 27.106 5.4958 27.106 6.15416C27.106 6.81253 27.6353 7.33409 28.3035 7.33409C28.9543 7.33409 29.4836 6.81253 29.4836 6.15416C29.4836 5.4958 28.9543 4.97424 28.3035 4.97424ZM42.612 4.76048H40.7812C40.7031 4.76048 40.6337 4.82889 40.6337 4.90584V8.40286H37.7615V4.90584C37.7615 4.82889 37.6921 4.76048 37.614 4.76048H35.7658C35.6877 4.76048 35.6183 4.82889 35.6183 4.90584V14.4051C35.6183 14.482 35.6964 14.5504 35.7658 14.5504H37.614C37.6921 14.5504 37.7615 14.482 37.7615 14.4051V10.3438H40.6337L40.6163 14.4051C40.6163 14.482 40.6857 14.5504 40.7638 14.5504H42.612C42.6901 14.5504 42.7595 14.482 42.7595 14.4051V4.90584C42.7595 4.82889 42.6901 4.76048 42.612 4.76048ZM26.2383 8.96717V13.875C26.2383 13.9092 26.2297 13.969 26.1863 13.9861C26.1863 13.9861 25.1016 14.7471 23.3141 14.7471C21.1535 14.7471 18.5938 14.0802 18.5938 9.68539C18.5938 5.29059 20.8325 4.38428 23.0191 4.39283C24.9107 4.39283 25.6743 4.81178 25.7958 4.88874C25.8305 4.93149 25.8479 4.96569 25.8479 5.00844L25.4834 6.53037C25.4834 6.60732 25.4053 6.70138 25.3099 6.67572C24.9975 6.58167 24.5289 6.39357 23.427 6.39357C22.1514 6.39357 20.7804 6.75268 20.7804 9.58279C20.7804 12.4129 22.082 12.7464 23.0191 12.7464C23.8174 12.7464 24.1038 12.6523 24.1038 12.6523V10.6858H22.8282C22.7328 10.6858 22.6634 10.6174 22.6634 10.5404V8.96717C22.6634 8.89022 22.7328 8.82182 22.8282 8.82182H26.0735C26.1689 8.82182 26.2383 8.89022 26.2383 8.96717Z" fill="#E0E0E0"/>
</g>
<defs>
<clipPath id="clip0_106_29090">
<rect width="57.6056" height="20.1824" fill="white"/>
</clipPath>
</defs>
</svg>
