<svg width="19" height="20" viewBox="0 0 19 20" fill="none" xmlns="http://www.w3.org/2000/svg">
<path fill-rule="evenodd" clip-rule="evenodd" d="M9.62934 0.643555C4.54584 0.643555 0.423645 4.83526 0.423645 10.0064C0.423645 14.1432 3.06136 17.6529 6.71906 18.8909C7.17913 18.9776 7.34804 18.6878 7.34804 18.4405C7.34804 18.2173 7.3395 17.4797 7.33554 16.6973C4.7745 17.2637 4.2341 15.5926 4.2341 15.5926C3.81534 14.5104 3.21197 14.2226 3.21197 14.2226C2.37674 13.6415 3.27493 13.6534 3.27493 13.6534C4.19934 13.7193 4.68609 14.6183 4.68609 14.6183C5.50714 16.0497 6.83964 15.6359 7.36496 15.3966C7.44758 14.7916 7.68615 14.3783 7.94942 14.1446C5.90471 13.9079 3.75527 13.105 3.75527 9.51739C3.75527 8.49516 4.11489 7.65992 4.70377 7.00422C4.60819 6.76824 4.29309 5.8161 4.79295 4.52641C4.79295 4.52641 5.56598 4.27477 7.32517 5.48615C8.05949 5.2787 8.847 5.17466 9.62934 5.1711C10.4117 5.17466 11.1998 5.2787 11.9355 5.48615C13.6925 4.27477 14.4645 4.52641 14.4645 4.52641C14.9656 5.8161 14.6503 6.76824 14.5548 7.00422C15.145 7.65992 15.5022 8.49516 15.5022 9.51739C15.5022 13.1136 13.3486 13.9054 11.2987 14.1372C11.6289 14.4277 11.9231 14.9975 11.9231 15.8711C11.9231 17.1237 11.9125 18.132 11.9125 18.4405C11.9125 18.6897 12.0782 18.9816 12.5448 18.8897C16.2005 17.6503 18.8349 14.1418 18.8349 10.0064C18.8349 4.83526 14.7133 0.643555 9.62934 0.643555Z" fill="#C0C1C3"/>
<path fill-rule="evenodd" clip-rule="evenodd" d="M3.91031 14.0866C3.89003 14.1333 3.81808 14.1471 3.75253 14.1152C3.68576 14.0846 3.64826 14.0212 3.66991 13.9745C3.68972 13.9266 3.76183 13.9135 3.82845 13.9452C3.89537 13.9759 3.93348 14.04 3.91031 14.0866Z" fill="#C0C1C3"/>
<path fill-rule="evenodd" clip-rule="evenodd" d="M4.28318 14.5096C4.23928 14.551 4.15345 14.5318 4.09522 14.4664C4.03501 14.4011 4.02372 14.3138 4.06824 14.2718C4.11351 14.2304 4.19675 14.2498 4.25711 14.315C4.31733 14.3811 4.32907 14.4677 4.28318 14.5096Z" fill="#C0C1C3"/>
<path fill-rule="evenodd" clip-rule="evenodd" d="M4.64615 15.0489C4.58974 15.0887 4.49752 15.0513 4.4405 14.9681C4.3841 14.8848 4.3841 14.785 4.44172 14.745C4.49889 14.705 4.58974 14.7409 4.64752 14.8236C4.70377 14.9081 4.70377 15.0081 4.64615 15.0489Z" fill="#C0C1C3"/>
<path fill-rule="evenodd" clip-rule="evenodd" d="M5.14341 15.5698C5.09296 15.6264 4.98548 15.6112 4.90682 15.534C4.82633 15.4585 4.80393 15.3514 4.85454 15.2948C4.9056 15.238 5.01369 15.254 5.09296 15.3306C5.17284 15.4059 5.19723 15.5139 5.14341 15.5698Z" fill="#C0C1C3"/>
<path fill-rule="evenodd" clip-rule="evenodd" d="M5.82941 15.8723C5.80715 15.9457 5.70364 15.979 5.59937 15.9478C5.49525 15.9157 5.42711 15.8298 5.44815 15.7557C5.46979 15.6819 5.57376 15.6472 5.67879 15.6805C5.78276 15.7125 5.85105 15.7977 5.82941 15.8723Z" fill="#C0C1C3"/>
<path fill-rule="evenodd" clip-rule="evenodd" d="M6.58278 15.9285C6.58537 16.0057 6.49695 16.0697 6.3875 16.0709C6.27743 16.0736 6.18841 16.0111 6.18719 15.9351C6.18719 15.8571 6.27362 15.7937 6.38369 15.7919C6.49314 15.7897 6.58278 15.8517 6.58278 15.9285Z" fill="#C0C1C3"/>
<path fill-rule="evenodd" clip-rule="evenodd" d="M7.28386 15.807C7.29697 15.8824 7.2209 15.9598 7.11221 15.9802C7.00535 16.0002 6.90641 15.9537 6.89284 15.879C6.87958 15.8018 6.95702 15.7244 7.06373 15.7044C7.17258 15.6852 7.26999 15.7305 7.28386 15.807Z" fill="#C0C1C3"/>
</svg>
