<svg width="168" height="69" viewBox="0 0 168 69" fill="none" xmlns="http://www.w3.org/2000/svg">
<g style="mix-blend-mode:screen">
<path d="M77.4721 37.5757C76.2481 37.3883 75.3372 36.7841 74.6471 35.8158C74.5384 35.6635 74.3637 35.5421 74.1956 35.4504C72.942 34.7704 72.0521 33.8034 71.5571 32.434C71.1524 31.3147 70.6021 30.2481 70.142 29.1479C70.0332 28.888 69.9007 28.7198 69.6417 28.603C68.5739 28.1195 67.864 27.2699 67.4699 26.2007C66.9637 24.8281 66.5504 23.4205 66.0989 22.0274C66.0824 21.9772 66.0818 21.9218 66.0646 21.813C66.8206 21.5313 67.5753 21.2504 68.363 20.9568C68.2997 20.6903 68.423 20.3678 68.0829 20.1416C67.8845 20.0096 67.9207 19.6732 68.075 19.4846C68.1198 19.4298 68.1396 19.3329 68.1323 19.2597C68.0176 18.1133 67.9003 16.9675 67.7731 15.8231C67.7579 15.6866 67.7092 15.5388 67.6327 15.426C66.9393 14.403 66.4291 13.2928 66.0014 12.1306C65.2552 14.5487 65.7252 16.7677 67.0678 18.9061C66.5287 18.4417 65.9539 18.0117 65.4569 17.5051C64.3918 16.4214 63.6331 15.1411 63.3108 13.6457C62.9371 11.9129 63.3635 10.32 64.2758 8.83585C64.9889 7.6756 65.9836 6.77392 67.0144 5.91708C69.7623 3.63484 72.7897 1.83081 76.1756 0.658682C77.6106 0.161997 79.089 -0.103826 80.605 0.0379904C82.7366 0.237852 84.4622 1.14086 85.5273 3.08802C85.5425 3.11573 85.5682 3.13749 85.6064 3.18235C86.0994 2.30902 86.5121 1.43174 86.4363 0.404073C87.2259 1.78002 86.667 3.04581 86.0467 4.3426C87.3485 3.82019 88.5843 3.90594 89.7655 4.58995C90.2355 4.86171 90.6006 5.24296 90.8227 5.82408C89.9705 5.14798 89.0523 4.95274 87.9819 4.99759C88.0715 5.07279 88.0913 5.09851 88.1164 5.10906C90.0555 5.94281 91.1477 7.49487 91.7778 9.43676C92.4534 11.5185 92.4666 13.6174 91.9446 15.7327C91.7844 16.3811 91.6526 17.0374 91.5306 17.6937C91.5102 17.8026 91.5722 17.9747 91.6565 18.048C92.8351 19.071 93.568 21.1323 92.9689 22.7562C92.3532 24.4251 91.615 26.0338 90.6791 27.6017C90.2196 27.3583 89.7622 27.1156 89.289 26.8649C89.2158 27.7449 89.1459 28.6155 89.0701 29.4862C89.0359 29.88 88.9792 30.2718 88.9561 30.6656C88.937 30.9862 89.0385 31.3193 89.3351 31.4347C90.1287 31.7441 90.5598 32.3034 90.8662 33.0903C91.1121 33.7209 91.5801 34.2664 91.9604 34.8423C92.0771 35.0197 92.1601 35.1734 92.0158 35.3792C91.9835 35.4254 92.0164 35.5724 92.0678 35.614C94.0136 37.205 95.958 38.7979 97.9196 40.3691C98.4403 40.7867 99.019 41.131 99.5654 41.5162C100.806 42.3902 101.223 43.6012 100.96 45.0596C100.675 46.6413 99.9991 48.0846 99.2767 49.5008C98.0151 51.973 96.774 54.4696 95.138 56.7162C92.752 59.9932 89.544 62.0835 85.5438 62.8657C83.7866 63.2094 82.0063 63.1751 80.2306 62.9746C78.1622 62.7411 76.2125 62.1217 74.3611 61.1745C74.2312 61.1079 74.042 61.1237 73.8871 61.1461C72.0185 61.4179 70.1473 61.6732 68.2529 61.6263C66.0567 61.5723 63.9383 61.1738 62.0051 60.0644C61.6366 59.8533 61.284 59.5987 60.9669 59.3157C59.7871 58.2656 59.501 56.9893 60.1061 55.4682C60.7059 53.9597 61.6129 52.6293 62.7123 51.4598C64.1485 49.9328 65.6757 48.4915 67.1588 47.0087C68.0526 46.1156 68.9292 45.2054 69.8309 44.3202C70.1064 44.0504 70.2527 43.7569 70.2817 43.3763C70.3259 42.7892 70.6152 42.3605 71.1821 42.1593C71.7483 41.9588 72.3151 41.7556 72.8925 41.594C73.4969 41.4245 74.019 41.1428 74.4777 40.7082C75.0993 40.1191 75.7808 39.5914 76.3819 38.9826C76.7853 38.5737 77.0938 38.0704 77.4721 37.5737V37.5757ZM80.6056 52.5989C80.454 52.7078 80.3031 52.8173 80.1515 52.9261C79.4139 53.1669 79.1984 53.4505 79.1911 54.2216C79.3671 54.2513 79.5477 54.2842 79.729 54.3119C80.2609 54.3937 80.7513 54.3436 81.1013 53.8647L81.7565 53.4043C81.9311 53.3397 82.1005 53.2427 82.2805 53.2157C83.1347 53.0864 83.9916 52.9762 84.8471 52.8588C85.1114 52.8146 85.3929 52.8126 85.6348 52.7144C85.9109 52.6022 85.9004 52.3325 85.6499 52.1365C85.5557 52.093 85.4594 52.0086 85.3678 52.0125C84.4602 52.0554 83.5532 52.1029 82.6469 52.1708C81.9779 52.221 81.5574 52.7434 81.0334 53.0679C80.7908 53.2414 80.5489 53.4149 80.3064 53.5883C80.1304 53.6193 79.9544 53.651 79.7784 53.682C79.7666 53.6438 79.7547 53.6055 79.7428 53.5672C80.0408 53.3555 80.3393 53.1444 80.6373 52.9327C80.8785 52.7566 81.1197 52.5798 81.361 52.4037C81.7439 52.1352 82.0867 51.7916 82.5916 51.752C82.8862 51.7289 83.1802 51.6999 83.4748 51.6735C83.954 51.6306 84.4351 51.6003 84.9124 51.5376C85.122 51.5099 85.3355 51.4301 85.3316 51.1465C85.4252 50.9018 85.3777 50.7817 85.0798 50.7956C84.1952 50.8378 83.3094 50.8569 82.4242 50.8985C82.3068 50.9037 82.1631 50.9591 82.084 51.0416C81.7439 51.3965 81.4229 51.7698 81.0954 52.1365C80.9319 52.2902 80.7684 52.4439 80.6043 52.5976L80.6056 52.5989ZM77.7285 27.8557C77.9296 27.7805 78.184 27.7686 78.1906 27.4639C78.211 27.1855 78.2314 26.9072 78.2519 26.6288C78.3804 26.452 78.4806 26.5252 78.5788 26.6624C78.7924 26.9612 78.712 27.2838 78.6605 27.605C78.3132 27.9137 77.9652 28.2218 77.6178 28.5305C76.9883 28.8563 76.3463 29.1188 75.6141 28.9289C75.2891 28.7429 74.9635 28.5568 74.6385 28.3708C74.4118 28.1631 74.1844 27.9546 73.9386 27.7297C73.6591 27.9467 73.3249 28.2053 72.9914 28.4638C72.5491 28.6136 72.1075 28.7633 71.6652 28.913H70.7128C70.815 29.1782 70.8855 29.3833 70.9718 29.5812C71.3528 30.4552 71.805 31.3048 72.1055 32.2051C72.5432 33.5164 73.4218 34.3706 74.5997 34.9946C74.8014 35.1015 74.9899 35.2776 75.1197 35.4663C75.6266 36.2044 76.2969 36.703 77.165 36.9121C78.4529 37.2221 79.6677 37.0229 80.7941 36.3264C81.1857 36.0843 81.5495 35.7974 81.9456 35.5645C84.1781 34.2519 86.1278 32.5607 88.1375 30.9499C88.2291 30.876 88.2739 30.7434 88.3405 30.6386C88.4499 29.4935 88.5804 28.3497 88.6628 27.2027C88.7524 25.9573 88.7972 24.7087 88.8618 23.462L88.5006 20.5855C88.4558 20.5855 88.4103 20.5868 88.3655 20.5868C88.293 21.0808 88.2245 21.5749 88.1467 22.0683C87.9905 23.0643 87.8995 24.0788 87.363 24.9725C86.8324 25.929 86.0559 26.6413 85.1378 27.2126C84.7397 27.1829 84.451 27.386 84.1959 27.6585C84.1497 27.6815 84.1043 27.704 84.0581 27.7271C83.7773 27.7739 83.4966 27.8214 83.2151 27.8682C83.1683 27.7792 83.1208 27.6901 83.0741 27.6011C84.7344 27.3234 85.9768 26.4606 86.7645 24.9613C86.8719 24.7582 87.0123 24.5656 87.0809 24.3505C87.4098 23.3169 87.568 22.253 87.4717 21.1725C87.4203 20.5927 87.2925 19.9707 86.6307 19.7656C86.1034 19.602 85.5471 19.5116 84.9967 19.4523C84.5808 19.4074 84.1537 19.4641 83.7319 19.4753C83.4194 19.5222 83.1004 19.5453 82.7946 19.6211C81.9628 19.8282 81.1369 20.0584 80.3084 20.2794C80.1528 20.3025 79.9972 20.3256 79.8417 20.3487C79.3355 20.5842 78.824 20.8104 78.3237 21.0577C77.8927 21.2708 77.6204 21.6131 77.5908 22.1118C77.5697 22.4621 77.5598 22.8123 77.5446 23.1626C77.5229 23.2813 77.5183 23.4066 77.4741 23.5161C77.4187 23.654 77.3317 23.7793 77.2586 23.9099C77.2072 23.778 77.1564 23.6461 77.1037 23.5148C76.9059 23.0254 76.6904 22.8809 76.2119 22.9165C75.7334 22.9521 75.6464 23.0366 75.5093 23.621C75.477 23.7595 75.4578 23.9007 75.4328 24.0412C75.2364 24.958 75.04 25.8755 74.8429 26.7924C74.6339 27.7627 74.6682 27.8346 75.5666 28.264C75.6246 28.2917 75.6885 28.3082 75.7498 28.3299C76.059 28.5166 76.3773 28.4988 76.6917 28.3557C77.0404 28.1967 77.3825 28.0219 77.7272 27.8544L77.7285 27.8557ZM65.8036 53.5184C65.7621 53.5442 65.7206 53.5699 65.679 53.5956C65.3745 53.8179 65.2981 54.0441 65.5057 54.2315C65.741 54.4445 66.0172 54.6121 66.2881 54.8086C66.3316 54.5837 66.3639 54.4155 66.3962 54.2473C66.5306 54.0303 66.6658 53.8133 66.8002 53.5956C66.8589 53.4953 66.9169 53.3951 67.0006 53.2526C66.5412 53.2223 66.1358 53.1913 65.8036 53.5184ZM80.9161 54.3931C80.8996 54.4063 80.8666 54.4261 80.8686 54.432C80.8785 54.4571 80.8989 54.4973 80.9148 54.4973C81.8026 54.4834 82.7056 54.5679 83.5302 54.1154C83.8512 54.0191 84.1801 53.9426 84.4892 53.8172C84.6019 53.7717 84.6685 53.6114 84.7561 53.5033C84.6349 53.4399 84.5129 53.3766 84.3916 53.3133C84.099 53.3403 83.803 53.3502 83.5137 53.3971C82.8862 53.4993 82.2218 53.4861 81.6945 53.9333C81.4348 54.0864 81.1751 54.2394 80.9154 54.3924L80.9161 54.3931ZM68.1824 23.4469C68.452 22.9475 68.7209 22.4482 69.0353 21.8651C68.4843 22.1204 67.9873 22.3367 67.5068 22.5847C67.398 22.6408 67.346 22.8084 67.2682 22.9238C67.2537 23.1837 67.1878 23.4528 67.2352 23.7008C67.3453 24.2799 67.5094 24.8485 67.6518 25.4211C67.6927 25.5319 67.7329 25.6427 67.7737 25.7535C67.9893 26.3498 68.2292 26.9316 68.6985 27.3834C69.03 27.6769 69.3616 27.9711 69.6931 28.2646C69.9634 28.0872 69.7959 27.8478 69.7768 27.6341C69.761 27.4593 69.7188 27.2871 69.6878 27.1136C69.7267 27.1004 69.7663 27.0872 69.8052 27.074C69.8994 27.2594 69.993 27.4454 70.0886 27.6301C70.2422 27.9282 70.3964 28.2264 70.5506 28.5239C70.695 28.5667 70.8486 28.665 70.9817 28.6433C71.4411 28.5681 71.9216 28.5153 72.3435 28.3352C73.1819 27.977 73.729 27.2963 74.1106 26.4791C74.1323 26.4349 74.1541 26.3913 74.1758 26.3472C74.2134 26.268 74.2668 26.1928 74.2853 26.1097C74.4593 25.3188 74.6491 24.5306 74.7915 23.7338C74.9813 22.6738 74.4474 21.8269 73.435 21.5175C73.288 21.4726 73.1377 21.439 72.9894 21.4001C72.9505 21.3829 72.9123 21.3526 72.8721 21.35C71.7219 21.2662 70.6021 21.4317 69.5086 21.7846C69.4334 21.809 69.3471 21.8691 69.3121 21.937C68.9529 22.6355 68.6036 23.3387 68.2516 24.0412C68.2015 24.1507 68.1521 24.2602 68.102 24.3696C68.0354 24.3644 67.9682 24.3598 67.9016 24.3545C67.9952 24.0517 68.0888 23.7496 68.1824 23.4469ZM77.8564 42.2457V40.9931C77.6178 41.2147 77.4405 41.437 77.2869 41.6738C76.7688 42.4733 76.2007 43.245 75.912 44.1711C75.3675 45.9171 74.8198 47.6611 74.2787 49.4077C74.048 50.1531 73.8305 50.9024 73.607 51.6498C73.6314 51.659 73.6564 51.6682 73.6808 51.6775C74.1033 50.7283 74.5258 49.7798 74.949 48.8306C75.0347 48.6452 75.1144 48.4573 75.2074 48.2759C75.9627 46.8016 76.697 45.3155 77.4912 43.8624C77.778 43.338 77.9381 42.8308 77.8564 42.2451V42.2457ZM78.7726 48.6993C78.8879 48.4388 79.0033 48.1776 79.1186 47.917C79.8081 46.5556 80.5002 45.1955 81.1797 43.8288C81.2219 43.7437 81.1659 43.6091 81.1553 43.4976C81.1395 43.4159 81.127 43.3334 81.1066 43.2523C80.9938 42.8064 80.8792 42.3611 80.7651 41.9152C80.7216 41.7372 80.6781 41.5584 80.634 41.3803C80.5997 41.3803 80.5661 41.3796 80.5318 41.379C80.0045 42.1718 79.4667 42.9581 78.9578 43.7622C78.8471 43.937 78.8088 44.1731 78.7851 44.3861C78.6289 45.7931 78.4846 47.2007 78.3409 48.609C78.3046 48.9638 78.2822 49.32 78.2532 49.6762C78.2782 49.6795 78.3033 49.6828 78.3283 49.6854C78.4766 49.3563 78.6249 49.0278 78.7733 48.6987L78.7726 48.6993ZM81.3682 42.2431C81.4368 42.5109 81.5047 42.7787 81.564 43.0115C82.3279 41.8506 83.0938 40.6864 83.8597 39.5228C84.9176 38.3375 86.0118 37.1826 87.0209 35.9563C87.8 35.0105 88.4736 33.9769 89.1901 32.9795C89.3694 32.7295 89.4214 32.4683 89.2059 32.1999C89.1617 32.2197 89.1281 32.2262 89.1051 32.246C87.9997 33.1649 86.899 34.089 85.7897 35.0025C84.5881 35.9926 83.4043 37.0078 82.1631 37.9457C81.3808 38.5367 80.5068 39.0057 79.6664 39.5347C79.8397 39.722 80.0328 39.9298 80.2253 40.1376C80.7203 40.7774 81.1356 41.4601 81.3676 42.2431H81.3682ZM79.12 1.34072C79.172 1.30048 79.2208 1.22924 79.2755 1.22463C79.6795 1.19231 80.0843 1.1745 80.4883 1.15009C80.6003 1.1435 80.7117 1.1303 80.8238 1.11975L80.8317 1.01751C80.7164 0.995743 80.601 0.962103 80.485 0.954187C79.3724 0.882949 78.3033 1.14415 77.2421 1.42119C76.7365 1.55311 76.2521 1.76419 75.7577 1.93898C72.4206 3.15992 69.4506 4.99165 66.822 7.37284C65.5947 8.48428 64.6099 9.78239 64.1472 11.4064C64.0484 11.754 64.0622 12.1332 64.024 12.498C64.0477 12.7553 63.9614 13.0448 64.2679 13.2836C64.3179 13.1147 64.3733 12.9888 64.3918 12.8575C64.5645 11.6339 65.1049 10.6148 66.031 9.78899C66.7224 9.17226 67.5338 8.80353 68.4355 8.75604C69.3042 8.70987 70.1802 8.82002 71.0536 8.85234C71.4998 8.86884 71.9473 8.87411 72.3936 8.8662C72.47 8.86488 72.5445 8.77121 72.6203 8.71976C72.5583 8.64919 72.5036 8.57069 72.4331 8.51133C72.385 8.47043 72.3151 8.4546 72.2538 8.43085C71.2276 8.03179 70.1578 7.88206 69.063 7.87876C68.8949 7.87876 68.7268 7.87876 68.5225 7.87876C68.5733 7.80818 68.5818 7.7851 68.5983 7.77586C68.6458 7.74882 68.6952 7.72375 68.746 7.70397C69.79 7.28577 70.7029 6.67629 71.484 5.863C72.0238 5.30101 72.5755 4.74892 73.139 4.21068C73.3256 4.03258 73.551 3.8756 73.787 3.7727C74.135 3.62165 74.3729 3.81293 74.2899 4.17902C74.2207 4.48507 74.1 4.78783 73.9531 5.06619C73.4936 5.93687 72.7291 6.48171 71.888 6.93684C71.8023 6.98301 71.7193 7.0338 71.6356 7.08195C71.7068 7.13604 71.7509 7.14462 71.7911 7.13538C73.4917 6.72115 74.8547 5.76999 76.0352 4.50684C76.6172 3.88417 77.2197 3.27337 77.8656 2.7193C78.4668 2.20349 79.1845 1.98911 79.9854 2.23845C80.1416 2.28726 80.3057 2.32156 80.4685 2.33805C80.5522 2.34662 80.6419 2.30111 80.7289 2.28C80.6663 2.20547 80.6162 2.08476 80.5391 2.06365C80.1811 1.96339 79.8127 1.89875 79.4535 1.8031C79.3355 1.77144 79.2333 1.68437 79.1232 1.62237C79.2623 1.59928 79.4021 1.5762 79.5411 1.55311L79.5444 1.45219C79.4034 1.41525 79.2623 1.37766 79.1213 1.34072H79.12ZM74.9648 41.381C75.096 41.2108 75.2265 41.0413 75.3735 40.8513C75.3207 40.8592 75.2964 40.8553 75.2838 40.8658C75.2001 40.9364 75.1098 41.0024 75.0373 41.0835C74.4711 41.7226 73.754 42.0914 72.9367 42.3057C72.4608 42.4311 71.9987 42.6098 71.5288 42.7609C71.1735 42.875 70.9923 43.1289 70.9494 43.4858C70.898 43.9106 70.8374 44.3354 70.8196 44.7621C70.724 47.0846 70.6409 49.4077 70.5533 51.7309C70.6133 51.8582 70.6482 52.0732 70.7365 52.0983C71.4616 52.3048 71.5697 52.4129 71.8465 51.6405C71.8761 51.5581 71.9012 51.4736 71.9229 51.3886C72.2822 49.975 72.675 48.5687 72.9888 47.1446C73.2761 45.8406 73.4831 44.5181 73.7112 43.2008C73.75 42.9766 73.8595 42.9271 74.0592 42.8987C74.4138 42.8479 74.7684 42.7787 75.1111 42.6771C75.239 42.6395 75.3339 42.4904 75.444 42.3928C75.3458 42.3183 75.2548 42.2299 75.1474 42.1718C74.9009 42.0393 74.6972 41.9093 74.9516 41.6019C74.9899 41.5558 74.9615 41.4555 74.9642 41.3803L74.9648 41.381ZM67.3051 53.7803C67.1713 53.9597 67.0375 54.1385 66.9037 54.3179C66.8674 54.4181 66.8167 54.5158 66.7976 54.6187C66.7152 55.0639 67.0507 55.2539 67.3302 55.4841C69.2291 57.0473 71.1788 58.5381 73.2761 59.8329C75.0808 60.9469 77.0094 61.7213 79.0863 62.1415C80.4949 62.4265 81.9173 62.4502 83.345 62.4291C84.8649 62.4067 86.3288 62.0887 87.7486 61.569C89.0662 61.0868 90.2704 60.3909 91.3988 59.5585C93.1468 58.2689 94.5877 56.7116 95.5632 54.7559C95.6489 54.5837 95.6614 54.3265 95.6047 54.1398C95.2046 52.8318 94.5106 51.6775 93.684 50.5983C93.5917 50.4783 93.4902 50.3662 93.3927 50.2501C93.4164 50.227 93.4408 50.2046 93.4645 50.1815C93.5733 50.2639 93.6754 50.3569 93.7921 50.4262C93.9898 50.5443 94.1968 50.6472 94.3998 50.7566C94.4611 50.8186 94.5231 50.88 94.5831 50.9427C95.1077 51.4941 95.6087 52.0712 96.165 52.589C96.5512 52.9485 96.7437 52.8766 96.9744 52.4142C97.7469 50.9229 98.5589 49.4506 99.2774 47.9335C99.6887 47.0648 99.9872 46.1354 100.266 45.212C100.534 44.3235 100.093 43.5122 99.22 43.1711C98.1898 42.7694 97.1095 42.7938 96.0338 42.871C95.5342 42.9066 95.0398 43.0188 94.5429 43.0966C93.2859 43.3136 92.108 43.7457 91.0027 44.3842C89.0471 45.5147 87.6655 47.1743 86.6155 49.1393C86.344 49.6478 86.0777 50.1597 85.789 50.7085C85.9268 50.7256 86.0098 50.7362 86.0929 50.7468C87.1204 50.8965 88.1447 51.0581 89.0695 51.5765C88.9752 51.6082 88.8902 51.6029 88.8058 51.5924C87.9806 51.4914 87.156 51.3787 86.3288 51.2988C86.2042 51.287 86.0342 51.3958 85.9406 51.4994C85.8061 51.6484 85.9281 51.7658 86.0553 51.8773C86.3156 52.1049 86.3578 52.4024 86.2636 52.7196C86.1647 53.0514 85.9235 53.2315 85.5866 53.2506C85.3639 53.2632 85.2775 53.3258 85.3026 53.5659C85.3217 53.746 85.2689 53.934 85.2485 54.118C84.6981 54.2941 84.1511 54.4801 83.5961 54.6417C83.223 54.7506 82.842 54.8812 82.4591 54.901C81.6846 54.9412 80.9068 54.9128 80.0974 54.9128C80.2286 55.0843 80.365 55.2631 80.5021 55.4419C81.2364 56.5091 82.1249 57.4398 83.0635 58.3362C82.987 58.3428 82.9257 58.3309 82.8743 58.3013C81.8092 57.6759 80.7302 57.0665 80.0526 55.9596C80.0249 55.9761 79.9972 55.9926 79.9696 56.0091C80.11 56.5328 80.2504 57.0566 80.3914 57.5803C80.2266 57.4405 80.1172 57.2802 80.0249 57.11C79.7231 56.5533 79.4278 55.9933 79.1292 55.4346C79.1219 55.3251 79.1101 55.2156 79.1081 55.1061C79.1035 54.8673 79.0092 54.7427 78.7541 54.6807C75.4302 53.8766 72.1095 53.0587 68.7862 52.252C68.6866 52.2276 68.5192 52.2441 68.4652 52.3094C68.0671 52.7896 67.6894 53.2869 67.3058 53.779L67.3051 53.7803ZM83.6594 9.41235C82.9983 9.28241 82.3629 9.4084 81.7275 9.58649C80.1963 10.0152 78.7851 10.719 77.3897 11.4591C76.7431 11.8021 76.1176 12.1853 75.4822 12.5501C75.2766 12.6965 75.0683 12.6688 74.8356 12.6009C74.2582 12.4307 73.6769 12.2691 73.0889 12.1398C72.093 11.9202 71.0924 11.7249 70.0596 11.8318C69.6305 11.876 69.3207 12.0528 69.1203 12.4452C68.7262 13.2183 68.5509 14.0408 68.6095 14.897C68.7084 16.3422 68.8508 17.7841 68.9701 19.2273C68.9865 19.4279 69.0505 19.5255 69.2726 19.5723C70.5895 19.8533 71.8972 20.1759 73.2162 20.4463C74.0401 20.6158 74.8521 20.9753 75.7274 20.6778C75.9206 20.6125 76.142 20.6382 76.3444 20.594C76.8104 20.4911 77.2915 20.6185 77.7589 20.3843C79.6703 19.4272 81.5996 18.5051 83.5282 17.5823C83.6818 17.5084 83.8907 17.484 84.0581 17.517C84.855 17.674 85.5247 18.079 86.1047 18.6396C86.226 18.7438 86.3427 18.9299 86.4699 18.9371C87.0249 18.9701 87.5825 18.9516 88.2007 18.9516C88.1447 18.4853 88.1177 18.0823 88.0452 17.6878C87.8362 16.5454 87.1758 15.6424 86.4817 14.7539C86.3585 14.5962 86.2649 14.3693 86.2596 14.1714C86.2339 13.1761 86.0138 12.2315 85.555 11.3516C85.1206 10.5179 84.5459 9.80878 83.6587 9.41235H83.6594ZM62.3762 58.881C62.1461 58.9226 61.9161 58.9642 61.6511 59.0117C62.3386 59.5083 63.0603 59.9107 63.8625 60.1C64.9804 60.3632 66.1121 60.5736 67.2458 60.757C67.8034 60.8473 68.3815 60.7675 68.8587 60.4371C69.4618 60.0202 69.5969 59.108 69.0676 58.3962C68.4625 57.5823 67.779 56.8138 67.0461 56.1133C66.4884 55.5804 65.7885 55.1978 65.1761 54.7183C64.9995 54.5797 64.8584 54.3522 64.7833 54.1365C64.579 53.5514 64.8887 53.1312 65.2941 52.7506C66.1081 51.9868 66.969 51.2632 67.7124 50.4354C68.8593 49.1571 69.6411 47.6657 69.9172 45.9448C69.9344 45.8366 69.8856 45.7179 69.8678 45.6038C69.8935 45.5187 69.9185 45.4329 69.9442 45.3479C69.8098 45.3927 69.73 45.4633 69.6529 45.5378C68.4566 46.702 67.2761 47.8834 66.06 49.0272C64.3186 50.665 62.6345 52.3516 61.4415 54.4485C61.0862 55.0725 60.7995 55.7486 60.5794 56.4319C60.3797 57.0513 60.4271 57.7175 60.9973 58.1469C61.4079 58.4563 61.9121 58.6403 62.3748 58.8804L62.3762 58.881ZM86.5259 40.7247C86.5186 40.7583 86.5121 40.7926 86.5048 40.8262C86.8205 41.0175 87.1303 41.2207 87.4539 41.3968C87.6958 41.5287 87.7954 41.6455 87.564 41.8889C87.2621 42.2061 86.9807 42.5445 86.6999 42.8809C85.0593 44.8492 83.5704 46.9276 82.2027 49.0944C82.0135 49.3939 81.8316 49.6973 81.6464 49.9988C81.6688 50.0205 81.6905 50.0423 81.713 50.0641C81.8033 50.0166 81.8949 49.9697 81.9845 49.9203C83.2355 49.2356 84.5215 48.6597 85.9742 48.5628C86.0922 48.5549 86.2359 48.4474 86.309 48.3445C86.7348 47.7455 87.1132 47.111 87.564 46.5325C88.7907 44.9587 90.3304 43.78 92.1891 43.0445C94.0426 42.311 95.9883 41.9997 97.965 41.8447C98.0356 41.8394 98.1041 41.8104 98.1905 41.7879C98.1608 41.724 98.1522 41.6771 98.1245 41.6494C97.4437 40.9661 96.803 40.2339 96.0687 39.6139C94.7953 38.538 93.4665 37.5282 92.1555 36.4979C91.4548 35.9471 91.4252 35.9464 90.888 36.6582C90.068 37.7439 89.2725 38.8487 88.4479 39.9318C88.3194 40.1007 88.1098 40.2425 87.9087 40.3157C87.4579 40.4793 86.9879 40.5914 86.5259 40.7247ZM85.35 40.5822C85.5451 40.5017 85.6308 40.4562 85.7224 40.4305C86.3031 40.2649 86.8818 40.0914 87.4678 39.9457C87.8072 39.8612 88.0432 39.6864 88.2521 39.4015C89.0998 38.2425 89.838 36.9979 90.8755 35.984C91.1312 35.7341 91.153 35.424 91.091 35.0969C90.9994 34.6121 90.7199 34.2334 90.3831 33.8951C89.8551 33.3634 89.7517 33.4076 89.2857 33.9933C88.3306 35.1938 87.3406 36.3666 86.3532 37.5414C85.704 38.3131 85.0106 39.0486 84.3798 39.8342C83.0042 41.5472 81.9766 43.4805 80.9695 45.4198C80.3472 46.6183 79.7791 47.8451 79.2089 49.0694C78.7555 50.0423 78.2525 50.9974 78.1062 52.0877C78.0403 52.5805 77.9124 53.0653 77.7958 53.6332C77.9184 53.5435 77.9724 53.5118 78.0172 53.4703C79.4917 52.091 80.7559 50.5495 81.8145 48.8207C83.1736 46.5998 84.6777 44.4752 86.396 42.5109C86.6162 42.2596 86.8324 42.0043 87.0532 41.7477C86.4929 41.3638 85.9637 41.001 85.3513 40.5815L85.35 40.5822ZM78.1438 43.9178C78.0996 43.904 78.0555 43.8901 78.0113 43.8769C77.948 43.962 77.8735 44.0405 77.8228 44.1322C77.5446 44.6309 77.254 45.1229 77.0015 45.6348C76.3852 46.8854 75.7696 48.1367 75.1876 49.4031C74.7064 50.4499 74.2754 51.5198 73.8153 52.5772C73.723 52.7889 73.7586 52.8977 73.9952 52.9538C74.8923 53.1649 75.7874 53.3852 76.6818 53.6081C76.8842 53.6589 77.0094 53.591 77.0536 53.3977C77.2026 52.7539 77.6738 52.1544 77.3265 51.4407C77.3139 51.4143 77.3271 51.376 77.3278 51.343C77.3317 51.0165 77.3416 50.69 77.3383 50.3635C77.3258 49.1973 77.4214 48.0417 77.6389 46.8953C77.6877 46.6374 77.7681 46.3597 77.7186 46.1143C77.5993 45.522 77.7931 45.0141 78.0159 44.4943C78.0917 44.3169 78.1029 44.1111 78.1431 43.9185L78.1438 43.9178ZM91.1022 18.2881C90.1643 19.0017 89.5869 19.9034 89.5335 21.0934C89.463 22.6731 89.405 24.2536 89.3516 25.8333C89.3476 25.9494 89.3852 26.1163 89.4656 26.1783C89.7899 26.4289 90.1386 26.6486 90.5617 26.9355C91.2064 25.4653 91.8457 24.059 92.4416 22.6355C93.0862 21.0953 92.168 19.0347 91.1022 18.2874V18.2881ZM79.6031 38.8751C79.7435 38.8171 79.8516 38.7913 79.9386 38.7333C80.8165 38.1522 81.7327 37.6192 82.5566 36.9688C84.2183 35.6575 85.8305 34.2829 87.4599 32.9307C87.8395 32.6154 88.2133 32.2916 88.5698 31.9512C88.6311 31.8925 88.5949 31.7322 88.6041 31.6181C88.5039 31.6207 88.3952 31.6009 88.3049 31.6326C88.2166 31.6636 88.1454 31.7454 88.0676 31.8067C86.752 32.8324 85.4594 33.8898 84.1135 34.8733C83.1321 35.5909 82.0952 36.2373 81.0525 36.864C80.5984 37.137 80.0678 37.2835 79.5695 37.4807C79.4502 37.5282 79.3203 37.55 79.145 37.5974C79.3006 38.0315 79.4462 38.4371 79.6031 38.8751ZM72.6249 50.5825C74.1409 48.1941 74.8725 45.4989 75.7162 42.9515C75.3412 43.0597 74.9193 43.1969 74.4889 43.2978C74.2635 43.3506 74.1323 43.4462 74.1139 43.6804C74.104 43.8004 74.0974 43.9224 74.0724 44.0398C73.6472 46.0141 73.2201 47.9876 72.7904 49.9605C72.7449 50.1703 72.6803 50.3754 72.6249 50.5825ZM76.5467 41.6751C76.577 41.6916 76.6074 41.7088 76.6377 41.7253C76.7135 41.6164 76.7853 41.5043 76.8664 41.3988C77.4431 40.6455 77.8584 39.7366 78.8273 39.3612C78.8471 39.3533 78.8629 39.3355 78.8813 39.3243C79.0343 39.2333 79.0758 39.1284 79.0013 38.945C78.8497 38.571 78.739 38.1805 78.592 37.8039C78.5623 37.7287 78.4503 37.6469 78.3699 37.6403C78.2868 37.6337 78.1451 37.6937 78.1174 37.7617C77.5862 39.0631 77.0681 40.3698 76.5467 41.6751ZM78.5775 42.5537C78.6144 42.5412 78.6507 42.5287 78.6876 42.5162C78.7166 42.4601 78.77 42.4047 78.7706 42.3486C78.7818 41.6686 79.1213 41.1435 79.5418 40.6488C79.6024 40.5776 79.611 40.4199 79.58 40.323C79.5273 40.1587 79.4317 40.005 79.3361 39.8586C79.2933 39.792 79.2135 39.7174 79.1424 39.7075C78.8266 39.664 78.2644 40.1383 78.2684 40.4582C78.2763 41.0162 78.296 41.5755 78.3448 42.1309C78.358 42.278 78.4964 42.4133 78.5775 42.5544V42.5537ZM77.0424 39.2583C77.0213 39.2491 77.0009 39.2399 76.9798 39.2306C76.5342 39.9588 76.0834 40.6831 75.6457 41.4159C75.4038 41.8203 75.4506 41.9331 75.9093 42.0775C75.9739 42.098 76.1262 42.03 76.146 41.972C76.4538 41.0709 76.7464 40.1646 77.0424 39.259V39.2583ZM85.0205 6.49029C85.0778 6.51667 85.1061 6.5391 85.1358 6.54108C85.1898 6.54371 85.2452 6.53976 85.2979 6.52854C86.5846 6.25744 87.7763 6.44939 88.8506 7.24224C88.9304 7.30094 89.0405 7.31941 89.194 7.37878C88.6911 6.3577 85.6216 5.73833 85.0205 6.49029Z" fill="#080808"/>
<path d="M66.1969 18.9079C66.5844 19.1348 66.9727 19.3604 67.3589 19.5906C67.4024 19.6163 67.4472 19.6579 67.467 19.7027C67.6041 20.0147 67.7353 20.3293 67.8882 20.6901C67.8328 20.7152 67.7227 20.7693 67.6094 20.8168C67.0748 21.0404 66.5363 21.2568 66.0051 21.4876C65.7915 21.5806 65.6781 21.7554 65.7493 21.9949C66.2852 23.8022 66.6945 25.6537 67.5263 27.3608C67.9409 28.2123 68.575 28.8409 69.5129 29.1213C69.6072 29.1496 69.6975 29.2664 69.7449 29.3633C70.1529 30.2024 70.5543 31.044 70.9498 31.889C71.0704 32.1469 71.199 32.4068 71.2735 32.6799C71.6518 34.067 72.5284 35.0498 73.7491 35.747C74.0886 35.941 74.3746 36.1613 74.6119 36.4805C75.0476 37.0663 75.6303 37.4732 76.3283 37.7054C76.4311 37.7397 76.5313 37.7819 76.6941 37.8446C76.4476 38.1269 76.2426 38.4072 75.9935 38.6388C75.2849 39.2957 74.5869 39.9699 73.8263 40.5622C73.4697 40.8399 72.9852 40.9626 72.5469 41.1235C72.0334 41.3128 71.5015 41.4507 70.9894 41.6413C70.2683 41.9091 69.9163 42.4612 69.8135 43.2125C69.7845 43.4229 69.6909 43.6656 69.5452 43.8114C67.7814 45.5732 66.0024 47.3199 64.2267 49.0698C63.8985 49.393 63.5709 49.7162 63.2427 50.0395C62.8953 49.6318 62.486 49.2611 62.2111 48.8086C61.2607 47.2467 60.5475 45.5673 59.887 43.8642C59.3993 42.6063 58.9887 41.3385 59.1495 39.9593C59.1772 39.7199 59.1943 39.4785 59.2134 39.2384C59.3064 38.0577 59.3558 36.8717 59.5008 35.6969C59.773 33.4925 60.1955 31.3165 60.8415 29.1846C61.6884 26.3912 62.8412 23.7408 64.4667 21.3108C65.015 20.4903 65.6195 19.7073 66.1982 18.9072L66.1969 18.9079Z" fill="#383838"/>
<path d="M92.5735 15.3322C92.6908 14.5018 92.8081 13.6707 92.9294 12.8125C93.0092 12.8448 93.1087 12.8791 93.203 12.9246C99.2663 15.8381 103.424 20.4844 105.74 26.785C106.819 29.7229 107.248 32.7709 107.151 35.8995C106.972 41.6341 105.069 46.7329 101.528 51.2275C100.033 53.1265 98.3033 54.7913 96.3621 56.2332C96.2831 56.2919 96.2 56.3454 96.0669 56.3678C96.144 56.2511 96.2264 56.1383 96.2976 56.0182C97.8887 53.3263 99.4851 50.6358 100.702 47.7461C101.183 46.6036 101.615 45.4427 101.605 44.167C101.598 43.3161 101.298 42.5853 100.805 41.9158C100.892 40.9349 101.027 39.9554 101.058 38.9726C101.118 37.0967 101.062 35.2207 100.867 33.3514C100.803 32.7281 100.728 32.1067 100.658 31.4841C100.586 31.5216 100.561 31.5586 100.557 31.5982C100.463 32.6568 100.376 33.7168 100.278 34.7755C100.182 35.823 100.078 36.8704 99.9761 37.9172C99.8779 38.9317 99.7777 39.9468 99.6789 40.9613C99.3895 40.7542 99.1002 40.5471 98.8108 40.34C98.8411 40.2364 98.8873 40.1342 98.8985 40.0286C99.0745 38.3935 99.2511 36.7583 99.4165 35.1225C99.6189 33.1153 99.8186 31.1081 100.001 29.0989C100.045 28.6227 100.091 28.126 100.007 27.6616C99.5622 25.2039 98.8859 22.8049 98.0337 20.458C97.83 19.8967 97.6184 19.3083 97.2698 18.8367C96.8578 18.2793 96.3167 17.8077 95.7894 17.348C94.827 16.5083 93.7962 15.7643 92.5748 15.3322H92.5735Z" fill="#1F1F1F"/>
<path d="M92.5745 15.332C93.7959 15.7641 94.8267 16.5088 95.7891 17.3478C96.3164 17.8075 96.8575 18.2792 97.2695 18.8365C97.6181 19.3082 97.8297 19.8965 98.0334 20.4579C98.8856 22.8047 99.5619 25.2037 100.007 27.6614C100.091 28.1251 100.044 28.6218 100.001 29.0987C99.8183 31.1079 99.6186 33.1151 99.4162 35.1223C99.2514 36.7588 99.0741 38.3933 98.8981 40.0284C98.8869 40.134 98.8401 40.2362 98.8105 40.3398C98.4012 40.0291 97.9846 39.7277 97.5845 39.4058C95.9842 38.1195 94.3924 36.8234 92.7894 35.5411C92.5745 35.369 92.4361 35.2305 92.6384 34.958C92.68 34.902 92.6542 34.7384 92.6002 34.677C91.8719 33.8552 91.2701 32.9621 90.9497 31.8961C90.9181 31.7906 90.7836 31.6989 90.6762 31.6369C90.344 31.445 89.9953 31.2807 89.6684 31.0815C89.5774 31.0261 89.4773 30.8817 89.4845 30.7854C89.5629 29.7689 89.6618 28.7538 89.7607 27.6793C90.0876 27.8771 90.3915 28.0605 90.7171 28.2577C91.0433 27.6852 91.4032 27.1443 91.6735 26.5612C92.2739 25.2684 92.8803 23.9742 93.3905 22.6445C94.0635 20.8912 93.4755 19.3748 92.3122 18.0298C92.1329 17.8221 92.0749 17.6572 92.1388 17.3913C92.3029 16.7093 92.4321 16.0193 92.5751 15.3327L92.5745 15.332Z" fill="#383838"/>
<path d="M60.9328 26.8591C59.3107 30.5819 58.5421 34.4235 58.4077 38.4194C58.293 37.7657 58.1513 37.1147 58.0702 36.4564C57.9654 35.6088 57.916 34.7546 57.8283 33.9043C57.7518 33.1669 57.9311 32.4835 58.2607 31.8398C59.1004 30.2 59.9573 28.5694 60.8082 26.9356C60.8168 26.9197 60.8431 26.9131 60.9334 26.8584L60.9328 26.8591Z" fill="#373737"/>
<path d="M66.1967 18.9071C65.618 19.7072 65.0136 20.4908 64.4652 21.3107C62.8398 23.7407 61.687 26.391 60.84 29.1845C60.1934 31.3157 59.7709 33.4917 59.4993 35.6968C59.3543 36.8709 59.3055 38.0575 59.212 39.2382C59.1928 39.479 59.1764 39.7197 59.148 39.9592C58.9872 41.3384 59.3978 42.6062 59.8856 43.8641C60.546 45.5665 61.2585 47.2459 62.2097 48.8085C62.4845 49.2603 62.8938 49.631 63.2412 50.0393C62.6539 50.7167 62.0673 51.3942 61.48 52.0716C52.0255 41.6273 53.0748 25.0467 63.8186 16.21C64.4098 17.2884 65.2331 18.1604 66.1974 18.9071H66.1967ZM60.9336 26.858C60.8433 26.9128 60.8169 26.9194 60.8084 26.9352C59.9574 28.5691 59.1006 30.2003 58.2608 31.8394C57.9313 32.4832 57.752 33.1665 57.8284 33.904C57.9161 34.7535 57.9655 35.6084 58.0703 36.456C58.1521 37.1143 58.2931 37.7647 58.4078 38.419C58.5423 34.4231 59.3108 30.5815 60.9329 26.8587L60.9336 26.858Z" fill="#1F1F1F"/>
<path d="M99.6772 40.9616C99.7767 39.9472 99.8762 38.9327 99.9744 37.9175C100.076 36.8701 100.18 35.8233 100.276 34.7758C100.373 33.7172 100.462 32.6578 100.556 31.5985C100.559 31.5596 100.585 31.522 100.656 31.4844C100.727 32.107 100.801 32.7291 100.866 33.3517C101.06 35.2211 101.116 37.097 101.057 38.9729C101.026 39.9557 100.891 40.9353 100.803 41.9161C100.427 41.5982 100.052 41.2796 99.6765 40.9616H99.6772Z" fill="#373737"/>
<path d="M66.9162 17.8645C66.4463 17.2168 66.2709 16.4576 66.1483 15.6938C66.0488 15.0737 66.0402 14.4392 65.9915 13.8106C66.0336 13.8014 66.0765 13.7915 66.1187 13.7822C66.1721 13.8812 66.2228 13.9814 66.2795 14.0784C66.5965 14.6133 66.9782 15.1219 67.2135 15.6905C67.4033 16.1489 67.4185 16.6799 67.5114 17.1792C67.313 17.4074 67.1146 17.6363 66.9156 17.8645H66.9162Z" fill="#1E1E1E"/>
<path d="M66.9163 17.865C67.1147 17.6368 67.3131 17.4079 67.5121 17.1797C67.578 17.7516 67.6439 18.3234 67.7092 18.8953C67.6782 18.9145 67.6472 18.9336 67.6169 18.9521C67.3836 18.5899 67.1502 18.2271 66.9163 17.865Z" fill="#373737"/>
<path d="M85.2475 54.1176C85.268 53.9336 85.3201 53.7456 85.3016 53.5655C85.2765 53.3261 85.3629 53.2628 85.5857 53.2502C85.9232 53.2311 86.1637 53.0504 86.2626 52.7193C86.3569 52.402 86.3147 52.1038 86.0543 51.8769C85.9271 51.7655 85.8045 51.6481 85.9396 51.499C86.0332 51.3954 86.2033 51.2859 86.3279 51.2985C87.1551 51.3783 87.9796 51.4911 88.8049 51.592C88.8892 51.6025 88.9749 51.6072 89.0685 51.5762C88.1438 51.0577 87.1195 50.8961 86.0919 50.7464C86.5467 50.5465 86.9059 50.2431 87.1748 49.8183C87.5512 49.224 87.948 48.6429 88.3402 48.0591C89.8588 45.8 91.7881 44.0546 94.4213 43.1879C94.4668 43.1727 94.5017 43.1272 94.5419 43.0956C95.0389 43.0184 95.5332 42.9063 96.0328 42.87C97.1085 42.7928 98.1888 42.7684 99.2191 43.1701C100.092 43.5111 100.533 44.3224 100.265 45.2109C99.9863 46.1344 99.6884 47.0631 99.2764 47.9325C98.558 49.4496 97.7459 50.9218 96.9734 52.4132C96.5753 52.4119 96.2128 52.307 95.9188 52.026C95.6809 51.7984 95.4548 51.5583 95.2162 51.3314C94.9934 51.1197 94.7634 50.9165 94.5307 50.7167C94.5116 50.7002 94.4443 50.7418 94.3989 50.7556C94.1959 50.6461 93.9889 50.5432 93.7911 50.4251C93.6745 50.3559 93.5723 50.2629 93.4636 50.1804C93.4398 50.2035 93.4154 50.2259 93.3917 50.249C93.4893 50.3651 93.5914 50.4772 93.6831 50.5973C94.5096 51.6771 95.2037 52.8307 95.6037 54.1387C95.6604 54.3247 95.6479 54.5827 95.5622 54.7548C94.5861 56.7106 93.1459 58.2679 91.3979 59.5574C90.2694 60.3899 89.0645 61.0857 87.7476 61.5679C86.3279 62.0877 84.8639 62.4056 83.344 62.428C81.9163 62.4492 80.4939 62.4254 79.0854 62.1405C77.0085 61.7203 75.0799 60.9459 73.2752 59.8318C71.1778 58.537 69.2288 57.0463 67.3292 55.483C67.0497 55.2528 66.7142 55.0635 66.7966 54.6176C66.8157 54.5141 66.8665 54.4164 66.9027 54.3168C67.0438 54.3709 67.1974 54.4046 67.3233 54.4831C67.8539 54.8148 68.3765 55.1598 68.9025 55.4995C70.669 56.6387 72.4921 57.6663 74.4721 58.3972C77.6294 59.5627 80.8518 60.093 84.1949 59.3846C84.9826 59.2177 85.7544 58.9776 86.5335 58.7712C86.5269 58.7415 86.5203 58.7125 86.5137 58.6828C86.4307 58.6828 86.3463 58.6735 86.2652 58.6841C84.1488 58.9585 82.0389 58.8602 79.9337 58.5674C77.4488 58.2224 75.0621 57.5133 72.7742 56.4988C71.28 55.8366 69.822 55.0919 68.3574 54.3643C68.1234 54.2482 67.9409 54.0273 67.7346 53.8551C68.0523 53.4923 68.3825 53.1394 68.6824 52.7628C68.8221 52.5867 68.9553 52.5478 69.1609 52.6084C71.8126 53.3855 74.4682 54.15 77.1166 54.9369C77.8251 55.1473 78.4262 55.5523 78.8751 56.1525C79.0432 56.3768 79.1849 56.6208 79.3826 56.9236C79.289 56.3735 79.2093 55.9039 79.1295 55.4336C79.4275 55.9922 79.7234 56.5522 80.0253 57.109C80.1176 57.2791 80.227 57.4401 80.3918 57.5793C80.2514 57.0555 80.111 56.5318 79.9699 56.0081C79.9976 55.9916 80.0253 55.9751 80.053 55.9586C80.7306 57.0654 81.8089 57.6742 82.8747 58.3002C82.9254 58.3299 82.9874 58.3418 83.0639 58.3352C82.1259 57.4388 81.2368 56.5081 80.5025 55.4408C81.4668 55.2964 82.4502 55.2251 83.3895 54.983C84.0407 54.8155 84.6313 54.4138 85.2489 54.1163L85.2475 54.1176ZM92.1374 54.4118C92.5322 54.3241 92.8572 54.1565 93.1195 53.8828C93.2922 53.7021 93.2671 53.4824 93.101 53.3202C92.9224 53.146 92.7234 52.9699 92.4999 52.871C91.8395 52.5781 91.1672 52.309 90.4889 52.059C90.1317 51.9271 89.7527 51.8532 89.3836 51.7529C89.9082 52.0966 90.456 52.3789 90.9562 52.7292C91.535 53.1342 92.0761 53.5952 92.1374 54.4125V54.4118Z" fill="#121212"/>
<path d="M85.1358 27.2133C86.054 26.642 86.8305 25.9297 87.3611 24.9732C87.4237 24.9666 87.4856 24.9607 87.5483 24.9541C88.0947 24.999 88.127 25.053 88.0637 25.6084C87.9081 26.9718 87.7552 28.3353 87.6168 29.7006C87.5384 30.4737 87.5529 30.4757 88.3379 30.6386C88.2713 30.7435 88.2265 30.8761 88.1349 30.9499C86.1252 32.5614 84.1755 34.2519 81.943 35.5646C81.5469 35.7974 81.1831 36.0843 80.7915 36.3264C79.6644 37.023 78.4497 37.2222 77.1624 36.9122C76.2943 36.7031 75.624 36.2044 75.1171 35.4663C74.9873 35.2776 74.7988 35.1015 74.5971 34.9947C73.4186 34.3707 72.5406 33.5165 72.1029 32.2052C71.8024 31.3048 71.3502 30.4552 70.9692 29.5813C70.8829 29.3827 70.8124 29.1782 70.7102 28.9131C71.0609 28.9131 71.3621 28.9131 71.6626 28.9131C72.4589 28.9289 73.236 28.8339 73.9795 28.5305C74.1983 28.4771 74.4171 28.4243 74.6353 28.3709C74.9603 28.5569 75.2859 28.7429 75.6108 28.9289C75.974 29.3504 76.3365 29.7719 76.6911 30.1835C76.9798 29.6663 77.2975 29.0984 77.6146 28.5305C77.9619 28.2218 78.3099 27.9138 78.6573 27.6051C79.2268 27.7601 79.7963 27.9144 80.3658 28.0694C81.5706 28.394 82.7498 28.2884 83.9072 27.8498C83.9639 27.828 84.0068 27.7693 84.0562 27.7278C84.1023 27.7047 84.1478 27.6822 84.194 27.6592C84.5077 27.5107 84.8221 27.3617 85.1358 27.2133ZM74.6267 32.1405C75.1171 31.9789 75.5653 31.911 75.9279 31.696C76.8282 31.1623 77.7886 31.0641 78.7858 31.1881C79.3949 31.2639 80.0098 31.32 80.5701 31.0792C81.1488 30.8299 81.6168 30.8391 82.0432 31.322C82.0492 31.3286 82.0788 31.3141 82.1144 31.3048C81.7413 30.818 81.3076 30.419 80.7487 30.167C80.8291 30.2659 80.9089 30.3642 80.9998 30.4763C80.2946 30.7303 79.6203 30.855 78.8827 30.731C77.7767 30.5443 76.7003 30.6551 75.7222 31.2962C75.5034 31.4394 75.2199 31.4921 74.9596 31.5621C74.7599 31.6155 74.6346 31.5251 74.5819 31.3108C74.543 31.1524 74.4593 31.0054 74.396 30.8536C74.3796 30.8629 74.3637 30.8721 74.3473 30.8813V32.9756C74.3664 32.9796 74.3855 32.9842 74.4053 32.9881C74.487 32.6768 74.5687 32.3655 74.6281 32.1419L74.6267 32.1405Z" fill="#BEBEBE"/>
<path d="M86.1042 18.6385C85.5241 18.0772 84.8538 17.6728 84.0576 17.5158C83.8902 17.4828 83.6812 17.5079 83.5276 17.5811C81.599 18.5039 79.6698 19.4261 77.7583 20.3831C77.291 20.6173 76.8098 20.49 76.3438 20.5929C76.1415 20.6378 75.9193 20.6114 75.7269 20.6767C74.8522 20.9742 74.0402 20.6147 73.2156 20.4451C71.8967 20.1747 70.589 19.8522 69.272 19.5712C69.0506 19.5237 68.986 19.4267 68.9695 19.2262C68.8509 17.7823 68.7078 16.3404 68.609 14.8959C68.5503 14.0397 68.7256 13.2172 69.1198 12.4441C69.3202 12.0516 69.6299 11.8748 70.059 11.8307C71.0919 11.7238 72.0918 11.9197 73.0884 12.1387C73.6763 12.268 74.257 12.4302 74.8351 12.5998C75.0677 12.6684 75.276 12.6961 75.4817 12.549C75.6194 12.5173 75.7638 12.5028 75.8943 12.4513C77.2013 11.9362 78.5038 11.4085 79.8128 10.8986C80.6308 10.58 81.4573 10.2839 82.2806 9.97913C82.5225 9.88943 82.6886 9.91185 82.6859 10.2337C82.6846 10.4178 82.7215 10.6018 82.7413 10.7858V16.0383C82.8619 15.9446 82.914 15.9084 82.9608 15.8668C83.5079 15.3846 83.9165 15.3042 84.544 15.6782C85.126 16.0251 85.6665 16.4433 86.2123 16.8476C86.2993 16.9123 86.3724 17.0778 86.3579 17.1834C86.2913 17.6708 86.1918 18.1537 86.1035 18.6378L86.1042 18.6385ZM73.619 12.6519C73.5346 12.6321 73.4522 12.5965 73.3692 12.5965C72.5591 12.5932 71.7484 12.5925 70.9383 12.5978C70.5237 12.6004 70.2937 12.8438 70.1256 13.2046C69.3867 14.7857 69.4493 16.4169 69.7783 18.0725C69.831 18.337 69.9707 18.4703 70.2192 18.5343C70.8566 18.6978 71.49 18.8753 72.128 19.0369C72.4233 19.1121 72.4998 19.0428 72.4345 18.7434C72.2104 17.717 72.2091 16.6775 72.1788 15.634C72.1564 14.8622 72.3825 14.2072 72.8116 13.6057C73.0449 13.2785 73.3316 12.9883 73.6196 12.6525L73.619 12.6519Z" fill="#BEBEBE"/>
<path d="M86.526 40.7235C86.988 40.5903 87.458 40.4782 87.9088 40.3146C88.1105 40.2414 88.3195 40.1002 88.448 39.9307C89.2726 38.8476 90.0681 37.7428 90.8881 36.657C91.4253 35.9453 91.4549 35.946 92.1556 36.4968C93.4666 37.5271 94.7954 38.5369 96.0688 39.6127C96.8031 40.2334 97.4438 40.9649 98.1247 41.6483C98.1523 41.676 98.1609 41.7235 98.1906 41.7868C98.1036 41.8092 98.035 41.8383 97.9651 41.8435C95.9891 41.9986 94.0433 42.3099 92.1892 43.0434C90.3298 43.7788 88.7908 44.9576 87.5641 46.5314C87.1133 47.1099 86.7356 47.7451 86.3091 48.3433C86.236 48.4462 86.0916 48.5537 85.9743 48.5617C84.5216 48.658 83.235 49.2338 81.9846 49.9191C81.895 49.9686 81.804 50.0148 81.7131 50.0629C81.6906 50.0412 81.6689 50.0194 81.6465 49.9976C81.8317 49.6962 82.0143 49.3928 82.2028 49.0933C83.5705 46.9271 85.0594 44.8487 86.7 42.8798C86.9808 42.5427 87.2616 42.205 87.5641 41.8877C87.7955 41.6443 87.6959 41.5276 87.454 41.3957C87.1304 41.2189 86.8206 41.0164 86.5049 40.8251C86.5122 40.7908 86.5187 40.7572 86.526 40.7235Z" fill="#131313"/>
<path d="M85.3502 40.5815C85.9626 41.001 86.4925 41.3638 87.0521 41.7477C86.8313 42.0042 86.6151 42.2595 86.395 42.5108C84.6766 44.4751 83.1725 46.5997 81.8134 48.8206C80.7555 50.5495 79.4906 52.0916 78.0161 53.4702C77.9713 53.5118 77.9173 53.5434 77.7947 53.6332C77.9107 53.0652 78.0392 52.5804 78.1051 52.0877C78.2515 50.9974 78.7544 50.0422 79.2078 49.0693C79.778 47.8451 80.3462 46.6176 80.9684 45.4197C81.9755 43.4805 83.0031 41.5471 84.3787 39.8341C85.0095 39.0485 85.7035 38.3131 86.3521 37.5413C87.3395 36.3666 88.3295 35.1938 89.2846 33.9933C89.7506 33.4076 89.8541 33.3634 90.382 33.895C90.7188 34.2341 90.9976 34.612 91.0899 35.0968C91.1519 35.4247 91.1308 35.734 90.8744 35.984C89.8369 36.9978 89.0994 38.2425 88.2511 39.4014C88.0421 39.687 87.8062 39.8612 87.4667 39.9456C86.8807 40.0914 86.302 40.2649 85.7213 40.4304C85.6297 40.4568 85.544 40.5017 85.3489 40.5821L85.3502 40.5815Z" fill="#121212"/>
<path d="M69.8671 45.6045C69.8849 45.7186 69.9336 45.8373 69.9165 45.9455C69.6403 47.6664 68.8586 49.1585 67.7117 50.4361C66.9682 51.2646 66.1074 51.9875 65.2934 52.7514C64.888 53.1319 64.5782 53.5515 64.7826 54.1372C64.8577 54.3529 64.9988 54.5805 65.1754 54.719C65.7877 55.1992 66.4877 55.5811 67.0453 56.114C67.7783 56.8145 68.4618 57.583 69.0669 58.3969C69.5962 59.1087 69.461 60.0209 68.8579 60.4378C68.3801 60.7682 67.802 60.8481 67.2451 60.7577C66.1114 60.5737 64.979 60.3639 63.8618 60.1007C63.0596 59.9114 62.3379 59.5091 61.6504 59.0124C61.9154 58.9642 62.1454 58.9233 62.3754 58.8818C63.6864 59.1944 65.0047 59.1357 66.3276 58.9589C66.2689 58.9345 66.2089 58.9246 66.1483 58.918C65.3751 58.8329 64.5967 58.7808 63.8301 58.6549C63.1249 58.5388 62.44 58.3244 61.8547 57.8818C61.3736 57.5184 61.1231 57.0599 61.332 56.4491C61.5172 55.9102 61.6708 55.3509 61.9332 54.8502C63.0893 52.6419 64.7061 50.793 66.5655 49.1591C67.4158 48.4118 68.2937 47.7053 68.9555 46.7713C69.2402 46.369 69.5625 45.993 69.8684 45.6052L69.8671 45.6045Z" fill="#111111"/>
<path d="M77.2591 23.9102C77.3323 23.7796 77.42 23.6549 77.4747 23.5164C77.5182 23.4069 77.5228 23.2809 77.5445 23.1629C77.6322 23.4834 77.7192 23.804 77.8161 24.1602C78.0672 23.5751 78.2603 23.0145 78.5398 22.5006C78.9406 21.7652 79.4046 21.0646 79.8416 20.349C79.9971 20.3259 80.1527 20.3028 80.3083 20.2797C79.22 21.4683 78.5477 22.8832 78.0778 24.4062C78.0415 24.523 78.0152 24.6833 78.0666 24.7802C78.2867 25.1984 78.5372 25.6014 78.7461 25.957C79.2952 24.9438 79.8291 23.957 80.3636 22.9703C81.1612 23.8693 82.1143 24.3759 83.3554 24.1595C84.909 23.8891 86.0459 22.25 85.7342 20.7467C85.6828 20.4994 85.5615 20.3833 85.3268 20.3549C84.9795 20.3127 84.6328 20.2593 84.2841 20.2342C84.1912 20.2276 84.0923 20.3061 83.9954 20.345C83.9743 20.345 83.9532 20.3444 83.9321 20.3437C83.7706 20.3081 83.6105 20.2612 83.4477 20.2395C83.2796 20.2171 83.1089 20.2184 82.9388 20.2098C83.2539 19.9796 83.569 19.7494 83.9012 19.506C83.8352 19.4941 83.7832 19.4849 83.7311 19.4756C84.1529 19.4644 84.5801 19.4077 84.996 19.4526C85.5463 19.5113 86.1026 19.6023 86.6299 19.7659C87.2917 19.971 87.4196 20.5937 87.471 21.1728C87.5672 22.2533 87.409 23.3179 87.0801 24.3508C87.0116 24.5665 86.8712 24.7585 86.7637 24.9616C85.9662 25.0065 85.1627 25.0012 84.3737 25.1067C83.0107 25.2881 81.7254 25.7248 80.5851 26.5203C80.4051 26.6463 80.2667 26.8323 80.1092 26.9899C80.3109 27.1106 80.5014 27.259 80.7169 27.3468C81.4756 27.6555 82.2672 27.7082 83.0733 27.6014C83.1201 27.6904 83.1675 27.7795 83.2143 27.8685C83.0977 27.889 82.981 27.918 82.8637 27.9272C81.9798 27.9998 81.1249 27.8791 80.3043 27.5341C79.7348 27.139 79.1653 26.7439 78.5958 26.3488C77.9908 25.6232 77.4951 24.8383 77.2578 23.9102H77.2591Z" fill="#0E0E0E"/>
<path d="M79.122 1.62217C79.2314 1.68418 79.3342 1.7719 79.4522 1.80291C79.8114 1.89855 80.1799 1.96319 80.5378 2.06345C80.6156 2.08522 80.665 2.20527 80.7276 2.2798C80.6406 2.30091 80.5516 2.34576 80.4673 2.33785C80.3044 2.32136 80.141 2.28706 79.9841 2.23825C79.1833 1.98892 78.4648 2.20329 77.8644 2.7191C77.2184 3.27317 76.616 3.88397 76.034 4.50664C74.8535 5.76979 73.4904 6.72095 71.7899 7.13518C71.7503 7.14508 71.7061 7.1365 71.6343 7.08176C71.7187 7.03294 71.8017 6.98281 71.8867 6.93664C72.7278 6.48151 73.493 5.93667 73.9518 5.06599C74.0988 4.78764 74.2194 4.48488 74.2886 4.17882C74.3717 3.81207 74.1337 3.62079 73.7857 3.7725C73.5497 3.87474 73.3243 4.03172 73.1378 4.21048C72.5742 4.74872 72.0225 5.30081 71.4827 5.8628C70.7016 6.6761 69.7887 7.28558 68.7447 7.70377C68.6939 7.72422 68.6445 7.74862 68.597 7.77566C68.5806 7.7849 68.5727 7.80799 68.5212 7.87856C68.7256 7.87856 68.8937 7.87856 69.0617 7.87856C70.1565 7.8812 71.2263 8.03159 72.2526 8.43066C72.3139 8.4544 72.3837 8.47089 72.4318 8.51113C72.5024 8.57115 72.5577 8.64965 72.619 8.71957C72.5439 8.77101 72.4688 8.86468 72.3923 8.866C71.9461 8.87391 71.4985 8.8693 71.0523 8.85215C70.1789 8.81917 69.3023 8.70967 68.4342 8.75584C67.5326 8.80334 66.7212 9.17206 66.0297 9.78879C65.1043 10.6146 64.5638 11.6337 64.3905 12.8573C64.372 12.9886 64.3167 13.1145 64.2666 13.2834C63.9601 13.0446 64.0464 12.7551 64.0227 12.4978C64.0939 12.3817 64.1987 12.2742 64.231 12.1482C64.6515 10.5071 65.5572 9.14369 66.6757 7.9122C67.7263 6.75591 68.9444 5.81135 70.374 5.16032C70.5092 5.09897 70.6614 5.07457 70.8064 5.03367C70.8216 5.06269 70.8374 5.09172 70.8526 5.12074C70.7741 5.27245 70.695 5.42416 70.6166 5.57587C70.637 5.595 70.6575 5.61347 70.6779 5.63259C70.9613 5.43273 71.2817 5.26849 71.5229 5.02575C72.6546 3.88529 73.9814 3.04495 75.452 2.42887C76.6226 1.93813 77.836 1.60766 79.1213 1.62151L79.122 1.62217Z" fill="#1F1F1F"/>
<path d="M86.1049 18.6394C86.1925 18.1552 86.2927 17.6724 86.3593 17.1849C86.3738 17.0787 86.3006 16.9138 86.2136 16.8492C85.6679 16.4449 85.1274 16.0267 84.5454 15.6797C83.9172 15.3057 83.5086 15.3868 82.9622 15.8684C82.9154 15.9099 82.8633 15.9455 82.7427 16.0399C82.7427 14.2418 82.7427 12.5149 82.7427 10.7874C82.744 10.635 82.7453 10.4827 82.7453 10.3303C82.7453 9.65616 82.8343 9.55393 83.5033 9.45564C83.556 9.44773 83.6075 9.42728 83.6595 9.41211C84.5474 9.80787 85.1221 10.5176 85.5558 11.3514C86.0139 12.2313 86.2347 13.1758 86.2604 14.1712C86.2657 14.3691 86.3586 14.5953 86.4826 14.7536C87.1766 15.6421 87.8371 16.5451 88.046 17.6876C88.1179 18.082 88.1455 18.485 88.2016 18.9514C87.5833 18.9514 87.0257 18.9705 86.4707 18.9369C86.3435 18.9296 86.2268 18.7429 86.1055 18.6394H86.1049Z" fill="#797979"/>
<path d="M67.7351 53.8581C67.9414 54.0302 68.124 54.2512 68.358 54.3673C69.8226 55.0948 71.2806 55.8389 72.7748 56.5018C75.0626 57.5163 77.4493 58.2254 79.9343 58.5703C82.0395 58.8625 84.1494 58.9608 86.2658 58.6871C86.3476 58.6765 86.4313 58.6858 86.5143 58.6858C86.5209 58.7154 86.5275 58.7445 86.5341 58.7742C85.755 58.9806 84.9832 59.2207 84.1955 59.3876C80.8524 60.096 77.6299 59.5657 74.4727 58.4002C72.4934 57.6693 70.6696 56.6416 68.9031 55.5025C68.3771 55.1634 67.8551 54.8178 67.3238 54.486C67.198 54.4075 67.0444 54.3739 66.9033 54.3198C67.0371 54.1404 67.1709 53.9616 67.3047 53.7822C67.4478 53.808 67.5908 53.8337 67.7345 53.8594L67.7351 53.8581Z" fill="#6D6D6D"/>
<path d="M78.1424 43.9166C78.1015 44.1092 78.0909 44.315 78.0151 44.4924C77.7924 45.0122 77.5986 45.5194 77.7179 46.1124C77.7673 46.3578 77.6869 46.6355 77.6381 46.8934C77.4206 48.0398 77.325 49.1954 77.3376 50.3616C77.3409 50.6881 77.331 51.0146 77.327 51.3411C77.327 51.3741 77.3132 51.413 77.3257 51.4387C77.6731 52.1524 77.2011 52.752 77.0528 53.3958C77.008 53.5891 76.8834 53.657 76.6811 53.6062C75.7866 53.3833 74.8915 53.163 73.9945 52.9519C73.7578 52.8958 73.7223 52.7876 73.8145 52.5752C74.2746 51.5186 74.7057 50.4487 75.1868 49.4012C75.7695 48.1348 76.3845 46.8835 77.0007 45.6329C77.2532 45.1217 77.5439 44.6289 77.822 44.1303C77.8734 44.0386 77.9473 43.9594 78.0105 43.875C78.0547 43.8889 78.0989 43.9027 78.143 43.9159L78.1424 43.9166Z" fill="#0F0F0F"/>
<path d="M74.9646 41.3809C74.962 41.4561 74.9896 41.5563 74.9521 41.6025C74.6976 41.9099 74.9013 42.0398 75.1478 42.1724C75.2553 42.2298 75.3462 42.3188 75.4444 42.3934C75.3344 42.4916 75.2394 42.6401 75.1116 42.6777C74.7688 42.7786 74.4142 42.8485 74.0596 42.8993C73.8599 42.9276 73.7505 42.9771 73.7116 43.2014C73.4835 44.518 73.2766 45.8405 72.9892 47.1452C72.6754 48.5693 72.2826 49.9749 71.9234 51.3891C71.9016 51.4742 71.8766 51.5586 71.8469 51.6411C71.5701 52.4135 71.462 52.3053 70.7369 52.0989C70.648 52.0738 70.613 51.8588 70.5537 51.7314C70.5689 51.6906 70.5926 51.6516 70.5985 51.6094C70.9129 49.4518 71.2339 47.2949 71.5338 45.1354C71.6142 44.5549 71.8206 44.0773 72.2819 43.6928C73.1889 42.9375 74.0715 42.1539 74.9646 41.3822V41.3809Z" fill="#111111"/>
<path d="M80.2254 40.137C80.033 39.9292 79.8399 39.7214 79.6665 39.5341C80.5069 39.0051 81.3809 38.5361 82.1633 37.9451C83.4051 37.0071 84.5882 35.992 85.7898 35.0019C86.8991 34.0883 87.9998 33.1642 89.1052 32.2454C89.1289 32.2256 89.1625 32.219 89.206 32.1992C89.4222 32.4677 89.3702 32.7289 89.1902 32.9789C88.4738 33.9762 87.8001 35.0092 87.021 35.9557C86.0119 37.1812 84.9171 38.3362 83.8599 39.5222C83.7083 39.6376 83.5619 39.7623 83.4018 39.8639C83.3286 39.91 83.2264 39.9114 83.1375 39.9331C83.8625 39.0347 84.5869 38.137 85.3119 37.2386C85.0766 37.3719 84.8809 37.5434 84.6752 37.703C83.3227 38.7524 81.8864 39.6495 80.2261 40.137H80.2254Z" fill="#D5D5D5"/>
<path d="M91.101 18.2871C92.1668 19.0338 93.0856 21.0951 92.4404 22.6353C91.8439 24.0593 91.2052 25.465 90.5605 26.9352C90.1374 26.6477 89.7887 26.4287 89.4644 26.178C89.384 26.116 89.3464 25.9491 89.3504 25.833C89.4044 24.2526 89.4624 22.6722 89.5323 21.0931C89.585 19.9032 90.1631 19.0015 91.101 18.2878V18.2871ZM91.6488 22.1913V22.7606C91.6817 22.7639 91.7153 22.7672 91.7483 22.7698C92.066 22.3404 92.1807 21.8398 92.1556 21.3121C92.1352 20.8754 91.9836 20.4724 91.6303 20.1815C91.1617 19.7956 90.6541 19.9045 90.3799 20.4454C90.3305 20.5423 90.2903 20.6452 90.2587 20.7501C89.9324 21.8391 89.9818 22.9235 90.3839 23.9749C90.5797 24.4861 90.6205 24.9346 90.2896 25.3924C90.2257 25.4808 90.2237 25.6134 90.1927 25.7255C90.3127 25.7196 90.378 25.6919 90.4023 25.6431C90.6864 25.0646 91.0529 24.5072 91.219 23.8958C91.3818 23.2955 91.3396 22.6392 91.3871 22.0073C91.4741 22.0686 91.5611 22.13 91.6481 22.1913H91.6488Z" fill="#BEBEBE"/>
<path d="M80.3661 22.9712C79.8315 23.9579 79.2976 24.9447 78.7486 25.9579C78.5396 25.6017 78.2892 25.1993 78.069 24.7811C78.0183 24.6842 78.0446 24.5246 78.0802 24.4071C78.5502 22.8848 79.2225 21.4699 80.3107 20.2806C81.1392 20.0597 81.9651 19.8301 82.7969 19.6223C83.1021 19.5465 83.4211 19.5234 83.7342 19.4766C83.7863 19.4858 83.8377 19.495 83.9043 19.5069C83.5714 19.7503 83.2563 19.9805 82.9419 20.2107C82.8569 20.2793 82.7719 20.3472 82.6862 20.4158C82.0877 21.0286 81.4892 21.6414 80.8907 22.2542C80.7161 22.4936 80.5414 22.7324 80.3667 22.9718L80.3661 22.9712Z" fill="#BABABA"/>
<path d="M83.0744 27.6026C82.2683 27.7095 81.4761 27.6567 80.7181 27.348C80.5025 27.2603 80.3127 27.1119 80.1104 26.9912C80.2679 26.8329 80.4063 26.6469 80.5862 26.5215C81.7265 25.7261 83.0118 25.2901 84.3749 25.108C85.1639 25.0031 85.968 25.0077 86.7649 24.9629C85.9766 26.4622 84.7341 27.3243 83.0744 27.6026Z" fill="#181818"/>
<path d="M69.8668 45.6046C69.5616 45.9924 69.2393 46.3684 68.9539 46.7707C68.2921 47.7054 67.4142 48.4112 66.5639 49.1585C64.7051 50.7924 63.0883 52.6413 61.9315 54.8496C61.6692 55.3503 61.5156 55.9096 61.3304 56.4485C61.1208 57.0587 61.3719 57.5178 61.8531 57.8812C62.4384 58.3231 63.1239 58.5382 63.8285 58.6543C64.5951 58.7803 65.3735 58.8324 66.1467 58.9175C66.2073 58.924 66.2679 58.9339 66.3259 58.9583C65.0031 59.1358 63.6842 59.1938 62.3738 58.8812C61.9111 58.6411 61.4069 58.457 60.9962 58.1477C60.4261 57.7183 60.3786 57.0521 60.5784 56.4327C60.7985 55.7487 61.0859 55.0732 61.4405 54.4493C62.6335 52.3524 64.3176 50.6657 66.059 49.0279C67.2751 47.8842 68.4549 46.7028 69.6519 45.5386C69.7284 45.4641 69.8088 45.3928 69.9432 45.3486C69.9175 45.4337 69.8925 45.5195 69.8668 45.6046Z" fill="#696969"/>
<path d="M79.6026 38.875C79.4458 38.437 79.3001 38.0313 79.1445 37.5973C79.3199 37.5505 79.449 37.5281 79.569 37.4806C80.0673 37.2834 80.5979 37.1369 81.052 36.8638C82.0948 36.2372 83.1316 35.5908 84.113 34.8731C85.459 33.889 86.7515 32.8323 88.0671 31.8066C88.1449 31.7459 88.2161 31.6635 88.3044 31.6325C88.3947 31.6008 88.5028 31.6206 88.6037 31.618C88.5944 31.7314 88.6307 31.8924 88.5694 31.9511C88.2121 32.2914 87.8391 32.6153 87.4594 32.9306C85.8301 34.2834 84.2178 35.6574 82.5562 36.9687C81.7323 37.6191 80.8154 38.1521 79.9381 38.7332C79.8511 38.7906 79.743 38.8169 79.6026 38.875Z" fill="#363636"/>
<path d="M68.2512 24.0407C68.6032 23.3389 68.9525 22.6351 69.3118 21.9365C69.3467 21.8693 69.433 21.8086 69.5082 21.7842C70.6023 21.4319 71.7215 21.2657 72.8717 21.3495C72.9119 21.3521 72.9495 21.3825 72.989 21.3996C72.703 21.5962 72.4169 21.7927 72.1308 21.99C72.061 22.0559 71.9918 22.1212 71.9219 22.1872C71.6167 22.4913 71.3115 22.796 71.007 23.1001C70.7012 23.4794 70.396 23.8586 70.0902 24.2379C69.7402 24.856 69.3895 25.4747 69.0395 26.0927C68.8952 25.6726 68.7601 25.2491 68.6045 24.8335C68.503 24.5631 68.3705 24.3039 68.2519 24.0394L68.2512 24.0407Z" fill="#BABABA"/>
<path d="M79.1213 1.62282C77.836 1.60831 76.6232 1.93877 75.452 2.43018C73.9814 3.04691 72.6546 3.88726 71.5229 5.02706C71.2823 5.2698 70.962 5.43338 70.6779 5.6339C70.6575 5.61477 70.637 5.5963 70.6166 5.57718C70.695 5.42546 70.7741 5.27375 70.8526 5.12204C70.8374 5.09302 70.8216 5.064 70.8064 5.03498C70.6621 5.07653 70.5098 5.10028 70.374 5.16162C68.9444 5.81265 67.7257 6.75722 66.6757 7.91351C65.5572 9.145 64.6515 10.5078 64.231 12.1495C64.1987 12.2755 64.0939 12.383 64.0227 12.4991C64.0609 12.1343 64.0471 11.7551 64.146 11.4075C64.6087 9.7835 65.5941 8.48539 66.8207 7.37395C69.4493 4.99276 72.4193 3.16103 75.7565 1.94009C75.8942 1.91239 76.0353 1.89458 76.1697 1.855C77.1334 1.57401 78.1003 1.31148 79.118 1.34117C79.2591 1.3781 79.4001 1.4157 79.5412 1.45264L79.5379 1.55356C79.3988 1.57665 79.2591 1.59973 79.12 1.62282H79.1213Z" fill="#717171"/>
<path d="M72.1307 21.9907C72.4168 21.7942 72.7028 21.5976 72.9889 21.4004C73.1372 21.4393 73.2875 21.4729 73.4345 21.5178C74.4475 21.8272 74.9808 22.6734 74.7909 23.7341C74.6486 24.5309 74.4587 25.3191 74.2847 26.11C74.2663 26.1931 74.2129 26.269 74.1753 26.3475C73.9044 25.8989 74.0633 25.4807 74.3355 25.0474C74.2452 25.0685 74.2228 25.0685 74.207 25.0784C74.1213 25.1331 74.0402 25.1971 73.9492 25.2406C73.9341 25.2479 73.8425 25.1489 73.8484 25.1397C73.909 25.0467 73.9802 24.961 74.0527 24.8765C74.1503 24.7631 74.2907 24.6668 74.3388 24.5362C74.3704 24.4498 74.2715 24.3159 74.2307 24.2031C74.1305 24.2657 74.0066 24.3079 73.9354 24.3944C73.7858 24.5751 73.7027 24.8323 73.5228 24.961C73.2255 25.174 72.9434 25.4339 72.4992 25.3825C72.2105 25.3488 71.8895 25.4385 71.6074 25.5408C71.1947 25.6911 70.4473 25.3778 70.2997 24.9524C70.2779 24.8904 70.2133 24.7908 70.1804 24.7954C70.1065 24.8053 70.011 24.8534 69.9747 24.9154C69.8356 25.1522 69.7948 25.3838 69.945 25.6575C70.1513 26.0328 70.4783 26.4194 70.0881 26.8745C70.1046 27.0011 70.1046 27.1331 70.1408 27.2531C70.27 27.6786 70.4117 28.1 70.5495 28.5235C70.3952 28.2254 70.241 27.9279 70.0874 27.6297C69.9925 27.445 69.8982 27.259 69.804 27.0737C69.7651 27.0869 69.7256 27.1001 69.6867 27.1133C69.717 27.2867 69.7598 27.4589 69.7756 27.6337C69.7948 27.8481 69.9622 28.0875 69.6919 28.2643C69.6952 28.1897 69.7223 28.1066 69.6985 28.042C69.479 27.4483 69.251 26.8587 69.0249 26.267C69.0295 26.2089 69.0335 26.1509 69.0381 26.0928C69.3881 25.4748 69.7387 24.8561 70.0887 24.238C70.2878 24.4069 70.4704 24.6008 70.6879 24.74C71.9798 25.5645 73.6065 24.9306 74.0006 23.3469C74.0244 23.2506 73.9519 23.0751 73.8688 23.0204C73.7304 22.9287 73.5478 22.9043 73.3837 22.8509C73.3837 22.8284 73.3837 22.8067 73.3837 22.7843C73.6032 22.7064 73.8233 22.6286 74.0982 22.5316C73.8115 22.3384 73.5155 22.1392 73.2117 21.9347C73.2295 21.905 73.2677 21.841 73.3059 21.7764C73.2888 21.75 73.271 21.7236 73.2539 21.6979C73.0218 21.8008 72.7964 21.9241 72.5558 21.9987C72.4267 22.0389 72.2718 21.9954 72.1287 21.9901L72.1307 21.9907Z" fill="#0E0E0E"/>
<path d="M75.7501 28.3317C75.6888 28.31 75.6249 28.2942 75.5669 28.2658C74.6678 27.8357 74.6342 27.7645 74.8431 26.7942C75.0409 25.8773 75.2366 24.9598 75.4331 24.043C75.8608 24.0522 76.1792 24.2705 76.4297 24.5918C76.9484 25.2573 77.2621 26.0211 77.4704 26.8325C77.0216 27.2751 76.5727 27.7177 76.1133 28.1708C76.1904 28.1787 76.3024 28.1906 76.4138 28.2018C76.1924 28.2453 75.9709 28.2889 75.7494 28.3324L75.7501 28.3317Z" fill="#BEBEBE"/>
<path d="M94.5429 43.0967C94.5027 43.1283 94.4678 43.1739 94.4223 43.189C91.7891 44.0558 89.8598 45.8011 88.3412 48.0602C87.949 48.644 87.5522 49.2251 87.1759 49.8194C86.9069 50.2442 86.5477 50.5476 86.0929 50.7475C86.0099 50.7369 85.9268 50.7264 85.7891 50.7092C86.0778 50.1604 86.3434 49.6486 86.6156 49.14C87.6663 47.1744 89.0471 45.5155 91.0028 44.3849C92.1075 43.7464 93.2853 43.3137 94.5429 43.0973V43.0967Z" fill="#696969"/>
<path d="M74.9646 41.3799C74.0715 42.1517 73.1889 42.9353 72.2819 43.6905C71.8199 44.0751 71.6142 44.5527 71.5338 45.1331C71.2339 47.2927 70.9129 49.4496 70.5985 51.6072C70.5926 51.6494 70.5689 51.689 70.5537 51.7292C70.6414 49.4061 70.7244 47.0829 70.82 44.7604C70.8378 44.3337 70.8984 43.9089 70.9498 43.4841C70.9927 43.1272 71.1739 42.8733 71.5292 42.7592C71.9985 42.6081 72.4606 42.4294 72.9371 42.304C73.7538 42.089 74.4709 41.721 75.0377 41.0818C75.1103 41 75.1999 40.9347 75.2843 40.8641C75.2968 40.8536 75.3212 40.8575 75.3739 40.8496C75.2276 41.0396 75.0964 41.2098 74.9652 41.3793L74.9646 41.3799Z" fill="#6E6E6E"/>
<path d="M70.5507 28.5245C70.4136 28.1017 70.2719 27.6795 70.1421 27.2541C70.1052 27.1333 70.1058 27.0021 70.0894 26.8754C70.8849 26.7244 71.6752 26.5298 72.4774 26.4381C73.0132 26.3768 73.5656 26.4605 74.1107 26.4797C73.7297 27.2969 73.1826 27.9776 72.3436 28.3358C71.9217 28.5159 71.4412 28.5687 70.9818 28.6439C70.848 28.6656 70.6951 28.5673 70.5507 28.5245Z" fill="#131313"/>
<path d="M72.6248 50.5812C72.6801 50.3741 72.7447 50.1683 72.7902 49.9592C73.2199 47.9863 73.6471 46.0121 74.0722 44.0386C74.0972 43.9211 74.1045 43.7998 74.1137 43.6791C74.1322 43.4449 74.2633 43.3493 74.4888 43.2965C74.9192 43.1956 75.3404 43.0584 75.7161 42.9502C74.873 45.4976 74.1407 48.1934 72.6248 50.5812Z" fill="#111111"/>
<path d="M67.7337 53.8571C67.5907 53.8314 67.4476 53.8056 67.304 53.7799C67.6882 53.2878 68.0652 52.7905 68.4634 52.3103C68.5174 52.245 68.6848 52.2285 68.7844 52.2529C72.1077 53.0596 75.4284 53.8775 78.7523 54.6816C79.0074 54.7436 79.1017 54.8683 79.1063 55.107C79.1083 55.2165 79.1201 55.326 79.1274 55.4355C79.2071 55.9058 79.2869 56.3755 79.3805 56.9256C79.1821 56.6228 79.0404 56.3788 78.8729 56.1545C78.4241 55.5543 77.823 55.1493 77.1144 54.9388C74.4654 54.1526 71.8104 53.3874 69.1587 52.6104C68.9531 52.5504 68.8206 52.5893 68.6802 52.7648C68.3803 53.1414 68.0501 53.4943 67.7324 53.8571H67.7337Z" fill="#676767"/>
<path d="M80.2258 40.1366C81.8862 39.6498 83.3224 38.7527 84.6749 37.7026C84.8806 37.543 85.077 37.3715 85.3116 37.2383C84.5866 38.1367 83.8622 39.0344 83.1372 39.9328C82.6626 40.5766 82.19 41.2223 81.7108 41.8635C81.6093 41.9993 81.4828 42.1167 81.3681 42.2427C81.1367 41.4598 80.7215 40.7764 80.2258 40.1373V40.1366Z" fill="white"/>
<path d="M88.3404 30.6394C87.5554 30.4765 87.5409 30.4745 87.6193 29.7015C87.7577 28.3361 87.91 26.9727 88.0662 25.6093C88.1295 25.0539 88.0972 24.9998 87.5508 24.9549C87.7696 24.697 87.9851 24.4358 88.2086 24.1819C88.4221 23.9385 88.6436 23.7023 88.8618 23.4629C88.7972 24.7102 88.7524 25.9589 88.6627 27.2035C88.5803 28.3506 88.4498 29.4944 88.3404 30.6394Z" fill="#7F7F7F"/>
<path d="M74.1105 26.4798C73.5654 26.4606 73.013 26.3769 72.4771 26.4382C71.675 26.5305 70.8847 26.7251 70.0891 26.8755C70.4793 26.4204 70.1524 26.0339 69.9461 25.6585C69.7958 25.3848 69.8367 25.1533 69.9758 24.9165C70.012 24.8545 70.1069 24.8063 70.1814 24.7964C70.2144 24.7918 70.2796 24.8914 70.3007 24.9534C70.4484 25.3795 71.1958 25.6922 71.6084 25.5418C71.8899 25.4389 72.2115 25.3498 72.5002 25.3835C72.9445 25.4349 73.2266 25.1744 73.5238 24.962C73.7038 24.8334 73.7868 24.5761 73.9365 24.3954C74.0076 24.309 74.1316 24.2668 74.2317 24.2041C74.2719 24.3169 74.3708 24.4508 74.3398 24.5372C74.2917 24.6678 74.152 24.7641 74.0538 24.8776C73.9813 24.962 73.9101 25.0477 73.8494 25.1407C73.8435 25.15 73.9351 25.2489 73.9503 25.2417C74.0413 25.1975 74.1223 25.1341 74.208 25.0794C74.2238 25.0695 74.2462 25.0695 74.3365 25.0484C74.0643 25.4818 73.9055 25.9006 74.1764 26.3485C74.1546 26.3927 74.1329 26.4362 74.1111 26.4804L74.1105 26.4798ZM71.4522 26.2232C71.8404 26.1941 72.1482 26.1711 72.5391 26.1414C72.1028 25.7496 71.787 25.7707 71.4522 26.2232Z" fill="#0E0E0E"/>
<path d="M80.7634 41.916C80.8774 42.3619 80.9921 42.8071 81.1048 43.253C81.1252 43.3335 81.1371 43.4166 81.1536 43.4984C81.058 43.629 80.9394 43.7491 80.8708 43.8922C80.2888 45.1072 79.7134 46.3255 79.1465 47.5478C79.0978 47.6526 79.1254 47.7931 79.1175 47.9171C79.0022 48.1777 78.8868 48.4389 78.7715 48.6994C78.8064 48.1698 78.8394 47.6394 78.8809 47.1098C78.8842 47.0676 78.9475 47.03 78.9831 46.9904C79.0714 46.4871 79.1848 45.9871 79.2428 45.4805C79.3337 44.6844 79.3957 43.8909 79.9942 43.2656C80.1893 43.0618 80.3573 42.8256 80.5023 42.5835C80.5834 42.449 80.592 42.2709 80.6329 42.1126C80.6764 42.0473 80.7199 41.9813 80.7634 41.916Z" fill="white"/>
<path d="M77.4719 26.8323C77.2636 26.021 76.9499 25.2572 76.4312 24.5916C76.1807 24.2704 75.8623 24.0521 75.4346 24.0429C75.4596 23.903 75.4781 23.7612 75.511 23.6227C75.6481 23.0383 75.7351 22.9538 76.2137 22.9182C76.6922 22.8826 76.9077 23.0271 77.1055 23.5165C77.1582 23.6477 77.2089 23.7797 77.2604 23.9116C77.497 24.839 77.9926 25.6246 78.5977 26.3502C78.4171 26.3528 78.2359 26.3548 78.0553 26.3574C77.9564 26.399 77.8391 26.4207 77.7619 26.488C77.6499 26.5856 77.5668 26.7162 77.4719 26.8323Z" fill="#7D7D7D"/>
<path d="M77.8571 42.2458C77.9388 42.8316 77.7787 43.3388 77.492 43.8632C76.6971 45.3163 75.9634 46.8024 75.2081 48.2766C75.1151 48.458 75.0354 48.646 74.9497 48.8314C74.9629 48.6942 74.9543 48.5497 74.9932 48.4198C75.243 47.5906 75.5027 46.7655 75.7591 45.939C75.8118 45.8572 75.883 45.782 75.9134 45.693C76.0814 45.2048 76.2284 44.7088 76.4051 44.224C76.5052 43.9489 76.6305 43.6805 76.7748 43.4259C77.0391 42.9595 77.3265 42.5057 77.604 42.0473C77.6515 41.9549 77.6989 41.8626 77.7622 41.7393C77.7991 41.9358 77.8281 42.0908 77.8571 42.2465V42.2458Z" fill="#FEFEFE"/>
<path d="M75.7588 45.9383C75.5024 46.7647 75.2421 47.5906 74.9929 48.419C74.954 48.549 74.9626 48.6928 74.9494 48.8306L73.6812 51.6775C73.6569 51.6683 73.6318 51.659 73.6074 51.6498C73.8309 50.9025 74.0484 50.1532 74.2791 49.4078C74.8202 47.6612 75.3679 45.9165 75.9124 44.1712C76.2011 43.2451 76.7693 42.4727 77.2873 41.6739C77.4409 41.4364 77.6182 41.2148 77.8568 40.9932V42.2458C77.8278 42.0908 77.7988 41.9351 77.7619 41.7385C77.6986 41.8619 77.6512 41.9542 77.6037 42.0466C77.435 42.2273 77.2537 42.3975 77.1008 42.5907C76.3237 43.5729 76.0093 44.743 75.7588 45.9383Z" fill="#CDCDCD"/>
<path d="M83.6594 9.41217C83.6073 9.42668 83.5559 9.44779 83.5032 9.45571C82.8341 9.55399 82.7452 9.65623 82.7452 10.3303C82.7452 10.4827 82.7432 10.6351 82.7425 10.7875C82.7228 10.6034 82.6858 10.4194 82.6872 10.2354C82.6898 9.91348 82.523 9.89105 82.2818 9.98076C81.4586 10.2855 80.632 10.5817 79.814 10.9003C78.505 11.4108 77.2026 11.9385 75.8955 12.453C75.7657 12.5044 75.6207 12.5189 75.4829 12.5506C76.1183 12.1858 76.7432 11.8026 77.3904 11.4596C78.7851 10.7195 80.197 10.0157 81.7281 9.58697C82.3642 9.40887 82.9989 9.28289 83.66 9.41283L83.6594 9.41217Z" fill="#7E7E7E"/>
<path d="M78.985 46.9905C78.9495 47.0301 78.8862 47.0677 78.8829 47.1099C78.8414 47.6396 78.8084 48.1692 78.7735 48.6996C78.6252 49.0287 78.4769 49.3572 78.3286 49.6863C78.3035 49.683 78.2785 49.6797 78.2534 49.6771C78.2824 49.3216 78.3048 48.9654 78.3411 48.6099C78.4854 47.2016 78.6298 45.794 78.7853 44.387C78.8091 44.174 78.8473 43.9378 78.958 43.763C79.4675 42.959 80.0047 42.1727 80.532 41.3799C80.5663 41.3799 80.5999 41.3805 80.6342 41.3812C80.6777 41.5593 80.7212 41.738 80.7653 41.9161C80.7218 41.9814 80.6783 42.0474 80.6348 42.1127C80.3442 42.4498 80.0469 42.7809 79.7655 43.1252C79.5025 43.4464 79.2388 43.7696 79.2059 44.2149C79.1366 45.1403 79.0589 46.0651 78.985 46.9905Z" fill="#CBCBCB"/>
<path d="M76.5476 41.6759C77.0683 40.3705 77.587 39.0638 78.1183 37.7624C78.146 37.6951 78.2877 37.6351 78.3708 37.641C78.4505 37.647 78.5632 37.7288 78.5929 37.8046C78.7399 38.1806 78.8506 38.5717 79.0022 38.9457C79.0767 39.1291 79.0352 39.234 78.8822 39.325C78.8631 39.3362 78.848 39.354 78.8282 39.3619C77.8593 39.7373 77.444 40.6462 76.8673 41.3995C76.7869 41.505 76.715 41.6172 76.6386 41.726C76.6082 41.7095 76.5779 41.6923 76.5476 41.6759Z" fill="#FEFEFE"/>
<path d="M79.842 20.3503C79.405 21.0659 78.941 21.7664 78.5402 22.5019C78.2607 23.0157 78.0676 23.5764 77.8165 24.1615C77.7196 23.8053 77.6319 23.4847 77.5449 23.1642C77.5601 22.8139 77.57 22.463 77.5911 22.1127C77.6207 21.6147 77.8929 21.2724 78.324 21.0587C78.8243 20.8113 79.3358 20.5851 79.842 20.3496V20.3503Z" fill="#B6B6B6"/>
<path d="M81.0349 53.0692C81.5589 52.744 81.9801 52.2216 82.6485 52.1722C83.5541 52.1042 84.4617 52.0567 85.3693 52.0139C85.4616 52.0092 85.5572 52.0943 85.6514 52.1379C85.5381 52.2797 85.4254 52.4215 85.312 52.5633C85.0984 52.5745 84.8822 52.5692 84.6713 52.5996C83.6365 52.75 82.6023 52.9109 81.5681 53.0673C81.3902 53.0673 81.2122 53.0686 81.0349 53.0692Z" fill="#C1C1C1"/>
<path d="M69.0394 26.0944C69.0348 26.1524 69.0309 26.2105 69.0263 26.2685C68.9169 26.6405 68.8081 27.0119 68.6987 27.3839C68.2294 26.9321 67.9895 26.3503 67.7739 25.754C67.8833 25.2923 67.9928 24.8312 68.1022 24.3695C68.1523 24.26 68.2017 24.1505 68.2518 24.041C68.3704 24.3055 68.5023 24.5641 68.6038 24.8352C68.76 25.2507 68.8951 25.6742 69.0388 26.0944H69.0394Z" fill="#C3C3C3"/>
<path d="M88.8607 23.4628C88.6426 23.7022 88.4211 23.9384 88.2075 24.1818C87.9841 24.4357 87.7686 24.6969 87.5497 24.9548C87.4871 24.9614 87.4252 24.9674 87.3625 24.974C87.8984 24.0802 87.99 23.0657 88.1463 22.0697C88.2234 21.577 88.2919 21.0823 88.3651 20.5882C88.4099 20.5882 88.4554 20.5869 88.5002 20.5869C88.6208 21.546 88.7408 22.5044 88.8614 23.4635L88.8607 23.4628Z" fill="#333333"/>
<path d="M78.5775 42.5538C78.4964 42.4126 78.358 42.2774 78.3448 42.1303C78.296 41.5749 78.2762 41.0156 78.2683 40.4575C78.2637 40.1376 78.826 39.6634 79.1423 39.7069C79.2135 39.7168 79.2933 39.792 79.3361 39.858C79.431 40.0044 79.5266 40.1581 79.58 40.3223C79.611 40.4193 79.6024 40.5776 79.5418 40.6482C79.1206 41.1435 78.7811 41.6679 78.7706 42.348C78.7699 42.404 78.7165 42.4601 78.6875 42.5155C78.6506 42.528 78.6144 42.5406 78.5775 42.5531V42.5538Z" fill="#0F0F0F"/>
<path d="M81.0954 52.1381C81.423 51.7713 81.744 51.398 82.0841 51.0431C82.1632 50.9607 82.3069 50.9059 82.4242 50.9C83.3087 50.8584 84.1946 50.8393 85.0798 50.7971C85.3784 50.7826 85.4252 50.9033 85.3316 51.148C85.236 51.1697 85.1418 51.2008 85.0449 51.2106C84.3396 51.2812 83.6337 51.3439 82.9291 51.4164C82.4064 51.4705 81.8791 51.5207 81.4909 51.9454C81.359 52.0101 81.2266 52.0741 81.0947 52.1387L81.0954 52.1381Z" fill="#BBBBBB"/>
<path d="M81.3667 42.2433C81.4814 42.1174 81.6079 42 81.7094 41.8641C82.1886 41.2236 82.6612 40.5778 83.1358 39.9334C83.2248 39.9116 83.3269 39.9103 83.4001 39.8641C83.5603 39.7626 83.7066 39.6379 83.8582 39.5225C83.0923 40.6867 82.3264 41.8509 81.5625 43.0111C81.5031 42.7776 81.4346 42.5098 81.3667 42.2427V42.2433Z" fill="#DADADA"/>
<path d="M85.2502 54.1182C84.6326 54.4156 84.042 54.8174 83.3908 54.9849C82.4515 55.227 81.4681 55.2982 80.5038 55.4427C80.3667 55.2639 80.2303 55.0845 80.0991 54.9137C80.9085 54.9137 81.6863 54.942 82.4608 54.9018C82.8437 54.882 83.224 54.7514 83.5978 54.6426C84.1521 54.4809 84.6998 54.2943 85.2502 54.1188V54.1182Z" fill="#6B6B6B"/>
<path d="M81.1013 53.8644C80.7513 54.3439 80.2609 54.3934 79.729 54.3116C79.5477 54.2839 79.3671 54.2509 79.1912 54.2213C79.1991 53.4502 79.4139 53.1665 80.1522 52.9258C80.3143 52.9284 80.4765 52.9311 80.6386 52.9337L79.7442 53.5682C79.756 53.6065 79.7679 53.6448 79.7798 53.683C79.9557 53.652 80.1317 53.6203 80.3077 53.5893C80.3308 53.5946 80.3532 53.6006 80.3763 53.6058C80.6182 53.6922 80.8601 53.7787 81.1026 53.8644H81.1013Z" fill="#303030"/>
<path d="M77.4708 26.8323C77.5664 26.7156 77.6488 26.585 77.7609 26.488C77.838 26.4207 77.9546 26.3996 78.0542 26.3574C78.1194 26.4478 78.1853 26.5388 78.2506 26.6292C78.2302 26.9075 78.2097 27.1859 78.1893 27.4642C77.9883 27.5507 77.7879 27.6364 77.5868 27.7228C77.196 27.8824 76.8051 28.0421 76.4136 28.2017C76.3015 28.1905 76.1902 28.1786 76.113 28.1707C76.5724 27.7175 77.0213 27.2749 77.4702 26.8323H77.4708Z" fill="#FDFDFD"/>
<path d="M78.2504 26.6286C78.1851 26.5383 78.1192 26.4472 78.054 26.3569C78.2346 26.3542 78.4158 26.3522 78.5964 26.3496C79.1659 26.7447 79.7354 27.1398 80.3049 27.5349C80.326 27.713 80.3471 27.8911 80.3675 28.0692C79.798 27.9142 79.2285 27.7599 78.659 27.6048C78.7104 27.2836 78.7915 26.9611 78.5773 26.6623C78.4791 26.5251 78.3789 26.4518 78.2504 26.6286Z" fill="#2B2B2B"/>
<path d="M81.6968 53.9325C82.2234 53.4853 82.8878 53.4985 83.516 53.3963C83.8053 53.3488 84.1013 53.3389 84.3939 53.3125C84.3399 53.389 84.303 53.4959 84.2298 53.5374C83.9404 53.6997 83.6399 53.8408 83.3433 53.9906C82.8839 54.1007 82.4238 54.2109 81.9644 54.3204L81.6974 53.9332L81.6968 53.9325Z" fill="#B8B8B8"/>
<path d="M77.0421 39.2579C76.7462 40.1628 76.4535 41.0691 76.1457 41.9708C76.126 42.0289 75.9737 42.0968 75.9091 42.0764C75.4504 41.9319 75.4036 41.8198 75.6455 41.4148C76.0831 40.6826 76.5346 39.9577 76.9795 39.2295C77.0006 39.2387 77.021 39.248 77.0421 39.2572V39.2579Z" fill="#111111"/>
<path d="M81.4918 51.9449C81.88 51.5201 82.4067 51.47 82.93 51.4159C83.6346 51.3434 84.3406 51.2807 85.0458 51.2101C85.1427 51.2002 85.237 51.1686 85.3326 51.1475C85.3358 51.4311 85.1223 51.5116 84.9133 51.5386C84.4368 51.6013 83.9556 51.631 83.4758 51.6745C83.1812 51.7009 82.8872 51.7299 82.5926 51.753C82.0877 51.7926 81.7449 52.1362 81.362 52.4047C81.2961 52.3829 81.2295 52.3611 81.1636 52.3387C81.273 52.2075 81.3831 52.0755 81.4925 51.9443L81.4918 51.9449Z" fill="#787878"/>
<path d="M67.6515 25.4201C67.5091 24.8476 67.345 24.279 67.2349 23.6999C67.1881 23.4519 67.2534 23.1821 67.2679 22.9229C67.5724 23.097 67.8769 23.2718 68.1821 23.4459C68.0885 23.7487 67.9949 24.0508 67.9013 24.3535C67.8182 24.7091 67.7352 25.0646 67.6515 25.4201Z" fill="#C3C3C3"/>
<path d="M68.1828 23.447C67.8782 23.2728 67.5737 23.098 67.2686 22.9239C67.3463 22.8078 67.3984 22.6409 67.5072 22.5849C67.9877 22.3369 68.4846 22.1212 69.0357 21.8652C68.7213 22.4483 68.4517 22.9477 68.1828 23.447Z" fill="#B5B5B5"/>
<path d="M77.6153 28.5303C77.2983 29.0982 76.9806 29.6661 76.6919 30.1833C76.3373 29.7717 75.9748 29.3502 75.6116 28.9287C76.3432 29.1186 76.9859 28.8561 77.6153 28.5303Z" fill="#313131"/>
<path d="M80.3668 28.0685C80.3457 27.8904 80.3246 27.7123 80.3042 27.5342C81.1242 27.8798 81.9797 27.9999 82.8636 27.9273C82.9816 27.9174 83.0976 27.8884 83.2142 27.8686C83.495 27.8218 83.7765 27.7743 84.0573 27.7274C84.0078 27.769 83.965 27.8277 83.9083 27.8495C82.7509 28.2881 81.5724 28.3936 80.3668 28.0691V28.0685Z" fill="#636363"/>
<path d="M85.021 6.49078C85.6221 5.73948 88.6917 6.3582 89.1946 7.37927C89.041 7.31991 88.9309 7.30144 88.8512 7.24273C87.7768 6.44988 86.5851 6.25794 85.2985 6.52904C85.2458 6.54025 85.1897 6.54421 85.1363 6.54157C85.1067 6.54025 85.0777 6.51716 85.021 6.49078Z" fill="#191919"/>
<path d="M81.5664 53.0674C82.6005 52.9104 83.634 52.7501 84.6695 52.5998C84.8805 52.5688 85.0966 52.5747 85.3102 52.5635C85.1553 52.6624 85.0011 52.7614 84.8462 52.8596C83.99 52.9771 83.1331 53.0872 82.2795 53.2165C82.0996 53.2435 81.9295 53.3405 81.7555 53.4051C81.6231 53.3999 81.4899 53.3946 81.3574 53.3886C81.4682 53.3332 81.5789 53.2772 81.7166 53.2079C81.6534 53.1486 81.6099 53.1083 81.567 53.0674H81.5664Z" fill="#828282"/>
<path d="M68.6985 27.383C68.8079 27.011 68.9167 26.6396 69.0261 26.2676C69.2515 26.8586 69.4802 27.4489 69.6997 28.0426C69.7234 28.1072 69.6971 28.1903 69.6931 28.2649C69.3616 27.9713 69.03 27.6772 68.6985 27.3836V27.383Z" fill="#1D1D1D"/>
<path d="M79.1192 47.9168C79.1271 47.7928 79.0995 47.6523 79.1482 47.5474C79.7151 46.3251 80.2912 45.1068 80.8725 43.8918C80.9411 43.748 81.0597 43.6286 81.1553 43.498C81.1658 43.6095 81.2219 43.7441 81.1797 43.8292C80.5001 45.1952 79.808 46.5553 79.1186 47.9174L79.1192 47.9168Z" fill="#DEDEDE"/>
<path d="M79.1186 1.34013C78.1009 1.31044 77.134 1.57297 76.1704 1.85396C76.0359 1.89354 75.8948 1.91135 75.7571 1.93905C76.2514 1.76359 76.7359 1.55252 77.2414 1.42126C78.3026 1.14422 79.3711 0.883017 80.4843 0.954254C80.601 0.96151 80.7157 0.99581 80.831 1.01758L80.8231 1.11982C80.7117 1.13037 80.5997 1.14356 80.4876 1.15016C80.0829 1.17456 79.6782 1.19237 79.2748 1.22469C79.2201 1.22931 79.1707 1.30055 79.1193 1.34079L79.1186 1.34013Z" fill="#202020"/>
<path d="M94.4004 50.7566C94.4452 50.7421 94.5131 50.7012 94.5322 50.7177C94.7655 50.9176 94.9956 51.1207 95.2177 51.3325C95.4563 51.5594 95.6824 51.7988 95.9203 52.027C96.2143 52.3087 96.5762 52.4129 96.9749 52.4142C96.7442 52.8766 96.5518 52.9485 96.1655 52.589C95.6092 52.0712 95.1083 51.4941 94.5836 50.9426C94.5236 50.8793 94.4617 50.8186 94.4004 50.7566Z" fill="#656565"/>
<path d="M74.6367 28.3703C74.4179 28.4237 74.1991 28.4765 73.9809 28.5299C73.6507 28.5075 73.3205 28.4851 72.9902 28.4627C73.3238 28.2041 73.6579 27.9455 73.9374 27.7285C74.1833 27.9541 74.41 28.1619 74.6374 28.3697L74.6367 28.3703Z" fill="#313131"/>
<path d="M66.3966 54.2484C66.3643 54.4166 66.332 54.5848 66.2885 54.8097C66.0182 54.6131 65.7421 54.4456 65.5061 54.2325C65.2985 54.0446 65.3749 53.819 65.6795 53.5967C65.9187 53.8137 66.1573 54.0314 66.3966 54.2484Z" fill="#757575"/>
<path d="M83.3411 53.9906C83.6377 53.8415 83.9382 53.6997 84.2276 53.5374C84.3014 53.4959 84.3383 53.389 84.3917 53.3125C84.513 53.3758 84.6349 53.4391 84.7562 53.5025C84.6685 53.6106 84.602 53.7703 84.4893 53.8164C84.1801 53.9418 83.8512 54.0183 83.5302 54.1146C83.467 54.073 83.4043 54.0321 83.3411 53.9906Z" fill="#2A2A2A"/>
<path d="M72.989 28.4629C73.3192 28.4853 73.6495 28.5077 73.9797 28.5302C73.2362 28.8336 72.4591 28.9286 71.6628 28.9127C72.1051 28.763 72.5467 28.6133 72.989 28.4636V28.4629Z" fill="#787878"/>
<path d="M83.3397 53.9902C83.4029 54.0318 83.4656 54.0727 83.5288 54.1142C82.7049 54.5667 81.8019 54.4823 80.9134 54.4962C80.8976 54.4962 80.8772 54.4559 80.8673 54.4309C80.8653 54.4249 80.8976 54.4058 80.9147 54.3919C81.2634 54.3682 81.6121 54.3438 81.9608 54.32C82.4202 54.2099 82.8802 54.0997 83.3397 53.9902Z" fill="#454545"/>
<path d="M66.3956 54.2474C66.1563 54.0304 65.9177 53.8127 65.6785 53.5957C65.72 53.57 65.7615 53.5443 65.803 53.5186C66.1352 53.5443 66.4674 53.57 66.7996 53.5964C66.6652 53.8134 66.5301 54.0304 66.3956 54.2481V54.2474Z" fill="#C1C1C1"/>
<path d="M76.4133 28.2006C76.8041 28.0409 77.195 27.8813 77.5865 27.7217C77.6333 27.7659 77.6801 27.8107 77.7269 27.8549C77.3822 28.0225 77.0401 28.1973 76.6914 28.3562C76.377 28.4994 76.0586 28.5178 75.7495 28.3305C75.971 28.287 76.1924 28.2434 76.4139 28.1999L76.4133 28.2006Z" fill="#ABABAB"/>
<path d="M81.5688 53.0664C81.6123 53.1073 81.6551 53.1475 81.7184 53.2069C81.5806 53.2762 81.4699 53.3316 81.3592 53.3876C81.0316 53.4602 80.704 53.5327 80.3764 53.6053C80.3533 53.6 80.3309 53.5941 80.3079 53.5888C80.5504 53.4153 80.7923 53.2419 81.0349 53.0684C81.2128 53.0684 81.3908 53.0671 81.5681 53.0664H81.5688Z" fill="#A2A2A2"/>
<path d="M66.7998 53.5958C66.4676 53.5701 66.1354 53.5444 65.8032 53.518C66.1354 53.1908 66.5408 53.2218 67.0002 53.2522C66.9171 53.3947 66.8585 53.4949 66.7998 53.5952V53.5958Z" fill="#8B8B8B"/>
<path d="M80.3757 53.6063C80.7032 53.5338 81.0308 53.4612 81.3584 53.3887C81.4909 53.3939 81.624 53.3992 81.7565 53.4052C81.5384 53.5589 81.3195 53.7119 81.1014 53.8656C80.8595 53.7792 80.6176 53.6934 80.375 53.607L80.3757 53.6063Z" fill="#404040"/>
<path d="M84.8494 52.8583C85.0043 52.7594 85.1592 52.6604 85.3134 52.5622C85.4268 52.4204 85.5395 52.2785 85.6528 52.1367C85.9033 52.3326 85.9139 52.6024 85.6377 52.7145C85.3951 52.8128 85.1137 52.8148 84.85 52.859L84.8494 52.8583Z" fill="#2E2E2E"/>
<path d="M67.6528 25.4201C67.7359 25.0646 67.8189 24.709 67.9026 24.3535C67.9692 24.3588 68.0364 24.3634 68.103 24.3687C67.9936 24.8304 67.8842 25.2915 67.7748 25.7532C67.7339 25.6424 67.6937 25.5316 67.6528 25.4208V25.4201Z" fill="#252525"/>
<path d="M81.1612 52.3389C81.2271 52.3606 81.2937 52.3824 81.3596 52.4048C81.1183 52.5809 80.8771 52.7577 80.6358 52.9338C80.4737 52.9312 80.3116 52.9286 80.1494 52.9259C80.3004 52.8171 80.452 52.7076 80.6029 52.5988C80.7888 52.5123 80.9746 52.4253 81.1612 52.3389Z" fill="#535353"/>
<path d="M81.9635 54.3208C81.6148 54.3445 81.2662 54.3689 80.9175 54.3927C81.1772 54.2396 81.4369 54.0866 81.6966 53.9336L81.9635 54.3208Z" fill="#A3A3A3"/>
<path d="M81.1625 52.3388C80.9767 52.4252 80.7908 52.5123 80.6042 52.5987C80.7677 52.445 80.9312 52.2913 81.0953 52.1376C81.2271 52.073 81.3596 52.009 81.4914 51.9443C81.382 52.0756 81.2719 52.2075 81.1625 52.3388Z" fill="#8A8A8A"/>
<path d="M85.137 27.2128C84.8232 27.3613 84.5088 27.5103 84.1951 27.6587C84.4508 27.3863 84.7388 27.1832 85.137 27.2128Z" fill="#0E0E0E"/>
<path d="M77.728 27.8557C77.6812 27.8115 77.6344 27.7666 77.5876 27.7224C77.788 27.636 77.9891 27.5503 78.1901 27.4639C78.1842 27.7693 77.9291 27.7811 77.728 27.8557Z" fill="#838383"/>
<path d="M92.1393 54.4115C92.078 53.5936 91.5369 53.1325 90.9582 52.7282C90.4579 52.3779 89.9102 52.0956 89.3855 51.752C89.7546 51.8522 90.1336 51.9261 90.4909 52.058C91.1691 52.3087 91.8407 52.5778 92.5019 52.87C92.7253 52.9689 92.9244 53.1457 93.103 53.3192C93.2691 53.4808 93.2941 53.7011 93.1214 53.8818C92.8591 54.1556 92.5341 54.3231 92.1393 54.4108V54.4115Z" fill="#6C6C6C"/>
<path d="M74.6282 32.1399C74.5695 32.3642 74.4871 32.6755 74.4054 32.9862C74.3863 32.9822 74.3672 32.9776 74.3474 32.9737V30.8794C74.3639 30.8702 74.3797 30.8609 74.3962 30.8517C74.4595 31.0034 74.5432 31.1512 74.5821 31.3088C74.6348 31.5232 74.76 31.6135 74.9597 31.5601C75.2201 31.4902 75.5035 31.4374 75.7224 31.2943C76.7012 30.6531 77.7775 30.5423 78.8829 30.729C79.6204 30.8537 80.2947 30.7283 81 30.4744C80.909 30.3623 80.8286 30.264 80.7488 30.165C81.3078 30.417 81.7415 30.8167 82.1146 31.3029C82.0783 31.3121 82.0486 31.3266 82.0434 31.32C81.6169 30.8372 81.1496 30.8286 80.5702 31.0773C80.0106 31.318 79.395 31.262 78.786 31.1861C77.7887 31.0621 76.8284 31.1604 75.928 31.694C75.5661 31.9084 75.1173 31.977 74.6269 32.1386L74.6282 32.1399Z" fill="#0A0A0A"/>
<path d="M73.6184 12.6524C73.3303 12.9881 73.0443 13.2783 72.8103 13.6055C72.3812 14.2071 72.1551 14.8627 72.1775 15.6338C72.2079 16.6773 72.2092 17.7169 72.4333 18.7432C72.4985 19.0427 72.4221 19.1119 72.1268 19.0367C71.4894 18.8745 70.8553 18.6977 70.2179 18.5341C69.9695 18.4701 69.8297 18.3369 69.777 18.0724C69.4481 16.4168 69.3855 14.7856 70.1244 13.2045C70.2924 12.8443 70.5225 12.6009 70.9371 12.5976C71.7471 12.5924 72.5578 12.593 73.3679 12.5963C73.451 12.5963 73.534 12.6326 73.6177 12.6517L73.6184 12.6524Z" fill="#FBFBFB"/>
<path d="M80.3638 22.9699C80.5384 22.7304 80.7131 22.4916 80.8878 22.2522C80.9946 22.3076 81.104 22.3571 81.2068 22.4191C82.1928 23.0101 83.4129 22.6123 83.8835 21.5649C84.0641 21.1619 84.0621 20.7608 83.9962 20.3446C84.0924 20.305 84.1913 20.2272 84.2849 20.2338C84.6336 20.2589 84.9803 20.3123 85.3277 20.3545C85.5623 20.3829 85.6836 20.4996 85.735 20.7463C86.0468 22.2502 84.9098 23.8887 83.3562 24.1591C82.1144 24.3755 81.162 23.8689 80.3644 22.9699H80.3638Z" fill="#080808"/>
<path d="M83.9981 20.346C84.0647 20.7623 84.0666 21.1633 83.8854 21.5663C83.4148 22.6138 82.1947 23.0115 81.2087 22.4205C81.1058 22.3592 80.9964 22.309 80.8896 22.2536C81.4881 21.6409 82.0866 21.0281 82.6851 20.4153C83.0166 20.4569 83.3482 20.5123 83.681 20.5294C83.7621 20.5334 83.8498 20.4094 83.9342 20.3447C83.9552 20.3447 83.9763 20.3454 83.9974 20.346H83.9981Z" fill="#171717"/>
<path d="M83.9322 20.3445C83.8478 20.4098 83.7601 20.5332 83.679 20.5292C83.3462 20.5127 83.0153 20.4567 82.6831 20.4151C82.7681 20.3465 82.8532 20.2786 82.9388 20.21C83.1082 20.2192 83.2796 20.2172 83.4477 20.2396C83.6112 20.2614 83.7707 20.3082 83.9322 20.3439V20.3445Z" fill="#2A2A2A"/>
<path d="M91.3863 22.0073C91.3389 22.6392 91.381 23.2955 91.2182 23.8957C91.0521 24.5072 90.6857 25.0645 90.4016 25.643C90.3778 25.6918 90.3119 25.7195 90.192 25.7255C90.223 25.6133 90.2249 25.4801 90.2889 25.3924C90.6197 24.9346 90.5789 24.4867 90.3831 23.9749C89.9811 22.9235 89.9316 21.8391 90.2579 20.75C90.2889 20.6458 90.3297 20.5429 90.3792 20.4453C90.6534 19.9044 91.1609 19.7962 91.6295 20.1815C91.9828 20.4723 92.1344 20.8754 92.1549 21.312C92.1799 21.8391 92.0646 22.3404 91.7475 22.7698C91.7146 22.7665 91.6809 22.7632 91.648 22.7605V22.1913C91.8405 21.7091 91.8602 21.219 91.5775 20.7777C91.47 20.6102 91.2327 20.4644 91.0376 20.4387C90.919 20.4229 90.7278 20.632 90.6402 20.7817C90.5255 20.9769 90.7443 21.0047 90.859 21.0963C91.0205 21.2256 91.1642 21.3918 91.2723 21.568C91.3481 21.6913 91.3514 21.8588 91.3876 22.0066L91.3863 22.0073ZM90.3403 22.4993C90.4167 22.9182 90.4899 23.3588 90.5815 23.7948C90.5987 23.8753 90.6857 23.9947 90.7456 23.998C90.8175 24.0026 90.9342 23.9168 90.9645 23.843C91.0455 23.6424 91.1187 23.4307 91.1464 23.2176C91.2123 22.7051 91.24 22.188 90.973 21.7144C90.9203 21.6207 90.805 21.4987 90.7232 21.5027C90.6402 21.5066 90.5222 21.6366 90.4925 21.7335C90.4214 21.9697 90.3923 22.219 90.3396 22.4993H90.3403Z" fill="#0A0A0A"/>
<path d="M91.3879 22.0082C91.3523 21.8604 91.3483 21.6929 91.2725 21.5696C91.1644 21.3928 91.0208 21.2272 90.8593 21.0979C90.7446 21.0062 90.5264 20.9785 90.6404 20.7833C90.7281 20.6336 90.9193 20.4245 91.0379 20.4403C91.233 20.466 91.4709 20.6118 91.5777 20.7793C91.8605 21.2206 91.8401 21.71 91.6482 22.1929C91.5612 22.1315 91.4742 22.0702 91.3872 22.0089L91.3879 22.0082Z" fill="#373737"/>
<path d="M73.3863 22.8525C73.5504 22.9053 73.7336 22.9297 73.8714 23.0221C73.9544 23.0775 74.027 23.2529 74.0032 23.3486C73.6091 24.9323 71.9823 25.5662 70.6905 24.7417C70.4723 24.6025 70.2897 24.4086 70.0913 24.2397C70.3971 23.8604 70.7023 23.4811 71.0082 23.1019C71.2428 23.5649 71.5948 23.8538 72.1366 23.84C72.7957 23.8235 73.1477 23.4079 73.3863 22.8532V22.8525Z" fill="#080808"/>
<path d="M73.3847 22.8527C73.1461 23.4074 72.7941 23.823 72.135 23.8395C71.5932 23.8533 71.2412 23.5638 71.0066 23.1014C71.3118 22.7973 71.6169 22.4926 71.9215 22.1885C72.0361 22.2228 72.1548 22.2472 72.2642 22.294C72.6399 22.4536 73.0117 22.6218 73.3854 22.7861C73.3854 22.8085 73.3854 22.8303 73.3854 22.8527H73.3847Z" fill="#171717"/>
<path d="M73.3858 22.7863C73.0127 22.6214 72.6403 22.4538 72.2646 22.2942C72.1552 22.2474 72.0366 22.2229 71.9219 22.1886C71.9917 22.1227 72.061 22.0574 72.1308 21.9914C72.2738 21.9974 72.4287 22.0402 72.5579 22C72.7985 21.9255 73.0239 21.8021 73.2559 21.6992C73.2731 21.7256 73.2909 21.752 73.308 21.7777C73.2698 21.8417 73.2316 21.9063 73.2138 21.936C73.5176 22.1405 73.8136 22.3397 74.1003 22.533C73.8248 22.6306 73.6053 22.7078 73.3858 22.7856V22.7863Z" fill="#0E0E0E"/>
<path d="M71.4521 26.2229C71.787 25.7704 72.102 25.7493 72.539 26.1412C72.1482 26.1708 71.841 26.1939 71.4521 26.2229Z" fill="#0E0E0E"/>
<path d="M78.9841 46.9901C79.058 46.0647 79.1357 45.1399 79.2049 44.2145C79.2379 43.7692 79.5022 43.446 79.7645 43.1248C80.046 42.7805 80.3432 42.4494 80.6339 42.1123C80.5931 42.2706 80.5838 42.4487 80.5034 42.5833C80.3578 42.8253 80.1903 43.0615 79.9952 43.2653C79.3967 43.8906 79.3348 44.6841 79.2438 45.4803C79.1858 45.9868 79.0725 46.4868 78.9841 46.9901Z" fill="#E2E2E2"/>
<path d="M75.7571 45.9395C76.0075 44.7443 76.3213 43.5742 77.0991 42.592C77.252 42.3988 77.4339 42.2286 77.602 42.0479C77.3245 42.5069 77.0378 42.9607 76.7728 43.4264C76.6284 43.681 76.5026 43.9495 76.403 44.2246C76.2264 44.7094 76.0794 45.2054 75.9113 45.6935C75.8803 45.7826 75.8098 45.8578 75.7571 45.9395Z" fill="#EAEAEA"/>
<path d="M90.3418 22.5007C90.3945 22.2203 90.4229 21.971 90.4947 21.7349C90.5237 21.6379 90.6424 21.508 90.7254 21.504C90.8065 21.5 90.9225 21.6221 90.9752 21.7157C91.2422 22.1893 91.2145 22.7065 91.1486 23.219C91.1209 23.4327 91.0484 23.6438 90.9666 23.8443C90.937 23.9182 90.8197 24.0039 90.7478 23.9993C90.6872 23.9953 90.6002 23.8766 90.5837 23.7961C90.4921 23.3595 90.4183 22.9189 90.3425 22.5007H90.3418Z" fill="#353535"/>
<path d="M77.2505 24.0018C77.4496 24.4956 78.1842 28.5014 83.5905 28.0444C85.7061 27.8653 87.0198 26.0465 87.562 25.0776C88.1089 24.1722 88.3955 22.4837 88.5697 20.7384C88.6007 20.3308 88.569 19.8136 88.7789 19.5102C88.8859 19.3565 90.6732 18.566 91.3741 18.1845C91.7118 18.0008 91.9661 18.2052 92.1443 18.3529C92.9253 18.9997 91.9816 17.9259 91.8221 17.809C91.7905 17.7856 88.6672 18.8253 88.6672 18.7866C88.117 18.7572 87.5418 18.8547 87.0407 18.8253C86.9109 18.818 86.518 18.856 86.1972 18.828C85.7196 18.7765 85.5285 18.7204 84.763 18.6596C84.5894 18.6462 83.5649 18.6422 83.0793 18.7371C80.9388 19.1547 79.6889 19.4213 77.7375 20.3902C77.2606 20.6274 76.8778 20.4731 76.4022 20.5766C76.1957 20.6221 75.8789 20.6121 75.6818 20.6789C74.7891 20.9802 73.9933 20.6228 73.1525 20.451C71.9141 20.1985 69.2731 20.5452 68.1659 20.9615C67.362 21.2589 66.5636 21.5529 65.792 21.8375C65.8095 21.9478 65.8424 22.0413 65.8593 22.0928C66.32 23.504 66.7418 24.9299 67.2584 26.3205C67.6607 27.4036 68.3556 28.3357 69.4749 28.754C70.6508 29.193 71.8939 29.2966 72.9029 28.6692C74.1555 27.8907 74.773 26.8457 74.921 26.2884C75.1645 25.3696 75.1853 25.0636 75.3858 24.1341C75.4114 23.9925 75.4302 23.8488 75.4638 23.7085C75.6037 23.1165 75.6925 23.0309 76.1809 22.9948C76.6693 22.9588 76.8892 23.1051 77.091 23.6009C77.1449 23.7339 77.2491 24.0012 77.2491 24.0012M77.5828 23.2414C77.5713 22.6267 77.568 22.5351 77.5895 22.1803C77.6198 21.6758 77.8976 21.329 78.3375 21.1125C78.8481 20.862 79.3701 20.6328 79.8867 20.3942C80.0825 20.3321 80.289 20.2699 80.4551 20.2265C81.3007 20.0027 82.0514 19.867 82.9003 19.6572C83.2118 19.5804 83.5374 19.557 83.8569 19.5095C84.2874 19.4982 84.7233 19.4407 85.1478 19.4862C85.7095 19.5456 86.2772 19.6378 86.8154 19.8035C87.4907 20.0114 87.6212 20.6421 87.6737 21.2288C87.7719 22.3233 87.6865 23.6697 86.9479 25.0201C86.1494 26.4795 84.8518 27.4343 83.3134 27.5245C78.945 27.7798 77.5989 24.0666 77.5835 23.2414H77.5828ZM74.6728 23.8822C74.5275 24.6894 74.4985 25.3689 74.0162 26.5563C73.6718 27.4036 73.0926 28.0203 72.3856 28.3665C71.9659 28.5716 71.378 28.7293 70.784 28.6632C69.3787 28.5061 69.1964 28.1019 68.5486 27.5072C68.0697 27.0495 67.8356 26.4688 67.6156 25.8654C67.5739 25.7532 67.1326 24.3753 67.0203 23.7893C66.9726 23.5381 66.9732 22.8178 67.2975 22.6581C67.7919 22.4149 69.263 21.8729 69.3397 21.8482C70.4564 21.4914 71.5972 21.3357 72.7724 21.4079C73.0886 21.4273 73.4653 21.5248 73.6045 21.5956C74.442 22.0226 74.8658 22.8084 74.6721 23.8822H74.6728Z" fill="#ADEB2A"/>
</g>
<path d="M16.3006 57.9365H12.7831V36.8487H0.34317V33.3313H28.7405V36.8487H16.3006V57.9365ZM57.704 57.9365H53.1055L43.4796 48.0189L33.888 57.9365H29.2724L41.1975 45.6339L29.2724 33.3313H33.888L57.704 57.9365ZM57.704 33.3313L46.9799 44.3642L44.6979 42.0134L53.1055 33.3313H57.704Z" fill="url(#paint0_linear_375_5960)"/>
<path d="M106.655 55.4334H113.206V57.5049H104.159V44.4032H113.064V46.4747H106.655V49.8386H112.498V51.8924H106.655V55.4334ZM124.367 57.5049H121.499L119.286 54.3711L117.072 57.5049H114.204L117.851 52.6183L114.417 47.9619H117.285L119.286 50.8478L121.286 47.9619H124.154L120.72 52.6183L124.367 57.5049ZM131.237 47.7849C133.804 47.7849 135.804 49.7324 135.804 52.6891C135.804 55.6813 133.804 57.6819 131.237 57.6819C129.785 57.6819 128.74 57.0977 128.067 56.1239V61.4H125.659V47.9619H127.979L128.032 49.396C128.705 48.3868 129.767 47.7849 131.237 47.7849ZM130.688 55.6105C132.246 55.6105 133.308 54.4596 133.308 52.7068C133.308 50.9895 132.246 49.8386 130.688 49.8386C129.112 49.8386 128.067 50.9895 128.067 52.7246C128.067 54.4596 129.112 55.6105 130.688 55.6105ZM137.711 57.5049V43.695H140.119V57.5049H137.711ZM146.375 47.7849C148.818 47.7849 150.465 49.2544 150.465 51.5029V57.5049H148.146L148.093 56.1416C147.455 57.1331 146.357 57.6819 145.189 57.6819C143.206 57.6819 141.878 56.4957 141.878 54.7252C141.878 52.8839 143.507 51.68 145.95 51.68C146.605 51.68 147.331 51.7508 148.057 51.8924V51.7154C148.057 50.4406 147.207 49.6793 145.756 49.6793C144.853 49.6793 144.127 49.9449 143.525 50.4406L142.48 49.0242C143.507 48.1921 144.711 47.7849 146.375 47.7849ZM145.879 55.9646C146.995 55.9646 148.039 55.0793 148.057 53.5213C147.437 53.3973 146.8 53.3265 146.251 53.3265C145.118 53.3265 144.392 53.8577 144.392 54.6721C144.392 55.4511 144.906 55.9646 145.879 55.9646ZM154.026 46.4039C153.194 46.4039 152.592 45.8196 152.592 44.9875C152.592 44.1554 153.194 43.5534 154.026 43.5534C154.858 43.5534 155.443 44.1554 155.443 44.9875C155.443 45.8196 154.858 46.4039 154.026 46.4039ZM152.822 57.5049V47.9619H155.23V57.5049H152.822ZM163.151 47.7849C165.435 47.7849 166.958 49.2721 166.958 51.5029V57.5049H164.55V51.8924C164.55 50.6531 163.665 49.8386 162.319 49.8386C160.974 49.8386 160.088 50.6531 160.088 51.8924V57.5049H157.68V47.9619H160L160.035 49.1659C160.761 48.2629 161.877 47.7849 163.151 47.7849Z" fill="white"/>
<defs>
<linearGradient id="paint0_linear_375_5960" x1="58.9431" y1="31.0032" x2="10.4518" y2="63.6687" gradientUnits="userSpaceOnUse">
<stop stop-color="#B8F029"/>
<stop offset="1" stop-color="#0CD579"/>
</linearGradient>
</defs>
</svg>
