<svg width="122" height="35" viewBox="0 0 122 35" fill="none" xmlns="http://www.w3.org/2000/svg">
<rect x="0.5" width="121.5" height="35" rx="8.77578" fill="#1B1F32"/>
<path d="M31.47 24V12.16H32.254L40.478 21.888L40.462 12.16H41.678V24H40.894L32.67 14.272L32.686 24H31.47ZM52.0438 19.664C52.0438 19.808 52.0438 20.064 52.0278 20.192H45.2758C45.4198 22.032 46.4118 23.232 48.0918 23.232C49.2278 23.232 50.1718 22.672 50.8278 21.792L51.7078 22.288C50.8918 23.504 49.5958 24.16 48.0918 24.16C45.6758 24.16 44.0438 22.4 44.0438 19.76C44.0438 17.136 45.6438 15.376 48.0598 15.376C50.4438 15.376 52.0438 17.088 52.0438 19.664ZM48.0598 16.304C46.4278 16.304 45.3878 17.488 45.2758 19.376H50.8438C50.7478 17.488 49.6918 16.304 48.0598 16.304ZM60.866 24H59.458L56.706 20.448L53.97 24H52.562L56.002 19.664L52.754 15.536H54.146L56.706 18.88L59.266 15.536H60.658L57.41 19.664L60.866 24ZM65.4411 23.168C66.0331 23.168 66.5931 23.072 67.1371 22.864V23.808C66.5771 24.048 65.8891 24.16 65.0891 24.16C63.7291 24.16 62.8011 23.216 62.8011 21.824V16.496H61.3291V15.536H62.8011V13.056H63.9531V15.536H67.0091V16.496H63.9531V21.6C63.9531 22.528 64.5611 23.168 65.4411 23.168Z" fill="#D7D7D7"/>
<path d="M85.1472 17.8709L79.8997 23.1184C79.8012 23.2169 79.6677 23.2722 79.5284 23.2722C79.3892 23.2722 79.2556 23.2169 79.1571 23.1184C79.0587 23.0199 79.0034 22.8864 79.0034 22.7471C79.0034 22.6079 79.0587 22.4743 79.1571 22.3759L84.0341 17.4996L79.1571 12.6234C79.0587 12.5249 79.0034 12.3913 79.0034 12.2521C79.0034 12.1128 79.0587 11.9793 79.1571 11.8808C79.2556 11.7824 79.3892 11.7271 79.5284 11.7271C79.6677 11.7271 79.8012 11.7824 79.8997 11.8808L85.1472 17.1284C85.196 17.1771 85.2347 17.235 85.2611 17.2987C85.2875 17.3624 85.3011 17.4307 85.3011 17.4996C85.3011 17.5686 85.2875 17.6369 85.2611 17.7006C85.2347 17.7643 85.196 17.8221 85.1472 17.8709ZM90.3947 17.1284L85.1472 11.8808C85.0487 11.7824 84.9152 11.7271 84.7759 11.7271C84.6367 11.7271 84.5031 11.7824 84.4047 11.8808C84.3062 11.9793 84.2509 12.1128 84.2509 12.2521C84.2509 12.3913 84.3062 12.5249 84.4047 12.6234L89.2816 17.4996L84.4047 22.3759C84.3062 22.4743 84.2509 22.6079 84.2509 22.7471C84.2509 22.8864 84.3062 23.0199 84.4047 23.1184C84.5031 23.2169 84.6367 23.2722 84.7759 23.2722C84.9152 23.2722 85.0487 23.2169 85.1472 23.1184L90.3947 17.8709C90.4435 17.8221 90.4822 17.7643 90.5086 17.7006C90.535 17.6369 90.5486 17.5686 90.5486 17.4996C90.5486 17.4307 90.535 17.3624 90.5086 17.2987C90.4822 17.235 90.4435 17.1771 90.3947 17.1284Z" fill="#D7D7D7"/>
</svg>
