<svg width="230" height="35" viewBox="0 0 230 35" fill="none" xmlns="http://www.w3.org/2000/svg">
<rect x="0.5" width="229.5" height="35" rx="8.77578" fill="#1B1F32"/>
<path d="M35.97 24V12.16H36.754L44.978 21.888L44.962 12.16H46.178V24H45.394L37.17 14.272L37.186 24H35.97ZM56.5438 19.664C56.5438 19.808 56.5438 20.064 56.5278 20.192H49.7758C49.9198 22.032 50.9118 23.232 52.5918 23.232C53.7278 23.232 54.6718 22.672 55.3278 21.792L56.2078 22.288C55.3918 23.504 54.0958 24.16 52.5918 24.16C50.1758 24.16 48.5438 22.4 48.5438 19.76C48.5438 17.136 50.1438 15.376 52.5598 15.376C54.9438 15.376 56.5438 17.088 56.5438 19.664ZM52.5598 16.304C50.9278 16.304 49.8878 17.488 49.7758 19.376H55.3438C55.2478 17.488 54.1918 16.304 52.5598 16.304ZM65.366 24H63.958L61.206 20.448L58.47 24H57.062L60.502 19.664L57.254 15.536H58.646L61.206 18.88L63.766 15.536H65.158L61.91 19.664L65.366 24ZM69.9411 23.168C70.5331 23.168 71.0931 23.072 71.6371 22.864V23.808C71.0771 24.048 70.3891 24.16 69.5891 24.16C68.2291 24.16 67.3011 23.216 67.3011 21.824V16.496H65.8291V15.536H67.3011V13.056H68.4531V15.536H71.5091V16.496H68.4531V21.6C68.4531 22.528 69.0611 23.168 69.9411 23.168ZM84.6443 12.16V13.168H80.8363V24H79.6203V13.168H75.7963V12.16H84.6443ZM86.0207 16.96C86.6287 15.904 87.7647 15.376 89.3807 15.376L89.2847 16.432C87.2207 16.432 86.0367 17.472 86.0367 19.088V24H84.8847V15.536H86.0047L86.0207 16.96ZM93.5475 15.376C95.6115 15.376 96.9555 16.688 96.9555 18.672V24H95.8355L95.8035 22.224C95.2115 23.456 94.0115 24.16 92.6675 24.16C91.0035 24.16 89.8835 23.184 89.8835 21.696C89.8835 20.16 91.2595 19.12 93.3395 19.12C94.1235 19.12 95.0035 19.216 95.8035 19.408V18.816C95.8035 17.28 94.8275 16.304 93.2755 16.304C92.2675 16.304 91.5475 16.64 90.9555 17.248L90.4275 16.544C91.1955 15.792 92.1875 15.376 93.5475 15.376ZM92.9875 23.296C94.3315 23.296 95.8035 22.192 95.8035 20.224C95.0515 20.048 94.2195 19.952 93.4835 19.952C92.0435 19.952 91.0835 20.64 91.0835 21.664C91.0835 22.656 91.8035 23.296 92.9875 23.296ZM103.655 15.376C105.735 15.376 107.127 16.688 107.127 18.672V24H105.975V18.896C105.975 17.376 104.903 16.384 103.303 16.384C101.687 16.384 100.615 17.376 100.615 18.896V24H99.4628V15.536H100.583L100.599 16.96C101.159 15.968 102.183 15.376 103.655 15.376ZM112.067 24.16C110.867 24.16 109.811 23.856 109.155 23.264L109.635 22.544C110.339 23.056 111.187 23.232 112.067 23.232C113.267 23.232 114.067 22.672 114.067 21.808C114.067 21.008 113.315 20.56 112.291 20.272L111.379 20C110.051 19.632 109.139 19.104 109.139 17.84C109.139 16.352 110.323 15.376 112.115 15.376C113.251 15.376 114.179 15.616 114.995 16.144L114.499 16.928C113.779 16.48 113.011 16.304 112.195 16.304C111.075 16.304 110.323 16.832 110.323 17.664C110.323 18.448 110.979 18.8 111.891 19.056L112.803 19.328C114.083 19.68 115.251 20.32 115.251 21.712C115.251 23.184 114.019 24.16 112.067 24.16ZM120.266 15.376C122.33 15.376 123.674 16.688 123.674 18.672V24H122.554L122.522 22.224C121.93 23.456 120.73 24.16 119.386 24.16C117.722 24.16 116.602 23.184 116.602 21.696C116.602 20.16 117.978 19.12 120.058 19.12C120.842 19.12 121.722 19.216 122.522 19.408V18.816C122.522 17.28 121.546 16.304 119.994 16.304C118.986 16.304 118.266 16.64 117.674 17.248L117.146 16.544C117.914 15.792 118.906 15.376 120.266 15.376ZM119.706 23.296C121.05 23.296 122.522 22.192 122.522 20.224C121.77 20.048 120.938 19.952 120.202 19.952C118.762 19.952 117.802 20.64 117.802 21.664C117.802 22.656 118.522 23.296 119.706 23.296ZM129.91 24.16C127.35 24.16 125.622 22.4 125.622 19.76C125.622 17.136 127.366 15.376 129.974 15.376C131.062 15.376 131.942 15.696 132.71 16.304L132.054 17.104C131.446 16.608 130.79 16.384 129.974 16.384C128.086 16.384 126.838 17.728 126.838 19.776C126.838 21.808 128.102 23.168 129.99 23.168C130.87 23.168 131.702 22.864 132.294 22.256L132.966 23.04C132.198 23.776 131.126 24.16 129.91 24.16ZM137.832 23.168C138.424 23.168 138.984 23.072 139.528 22.864V23.808C138.968 24.048 138.28 24.16 137.48 24.16C136.12 24.16 135.192 23.216 135.192 21.824V16.496H133.72V15.536H135.192V13.056H136.344V15.536H139.4V16.496H136.344V21.6C136.344 22.528 136.952 23.168 137.832 23.168ZM141.617 13.408C141.169 13.408 140.833 13.072 140.833 12.64C140.833 12.192 141.169 11.856 141.617 11.856C142.049 11.856 142.385 12.192 142.385 12.64C142.385 13.072 142.049 13.408 141.617 13.408ZM141.041 24V15.536H142.193V24H141.041ZM148.614 24.16C146.022 24.16 144.278 22.4 144.278 19.776C144.278 17.136 146.022 15.376 148.614 15.376C151.19 15.376 152.918 17.136 152.918 19.776C152.918 22.4 151.19 24.16 148.614 24.16ZM148.614 23.168C150.47 23.168 151.702 21.808 151.702 19.776C151.702 17.728 150.47 16.384 148.614 16.384C146.742 16.384 145.494 17.728 145.494 19.776C145.494 21.808 146.742 23.168 148.614 23.168ZM159.17 15.376C161.25 15.376 162.642 16.688 162.642 18.672V24H161.49V18.896C161.49 17.376 160.418 16.384 158.818 16.384C157.202 16.384 156.13 17.376 156.13 18.896V24H154.978V15.536H156.098L156.114 16.96C156.674 15.968 157.698 15.376 159.17 15.376Z" fill="#D7D7D7"/>
<path d="M188.647 17.8709L183.4 23.1184C183.301 23.2169 183.168 23.2722 183.028 23.2722C182.889 23.2722 182.756 23.2169 182.657 23.1184C182.559 23.0199 182.503 22.8864 182.503 22.7471C182.503 22.6079 182.559 22.4743 182.657 22.3759L187.534 17.4996L182.657 12.6234C182.559 12.5249 182.503 12.3913 182.503 12.2521C182.503 12.1128 182.559 11.9793 182.657 11.8808C182.756 11.7824 182.889 11.7271 183.028 11.7271C183.168 11.7271 183.301 11.7824 183.4 11.8808L188.647 17.1284C188.696 17.1771 188.735 17.235 188.761 17.2987C188.788 17.3624 188.801 17.4307 188.801 17.4996C188.801 17.5686 188.788 17.6369 188.761 17.7006C188.735 17.7643 188.696 17.8221 188.647 17.8709ZM193.895 17.1284L188.647 11.8808C188.549 11.7824 188.415 11.7271 188.276 11.7271C188.137 11.7271 188.003 11.7824 187.905 11.8808C187.806 11.9793 187.751 12.1128 187.751 12.2521C187.751 12.3913 187.806 12.5249 187.905 12.6234L192.782 17.4996L187.905 22.3759C187.806 22.4743 187.751 22.6079 187.751 22.7471C187.751 22.8864 187.806 23.0199 187.905 23.1184C188.003 23.2169 188.137 23.2722 188.276 23.2722C188.415 23.2722 188.549 23.2169 188.647 23.1184L193.895 17.8709C193.944 17.8221 193.982 17.7643 194.009 17.7006C194.035 17.6369 194.049 17.5686 194.049 17.4996C194.049 17.4307 194.035 17.3624 194.009 17.2987C193.982 17.235 193.944 17.1771 193.895 17.1284Z" fill="#D7D7D7"/>
</svg>
