<svg width="122" height="35" viewBox="0 0 122 35" fill="none" xmlns="http://www.w3.org/2000/svg">
<rect width="121.5" height="35" rx="8.77578" fill="#1B1F32"/>
<path d="M22.8528 17.1291L28.1003 11.8816C28.1988 11.7831 28.3323 11.7278 28.4716 11.7278C28.6108 11.7278 28.7444 11.7831 28.8429 11.8816C28.9413 11.9801 28.9966 12.1136 28.9966 12.2529C28.9966 12.3921 28.9413 12.5257 28.8429 12.6241L23.9659 17.5004L28.8429 22.3766C28.9413 22.4751 28.9966 22.6087 28.9966 22.7479C28.9966 22.8872 28.9413 23.0207 28.8429 23.1192C28.7444 23.2176 28.6108 23.2729 28.4716 23.2729C28.3323 23.2729 28.1988 23.2176 28.1003 23.1192L22.8528 17.8716C22.804 17.8229 22.7653 17.765 22.7389 17.7013C22.7125 17.6376 22.6989 17.5693 22.6989 17.5004C22.6989 17.4314 22.7125 17.3631 22.7389 17.2994C22.7653 17.2357 22.804 17.1779 22.8528 17.1291ZM17.6053 17.8716L22.8528 23.1192C22.9513 23.2176 23.0848 23.2729 23.2241 23.2729C23.3633 23.2729 23.4969 23.2176 23.5953 23.1192C23.6938 23.0207 23.7491 22.8872 23.7491 22.7479C23.7491 22.6087 23.6938 22.4751 23.5953 22.3766L18.7184 17.5004L23.5953 12.6241C23.6938 12.5257 23.7491 12.3921 23.7491 12.2529C23.7491 12.1136 23.6938 11.9801 23.5953 11.8816C23.4969 11.7831 23.3633 11.7278 23.2241 11.7278C23.0848 11.7278 22.9513 11.7831 22.8528 11.8816L17.6053 17.1291C17.5565 17.1779 17.5178 17.2357 17.4914 17.2994C17.465 17.3631 17.4514 17.4314 17.4514 17.5004C17.4514 17.5693 17.465 17.6376 17.4914 17.7013C17.5178 17.765 17.5565 17.8229 17.6053 17.8716Z" fill="#D7D7D7"/>
<path d="M46.066 12.16C48.402 12.16 49.938 13.6 49.938 15.76C49.938 17.984 48.386 19.456 46.066 19.456H42.978V24H41.762V12.16H46.066ZM45.906 18.448C47.586 18.448 48.674 17.392 48.674 15.808C48.674 14.224 47.57 13.168 45.906 13.168H42.978V18.448H45.906ZM52.9378 16.96C53.5458 15.904 54.6818 15.376 56.2978 15.376L56.2018 16.432C54.1378 16.432 52.9538 17.472 52.9538 19.088V24H51.8018V15.536H52.9218L52.9378 16.96ZM64.6172 19.664C64.6172 19.808 64.6172 20.064 64.6012 20.192H57.8492C57.9932 22.032 58.9852 23.232 60.6652 23.232C61.8012 23.232 62.7452 22.672 63.4012 21.792L64.2812 22.288C63.4652 23.504 62.1692 24.16 60.6652 24.16C58.2492 24.16 56.6172 22.4 56.6172 19.76C56.6172 17.136 58.2172 15.376 60.6332 15.376C63.0172 15.376 64.6172 17.088 64.6172 19.664ZM60.6332 16.304C59.0012 16.304 57.9612 17.488 57.8492 19.376H63.4172C63.3212 17.488 62.2652 16.304 60.6332 16.304ZM69.0515 24L65.2755 15.536H66.5395L69.6275 22.672L72.7155 15.536H73.9795L70.2195 24H69.0515ZM76.0813 13.408C75.6333 13.408 75.2973 13.072 75.2973 12.64C75.2973 12.192 75.6333 11.856 76.0813 11.856C76.5133 11.856 76.8493 12.192 76.8493 12.64C76.8493 13.072 76.5133 13.408 76.0813 13.408ZM75.5053 24V15.536H76.6573V24H75.5053ZM83.0778 24.16C80.4858 24.16 78.7418 22.4 78.7418 19.776C78.7418 17.136 80.4858 15.376 83.0778 15.376C85.6538 15.376 87.3818 17.136 87.3818 19.776C87.3818 22.4 85.6538 24.16 83.0778 24.16ZM83.0778 23.168C84.9338 23.168 86.1658 21.808 86.1658 19.776C86.1658 17.728 84.9338 16.384 83.0778 16.384C81.2058 16.384 79.9578 17.728 79.9578 19.776C79.9578 21.808 81.2058 23.168 83.0778 23.168ZM95.6344 15.536H96.7864V24H95.6824L95.6504 22.592C95.1064 23.584 94.1144 24.16 92.6904 24.16C90.6744 24.16 89.3304 22.832 89.3304 20.88V15.536H90.4824V20.656C90.4824 22.16 91.5064 23.168 93.0584 23.168C94.6104 23.168 95.6344 22.16 95.6344 20.656V15.536ZM101.843 24.16C100.643 24.16 99.5872 23.856 98.9312 23.264L99.4112 22.544C100.115 23.056 100.963 23.232 101.843 23.232C103.043 23.232 103.843 22.672 103.843 21.808C103.843 21.008 103.091 20.56 102.067 20.272L101.155 20C99.8272 19.632 98.9152 19.104 98.9152 17.84C98.9152 16.352 100.099 15.376 101.891 15.376C103.027 15.376 103.955 15.616 104.771 16.144L104.275 16.928C103.555 16.48 102.787 16.304 101.971 16.304C100.851 16.304 100.099 16.832 100.099 17.664C100.099 18.448 100.755 18.8 101.667 19.056L102.579 19.328C103.859 19.68 105.027 20.32 105.027 21.712C105.027 23.184 103.795 24.16 101.843 24.16Z" fill="#D7D7D7"/>
</svg>
