<svg width="230" height="35" viewBox="0 0 230 35" fill="none" xmlns="http://www.w3.org/2000/svg">
<rect width="229.5" height="35" rx="8.77578" fill="#1B1F32"/>
<path d="M27.3528 17.1291L32.6003 11.8816C32.6988 11.7831 32.8323 11.7278 32.9716 11.7278C33.1109 11.7278 33.2444 11.7831 33.3429 11.8816C33.4413 11.9801 33.4966 12.1136 33.4966 12.2529C33.4966 12.3921 33.4413 12.5257 33.3429 12.6241L28.4659 17.5004L33.3429 22.3766C33.4413 22.4751 33.4966 22.6087 33.4966 22.7479C33.4966 22.8872 33.4413 23.0207 33.3429 23.1192C33.2444 23.2176 33.1108 23.2729 32.9716 23.2729C32.8323 23.2729 32.6988 23.2176 32.6003 23.1192L27.3528 17.8716C27.304 17.8229 27.2653 17.765 27.2389 17.7013C27.2125 17.6376 27.1989 17.5693 27.1989 17.5004C27.1989 17.4314 27.2125 17.3631 27.2389 17.2994C27.2653 17.2357 27.304 17.1779 27.3528 17.1291ZM22.1053 17.8716L27.3528 23.1192C27.4513 23.2176 27.5848 23.2729 27.7241 23.2729C27.8633 23.2729 27.9969 23.2176 28.0953 23.1192C28.1938 23.0207 28.2491 22.8872 28.2491 22.7479C28.2491 22.6087 28.1938 22.4751 28.0953 22.3766L23.2184 17.5004L28.0953 12.6241C28.1938 12.5257 28.2491 12.3921 28.2491 12.2529C28.2491 12.1136 28.1938 11.9801 28.0953 11.8816C27.9969 11.7831 27.8633 11.7278 27.7241 11.7278C27.5848 11.7278 27.4513 11.7831 27.3528 11.8816L22.1053 17.1291C22.0565 17.1779 22.0178 17.2357 21.9914 17.2994C21.965 17.3631 21.9514 17.4314 21.9514 17.5004C21.9514 17.5693 21.965 17.6376 21.9914 17.7013C22.0178 17.765 22.0565 17.8229 22.1053 17.8716Z" fill="#D7D7D7"/>
<path d="M57.5661 12.16C59.9021 12.16 61.4381 13.6 61.4381 15.76C61.4381 17.984 59.8861 19.456 57.5661 19.456H54.4781V24H53.2621V12.16H57.5661ZM57.4061 18.448C59.0861 18.448 60.1741 17.392 60.1741 15.808C60.1741 14.224 59.0701 13.168 57.4061 13.168H54.4781V18.448H57.4061ZM64.4378 16.96C65.0458 15.904 66.1818 15.376 67.7978 15.376L67.7018 16.432C65.6378 16.432 64.4538 17.472 64.4538 19.088V24H63.3018V15.536H64.4218L64.4378 16.96ZM76.1172 19.664C76.1172 19.808 76.1172 20.064 76.1012 20.192H69.3492C69.4932 22.032 70.4852 23.232 72.1652 23.232C73.3012 23.232 74.2452 22.672 74.9012 21.792L75.7812 22.288C74.9652 23.504 73.6692 24.16 72.1652 24.16C69.7492 24.16 68.1172 22.4 68.1172 19.76C68.1172 17.136 69.7172 15.376 72.1332 15.376C74.5172 15.376 76.1172 17.088 76.1172 19.664ZM72.1332 16.304C70.5012 16.304 69.4612 17.488 69.3492 19.376H74.9172C74.8212 17.488 73.7652 16.304 72.1332 16.304ZM80.5516 24L76.7756 15.536H78.0396L81.1276 22.672L84.2156 15.536H85.4796L81.7196 24H80.5516ZM87.5813 13.408C87.1333 13.408 86.7973 13.072 86.7973 12.64C86.7973 12.192 87.1333 11.856 87.5813 11.856C88.0133 11.856 88.3493 12.192 88.3493 12.64C88.3493 13.072 88.0133 13.408 87.5813 13.408ZM87.0053 24V15.536H88.1573V24H87.0053ZM94.5778 24.16C91.9858 24.16 90.2418 22.4 90.2418 19.776C90.2418 17.136 91.9858 15.376 94.5778 15.376C97.1538 15.376 98.8818 17.136 98.8818 19.776C98.8818 22.4 97.1538 24.16 94.5778 24.16ZM94.5778 23.168C96.4338 23.168 97.6658 21.808 97.6658 19.776C97.6658 17.728 96.4338 16.384 94.5778 16.384C92.7058 16.384 91.4578 17.728 91.4578 19.776C91.4578 21.808 92.7058 23.168 94.5778 23.168ZM107.134 15.536H108.286V24H107.182L107.15 22.592C106.606 23.584 105.614 24.16 104.19 24.16C102.174 24.16 100.83 22.832 100.83 20.88V15.536H101.982V20.656C101.982 22.16 103.006 23.168 104.558 23.168C106.11 23.168 107.134 22.16 107.134 20.656V15.536ZM113.343 24.16C112.143 24.16 111.087 23.856 110.431 23.264L110.911 22.544C111.615 23.056 112.463 23.232 113.343 23.232C114.543 23.232 115.343 22.672 115.343 21.808C115.343 21.008 114.591 20.56 113.567 20.272L112.655 20C111.327 19.632 110.415 19.104 110.415 17.84C110.415 16.352 111.599 15.376 113.391 15.376C114.527 15.376 115.455 15.616 116.271 16.144L115.775 16.928C115.055 16.48 114.287 16.304 113.471 16.304C112.351 16.304 111.599 16.832 111.599 17.664C111.599 18.448 112.255 18.8 113.167 19.056L114.079 19.328C115.359 19.68 116.527 20.32 116.527 21.712C116.527 23.184 115.295 24.16 113.343 24.16ZM130.108 12.16V13.168H126.3V24H125.084V13.168H121.26V12.16H130.108ZM131.485 16.96C132.093 15.904 133.229 15.376 134.845 15.376L134.749 16.432C132.685 16.432 131.501 17.472 131.501 19.088V24H130.349V15.536H131.469L131.485 16.96ZM139.011 15.376C141.075 15.376 142.419 16.688 142.419 18.672V24H141.299L141.267 22.224C140.675 23.456 139.475 24.16 138.131 24.16C136.467 24.16 135.347 23.184 135.347 21.696C135.347 20.16 136.723 19.12 138.803 19.12C139.587 19.12 140.467 19.216 141.267 19.408V18.816C141.267 17.28 140.291 16.304 138.739 16.304C137.731 16.304 137.011 16.64 136.419 17.248L135.891 16.544C136.659 15.792 137.651 15.376 139.011 15.376ZM138.451 23.296C139.795 23.296 141.267 22.192 141.267 20.224C140.515 20.048 139.683 19.952 138.947 19.952C137.507 19.952 136.547 20.64 136.547 21.664C136.547 22.656 137.267 23.296 138.451 23.296ZM149.119 15.376C151.199 15.376 152.591 16.688 152.591 18.672V24H151.439V18.896C151.439 17.376 150.367 16.384 148.767 16.384C147.151 16.384 146.079 17.376 146.079 18.896V24H144.927V15.536H146.047L146.063 16.96C146.623 15.968 147.647 15.376 149.119 15.376ZM157.531 24.16C156.331 24.16 155.275 23.856 154.619 23.264L155.099 22.544C155.803 23.056 156.651 23.232 157.531 23.232C158.731 23.232 159.531 22.672 159.531 21.808C159.531 21.008 158.779 20.56 157.755 20.272L156.843 20C155.515 19.632 154.603 19.104 154.603 17.84C154.603 16.352 155.787 15.376 157.579 15.376C158.715 15.376 159.643 15.616 160.459 16.144L159.963 16.928C159.243 16.48 158.475 16.304 157.659 16.304C156.539 16.304 155.787 16.832 155.787 17.664C155.787 18.448 156.443 18.8 157.355 19.056L158.267 19.328C159.547 19.68 160.715 20.32 160.715 21.712C160.715 23.184 159.483 24.16 157.531 24.16ZM165.73 15.376C167.794 15.376 169.138 16.688 169.138 18.672V24H168.018L167.986 22.224C167.394 23.456 166.194 24.16 164.85 24.16C163.186 24.16 162.066 23.184 162.066 21.696C162.066 20.16 163.442 19.12 165.522 19.12C166.306 19.12 167.186 19.216 167.986 19.408V18.816C167.986 17.28 167.01 16.304 165.458 16.304C164.45 16.304 163.73 16.64 163.138 17.248L162.61 16.544C163.378 15.792 164.37 15.376 165.73 15.376ZM165.17 23.296C166.514 23.296 167.986 22.192 167.986 20.224C167.234 20.048 166.402 19.952 165.666 19.952C164.226 19.952 163.266 20.64 163.266 21.664C163.266 22.656 163.986 23.296 165.17 23.296ZM175.374 24.16C172.814 24.16 171.086 22.4 171.086 19.76C171.086 17.136 172.83 15.376 175.438 15.376C176.526 15.376 177.406 15.696 178.174 16.304L177.518 17.104C176.91 16.608 176.254 16.384 175.438 16.384C173.55 16.384 172.302 17.728 172.302 19.776C172.302 21.808 173.566 23.168 175.454 23.168C176.334 23.168 177.166 22.864 177.758 22.256L178.43 23.04C177.662 23.776 176.59 24.16 175.374 24.16ZM183.296 23.168C183.888 23.168 184.448 23.072 184.992 22.864V23.808C184.432 24.048 183.744 24.16 182.944 24.16C181.584 24.16 180.656 23.216 180.656 21.824V16.496H179.184V15.536H180.656V13.056H181.808V15.536H184.864V16.496H181.808V21.6C181.808 22.528 182.416 23.168 183.296 23.168ZM187.081 13.408C186.633 13.408 186.297 13.072 186.297 12.64C186.297 12.192 186.633 11.856 187.081 11.856C187.513 11.856 187.849 12.192 187.849 12.64C187.849 13.072 187.513 13.408 187.081 13.408ZM186.505 24V15.536H187.657V24H186.505ZM194.078 24.16C191.486 24.16 189.742 22.4 189.742 19.776C189.742 17.136 191.486 15.376 194.078 15.376C196.654 15.376 198.382 17.136 198.382 19.776C198.382 22.4 196.654 24.16 194.078 24.16ZM194.078 23.168C195.934 23.168 197.166 21.808 197.166 19.776C197.166 17.728 195.934 16.384 194.078 16.384C192.206 16.384 190.958 17.728 190.958 19.776C190.958 21.808 192.206 23.168 194.078 23.168ZM204.634 15.376C206.714 15.376 208.106 16.688 208.106 18.672V24H206.954V18.896C206.954 17.376 205.882 16.384 204.282 16.384C202.666 16.384 201.594 17.376 201.594 18.896V24H200.442V15.536H201.562L201.578 16.96C202.138 15.968 203.162 15.376 204.634 15.376Z" fill="#D7D7D7"/>
</svg>
