<svg width="237" height="131" viewBox="0 0 237 131" fill="none" xmlns="http://www.w3.org/2000/svg">
<g clip-path="url(#clip0_658_3323)">
<path d="M69.7031 116.758C69.7031 82.4856 69.7031 48.2134 69.7031 13.9412C69.8309 13.8018 70.0342 13.6798 70.0691 13.523C71.6839 6.23289 76.0115 1.73104 83.4585 0.383384C83.7257 0.336913 83.9697 0.133603 84.2252 0C101.263 0 118.306 0 135.343 0C135.889 0.6564 136.394 1.35346 136.993 1.95758C148.471 13.4649 159.914 25.0129 171.492 36.4215C173.501 38.4023 174.483 40.3599 174.303 43.2004C174.071 46.8832 174.245 50.595 174.245 54.2953C177.794 51.4548 180.704 48.3644 183.771 45.4542C188.558 40.9175 196.016 42.056 199.095 47.708C199.589 48.62 199.972 49.5959 200.402 50.537V54.0223C199.298 58.344 195.587 60.7896 192.787 64.0774C193.699 64.9197 194.419 65.5644 195.116 66.2383C195.813 66.9063 196.522 67.5743 197.161 68.2946C198.764 70.1012 198.793 71.6115 197.126 73.3831C195.134 75.4918 193.071 77.5365 190.98 79.5521C189.325 81.1496 187.385 81.3122 186.101 80.0807C184.712 78.7447 184.893 76.7988 186.618 74.998C187.936 73.6213 189.301 72.2911 190.759 70.8273C189.778 69.9269 189.034 69.2531 188.204 68.4921C184.073 72.628 180.158 76.6477 176.127 80.5396C174.779 81.8408 174.181 83.1711 174.198 85.088C174.291 94.7655 174.286 104.443 174.227 114.121C174.181 121.416 169.714 127.585 163.045 129.752C161.959 130.107 160.844 130.385 159.74 130.699H84.2252C83.7838 130.531 83.3539 130.292 82.895 130.205C76.4182 128.968 72.4856 124.931 70.4002 118.861C70.162 118.164 69.9355 117.461 69.7031 116.758ZM167.861 42.3871C166.577 42.3871 165.63 42.3871 164.689 42.3871C159.368 42.3871 154.042 42.4046 148.721 42.3871C138.892 42.3523 131.916 35.3991 131.881 25.5938C131.858 20.0754 131.881 14.557 131.869 9.04437C131.869 8.21371 131.753 7.38885 131.684 6.40135C130.772 6.40135 130.104 6.40135 129.435 6.40135C115.303 6.40135 101.175 6.38392 87.0425 6.40716C80.159 6.41877 76.1103 10.5314 76.1103 17.4962C76.0987 49.4391 76.1684 81.3761 76.0522 113.319C76.029 119.633 80.8619 124.42 87.1587 124.367C110.388 124.193 133.618 124.193 156.847 124.367C162.912 124.414 168.099 119.836 167.919 113.284C167.716 106.128 167.878 98.9595 167.867 91.7972C167.867 91.0769 167.809 90.3566 167.751 89.1658C166.676 90.1533 165.973 90.7632 165.305 91.4196C160.629 96.0493 155.947 100.673 151.3 105.338C148.837 107.806 145.88 108.55 142.529 108.033C141.692 107.905 140.873 107.673 139.706 107.411C139.276 107.957 138.857 108.631 138.306 109.171C135.639 111.774 134.379 111.698 131.835 108.922C130.859 107.853 129.877 106.767 128.773 105.837C126.554 103.967 125.329 104.06 123.261 106.058C122.151 107.133 121.111 108.306 119.897 109.241C116.586 111.791 112.973 111.623 109.912 108.811C108.919 107.899 108.129 106.772 107.193 105.797C105.689 104.228 104.597 103.973 102.883 105.262C101.356 106.406 100.037 107.853 98.7532 109.282C97.1673 111.036 95.506 111.507 93.9783 110.432C92.346 109.282 92.1369 107.272 93.7285 105.343C95.1401 103.641 96.6794 101.986 98.4046 100.609C103.104 96.8451 107.902 97.2866 112.021 101.701C112.991 102.741 113.868 103.868 115.018 105.227C116.679 103.612 117.911 102.427 119.136 101.237C122.999 97.4608 127.257 97.0484 131.695 100.081C132.88 100.888 133.972 101.829 135.651 103.13C133.188 96.5721 136.383 92.6104 140.397 88.7011C149.139 80.1969 157.696 71.5069 166.275 62.8401C167.013 62.0908 167.762 60.9464 167.791 59.9647C167.937 54.2662 167.861 48.562 167.861 42.3813V42.3871ZM179.026 59.3722C178.631 59.7207 178.329 59.9531 178.056 60.2261C166.368 71.9077 154.681 83.5951 142.993 95.2825C142.587 95.6891 142.157 96.0899 141.814 96.5546C140.809 97.9255 140.873 99.6159 141.936 100.801C143.075 102.073 144.881 102.265 146.392 101.202C146.938 100.818 147.396 100.301 147.879 99.825C159.293 88.4164 170.707 77.0021 182.116 65.5877C182.639 65.0649 183.109 64.4782 183.609 63.9205C182.035 62.358 180.606 60.9406 179.026 59.378V59.3722ZM138.23 13.157C138.23 13.9412 138.23 14.7661 138.23 15.5909C138.248 19.5468 138.056 23.5142 138.346 27.4526C138.654 31.5711 142.227 35.5037 146.333 35.8348C151.242 36.2298 156.203 35.9277 160.995 35.9277C153.391 28.3239 145.869 20.8015 138.23 13.157ZM188.488 59.1573C189.981 57.676 191.637 56.2064 193.071 54.5509C194.448 52.9651 194.245 51.2224 192.822 49.927C191.486 48.7072 189.9 48.6491 188.401 49.9561C186.751 51.4025 185.218 52.9883 183.713 54.4347C185.433 56.1367 186.908 57.5947 188.494 59.1573H188.488Z" fill="#ADFF00"/>
<path d="M115.279 65.1518C108.994 65.1518 102.709 65.1344 96.4297 65.1635C94.8671 65.1693 93.5253 64.8904 92.956 63.2117C92.2822 61.2134 93.2348 59.5173 95.3376 59.0526C96.0812 58.8899 96.8712 58.8783 97.6379 58.8783C109.529 58.8667 121.419 58.8725 133.31 58.8783C133.984 58.8783 134.669 58.8609 135.332 58.9654C137.347 59.2849 138.346 60.4351 138.259 62.2474C138.172 64.0714 137.132 65.0879 135 65.1286C131.23 65.1983 127.461 65.1577 123.691 65.1577C120.885 65.1577 118.085 65.1577 115.279 65.1577V65.1518Z" fill="#ADFF00"/>
<path d="M106.008 45.8836C109.005 45.8836 112.003 45.8488 115 45.8953C117.469 45.9359 118.631 46.9931 118.607 49.0378C118.584 50.9838 117.277 52.2269 114.948 52.2443C108.761 52.2908 102.575 52.2966 96.3886 52.2443C94.0419 52.2211 92.7988 50.9896 92.793 48.9914C92.793 46.935 93.9083 45.9359 96.4409 45.9011C99.63 45.8546 102.819 45.8894 106.014 45.8894L106.008 45.8836Z" fill="#ADFF00"/>
</g>
<defs>
<clipPath id="clip0_658_3323">
<rect width="236.42" height="130.699" fill="white" transform="translate(0.578125)"/>
</clipPath>
</defs>
</svg>
