<svg width="117" height="117" viewBox="0 0 117 117" fill="none" xmlns="http://www.w3.org/2000/svg">
<g clip-path="url(#clip0_667_3963)">
<path d="M69.1844 115.052C69.1844 113.874 69.1677 112.672 69.1872 111.471C69.2319 108.797 69.1928 106.116 69.3785 103.452C69.5684 100.722 69.9217 97.9969 70.3169 95.2875C70.7456 92.3561 71.8306 89.5979 72.7942 86.8146C77.1971 74.0974 81.6041 61.3817 86.0098 48.6646C86.0922 48.4286 86.1802 48.1939 86.2849 47.9062C90.6222 49.4076 94.9078 50.8921 99.2436 52.3948C98.7144 53.938 98.2089 55.4295 97.6936 56.9169C93.341 69.4804 88.987 82.0425 84.633 94.606C83.4823 97.927 81.7284 100.93 79.7623 103.819C76.8116 108.158 73.4449 112.159 69.8407 115.966C69.5293 116.295 69.2221 116.436 68.7543 116.422C66.453 116.356 64.1476 116.398 61.8491 116.283C58.7085 116.127 55.5875 115.744 52.676 114.462C51.6496 114.01 50.6666 113.384 49.7952 112.676C49.1668 112.165 48.6865 111.428 48.2661 110.717C47.5889 109.573 47.6196 108.366 48.2633 107.196C48.5538 106.667 48.8847 106.16 49.1822 105.635C49.4796 105.11 49.7882 104.589 50.0382 104.041C50.3887 103.272 50.1457 102.854 49.2911 102.893C48.3695 102.937 47.4381 103.054 46.5416 103.266C43.4401 103.997 40.4825 105.168 37.5179 106.313C35.3074 107.167 33.0648 107.921 30.7118 108.277C29.6533 108.438 28.5809 108.526 27.5294 108.209C26.4765 107.892 25.9612 107.19 25.9877 106.083C26.0268 104.46 26.8354 103.164 27.8212 101.959C29.1115 100.381 30.6937 99.1141 32.287 97.8656C34.154 96.402 36.0377 94.9607 37.8824 93.4706C38.4005 93.0516 38.8459 92.5265 39.2537 91.9958C39.4911 91.6872 39.5902 91.2724 39.8248 90.7375C39.1615 90.6314 38.6644 90.4498 38.1868 90.4931C36.4539 90.6537 34.7237 90.852 33.0019 91.1048C28.1871 91.8101 23.7046 93.6354 19.169 95.275C15.7855 96.4984 12.3908 97.6854 8.84256 98.3474C7.29114 98.6365 5.73693 98.9591 4.14083 98.7175C3.32672 98.5946 2.55869 98.3642 1.87445 97.8879C0.716822 97.0821 0.258798 95.8978 0.811779 94.6088C1.15111 93.8169 1.64265 93.0223 2.25707 92.4288C5.40878 89.3842 9.09112 87.3145 13.4982 86.7489C14.9086 86.5674 16.3315 86.6372 17.7238 86.9891C17.8299 87.0157 17.9262 87.0813 18.112 87.1693C17.9611 87.3397 17.8718 87.5114 17.7307 87.5869C16.8719 88.0477 16.0257 88.4499 14.9686 88.2628C13.4046 87.9863 11.8686 88.2907 10.3758 88.7879C8.27282 89.489 6.36253 90.5099 4.87953 92.2039C4.21065 92.9692 3.72889 93.8323 3.61019 94.8672C3.43843 96.3685 4.14223 97.2134 5.65454 97.3181C7.04118 97.4145 8.3985 97.2106 9.71113 96.7916C14.1056 95.3853 18.496 93.9608 22.8793 92.5209C27.0267 91.1579 31.2313 90.0057 35.5113 89.1468C37.1758 88.8131 38.8627 88.5631 40.5649 88.8061C41.1249 88.8857 41.703 89.063 42.1959 89.3354C42.8941 89.7194 43.0463 90.2934 42.6693 90.9931C42.3858 91.5182 42.0493 92.0587 41.6094 92.4483C40.132 93.7569 38.6141 95.0222 37.0795 96.2651C34.7796 98.1281 32.5271 100.041 30.6643 102.356C30.1183 103.034 29.6491 103.808 29.3014 104.607C28.8183 105.72 29.2819 106.498 30.4577 106.809C31.6265 107.119 32.7925 106.981 33.8873 106.579C35.7124 105.907 37.5123 105.158 39.2914 104.369C42.2252 103.068 45.2066 101.917 48.3653 101.293C49.6011 101.048 50.8551 100.916 52.1007 101.215C53.317 101.506 53.7624 102.358 53.1899 103.471C52.7584 104.311 52.1468 105.058 51.605 105.84C50.5465 107.371 50.5772 109.266 51.7963 110.678C52.2878 111.246 52.9176 111.726 53.5585 112.129C55.0485 113.067 56.7298 113.542 58.432 113.93C61.4553 114.623 64.5302 114.915 67.6218 115.053C68.1511 115.077 68.6817 115.056 69.1858 115.056L69.1844 115.052Z" fill="#ADEB2A"/>
<path d="M108.696 25.1133C106.138 32.497 103.581 39.882 101.008 47.3103C96.6647 45.8062 92.3791 44.3217 88.0391 42.8176C88.4803 41.5411 88.8965 40.3401 89.3112 39.139C92.7282 29.2709 96.1438 19.4014 99.5651 9.53463C99.7005 9.14219 99.8416 8.73719 100.064 8.39224C100.702 7.39788 101.972 6.96495 103.134 7.30152C103.446 7.3923 103.75 7.50542 104.131 7.6339C104.426 6.80015 104.719 5.97758 105.006 5.1536C105.38 4.07964 105.74 3.0015 106.124 1.93033C106.674 0.401091 108.163 -0.343278 109.639 0.152503C111.087 0.639904 111.826 2.1859 111.312 3.72352C110.679 5.61447 110.016 7.49425 109.347 9.43407C109.825 9.60027 110.283 9.75808 110.738 9.91868C112.539 10.5541 113.235 11.9828 112.615 13.7844C112.056 15.4072 111.492 17.0272 110.967 18.5453C111.972 19.9879 112.986 21.3216 113.866 22.7364C115.391 25.1859 116.406 27.8464 116.826 30.7135C117.171 33.0751 117.005 35.4102 116.23 37.667C113.244 46.3579 110.232 55.0403 107.226 63.7241C106.776 65.0216 105.645 65.819 104.433 65.7226C103.111 65.6179 102.045 64.7031 101.878 63.3708C101.809 62.8234 101.933 62.2103 102.118 61.6768C105.011 53.2723 107.917 44.8733 110.848 36.4814C111.909 33.4438 111.502 30.5306 110.235 27.676C109.836 26.7766 109.34 25.9205 108.889 25.0449C108.825 25.0672 108.759 25.091 108.695 25.1133H108.696Z" fill="#ADEB2A"/>
</g>
<defs>
<clipPath id="clip0_667_3963">
<rect width="116.422" height="116.422" fill="white" transform="translate(0.578125)"/>
</clipPath>
</defs>
</svg>
