<svg width="1006" height="58" viewBox="0 0 1006 58" fill="none" xmlns="http://www.w3.org/2000/svg">
<path d="M162.219 10.478H163.515V20H162.273L162.237 18.416C161.625 19.532 160.509 20.18 158.907 20.18C156.639 20.18 155.127 18.686 155.127 16.49V10.478H156.423V16.238C156.423 17.93 157.575 19.064 159.321 19.064C161.067 19.064 162.219 17.93 162.219 16.238V10.478ZM169.204 20.18C167.854 20.18 166.666 19.838 165.928 19.172L166.468 18.362C167.26 18.938 168.214 19.136 169.204 19.136C170.554 19.136 171.454 18.506 171.454 17.534C171.454 16.634 170.608 16.13 169.456 15.806L168.43 15.5C166.936 15.086 165.91 14.492 165.91 13.07C165.91 11.396 167.242 10.298 169.258 10.298C170.536 10.298 171.58 10.568 172.498 11.162L171.94 12.044C171.13 11.54 170.266 11.342 169.348 11.342C168.088 11.342 167.242 11.936 167.242 12.872C167.242 13.754 167.98 14.15 169.006 14.438L170.032 14.744C171.472 15.14 172.786 15.86 172.786 17.426C172.786 19.082 171.4 20.18 169.204 20.18ZM183.505 15.122C183.505 15.284 183.505 15.572 183.487 15.716H175.891C176.053 17.786 177.169 19.136 179.059 19.136C180.337 19.136 181.399 18.506 182.137 17.516L183.127 18.074C182.209 19.442 180.751 20.18 179.059 20.18C176.341 20.18 174.505 18.2 174.505 15.23C174.505 12.278 176.305 10.298 179.023 10.298C181.705 10.298 183.505 12.224 183.505 15.122ZM179.023 11.342C177.187 11.342 176.017 12.674 175.891 14.798H182.155C182.047 12.674 180.859 11.342 179.023 11.342ZM188.487 20.18C187.137 20.18 185.949 19.838 185.211 19.172L185.751 18.362C186.543 18.938 187.497 19.136 188.487 19.136C189.837 19.136 190.737 18.506 190.737 17.534C190.737 16.634 189.891 16.13 188.739 15.806L187.713 15.5C186.219 15.086 185.193 14.492 185.193 13.07C185.193 11.396 186.525 10.298 188.541 10.298C189.819 10.298 190.863 10.568 191.781 11.162L191.223 12.044C190.413 11.54 189.549 11.342 188.631 11.342C187.371 11.342 186.525 11.936 186.525 12.872C186.525 13.754 187.263 14.15 188.289 14.438L189.315 14.744C190.755 15.14 192.069 15.86 192.069 17.426C192.069 19.082 190.683 20.18 188.487 20.18ZM206.904 5.96H208.2V20H206.939L206.904 17.948C206.256 19.298 204.996 20.18 203.106 20.18C200.442 20.18 198.534 18.218 198.534 15.266C198.534 12.296 200.442 10.298 203.106 10.298C204.996 10.298 206.256 11.18 206.904 12.53V5.96ZM203.412 19.064C205.5 19.064 206.904 17.534 206.904 15.248C206.904 12.962 205.5 11.432 203.412 11.432C201.306 11.432 199.902 12.962 199.902 15.266C199.902 17.534 201.306 19.064 203.412 19.064ZM214.464 10.298C216.786 10.298 218.298 11.774 218.298 14.006V20H217.038L217.002 18.002C216.336 19.388 214.986 20.18 213.474 20.18C211.602 20.18 210.342 19.082 210.342 17.408C210.342 15.68 211.89 14.51 214.23 14.51C215.112 14.51 216.102 14.618 217.002 14.834V14.168C217.002 12.44 215.904 11.342 214.158 11.342C213.024 11.342 212.214 11.72 211.548 12.404L210.954 11.612C211.818 10.766 212.934 10.298 214.464 10.298ZM213.834 19.208C215.346 19.208 217.002 17.966 217.002 15.752C216.156 15.554 215.22 15.446 214.392 15.446C212.772 15.446 211.692 16.22 211.692 17.372C211.692 18.488 212.502 19.208 213.834 19.208ZM224.452 19.064C225.118 19.064 225.748 18.956 226.36 18.722V19.784C225.73 20.054 224.956 20.18 224.056 20.18C222.526 20.18 221.482 19.118 221.482 17.552V11.558H219.826V10.478H221.482V7.688H222.778V10.478H226.216V11.558H222.778V17.3C222.778 18.344 223.462 19.064 224.452 19.064ZM231.356 10.298C233.678 10.298 235.19 11.774 235.19 14.006V20H233.93L233.894 18.002C233.228 19.388 231.878 20.18 230.366 20.18C228.494 20.18 227.234 19.082 227.234 17.408C227.234 15.68 228.782 14.51 231.122 14.51C232.004 14.51 232.994 14.618 233.894 14.834V14.168C233.894 12.44 232.796 11.342 231.05 11.342C229.916 11.342 229.106 11.72 228.44 12.404L227.846 11.612C228.71 10.766 229.826 10.298 231.356 10.298ZM230.726 19.208C232.238 19.208 233.894 17.966 233.894 15.752C233.048 15.554 232.112 15.446 231.284 15.446C229.664 15.446 228.584 16.22 228.584 17.372C228.584 18.488 229.394 19.208 230.726 19.208ZM246.271 6.896C245.191 6.896 244.453 7.598 244.453 8.642V10.478H247.693V11.558H244.453V20H243.157V11.558H241.501V10.478H243.157V8.444C243.157 6.842 244.273 5.78 245.911 5.78C246.667 5.78 247.333 5.888 247.855 6.158L247.747 7.184C247.333 6.986 246.847 6.896 246.271 6.896ZM250.645 12.08C251.329 10.892 252.607 10.298 254.425 10.298L254.317 11.486C251.995 11.486 250.663 12.656 250.663 14.474V20H249.367V10.478H250.627L250.645 12.08ZM259.644 20.18C256.728 20.18 254.766 18.2 254.766 15.248C254.766 12.278 256.728 10.298 259.644 10.298C262.542 10.298 264.486 12.278 264.486 15.248C264.486 18.2 262.542 20.18 259.644 20.18ZM259.644 19.064C261.732 19.064 263.118 17.534 263.118 15.248C263.118 12.944 261.732 11.432 259.644 11.432C257.538 11.432 256.134 12.944 256.134 15.248C256.134 17.534 257.538 19.064 259.644 19.064ZM277.73 10.298C279.98 10.298 281.474 11.774 281.474 14.006V20H280.178V14.258C280.178 12.548 279.098 11.432 277.478 11.432C275.858 11.432 274.778 12.548 274.778 14.258V20H273.482V14.258C273.482 12.548 272.402 11.432 270.8 11.432C269.18 11.432 268.1 12.548 268.1 14.258V20H266.804V10.478H268.064L268.082 11.99C268.658 10.928 269.72 10.298 271.196 10.298C272.708 10.298 273.86 11.036 274.418 12.242C274.994 11.054 276.128 10.298 277.73 10.298ZM297.26 6.68V7.814H292.976V20H291.608V7.814H287.306V6.68H297.26ZM305.848 15.122C305.848 15.284 305.848 15.572 305.83 15.716H298.234C298.396 17.786 299.512 19.136 301.402 19.136C302.68 19.136 303.742 18.506 304.48 17.516L305.47 18.074C304.552 19.442 303.094 20.18 301.402 20.18C298.684 20.18 296.848 18.2 296.848 15.23C296.848 12.278 298.648 10.298 301.366 10.298C304.048 10.298 305.848 12.224 305.848 15.122ZM301.366 11.342C299.53 11.342 298.36 12.674 298.234 14.798H304.498C304.39 12.674 303.202 11.342 301.366 11.342ZM312.811 10.298C315.151 10.298 316.717 11.774 316.717 14.006V20H315.421V14.258C315.421 12.548 314.215 11.432 312.415 11.432C310.597 11.432 309.391 12.548 309.391 14.258V20H308.095V10.478H309.355L309.373 12.08C310.003 10.964 311.155 10.298 312.811 10.298ZM327.279 5.96H328.575V20H327.314L327.279 17.948C326.631 19.298 325.371 20.18 323.481 20.18C320.817 20.18 318.909 18.218 318.909 15.266C318.909 12.296 320.817 10.298 323.481 10.298C325.371 10.298 326.631 11.18 327.279 12.53V5.96ZM323.787 19.064C325.875 19.064 327.279 17.534 327.279 15.248C327.279 12.962 325.875 11.432 323.787 11.432C321.681 11.432 320.277 12.962 320.277 15.266C320.277 17.534 321.681 19.064 323.787 19.064ZM339.915 15.122C339.915 15.284 339.915 15.572 339.897 15.716H332.301C332.463 17.786 333.579 19.136 335.469 19.136C336.747 19.136 337.809 18.506 338.547 17.516L339.537 18.074C338.619 19.442 337.161 20.18 335.469 20.18C332.751 20.18 330.915 18.2 330.915 15.23C330.915 12.278 332.715 10.298 335.433 10.298C338.115 10.298 339.915 12.224 339.915 15.122ZM335.433 11.342C333.597 11.342 332.427 12.674 332.301 14.798H338.565C338.457 12.674 337.269 11.342 335.433 11.342ZM343.44 12.08C344.124 10.892 345.402 10.298 347.22 10.298L347.112 11.486C344.79 11.486 343.458 12.656 343.458 14.474V20H342.162V10.478H343.422L343.44 12.08ZM348.86 20V5.96H350.156V20H348.86ZM354.029 24.14C353.615 24.14 353.183 24.068 352.877 23.924L353.021 22.862C353.237 22.97 353.525 23.024 353.831 23.024C354.641 23.024 354.983 22.484 355.361 21.674L356.207 19.874L351.941 10.478H353.363L356.891 18.452L360.311 10.478H361.733L356.639 21.854C356.045 23.24 355.451 24.14 354.029 24.14ZM371.032 10.298C373.354 10.298 374.866 11.774 374.866 14.006V20H373.606L373.57 18.002C372.904 19.388 371.554 20.18 370.042 20.18C368.17 20.18 366.91 19.082 366.91 17.408C366.91 15.68 368.458 14.51 370.798 14.51C371.68 14.51 372.67 14.618 373.57 14.834V14.168C373.57 12.44 372.472 11.342 370.726 11.342C369.592 11.342 368.782 11.72 368.116 12.404L367.522 11.612C368.386 10.766 369.502 10.298 371.032 10.298ZM370.402 19.208C371.914 19.208 373.57 17.966 373.57 15.752C372.724 15.554 371.788 15.446 370.96 15.446C369.34 15.446 368.26 16.22 368.26 17.372C368.26 18.488 369.07 19.208 370.402 19.208ZM382.403 10.298C384.743 10.298 386.309 11.774 386.309 14.006V20H385.013V14.258C385.013 12.548 383.807 11.432 382.007 11.432C380.189 11.432 378.983 12.548 378.983 14.258V20H377.687V10.478H378.947L378.965 12.08C379.595 10.964 380.747 10.298 382.403 10.298ZM396.87 5.96H398.166V20H396.906L396.87 17.948C396.222 19.298 394.962 20.18 393.072 20.18C390.408 20.18 388.5 18.218 388.5 15.266C388.5 12.296 390.408 10.298 393.072 10.298C394.962 10.298 396.222 11.18 396.87 12.53V5.96ZM393.378 19.064C395.466 19.064 396.87 17.534 396.87 15.248C396.87 12.962 395.466 11.432 393.378 11.432C391.272 11.432 389.868 12.962 389.868 15.266C389.868 17.534 391.272 19.064 393.378 19.064ZM412.074 20.18C408.042 20.18 405.342 17.426 405.342 13.304C405.342 9.218 408.042 6.5 412.074 6.5C414.252 6.5 415.872 7.328 417.096 8.66L416.232 9.542C415.296 8.462 413.946 7.634 412.128 7.634C408.924 7.634 406.782 9.902 406.782 13.304C406.782 16.742 408.906 19.046 412.092 19.046C414.072 19.046 415.584 18.11 416.538 16.724L417.474 17.588C416.286 19.19 414.396 20.18 412.074 20.18ZM419.559 20V5.96H420.855V20H419.559ZM427.177 10.298C429.499 10.298 431.011 11.774 431.011 14.006V20H429.751L429.715 18.002C429.049 19.388 427.699 20.18 426.187 20.18C424.315 20.18 423.055 19.082 423.055 17.408C423.055 15.68 424.603 14.51 426.943 14.51C427.825 14.51 428.815 14.618 429.715 14.834V14.168C429.715 12.44 428.617 11.342 426.871 11.342C425.737 11.342 424.927 11.72 424.261 12.404L423.667 11.612C424.531 10.766 425.647 10.298 427.177 10.298ZM426.547 19.208C428.059 19.208 429.715 17.966 429.715 15.752C428.869 15.554 427.933 15.446 427.105 15.446C425.485 15.446 424.405 16.22 424.405 17.372C424.405 18.488 425.215 19.208 426.547 19.208ZM440.797 10.478H442.093V20H440.851L440.815 18.416C440.203 19.532 439.087 20.18 437.485 20.18C435.217 20.18 433.705 18.686 433.705 16.49V10.478H435.001V16.238C435.001 17.93 436.153 19.064 437.899 19.064C439.645 19.064 440.797 17.93 440.797 16.238V10.478ZM452.786 5.96H454.082V20H452.822L452.786 17.948C452.138 19.298 450.878 20.18 448.988 20.18C446.324 20.18 444.416 18.218 444.416 15.266C444.416 12.296 446.324 10.298 448.988 10.298C450.878 10.298 452.138 11.18 452.786 12.53V5.96ZM449.294 19.064C451.382 19.064 452.786 17.534 452.786 15.248C452.786 12.962 451.382 11.432 449.294 11.432C447.188 11.432 445.784 12.962 445.784 15.266C445.784 17.534 447.188 19.064 449.294 19.064ZM465.423 15.122C465.423 15.284 465.423 15.572 465.405 15.716H457.809C457.971 17.786 459.087 19.136 460.977 19.136C462.255 19.136 463.317 18.506 464.055 17.516L465.045 18.074C464.127 19.442 462.669 20.18 460.977 20.18C458.259 20.18 456.423 18.2 456.423 15.23C456.423 12.278 458.223 10.298 460.941 10.298C463.623 10.298 465.423 12.224 465.423 15.122ZM460.941 11.342C459.105 11.342 457.935 12.674 457.809 14.798H464.073C463.965 12.674 462.777 11.342 460.941 11.342ZM481.915 20L480.421 16.526H473.365L471.871 20H470.413L476.245 6.68H477.541L483.373 20H481.915ZM473.869 15.374H479.935L476.911 8.336L473.869 15.374ZM485.238 20V6.68H486.606V20H485.238ZM497.844 19.064C498.51 19.064 499.14 18.956 499.752 18.722V19.784C499.122 20.054 498.348 20.18 497.448 20.18C495.918 20.18 494.874 19.118 494.874 17.552V11.558H493.218V10.478H494.874V7.688H496.17V10.478H499.608V11.558H496.17V17.3C496.17 18.344 496.854 19.064 497.844 19.064ZM505.597 20.18C502.681 20.18 500.719 18.2 500.719 15.248C500.719 12.278 502.681 10.298 505.597 10.298C508.495 10.298 510.439 12.278 510.439 15.248C510.439 18.2 508.495 20.18 505.597 20.18ZM505.597 19.064C507.685 19.064 509.071 17.534 509.071 15.248C509.071 12.944 507.685 11.432 505.597 11.432C503.491 11.432 502.087 12.944 502.087 15.248C502.087 17.534 503.491 19.064 505.597 19.064ZM525.261 5.96H526.557V20H525.297L525.261 17.948C524.613 19.298 523.353 20.18 521.463 20.18C518.799 20.18 516.891 18.218 516.891 15.266C516.891 12.296 518.799 10.298 521.463 10.298C523.353 10.298 524.613 11.18 525.261 12.53V5.96ZM521.769 19.064C523.857 19.064 525.261 17.534 525.261 15.248C525.261 12.962 523.857 11.432 521.769 11.432C519.663 11.432 518.259 12.962 518.259 15.266C518.259 17.534 519.663 19.064 521.769 19.064ZM537.897 15.122C537.897 15.284 537.897 15.572 537.879 15.716H530.283C530.445 17.786 531.561 19.136 533.451 19.136C534.729 19.136 535.791 18.506 536.529 17.516L537.519 18.074C536.601 19.442 535.143 20.18 533.451 20.18C530.733 20.18 528.897 18.2 528.897 15.23C528.897 12.278 530.697 10.298 533.415 10.298C536.097 10.298 537.897 12.224 537.897 15.122ZM533.415 11.342C531.579 11.342 530.409 12.674 530.283 14.798H536.547C536.439 12.674 535.251 11.342 533.415 11.342ZM540.18 20V5.96H541.476V20H540.18ZM545.152 8.084C544.648 8.084 544.27 7.706 544.27 7.22C544.27 6.716 544.648 6.338 545.152 6.338C545.638 6.338 546.016 6.716 546.016 7.22C546.016 7.706 545.638 8.084 545.152 8.084ZM544.504 20V10.478H545.8V20H544.504ZM551.763 20L547.515 10.478H548.937L552.411 18.506L555.885 10.478H557.307L553.077 20H551.763ZM567.147 15.122C567.147 15.284 567.147 15.572 567.129 15.716H559.533C559.695 17.786 560.811 19.136 562.701 19.136C563.979 19.136 565.041 18.506 565.779 17.516L566.769 18.074C565.851 19.442 564.393 20.18 562.701 20.18C559.983 20.18 558.147 18.2 558.147 15.23C558.147 12.278 559.947 10.298 562.665 10.298C565.347 10.298 567.147 12.224 567.147 15.122ZM562.665 11.342C560.829 11.342 559.659 12.674 559.533 14.798H565.797C565.689 12.674 564.501 11.342 562.665 11.342ZM570.672 12.08C571.356 10.892 572.634 10.298 574.452 10.298L574.344 11.486C572.022 11.486 570.69 12.656 570.69 14.474V20H569.394V10.478H570.654L570.672 12.08ZM585.474 10.298C588.138 10.298 590.028 12.26 590.028 15.212C590.028 18.2 588.138 20.18 585.474 20.18C583.584 20.18 582.324 19.298 581.676 17.948V23.96H580.38V10.478H581.64L581.676 12.53C582.324 11.18 583.584 10.298 585.474 10.298ZM585.168 19.064C587.274 19.064 588.678 17.534 588.678 15.23C588.678 12.944 587.274 11.432 585.168 11.432C583.08 11.432 581.676 12.944 581.676 15.248C581.676 17.534 583.08 19.064 585.168 19.064ZM593.647 12.08C594.331 10.892 595.609 10.298 597.427 10.298L597.319 11.486C594.997 11.486 593.665 12.656 593.665 14.474V20H592.369V10.478H593.629L593.647 12.08ZM606.786 15.122C606.786 15.284 606.786 15.572 606.768 15.716H599.172C599.334 17.786 600.45 19.136 602.34 19.136C603.618 19.136 604.68 18.506 605.418 17.516L606.408 18.074C605.49 19.442 604.032 20.18 602.34 20.18C599.622 20.18 597.786 18.2 597.786 15.23C597.786 12.278 599.586 10.298 602.304 10.298C604.986 10.298 606.786 12.224 606.786 15.122ZM602.304 11.342C600.468 11.342 599.298 12.674 599.172 14.798H605.436C605.328 12.674 604.14 11.342 602.304 11.342ZM613.227 20.18C610.347 20.18 608.403 18.2 608.403 15.23C608.403 12.278 610.365 10.298 613.299 10.298C614.523 10.298 615.513 10.658 616.377 11.342L615.639 12.242C614.955 11.684 614.217 11.432 613.299 11.432C611.175 11.432 609.771 12.944 609.771 15.248C609.771 17.534 611.193 19.064 613.317 19.064C614.307 19.064 615.243 18.722 615.909 18.038L616.665 18.92C615.801 19.748 614.595 20.18 613.227 20.18ZM619.349 8.084C618.845 8.084 618.467 7.706 618.467 7.22C618.467 6.716 618.845 6.338 619.349 6.338C619.835 6.338 620.213 6.716 620.213 7.22C620.213 7.706 619.835 8.084 619.349 8.084ZM618.701 20V10.478H619.997V20H618.701ZM625.708 20.18C624.358 20.18 623.17 19.838 622.432 19.172L622.972 18.362C623.764 18.938 624.718 19.136 625.708 19.136C627.058 19.136 627.958 18.506 627.958 17.534C627.958 16.634 627.112 16.13 625.96 15.806L624.934 15.5C623.44 15.086 622.414 14.492 622.414 13.07C622.414 11.396 623.746 10.298 625.762 10.298C627.04 10.298 628.084 10.568 629.002 11.162L628.444 12.044C627.634 11.54 626.77 11.342 625.852 11.342C624.592 11.342 623.746 11.936 623.746 12.872C623.746 13.754 624.484 14.15 625.51 14.438L626.536 14.744C627.976 15.14 629.29 15.86 629.29 17.426C629.29 19.082 627.904 20.18 625.708 20.18ZM640.009 15.122C640.009 15.284 640.009 15.572 639.991 15.716H632.395C632.557 17.786 633.673 19.136 635.563 19.136C636.841 19.136 637.903 18.506 638.641 17.516L639.631 18.074C638.713 19.442 637.255 20.18 635.563 20.18C632.845 20.18 631.009 18.2 631.009 15.23C631.009 12.278 632.809 10.298 635.527 10.298C638.209 10.298 640.009 12.224 640.009 15.122ZM635.527 11.342C633.691 11.342 632.521 12.674 632.395 14.798H638.659C638.551 12.674 637.363 11.342 635.527 11.342ZM640.838 22.61L642.062 18.542H643.61L642.152 22.61H640.838ZM655.203 20.18C652.323 20.18 650.379 18.2 650.379 15.23C650.379 12.278 652.341 10.298 655.275 10.298C656.499 10.298 657.489 10.658 658.353 11.342L657.615 12.242C656.931 11.684 656.193 11.432 655.275 11.432C653.151 11.432 651.747 12.944 651.747 15.248C651.747 17.534 653.169 19.064 655.293 19.064C656.283 19.064 657.219 18.722 657.885 18.038L658.641 18.92C657.777 19.748 656.571 20.18 655.203 20.18ZM663.972 10.298C666.294 10.298 667.806 11.774 667.806 14.006V20H666.546L666.51 18.002C665.844 19.388 664.494 20.18 662.982 20.18C661.11 20.18 659.85 19.082 659.85 17.408C659.85 15.68 661.398 14.51 663.738 14.51C664.62 14.51 665.61 14.618 666.51 14.834V14.168C666.51 12.44 665.412 11.342 663.666 11.342C662.532 11.342 661.722 11.72 661.056 12.404L660.462 11.612C661.326 10.766 662.442 10.298 663.972 10.298ZM663.342 19.208C664.854 19.208 666.51 17.966 666.51 15.752C665.664 15.554 664.728 15.446 663.9 15.446C662.28 15.446 661.2 16.22 661.2 17.372C661.2 18.488 662.01 19.208 663.342 19.208ZM671.904 12.08C672.588 10.892 673.866 10.298 675.684 10.298L675.576 11.486C673.254 11.486 671.922 12.656 671.922 14.474V20H670.626V10.478H671.886L671.904 12.08ZM685.044 15.122C685.044 15.284 685.044 15.572 685.026 15.716H677.43C677.592 17.786 678.708 19.136 680.598 19.136C681.876 19.136 682.938 18.506 683.676 17.516L684.666 18.074C683.748 19.442 682.29 20.18 680.598 20.18C677.88 20.18 676.044 18.2 676.044 15.23C676.044 12.278 677.844 10.298 680.562 10.298C683.244 10.298 685.044 12.224 685.044 15.122ZM680.562 11.342C678.726 11.342 677.556 12.674 677.43 14.798H683.694C683.586 12.674 682.398 11.342 680.562 11.342ZM690.857 6.896C689.777 6.896 689.039 7.598 689.039 8.642V10.478H692.279V11.558H689.039V20H687.743V11.558H686.087V10.478H687.743V8.444C687.743 6.842 688.859 5.78 690.497 5.78C691.253 5.78 691.919 5.888 692.441 6.158L692.333 7.184C691.919 6.986 691.433 6.896 690.857 6.896ZM700.919 10.478H702.215V20H700.973L700.937 18.416C700.325 19.532 699.209 20.18 697.607 20.18C695.339 20.18 693.827 18.686 693.827 16.49V10.478H695.123V16.238C695.123 17.93 696.275 19.064 698.021 19.064C699.767 19.064 700.919 17.93 700.919 16.238V10.478ZM705.203 20V5.96H706.499V20H705.203ZM709.545 20V5.96H710.841V20H709.545ZM714.715 24.14C714.301 24.14 713.869 24.068 713.563 23.924L713.707 22.862C713.923 22.97 714.211 23.024 714.517 23.024C715.327 23.024 715.669 22.484 716.047 21.674L716.893 19.874L712.627 10.478H714.049L717.577 18.452L720.997 10.478H722.419L717.325 21.854C716.731 23.24 716.137 24.14 714.715 24.14ZM732.6 20.18C729.72 20.18 727.776 18.2 727.776 15.23C727.776 12.278 729.738 10.298 732.672 10.298C733.896 10.298 734.886 10.658 735.75 11.342L735.012 12.242C734.328 11.684 733.59 11.432 732.672 11.432C730.548 11.432 729.144 12.944 729.144 15.248C729.144 17.534 730.566 19.064 732.69 19.064C733.68 19.064 734.616 18.722 735.282 18.038L736.038 18.92C735.174 19.748 733.968 20.18 732.6 20.18ZM742.023 20.18C739.107 20.18 737.145 18.2 737.145 15.248C737.145 12.278 739.107 10.298 742.023 10.298C744.921 10.298 746.865 12.278 746.865 15.248C746.865 18.2 744.921 20.18 742.023 20.18ZM742.023 19.064C744.111 19.064 745.497 17.534 745.497 15.248C745.497 12.944 744.111 11.432 742.023 11.432C739.917 11.432 738.513 12.944 738.513 15.248C738.513 17.534 739.917 19.064 742.023 19.064ZM753.899 10.298C756.239 10.298 757.805 11.774 757.805 14.006V20H756.509V14.258C756.509 12.548 755.303 11.432 753.503 11.432C751.685 11.432 750.479 12.548 750.479 14.258V20H749.183V10.478H750.443L750.461 12.08C751.091 10.964 752.243 10.298 753.899 10.298ZM763.362 20.18C762.012 20.18 760.824 19.838 760.086 19.172L760.626 18.362C761.418 18.938 762.372 19.136 763.362 19.136C764.712 19.136 765.612 18.506 765.612 17.534C765.612 16.634 764.766 16.13 763.614 15.806L762.588 15.5C761.094 15.086 760.068 14.492 760.068 13.07C760.068 11.396 761.4 10.298 763.416 10.298C764.694 10.298 765.738 10.568 766.656 11.162L766.098 12.044C765.288 11.54 764.424 11.342 763.506 11.342C762.246 11.342 761.4 11.936 761.4 12.872C761.4 13.754 762.138 14.15 763.164 14.438L764.19 14.744C765.63 15.14 766.944 15.86 766.944 17.426C766.944 19.082 765.558 20.18 763.362 20.18ZM772.643 19.064C773.309 19.064 773.939 18.956 774.551 18.722V19.784C773.921 20.054 773.147 20.18 772.247 20.18C770.717 20.18 769.673 19.118 769.673 17.552V11.558H768.017V10.478H769.673V7.688H770.969V10.478H774.407V11.558H770.969V17.3C770.969 18.344 771.653 19.064 772.643 19.064ZM777.514 12.08C778.198 10.892 779.476 10.298 781.294 10.298L781.186 11.486C778.864 11.486 777.532 12.656 777.532 14.474V20H776.236V10.478H777.496L777.514 12.08ZM789.864 10.478H791.16V20H789.918L789.882 18.416C789.27 19.532 788.154 20.18 786.552 20.18C784.284 20.18 782.772 18.686 782.772 16.49V10.478H784.068V16.238C784.068 17.93 785.22 19.064 786.966 19.064C788.712 19.064 789.864 17.93 789.864 16.238V10.478ZM798.307 20.18C795.427 20.18 793.483 18.2 793.483 15.23C793.483 12.278 795.445 10.298 798.379 10.298C799.603 10.298 800.593 10.658 801.457 11.342L800.719 12.242C800.035 11.684 799.297 11.432 798.379 11.432C796.255 11.432 794.851 12.944 794.851 15.248C794.851 17.534 796.273 19.064 798.397 19.064C799.387 19.064 800.323 18.722 800.989 18.038L801.745 18.92C800.881 19.748 799.675 20.18 798.307 20.18ZM807.219 19.064C807.885 19.064 808.515 18.956 809.127 18.722V19.784C808.497 20.054 807.723 20.18 806.823 20.18C805.293 20.18 804.249 19.118 804.249 17.552V11.558H802.593V10.478H804.249V7.688H805.545V10.478H808.983V11.558H805.545V17.3C805.545 18.344 806.229 19.064 807.219 19.064ZM819.112 15.122C819.112 15.284 819.112 15.572 819.094 15.716H811.498C811.66 17.786 812.776 19.136 814.666 19.136C815.944 19.136 817.006 18.506 817.744 17.516L818.734 18.074C817.816 19.442 816.358 20.18 814.666 20.18C811.948 20.18 810.112 18.2 810.112 15.23C810.112 12.278 811.912 10.298 814.63 10.298C817.312 10.298 819.112 12.224 819.112 15.122ZM814.63 11.342C812.794 11.342 811.624 12.674 811.498 14.798H817.762C817.654 12.674 816.466 11.342 814.63 11.342ZM829.099 5.96H830.395V20H829.135L829.099 17.948C828.451 19.298 827.191 20.18 825.301 20.18C822.637 20.18 820.729 18.218 820.729 15.266C820.729 12.296 822.637 10.298 825.301 10.298C827.191 10.298 828.451 11.18 829.099 12.53V5.96ZM825.607 19.064C827.695 19.064 829.099 17.534 829.099 15.248C829.099 12.962 827.695 11.432 825.607 11.432C823.501 11.432 822.097 12.962 822.097 15.266C822.097 17.534 823.501 19.064 825.607 19.064ZM846.499 15.122C846.499 15.284 846.499 15.572 846.481 15.716H838.885C839.047 17.786 840.163 19.136 842.053 19.136C843.331 19.136 844.393 18.506 845.131 17.516L846.121 18.074C845.203 19.442 843.745 20.18 842.053 20.18C839.335 20.18 837.499 18.2 837.499 15.23C837.499 12.278 839.299 10.298 842.017 10.298C844.699 10.298 846.499 12.224 846.499 15.122ZM842.017 11.342C840.181 11.342 839.011 12.674 838.885 14.798H845.149C845.041 12.674 843.853 11.342 842.017 11.342ZM856.424 20H854.84L851.744 16.004L848.666 20H847.082L850.952 15.122L847.298 10.478H848.864L851.744 14.24L854.624 10.478H856.19L852.536 15.122L856.424 20ZM863.209 10.298C865.873 10.298 867.763 12.26 867.763 15.212C867.763 18.2 865.873 20.18 863.209 20.18C861.319 20.18 860.059 19.298 859.411 17.948V23.96H858.115V10.478H859.375L859.411 12.53C860.059 11.18 861.319 10.298 863.209 10.298ZM862.903 19.064C865.009 19.064 866.413 17.534 866.413 15.23C866.413 12.944 865.009 11.432 862.903 11.432C860.815 11.432 859.411 12.944 859.411 15.248C859.411 17.534 860.815 19.064 862.903 19.064ZM870.139 20V5.96H871.435V20H870.139ZM877.757 10.298C880.079 10.298 881.591 11.774 881.591 14.006V20H880.331L880.295 18.002C879.629 19.388 878.279 20.18 876.767 20.18C874.895 20.18 873.635 19.082 873.635 17.408C873.635 15.68 875.183 14.51 877.523 14.51C878.405 14.51 879.395 14.618 880.295 14.834V14.168C880.295 12.44 879.197 11.342 877.451 11.342C876.317 11.342 875.507 11.72 874.841 12.404L874.247 11.612C875.111 10.766 876.227 10.298 877.757 10.298ZM877.127 19.208C878.639 19.208 880.295 17.966 880.295 15.752C879.449 15.554 878.513 15.446 877.685 15.446C876.065 15.446 874.985 16.22 874.985 17.372C874.985 18.488 875.795 19.208 877.127 19.208ZM889.128 10.298C891.468 10.298 893.034 11.774 893.034 14.006V20H891.738V14.258C891.738 12.548 890.532 11.432 888.732 11.432C886.914 11.432 885.708 12.548 885.708 14.258V20H884.412V10.478H885.672L885.69 12.08C886.32 10.964 887.472 10.298 889.128 10.298ZM899.167 10.298C901.489 10.298 903.001 11.774 903.001 14.006V20H901.741L901.705 18.002C901.039 19.388 899.689 20.18 898.177 20.18C896.305 20.18 895.045 19.082 895.045 17.408C895.045 15.68 896.593 14.51 898.933 14.51C899.815 14.51 900.805 14.618 901.705 14.834V14.168C901.705 12.44 900.607 11.342 898.861 11.342C897.727 11.342 896.917 11.72 896.251 12.404L895.657 11.612C896.521 10.766 897.637 10.298 899.167 10.298ZM898.537 19.208C900.049 19.208 901.705 17.966 901.705 15.752C900.859 15.554 899.923 15.446 899.095 15.446C897.475 15.446 896.395 16.22 896.395 17.372C896.395 18.488 897.205 19.208 898.537 19.208ZM909.155 19.064C909.821 19.064 910.451 18.956 911.063 18.722V19.784C910.433 20.054 909.659 20.18 908.759 20.18C907.229 20.18 906.185 19.118 906.185 17.552V11.558H904.529V10.478H906.185V7.688H907.481V10.478H910.919V11.558H907.481V17.3C907.481 18.344 908.165 19.064 909.155 19.064ZM913.413 8.084C912.909 8.084 912.531 7.706 912.531 7.22C912.531 6.716 912.909 6.338 913.413 6.338C913.899 6.338 914.277 6.716 914.277 7.22C914.277 7.706 913.899 8.084 913.413 8.084ZM912.765 20V10.478H914.061V20H912.765ZM921.285 20.18C918.369 20.18 916.407 18.2 916.407 15.248C916.407 12.278 918.369 10.298 921.285 10.298C924.183 10.298 926.127 12.278 926.127 15.248C926.127 18.2 924.183 20.18 921.285 20.18ZM921.285 19.064C923.373 19.064 924.759 17.534 924.759 15.248C924.759 12.944 923.373 11.432 921.285 11.432C919.179 11.432 917.775 12.944 917.775 15.248C917.775 17.534 919.179 19.064 921.285 19.064ZM933.161 10.298C935.501 10.298 937.067 11.774 937.067 14.006V20H935.771V14.258C935.771 12.548 934.565 11.432 932.765 11.432C930.947 11.432 929.741 12.548 929.741 14.258V20H928.445V10.478H929.705L929.723 12.08C930.353 10.964 931.505 10.298 933.161 10.298ZM942.624 20.18C941.274 20.18 940.086 19.838 939.348 19.172L939.888 18.362C940.68 18.938 941.634 19.136 942.624 19.136C943.974 19.136 944.874 18.506 944.874 17.534C944.874 16.634 944.028 16.13 942.876 15.806L941.85 15.5C940.356 15.086 939.33 14.492 939.33 13.07C939.33 11.396 940.662 10.298 942.678 10.298C943.956 10.298 945 10.568 945.918 11.162L945.36 12.044C944.55 11.54 943.686 11.342 942.768 11.342C941.508 11.342 940.662 11.936 940.662 12.872C940.662 13.754 941.4 14.15 942.426 14.438L943.452 14.744C944.892 15.14 946.206 15.86 946.206 17.426C946.206 19.082 944.82 20.18 942.624 20.18ZM957.548 20.18C954.632 20.18 952.67 18.2 952.67 15.248C952.67 12.278 954.632 10.298 957.548 10.298C960.446 10.298 962.39 12.278 962.39 15.248C962.39 18.2 960.446 20.18 957.548 20.18ZM957.548 19.064C959.636 19.064 961.022 17.534 961.022 15.248C961.022 12.944 959.636 11.432 957.548 11.432C955.442 11.432 954.038 12.944 954.038 15.248C954.038 17.534 955.442 19.064 957.548 19.064ZM968.24 6.896C967.16 6.896 966.422 7.598 966.422 8.642V10.478H969.662V11.558H966.422V20H965.126V11.558H963.47V10.478H965.126V8.444C965.126 6.842 966.242 5.78 967.88 5.78C968.636 5.78 969.302 5.888 969.824 6.158L969.716 7.184C969.302 6.986 968.816 6.896 968.24 6.896Z" fill="#D8D8D8"/>
<path d="M82.622 17.894H89.282V20H80.084V6.68H89.138V8.786H82.622V12.206H88.562V14.294H82.622V17.894ZM100.629 20H97.713L95.463 16.814L93.213 20H90.297L94.005 15.032L90.513 10.298H93.429L95.463 13.232L97.497 10.298H100.413L96.921 15.032L100.629 20ZM107.613 10.118C110.223 10.118 112.257 12.098 112.257 15.104C112.257 18.146 110.223 20.18 107.613 20.18C106.137 20.18 105.075 19.586 104.391 18.596V23.96H101.943V10.298H104.301L104.355 11.756C105.039 10.73 106.119 10.118 107.613 10.118ZM107.055 18.074C108.639 18.074 109.719 16.904 109.719 15.122C109.719 13.376 108.639 12.206 107.055 12.206C105.453 12.206 104.391 13.376 104.391 15.14C104.391 16.904 105.453 18.074 107.055 18.074ZM114.196 20V5.96H116.644V20H114.196ZM123.004 10.118C125.488 10.118 127.162 11.612 127.162 13.898V20H124.804L124.75 18.614C124.102 19.622 122.986 20.18 121.798 20.18C119.782 20.18 118.432 18.974 118.432 17.174C118.432 15.302 120.088 14.078 122.572 14.078C123.238 14.078 123.976 14.15 124.714 14.294V14.114C124.714 12.818 123.85 12.044 122.374 12.044C121.456 12.044 120.718 12.314 120.106 12.818L119.044 11.378C120.088 10.532 121.312 10.118 123.004 10.118ZM122.5 18.434C123.634 18.434 124.696 17.534 124.714 15.95C124.084 15.824 123.436 15.752 122.878 15.752C121.726 15.752 120.988 16.292 120.988 17.12C120.988 17.912 121.51 18.434 122.5 18.434ZM130.783 8.714C129.937 8.714 129.325 8.12 129.325 7.274C129.325 6.428 129.937 5.816 130.783 5.816C131.629 5.816 132.223 6.428 132.223 7.274C132.223 8.12 131.629 8.714 130.783 8.714ZM129.559 20V10.298H132.007V20H129.559ZM140.06 10.118C142.382 10.118 143.93 11.63 143.93 13.898V20H141.482V14.294C141.482 13.034 140.582 12.206 139.214 12.206C137.846 12.206 136.946 13.034 136.946 14.294V20H134.498V10.298H136.856L136.892 11.522C137.63 10.604 138.764 10.118 140.06 10.118Z" fill="#D8D8D8"/>
<path d="M47.1868 20H44.8807V6.17468H36.725V3.86858H55.3425V6.17468H47.1868V20ZM74.3312 20H71.3164L65.0056 13.4979L58.7173 20H55.6912L63.5094 11.9343L55.6912 3.86858H58.7173L74.3312 20ZM74.3312 3.86858L67.3004 11.1018L65.8043 9.5607L71.3164 3.86858H74.3312Z" fill="#ADFF00"/>
<path d="M8.20348 52.064C8.86948 52.064 9.49948 51.956 10.1115 51.722V52.784C9.48148 53.054 8.70748 53.18 7.80748 53.18C6.27748 53.18 5.23348 52.118 5.23348 50.552V44.558H3.57748V43.478H5.23348V40.688H6.52948V43.478H9.96748V44.558H6.52948V50.3C6.52948 51.344 7.21348 52.064 8.20348 52.064ZM13.0743 45.08C13.7583 43.892 15.0363 43.298 16.8543 43.298L16.7463 44.486C14.4243 44.486 13.0923 45.656 13.0923 47.474V53H11.7963V43.478H13.0563L13.0743 45.08ZM21.5419 43.298C23.8639 43.298 25.3759 44.774 25.3759 47.006V53H24.1159L24.0799 51.002C23.4139 52.388 22.0639 53.18 20.5519 53.18C18.6799 53.18 17.4199 52.082 17.4199 50.408C17.4199 48.68 18.9679 47.51 21.3079 47.51C22.1899 47.51 23.1799 47.618 24.0799 47.834V47.168C24.0799 45.44 22.9819 44.342 21.2359 44.342C20.1019 44.342 19.2919 44.72 18.6259 45.404L18.0319 44.612C18.8959 43.766 20.0119 43.298 21.5419 43.298ZM20.9119 52.208C22.4239 52.208 24.0799 50.966 24.0799 48.752C23.2339 48.554 22.2979 48.446 21.4699 48.446C19.8499 48.446 18.7699 49.22 18.7699 50.372C18.7699 51.488 19.5799 52.208 20.9119 52.208ZM32.9127 43.298C35.2527 43.298 36.8187 44.774 36.8187 47.006V53H35.5227V47.258C35.5227 45.548 34.3167 44.432 32.5167 44.432C30.6987 44.432 29.4927 45.548 29.4927 47.258V53H28.1967V43.478H29.4567L29.4747 45.08C30.1047 43.964 31.2567 43.298 32.9127 43.298ZM42.3761 53.18C41.0261 53.18 39.8381 52.838 39.1001 52.172L39.6401 51.362C40.4321 51.938 41.3861 52.136 42.3761 52.136C43.7261 52.136 44.6261 51.506 44.6261 50.534C44.6261 49.634 43.7801 49.13 42.6281 48.806L41.6021 48.5C40.1081 48.086 39.0821 47.492 39.0821 46.07C39.0821 44.396 40.4141 43.298 42.4301 43.298C43.7081 43.298 44.7521 43.568 45.6701 44.162L45.1121 45.044C44.3021 44.54 43.4381 44.342 42.5201 44.342C41.2601 44.342 40.4141 44.936 40.4141 45.872C40.4141 46.754 41.1521 47.15 42.1781 47.438L43.2041 47.744C44.6441 48.14 45.9581 48.86 45.9581 50.426C45.9581 52.082 44.5721 53.18 42.3761 53.18ZM51.6005 43.298C53.9225 43.298 55.4345 44.774 55.4345 47.006V53H54.1745L54.1385 51.002C53.4725 52.388 52.1225 53.18 50.6105 53.18C48.7385 53.18 47.4785 52.082 47.4785 50.408C47.4785 48.68 49.0265 47.51 51.3665 47.51C52.2485 47.51 53.2385 47.618 54.1385 47.834V47.168C54.1385 45.44 53.0405 44.342 51.2945 44.342C50.1605 44.342 49.3505 44.72 48.6845 45.404L48.0905 44.612C48.9545 43.766 50.0705 43.298 51.6005 43.298ZM50.9705 52.208C52.4825 52.208 54.1385 50.966 54.1385 48.752C53.2925 48.554 52.3565 48.446 51.5285 48.446C49.9085 48.446 48.8285 49.22 48.8285 50.372C48.8285 51.488 49.6385 52.208 50.9705 52.208ZM62.4493 53.18C59.5693 53.18 57.6253 51.2 57.6253 48.23C57.6253 45.278 59.5873 43.298 62.5213 43.298C63.7453 43.298 64.7353 43.658 65.5993 44.342L64.8613 45.242C64.1773 44.684 63.4393 44.432 62.5213 44.432C60.3973 44.432 58.9933 45.944 58.9933 48.248C58.9933 50.534 60.4153 52.064 62.5393 52.064C63.5293 52.064 64.4653 51.722 65.1313 51.038L65.8873 51.92C65.0233 52.748 63.8173 53.18 62.4493 53.18ZM71.3617 52.064C72.0277 52.064 72.6577 51.956 73.2697 51.722V52.784C72.6397 53.054 71.8657 53.18 70.9657 53.18C69.4357 53.18 68.3917 52.118 68.3917 50.552V44.558H66.7357V43.478H68.3917V40.688H69.6877V43.478H73.1257V44.558H69.6877V50.3C69.6877 51.344 70.3717 52.064 71.3617 52.064ZM75.6205 41.084C75.1165 41.084 74.7385 40.706 74.7385 40.22C74.7385 39.716 75.1165 39.338 75.6205 39.338C76.1065 39.338 76.4845 39.716 76.4845 40.22C76.4845 40.706 76.1065 41.084 75.6205 41.084ZM74.9725 53V43.478H76.2685V53H74.9725ZM83.4916 53.18C80.5756 53.18 78.6136 51.2 78.6136 48.248C78.6136 45.278 80.5756 43.298 83.4916 43.298C86.3896 43.298 88.3336 45.278 88.3336 48.248C88.3336 51.2 86.3896 53.18 83.4916 53.18ZM83.4916 52.064C85.5796 52.064 86.9656 50.534 86.9656 48.248C86.9656 45.944 85.5796 44.432 83.4916 44.432C81.3856 44.432 79.9816 45.944 79.9816 48.248C79.9816 50.534 81.3856 52.064 83.4916 52.064ZM95.3678 43.298C97.7078 43.298 99.2738 44.774 99.2738 47.006V53H97.9778V47.258C97.9778 45.548 96.7718 44.432 94.9718 44.432C93.1538 44.432 91.9478 45.548 91.9478 47.258V53H90.6518V43.478H91.9118L91.9298 45.08C92.5598 43.964 93.7118 43.298 95.3678 43.298ZM114.599 38.96H115.895V53H114.635L114.599 50.948C113.951 52.298 112.691 53.18 110.801 53.18C108.137 53.18 106.229 51.218 106.229 48.266C106.229 45.296 108.137 43.298 110.801 43.298C112.691 43.298 113.951 44.18 114.599 45.53V38.96ZM111.107 52.064C113.195 52.064 114.599 50.534 114.599 48.248C114.599 45.962 113.195 44.432 111.107 44.432C109.001 44.432 107.597 45.962 107.597 48.266C107.597 50.534 109.001 52.064 111.107 52.064ZM127.235 48.122C127.235 48.284 127.235 48.572 127.217 48.716H119.621C119.783 50.786 120.899 52.136 122.789 52.136C124.067 52.136 125.129 51.506 125.867 50.516L126.857 51.074C125.939 52.442 124.481 53.18 122.789 53.18C120.071 53.18 118.235 51.2 118.235 48.23C118.235 45.278 120.035 43.298 122.753 43.298C125.435 43.298 127.235 45.224 127.235 48.122ZM122.753 44.342C120.917 44.342 119.747 45.674 119.621 47.798H125.885C125.777 45.674 124.589 44.342 122.753 44.342ZM132.815 52.064C133.481 52.064 134.111 51.956 134.723 51.722V52.784C134.093 53.054 133.319 53.18 132.419 53.18C130.889 53.18 129.845 52.118 129.845 50.552V44.558H128.189V43.478H129.845V40.688H131.141V43.478H134.579V44.558H131.141V50.3C131.141 51.344 131.825 52.064 132.815 52.064ZM139.72 43.298C142.042 43.298 143.554 44.774 143.554 47.006V53H142.294L142.258 51.002C141.592 52.388 140.242 53.18 138.73 53.18C136.858 53.18 135.598 52.082 135.598 50.408C135.598 48.68 137.146 47.51 139.486 47.51C140.368 47.51 141.358 47.618 142.258 47.834V47.168C142.258 45.44 141.16 44.342 139.414 44.342C138.28 44.342 137.47 44.72 136.804 45.404L136.21 44.612C137.074 43.766 138.19 43.298 139.72 43.298ZM139.09 52.208C140.602 52.208 142.258 50.966 142.258 48.752C141.412 48.554 140.476 48.446 139.648 48.446C138.028 48.446 136.948 49.22 136.948 50.372C136.948 51.488 137.758 52.208 139.09 52.208ZM147.04 41.084C146.536 41.084 146.158 40.706 146.158 40.22C146.158 39.716 146.536 39.338 147.04 39.338C147.526 39.338 147.904 39.716 147.904 40.22C147.904 40.706 147.526 41.084 147.04 41.084ZM146.392 53V43.478H147.688V53H146.392ZM150.7 53V38.96H151.996V53H150.7ZM157.741 53.18C156.391 53.18 155.203 52.838 154.465 52.172L155.005 51.362C155.797 51.938 156.751 52.136 157.741 52.136C159.091 52.136 159.991 51.506 159.991 50.534C159.991 49.634 159.145 49.13 157.993 48.806L156.967 48.5C155.473 48.086 154.447 47.492 154.447 46.07C154.447 44.396 155.779 43.298 157.795 43.298C159.073 43.298 160.117 43.568 161.035 44.162L160.477 45.044C159.667 44.54 158.803 44.342 157.885 44.342C156.625 44.342 155.779 44.936 155.779 45.872C155.779 46.754 156.517 47.15 157.543 47.438L158.569 47.744C160.009 48.14 161.323 48.86 161.323 50.426C161.323 52.082 159.937 53.18 157.741 53.18ZM162.412 55.61L163.636 51.542H165.184L163.726 55.61H162.412ZM176.777 53.18C173.897 53.18 171.953 51.2 171.953 48.23C171.953 45.278 173.915 43.298 176.849 43.298C178.073 43.298 179.063 43.658 179.927 44.342L179.189 45.242C178.505 44.684 177.767 44.432 176.849 44.432C174.725 44.432 173.321 45.944 173.321 48.248C173.321 50.534 174.743 52.064 176.867 52.064C177.857 52.064 178.793 51.722 179.459 51.038L180.215 51.92C179.351 52.748 178.145 53.18 176.777 53.18ZM186.201 53.18C183.285 53.18 181.323 51.2 181.323 48.248C181.323 45.278 183.285 43.298 186.201 43.298C189.099 43.298 191.043 45.278 191.043 48.248C191.043 51.2 189.099 53.18 186.201 53.18ZM186.201 52.064C188.289 52.064 189.675 50.534 189.675 48.248C189.675 45.944 188.289 44.432 186.201 44.432C184.095 44.432 182.691 45.944 182.691 48.248C182.691 50.534 184.095 52.064 186.201 52.064ZM198.077 43.298C200.417 43.298 201.983 44.774 201.983 47.006V53H200.687V47.258C200.687 45.548 199.481 44.432 197.681 44.432C195.863 44.432 194.657 45.548 194.657 47.258V53H193.361V43.478H194.621L194.639 45.08C195.269 43.964 196.421 43.298 198.077 43.298ZM208.12 52.064C208.786 52.064 209.416 51.956 210.028 51.722V52.784C209.398 53.054 208.624 53.18 207.724 53.18C206.194 53.18 205.15 52.118 205.15 50.552V44.558H203.494V43.478H205.15V40.688H206.446V43.478H209.884V44.558H206.446V50.3C206.446 51.344 207.13 52.064 208.12 52.064ZM212.378 41.084C211.874 41.084 211.496 40.706 211.496 40.22C211.496 39.716 211.874 39.338 212.378 39.338C212.864 39.338 213.242 39.716 213.242 40.22C213.242 40.706 212.864 41.084 212.378 41.084ZM211.73 53V43.478H213.026V53H211.73ZM220.717 43.298C223.057 43.298 224.623 44.774 224.623 47.006V53H223.327V47.258C223.327 45.548 222.121 44.432 220.321 44.432C218.503 44.432 217.297 45.548 217.297 47.258V53H216.001V43.478H217.261L217.279 45.08C217.909 43.964 219.061 43.298 220.717 43.298ZM234.411 43.478H235.707V53H234.465L234.429 51.416C233.817 52.532 232.701 53.18 231.099 53.18C228.831 53.18 227.319 51.686 227.319 49.49V43.478H228.615V49.238C228.615 50.93 229.767 52.064 231.513 52.064C233.259 52.064 234.411 50.93 234.411 49.238V43.478ZM242.908 53.18C239.992 53.18 238.03 51.2 238.03 48.248C238.03 45.278 239.992 43.298 242.908 43.298C245.806 43.298 247.75 45.278 247.75 48.248C247.75 51.2 245.806 53.18 242.908 53.18ZM242.908 52.064C244.996 52.064 246.382 50.534 246.382 48.248C246.382 45.944 244.996 44.432 242.908 44.432C240.802 44.432 239.398 45.944 239.398 48.248C239.398 50.534 240.802 52.064 242.908 52.064ZM257.034 43.478H258.33V53H257.088L257.052 51.416C256.44 52.532 255.324 53.18 253.722 53.18C251.454 53.18 249.942 51.686 249.942 49.49V43.478H251.238V49.238C251.238 50.93 252.39 52.064 254.136 52.064C255.882 52.064 257.034 50.93 257.034 49.238V43.478ZM264.019 53.18C262.669 53.18 261.481 52.838 260.743 52.172L261.283 51.362C262.075 51.938 263.029 52.136 264.019 52.136C265.369 52.136 266.269 51.506 266.269 50.534C266.269 49.634 265.423 49.13 264.271 48.806L263.245 48.5C261.751 48.086 260.725 47.492 260.725 46.07C260.725 44.396 262.057 43.298 264.073 43.298C265.351 43.298 266.395 43.568 267.313 44.162L266.755 45.044C265.945 44.54 265.081 44.342 264.163 44.342C262.903 44.342 262.057 44.936 262.057 45.872C262.057 46.754 262.795 47.15 263.821 47.438L264.847 47.744C266.287 48.14 267.601 48.86 267.601 50.426C267.601 52.082 266.215 53.18 264.019 53.18ZM269.967 53V38.96H271.263V53H269.967ZM275.137 57.14C274.723 57.14 274.291 57.068 273.985 56.924L274.129 55.862C274.345 55.97 274.633 56.024 274.939 56.024C275.749 56.024 276.091 55.484 276.469 54.674L277.315 52.874L273.049 43.478H274.471L277.999 51.452L281.419 43.478H282.841L277.747 54.854C277.153 56.24 276.559 57.14 275.137 57.14ZM290.106 45.08C290.79 43.892 292.068 43.298 293.886 43.298L293.778 44.486C291.456 44.486 290.124 45.656 290.124 47.474V53H288.828V43.478H290.088L290.106 45.08ZM303.245 48.122C303.245 48.284 303.245 48.572 303.227 48.716H295.631C295.793 50.786 296.909 52.136 298.799 52.136C300.077 52.136 301.139 51.506 301.877 50.516L302.867 51.074C301.949 52.442 300.491 53.18 298.799 53.18C296.081 53.18 294.245 51.2 294.245 48.23C294.245 45.278 296.045 43.298 298.763 43.298C301.445 43.298 303.245 45.224 303.245 48.122ZM298.763 44.342C296.927 44.342 295.757 45.674 295.631 47.798H301.895C301.787 45.674 300.599 44.342 298.763 44.342ZM305.944 41.444C305.944 39.842 307.06 38.78 308.698 38.78C309.454 38.78 310.12 38.888 310.642 39.158L310.534 40.184C310.12 39.986 309.634 39.896 309.058 39.896C307.978 39.896 307.24 40.598 307.24 41.642V43.478H310.48V44.558H307.24V53H305.944V44.558H304.288V43.478H305.944V41.444ZM312.82 41.084C312.316 41.084 311.938 40.706 311.938 40.22C311.938 39.716 312.316 39.338 312.82 39.338C313.306 39.338 313.684 39.716 313.684 40.22C313.684 40.706 313.306 41.084 312.82 41.084ZM312.172 53V43.478H313.468V53H312.172ZM321.159 43.298C323.499 43.298 325.065 44.774 325.065 47.006V53H323.769V47.258C323.769 45.548 322.563 44.432 320.763 44.432C318.945 44.432 317.739 45.548 317.739 47.258V53H316.443V43.478H317.703L317.721 45.08C318.351 43.964 319.503 43.298 321.159 43.298ZM336.274 48.122C336.274 48.284 336.274 48.572 336.256 48.716H328.66C328.822 50.786 329.938 52.136 331.828 52.136C333.106 52.136 334.168 51.506 334.906 50.516L335.896 51.074C334.978 52.442 333.52 53.18 331.828 53.18C329.11 53.18 327.274 51.2 327.274 48.23C327.274 45.278 329.074 43.298 331.792 43.298C334.474 43.298 336.274 45.224 336.274 48.122ZM331.792 44.342C329.956 44.342 328.786 45.674 328.66 47.798H334.924C334.816 45.674 333.628 44.342 331.792 44.342ZM346.261 38.96H347.557V53H346.297L346.261 50.948C345.613 52.298 344.353 53.18 342.463 53.18C339.799 53.18 337.891 51.218 337.891 48.266C337.891 45.296 339.799 43.298 342.463 43.298C344.353 43.298 345.613 44.18 346.261 45.53V38.96ZM342.769 52.064C344.857 52.064 346.261 50.534 346.261 48.248C346.261 45.962 344.857 44.432 342.769 44.432C340.663 44.432 339.259 45.962 339.259 48.266C339.259 50.534 340.663 52.064 342.769 52.064ZM358.448 52.064C359.114 52.064 359.744 51.956 360.356 51.722V52.784C359.726 53.054 358.952 53.18 358.052 53.18C356.522 53.18 355.478 52.118 355.478 50.552V44.558H353.822V43.478H355.478V40.688H356.774V43.478H360.212V44.558H356.774V50.3C356.774 51.344 357.458 52.064 358.448 52.064ZM366.756 43.298C369.096 43.298 370.662 44.774 370.662 47.006V53H369.366V47.258C369.366 45.548 368.16 44.432 366.36 44.432C364.542 44.432 363.336 45.548 363.336 47.258V53H362.04V38.96H363.336V45.062C363.948 43.946 365.118 43.298 366.756 43.298ZM374.762 45.08C375.446 43.892 376.724 43.298 378.542 43.298L378.434 44.486C376.112 44.486 374.78 45.656 374.78 47.474V53H373.484V43.478H374.744L374.762 45.08ZM383.761 53.18C380.845 53.18 378.883 51.2 378.883 48.248C378.883 45.278 380.845 43.298 383.761 43.298C386.659 43.298 388.603 45.278 388.603 48.248C388.603 51.2 386.659 53.18 383.761 53.18ZM383.761 52.064C385.849 52.064 387.235 50.534 387.235 48.248C387.235 45.944 385.849 44.432 383.761 44.432C381.655 44.432 380.251 45.944 380.251 48.248C380.251 50.534 381.655 52.064 383.761 52.064ZM397.887 43.478H399.183V53H397.941L397.905 51.416C397.293 52.532 396.177 53.18 394.575 53.18C392.307 53.18 390.795 51.686 390.795 49.49V43.478H392.091V49.238C392.091 50.93 393.243 52.064 394.989 52.064C396.735 52.064 397.887 50.93 397.887 49.238V43.478ZM409.93 43.478H411.19V52.316C411.19 55.214 409.102 57.14 405.97 57.14C404.296 57.14 402.856 56.726 401.776 55.898L402.064 54.854C403.09 55.592 404.332 56.024 405.916 56.024C408.31 56.024 409.894 54.512 409.894 52.244V50.948C409.246 52.298 407.986 53.18 406.096 53.18C403.432 53.18 401.524 51.2 401.524 48.212C401.524 45.26 403.432 43.298 406.096 43.298C407.986 43.298 409.246 44.18 409.894 45.53L409.93 43.478ZM406.402 52.064C408.49 52.064 409.894 50.534 409.894 48.248C409.894 45.944 408.49 44.432 406.402 44.432C404.296 44.432 402.892 45.944 402.892 48.23C402.892 50.534 404.296 52.064 406.402 52.064ZM418.84 43.298C421.18 43.298 422.746 44.774 422.746 47.006V53H421.45V47.258C421.45 45.548 420.244 44.432 418.444 44.432C416.626 44.432 415.42 45.548 415.42 47.258V53H414.124V38.96H415.42V45.062C416.032 43.946 417.202 43.298 418.84 43.298ZM434.579 53.18C431.663 53.18 429.701 51.2 429.701 48.248C429.701 45.278 431.663 43.298 434.579 43.298C437.477 43.298 439.421 45.278 439.421 48.248C439.421 51.2 437.477 53.18 434.579 53.18ZM434.579 52.064C436.667 52.064 438.053 50.534 438.053 48.248C438.053 45.944 436.667 44.432 434.579 44.432C432.473 44.432 431.069 45.944 431.069 48.248C431.069 50.534 432.473 52.064 434.579 52.064ZM446.834 43.298C449.498 43.298 451.388 45.26 451.388 48.212C451.388 51.2 449.498 53.18 446.834 53.18C444.944 53.18 443.684 52.298 443.036 50.948V56.96H441.74V43.478H443L443.036 45.53C443.684 44.18 444.944 43.298 446.834 43.298ZM446.528 52.064C448.634 52.064 450.038 50.534 450.038 48.23C450.038 45.944 448.634 44.432 446.528 44.432C444.44 44.432 443.036 45.944 443.036 48.248C443.036 50.534 444.44 52.064 446.528 52.064ZM462.116 48.122C462.116 48.284 462.116 48.572 462.098 48.716H454.502C454.664 50.786 455.78 52.136 457.67 52.136C458.948 52.136 460.01 51.506 460.748 50.516L461.738 51.074C460.82 52.442 459.362 53.18 457.67 53.18C454.952 53.18 453.116 51.2 453.116 48.23C453.116 45.278 454.916 43.298 457.634 43.298C460.316 43.298 462.116 45.224 462.116 48.122ZM457.634 44.342C455.798 44.342 454.628 45.674 454.502 47.798H460.766C460.658 45.674 459.47 44.342 457.634 44.342ZM469.079 43.298C471.419 43.298 472.985 44.774 472.985 47.006V53H471.689V47.258C471.689 45.548 470.483 44.432 468.683 44.432C466.865 44.432 465.659 45.548 465.659 47.258V53H464.363V43.478H465.623L465.641 45.08C466.271 43.964 467.423 43.298 469.079 43.298ZM475.608 48.32V47.348H480.882V48.32H475.608ZM486.241 53.18C484.891 53.18 483.703 52.838 482.965 52.172L483.505 51.362C484.297 51.938 485.251 52.136 486.241 52.136C487.591 52.136 488.491 51.506 488.491 50.534C488.491 49.634 487.645 49.13 486.493 48.806L485.467 48.5C483.973 48.086 482.947 47.492 482.947 46.07C482.947 44.396 484.279 43.298 486.295 43.298C487.573 43.298 488.617 43.568 489.535 44.162L488.977 45.044C488.167 44.54 487.303 44.342 486.385 44.342C485.125 44.342 484.279 44.936 484.279 45.872C484.279 46.754 485.017 47.15 486.043 47.438L487.069 47.744C488.509 48.14 489.823 48.86 489.823 50.426C489.823 52.082 488.437 53.18 486.241 53.18ZM496.402 53.18C493.486 53.18 491.524 51.2 491.524 48.248C491.524 45.278 493.486 43.298 496.402 43.298C499.3 43.298 501.244 45.278 501.244 48.248C501.244 51.2 499.3 53.18 496.402 53.18ZM496.402 52.064C498.49 52.064 499.876 50.534 499.876 48.248C499.876 45.944 498.49 44.432 496.402 44.432C494.296 44.432 492.892 45.944 492.892 48.248C492.892 50.534 494.296 52.064 496.402 52.064ZM510.528 43.478H511.824V53H510.582L510.546 51.416C509.934 52.532 508.818 53.18 507.216 53.18C504.948 53.18 503.436 51.686 503.436 49.49V43.478H504.732V49.238C504.732 50.93 505.884 52.064 507.63 52.064C509.376 52.064 510.528 50.93 510.528 49.238V43.478ZM516.055 45.08C516.739 43.892 518.017 43.298 519.835 43.298L519.727 44.486C517.405 44.486 516.073 45.656 516.073 47.474V53H514.777V43.478H516.037L516.055 45.08ZM525 53.18C522.12 53.18 520.176 51.2 520.176 48.23C520.176 45.278 522.138 43.298 525.072 43.298C526.296 43.298 527.286 43.658 528.15 44.342L527.412 45.242C526.728 44.684 525.99 44.432 525.072 44.432C522.948 44.432 521.544 45.944 521.544 48.248C521.544 50.534 522.966 52.064 525.09 52.064C526.08 52.064 527.016 51.722 527.682 51.038L528.438 51.92C527.574 52.748 526.368 53.18 525 53.18ZM538.563 48.122C538.563 48.284 538.563 48.572 538.545 48.716H530.949C531.111 50.786 532.227 52.136 534.117 52.136C535.395 52.136 536.457 51.506 537.195 50.516L538.185 51.074C537.267 52.442 535.809 53.18 534.117 53.18C531.399 53.18 529.563 51.2 529.563 48.23C529.563 45.278 531.363 43.298 534.081 43.298C536.763 43.298 538.563 45.224 538.563 48.122ZM534.081 44.342C532.245 44.342 531.075 45.674 530.949 47.798H537.213C537.105 45.674 535.917 44.342 534.081 44.342ZM553.314 38.96H554.61V53H553.35L553.314 50.948C552.666 52.298 551.406 53.18 549.516 53.18C546.852 53.18 544.944 51.218 544.944 48.266C544.944 45.296 546.852 43.298 549.516 43.298C551.406 43.298 552.666 44.18 553.314 45.53V38.96ZM549.822 52.064C551.91 52.064 553.314 50.534 553.314 48.248C553.314 45.962 551.91 44.432 549.822 44.432C547.716 44.432 546.312 45.962 546.312 48.266C546.312 50.534 547.716 52.064 549.822 52.064ZM565.95 48.122C565.95 48.284 565.95 48.572 565.932 48.716H558.336C558.498 50.786 559.614 52.136 561.504 52.136C562.782 52.136 563.844 51.506 564.582 50.516L565.572 51.074C564.654 52.442 563.196 53.18 561.504 53.18C558.786 53.18 556.95 51.2 556.95 48.23C556.95 45.278 558.75 43.298 561.468 43.298C564.15 43.298 565.95 45.224 565.95 48.122ZM561.468 44.342C559.632 44.342 558.462 45.674 558.336 47.798H564.6C564.492 45.674 563.304 44.342 561.468 44.342ZM570.939 53L566.691 43.478H568.113L571.587 51.506L575.061 43.478H576.483L572.253 53H570.939ZM586.323 48.122C586.323 48.284 586.323 48.572 586.305 48.716H578.709C578.871 50.786 579.987 52.136 581.877 52.136C583.155 52.136 584.217 51.506 584.955 50.516L585.945 51.074C585.027 52.442 583.569 53.18 581.877 53.18C579.159 53.18 577.323 51.2 577.323 48.23C577.323 45.278 579.123 43.298 581.841 43.298C584.523 43.298 586.323 45.224 586.323 48.122ZM581.841 44.342C580.005 44.342 578.835 45.674 578.709 47.798H584.973C584.865 45.674 583.677 44.342 581.841 44.342ZM588.606 53V38.96H589.902V53H588.606ZM597.16 53.18C594.244 53.18 592.282 51.2 592.282 48.248C592.282 45.278 594.244 43.298 597.16 43.298C600.058 43.298 602.002 45.278 602.002 48.248C602.002 51.2 600.058 53.18 597.16 53.18ZM597.16 52.064C599.248 52.064 600.634 50.534 600.634 48.248C600.634 45.944 599.248 44.432 597.16 44.432C595.054 44.432 593.65 45.944 593.65 48.248C593.65 50.534 595.054 52.064 597.16 52.064ZM609.414 43.298C612.078 43.298 613.968 45.26 613.968 48.212C613.968 51.2 612.078 53.18 609.414 53.18C607.524 53.18 606.264 52.298 605.616 50.948V56.96H604.32V43.478H605.58L605.616 45.53C606.264 44.18 607.524 43.298 609.414 43.298ZM609.108 52.064C611.214 52.064 612.618 50.534 612.618 48.23C612.618 45.944 611.214 44.432 609.108 44.432C607.02 44.432 605.616 45.944 605.616 48.248C605.616 50.534 607.02 52.064 609.108 52.064ZM627.234 43.298C629.484 43.298 630.978 44.774 630.978 47.006V53H629.682V47.258C629.682 45.548 628.602 44.432 626.982 44.432C625.362 44.432 624.282 45.548 624.282 47.258V53H622.986V47.258C622.986 45.548 621.906 44.432 620.304 44.432C618.684 44.432 617.604 45.548 617.604 47.258V53H616.308V43.478H617.568L617.586 44.99C618.162 43.928 619.224 43.298 620.7 43.298C622.212 43.298 623.364 44.036 623.922 45.242C624.498 44.054 625.632 43.298 627.234 43.298ZM642.204 48.122C642.204 48.284 642.204 48.572 642.186 48.716H634.59C634.752 50.786 635.868 52.136 637.758 52.136C639.036 52.136 640.098 51.506 640.836 50.516L641.826 51.074C640.908 52.442 639.45 53.18 637.758 53.18C635.04 53.18 633.204 51.2 633.204 48.23C633.204 45.278 635.004 43.298 637.722 43.298C640.404 43.298 642.204 45.224 642.204 48.122ZM637.722 44.342C635.886 44.342 634.716 45.674 634.59 47.798H640.854C640.746 45.674 639.558 44.342 637.722 44.342ZM649.167 43.298C651.507 43.298 653.073 44.774 653.073 47.006V53H651.777V47.258C651.777 45.548 650.571 44.432 648.771 44.432C646.953 44.432 645.747 45.548 645.747 47.258V53H644.451V43.478H645.711L645.729 45.08C646.359 43.964 647.511 43.298 649.167 43.298ZM659.209 52.064C659.875 52.064 660.505 51.956 661.117 51.722V52.784C660.487 53.054 659.713 53.18 658.813 53.18C657.283 53.18 656.239 52.118 656.239 50.552V44.558H654.583V43.478H656.239V40.688H657.535V43.478H660.973V44.558H657.535V50.3C657.535 51.344 658.219 52.064 659.209 52.064ZM663.36 53.18C662.838 53.18 662.388 52.73 662.388 52.208C662.388 51.668 662.838 51.236 663.36 51.236C663.9 51.236 664.35 51.668 664.35 52.208C664.35 52.73 663.9 53.18 663.36 53.18ZM676.828 39.68C679.456 39.68 681.184 41.3 681.184 43.73C681.184 46.232 679.438 47.888 676.828 47.888H673.354V53H671.986V39.68H676.828ZM676.648 46.754C678.538 46.754 679.762 45.566 679.762 43.784C679.762 42.002 678.52 40.814 676.648 40.814H673.354V46.754H676.648ZM687.353 53.18C684.437 53.18 682.475 51.2 682.475 48.248C682.475 45.278 684.437 43.298 687.353 43.298C690.251 43.298 692.195 45.278 692.195 48.248C692.195 51.2 690.251 53.18 687.353 53.18ZM687.353 52.064C689.441 52.064 690.827 50.534 690.827 48.248C690.827 45.944 689.441 44.432 687.353 44.432C685.247 44.432 683.843 45.944 683.843 48.248C683.843 50.534 685.247 52.064 687.353 52.064ZM707.603 43.478H709.043L705.335 53H704.021L701.087 44.972L698.135 53H696.821L693.113 43.478H694.535L697.541 51.506L700.511 43.478H701.645L704.597 51.506L707.603 43.478ZM718.985 48.122C718.985 48.284 718.985 48.572 718.967 48.716H711.371C711.533 50.786 712.649 52.136 714.539 52.136C715.817 52.136 716.879 51.506 717.617 50.516L718.607 51.074C717.689 52.442 716.231 53.18 714.539 53.18C711.821 53.18 709.985 51.2 709.985 48.23C709.985 45.278 711.785 43.298 714.503 43.298C717.185 43.298 718.985 45.224 718.985 48.122ZM714.503 44.342C712.667 44.342 711.497 45.674 711.371 47.798H717.635C717.527 45.674 716.339 44.342 714.503 44.342ZM722.51 45.08C723.194 43.892 724.472 43.298 726.29 43.298L726.182 44.486C723.86 44.486 722.528 45.656 722.528 47.474V53H721.232V43.478H722.492L722.51 45.08ZM735.649 48.122C735.649 48.284 735.649 48.572 735.631 48.716H728.035C728.197 50.786 729.313 52.136 731.203 52.136C732.481 52.136 733.543 51.506 734.281 50.516L735.271 51.074C734.353 52.442 732.895 53.18 731.203 53.18C728.485 53.18 726.649 51.2 726.649 48.23C726.649 45.278 728.449 43.298 731.167 43.298C733.849 43.298 735.649 45.224 735.649 48.122ZM731.167 44.342C729.331 44.342 728.161 45.674 728.035 47.798H734.299C734.191 45.674 733.003 44.342 731.167 44.342ZM745.636 38.96H746.932V53H745.672L745.636 50.948C744.988 52.298 743.728 53.18 741.838 53.18C739.174 53.18 737.266 51.218 737.266 48.266C737.266 45.296 739.174 43.298 741.838 43.298C743.728 43.298 744.988 44.18 745.636 45.53V38.96ZM742.144 52.064C744.232 52.064 745.636 50.534 745.636 48.248C745.636 45.962 744.232 44.432 742.144 44.432C740.038 44.432 738.634 45.962 738.634 48.266C738.634 50.534 740.038 52.064 742.144 52.064ZM759.742 43.298C762.406 43.298 764.296 45.296 764.296 48.266C764.296 51.218 762.406 53.18 759.742 53.18C757.852 53.18 756.592 52.298 755.944 50.948L755.908 53H754.648V38.96H755.944V45.53C756.592 44.18 757.852 43.298 759.742 43.298ZM759.436 52.064C761.542 52.064 762.946 50.534 762.946 48.266C762.946 45.962 761.542 44.432 759.436 44.432C757.348 44.432 755.944 45.962 755.944 48.248C755.944 50.534 757.348 52.064 759.436 52.064ZM767.254 57.14C766.84 57.14 766.408 57.068 766.102 56.924L766.246 55.862C766.462 55.97 766.75 56.024 767.056 56.024C767.866 56.024 768.208 55.484 768.586 54.674L769.432 52.874L765.166 43.478H766.588L770.116 51.452L773.536 43.478H774.958L769.864 54.854C769.27 56.24 768.676 57.14 767.254 57.14ZM867.969 45.08C868.653 43.892 869.931 43.298 871.749 43.298L871.641 44.486C869.319 44.486 867.987 45.656 867.987 47.474V53H866.691V43.478H867.951L867.969 45.08ZM881.108 48.122C881.108 48.284 881.108 48.572 881.09 48.716H873.494C873.656 50.786 874.772 52.136 876.662 52.136C877.94 52.136 879.002 51.506 879.74 50.516L880.73 51.074C879.812 52.442 878.354 53.18 876.662 53.18C873.944 53.18 872.108 51.2 872.108 48.23C872.108 45.278 873.908 43.298 876.626 43.298C879.308 43.298 881.108 45.224 881.108 48.122ZM876.626 44.342C874.79 44.342 873.62 45.674 873.494 47.798H879.758C879.65 45.674 878.462 44.342 876.626 44.342ZM886.091 53.18C884.741 53.18 883.553 52.838 882.815 52.172L883.355 51.362C884.147 51.938 885.101 52.136 886.091 52.136C887.441 52.136 888.341 51.506 888.341 50.534C888.341 49.634 887.495 49.13 886.343 48.806L885.317 48.5C883.823 48.086 882.797 47.492 882.797 46.07C882.797 44.396 884.129 43.298 886.145 43.298C887.423 43.298 888.467 43.568 889.385 44.162L888.827 45.044C888.017 44.54 887.153 44.342 886.235 44.342C884.975 44.342 884.129 44.936 884.129 45.872C884.129 46.754 884.867 47.15 885.893 47.438L886.919 47.744C888.359 48.14 889.673 48.86 889.673 50.426C889.673 52.082 888.287 53.18 886.091 53.18ZM900.391 48.122C900.391 48.284 900.391 48.572 900.373 48.716H892.777C892.939 50.786 894.055 52.136 895.945 52.136C897.223 52.136 898.285 51.506 899.023 50.516L900.013 51.074C899.095 52.442 897.637 53.18 895.945 53.18C893.227 53.18 891.391 51.2 891.391 48.23C891.391 45.278 893.191 43.298 895.909 43.298C898.591 43.298 900.391 45.224 900.391 48.122ZM895.909 44.342C894.073 44.342 892.903 45.674 892.777 47.798H899.041C898.933 45.674 897.745 44.342 895.909 44.342ZM905.95 43.298C908.272 43.298 909.784 44.774 909.784 47.006V53H908.524L908.488 51.002C907.822 52.388 906.472 53.18 904.96 53.18C903.088 53.18 901.828 52.082 901.828 50.408C901.828 48.68 903.376 47.51 905.716 47.51C906.598 47.51 907.588 47.618 908.488 47.834V47.168C908.488 45.44 907.39 44.342 905.644 44.342C904.51 44.342 903.7 44.72 903.034 45.404L902.44 44.612C903.304 43.766 904.42 43.298 905.95 43.298ZM905.32 52.208C906.832 52.208 908.488 50.966 908.488 48.752C907.642 48.554 906.706 48.446 905.878 48.446C904.258 48.446 903.178 49.22 903.178 50.372C903.178 51.488 903.988 52.208 905.32 52.208ZM913.883 45.08C914.567 43.892 915.845 43.298 917.663 43.298L917.555 44.486C915.233 44.486 913.901 45.656 913.901 47.474V53H912.605V43.478H913.865L913.883 45.08ZM922.828 53.18C919.948 53.18 918.004 51.2 918.004 48.23C918.004 45.278 919.966 43.298 922.9 43.298C924.124 43.298 925.114 43.658 925.978 44.342L925.24 45.242C924.556 44.684 923.818 44.432 922.9 44.432C920.776 44.432 919.372 45.944 919.372 48.248C919.372 50.534 920.794 52.064 922.918 52.064C923.908 52.064 924.844 51.722 925.51 51.038L926.266 51.92C925.402 52.748 924.196 53.18 922.828 53.18ZM933.001 43.298C935.341 43.298 936.907 44.774 936.907 47.006V53H935.611V47.258C935.611 45.548 934.405 44.432 932.605 44.432C930.787 44.432 929.581 45.548 929.581 47.258V53H928.285V38.96H929.581V45.062C930.193 43.946 931.363 43.298 933.001 43.298ZM947.804 43.298C950.126 43.298 951.638 44.774 951.638 47.006V53H950.378L950.342 51.002C949.676 52.388 948.326 53.18 946.814 53.18C944.942 53.18 943.682 52.082 943.682 50.408C943.682 48.68 945.23 47.51 947.57 47.51C948.452 47.51 949.442 47.618 950.342 47.834V47.168C950.342 45.44 949.244 44.342 947.498 44.342C946.364 44.342 945.554 44.72 944.888 45.404L944.294 44.612C945.158 43.766 946.274 43.298 947.804 43.298ZM947.174 52.208C948.686 52.208 950.342 50.966 950.342 48.752C949.496 48.554 948.56 48.446 947.732 48.446C946.112 48.446 945.032 49.22 945.032 50.372C945.032 51.488 945.842 52.208 947.174 52.208ZM959.174 43.298C961.514 43.298 963.08 44.774 963.08 47.006V53H961.784V47.258C961.784 45.548 960.578 44.432 958.778 44.432C956.96 44.432 955.754 45.548 955.754 47.258V53H954.458V43.478H955.718L955.736 45.08C956.366 43.964 957.518 43.298 959.174 43.298ZM973.642 38.96H974.938V53H973.678L973.642 50.948C972.994 52.298 971.734 53.18 969.844 53.18C967.18 53.18 965.272 51.218 965.272 48.266C965.272 45.296 967.18 43.298 969.844 43.298C971.734 43.298 972.994 44.18 973.642 45.53V38.96ZM970.15 52.064C972.238 52.064 973.642 50.534 973.642 48.248C973.642 45.962 972.238 44.432 970.15 44.432C968.044 44.432 966.64 45.962 966.64 48.266C966.64 50.534 968.044 52.064 970.15 52.064ZM992.136 53L990.642 49.526H983.586L982.092 53H980.634L986.466 39.68H987.762L993.594 53H992.136ZM984.09 48.374H990.156L987.132 41.336L984.09 48.374ZM995.459 53V39.68H996.827V53H995.459ZM1000.68 53.18C1000.16 53.18 999.712 52.73 999.712 52.208C999.712 51.668 1000.16 51.236 1000.68 51.236C1001.22 51.236 1001.67 51.668 1001.67 52.208C1001.67 52.73 1001.22 53.18 1000.68 53.18Z" fill="#D8D8D8"/>
<g clip-path="url(#clip0_375_7003)">
<path d="M850.378 40.2168H844.435V53.8717H846.37V42.1515H850.378C853.19 42.1515 855.479 44.44 855.479 47.2528V53.8717H857.413V47.2528C857.413 43.3729 854.257 40.2168 850.378 40.2168Z" fill="#D8D8D8"/>
<path d="M802.006 45.8584V53.8737H813.068V51.9507H803.93V47.7818H813.068V45.8584H802.006Z" fill="#D8D8D8"/>
<path d="M802.006 40.2168H813.05V42.1395H802.006V40.2168Z" fill="#D8D8D8"/>
<path d="M824.644 42.0522C824.016 41.4662 823.317 41.0128 822.567 40.7045C821.813 40.3945 821.088 40.2373 820.413 40.2373H816.657V42.1255H820.03C820.781 42.1255 821.466 42.2675 822.066 42.5488C822.671 42.8322 823.192 43.2074 823.615 43.663C824.04 44.1198 824.374 44.65 824.608 45.238C824.842 45.8253 824.96 46.4368 824.96 47.0557C824.96 47.7854 824.823 48.4599 824.552 49.0611C824.28 49.6655 823.911 50.1886 823.456 50.6167C822.999 51.0464 822.467 51.3861 821.872 51.6257C821.28 51.8649 820.66 51.9863 820.03 51.9863H819.721V53.9094H820.413C821.208 53.9094 822 53.7334 822.768 53.386C823.53 53.0408 824.22 52.5597 824.818 51.9553C825.415 51.3522 825.905 50.6274 826.273 49.8008C826.643 48.97 826.831 48.0583 826.831 47.0909C826.831 46.0274 826.621 45.0568 826.208 44.2051C825.799 43.3627 825.272 42.6385 824.644 42.0522Z" fill="#D8D8D8"/>
<path d="M829.863 40.2168H840.907V42.1395H829.863V40.2168Z" fill="#D8D8D8"/>
<path d="M829.863 45.8584V53.8737H840.924V51.9507H831.786V47.7818H840.924V45.8584H829.863Z" fill="#D8D8D8"/>
<path d="M782.511 41.7029V49.5914L787.04 53.9102L789.205 51.347L789.205 55.818L791.101 55.818L791.09 51.1949L793.618 53.9102L797.796 49.568L797.796 41.7498L790.13 33.8027L782.511 41.7029ZM784.746 42.1594L789.205 37.5363V46.8059L784.746 42.1594ZM791.09 37.5714L795.537 42.1828L791.101 46.8059L791.09 37.5714ZM791.663 48.9828L795.912 44.5704L795.912 48.7605L793.63 51.113L791.663 48.9828ZM784.395 48.7371L784.395 44.5704L788.679 49.0179L786.888 51.113L784.395 48.7371Z" fill="#ADFF00"/>
</g>
<defs>
<clipPath id="clip0_375_7003">
<rect width="74.9065" height="22.2782" fill="white" transform="translate(782.511 33.8076)"/>
</clipPath>
</defs>
</svg>
