<svg width="321" height="143" viewBox="0 0 321 143" fill="none" xmlns="http://www.w3.org/2000/svg">
<path d="M109.895 10.536H111.047V19H109.943L109.911 17.592C109.367 18.584 108.375 19.16 106.951 19.16C104.935 19.16 103.591 17.832 103.591 15.88V10.536H104.743V15.656C104.743 17.16 105.767 18.168 107.319 18.168C108.871 18.168 109.895 17.16 109.895 15.656V10.536ZM116.103 19.16C114.903 19.16 113.847 18.856 113.191 18.264L113.671 17.544C114.375 18.056 115.223 18.232 116.103 18.232C117.303 18.232 118.103 17.672 118.103 16.808C118.103 16.008 117.351 15.56 116.327 15.272L115.415 15C114.087 14.632 113.175 14.104 113.175 12.84C113.175 11.352 114.359 10.376 116.151 10.376C117.287 10.376 118.215 10.616 119.031 11.144L118.535 11.928C117.815 11.48 117.047 11.304 116.231 11.304C115.111 11.304 114.359 11.832 114.359 12.664C114.359 13.448 115.015 13.8 115.927 14.056L116.839 14.328C118.119 14.68 119.287 15.32 119.287 16.712C119.287 18.184 118.055 19.16 116.103 19.16ZM128.815 14.664C128.815 14.808 128.815 15.064 128.799 15.192H122.047C122.191 17.032 123.183 18.232 124.863 18.232C125.999 18.232 126.943 17.672 127.599 16.792L128.479 17.288C127.663 18.504 126.367 19.16 124.863 19.16C122.447 19.16 120.815 17.4 120.815 14.76C120.815 12.136 122.415 10.376 124.831 10.376C127.215 10.376 128.815 12.088 128.815 14.664ZM124.831 11.304C123.199 11.304 122.159 12.488 122.047 14.376H127.615C127.519 12.488 126.463 11.304 124.831 11.304ZM133.244 19.16C132.044 19.16 130.988 18.856 130.332 18.264L130.812 17.544C131.516 18.056 132.364 18.232 133.244 18.232C134.444 18.232 135.244 17.672 135.244 16.808C135.244 16.008 134.492 15.56 133.468 15.272L132.556 15C131.228 14.632 130.316 14.104 130.316 12.84C130.316 11.352 131.5 10.376 133.292 10.376C134.428 10.376 135.356 10.616 136.172 11.144L135.676 11.928C134.956 11.48 134.188 11.304 133.372 11.304C132.252 11.304 131.5 11.832 131.5 12.664C131.5 13.448 132.156 13.8 133.068 14.056L133.98 14.328C135.26 14.68 136.428 15.32 136.428 16.712C136.428 18.184 135.196 19.16 133.244 19.16ZM149.614 6.52H150.766V19H149.646L149.614 17.176C149.038 18.376 147.918 19.16 146.238 19.16C143.87 19.16 142.174 17.416 142.174 14.792C142.174 12.152 143.87 10.376 146.238 10.376C147.918 10.376 149.038 11.16 149.614 12.36V6.52ZM146.51 18.168C148.366 18.168 149.614 16.808 149.614 14.776C149.614 12.744 148.366 11.384 146.51 11.384C144.638 11.384 143.39 12.744 143.39 14.792C143.39 16.808 144.638 18.168 146.51 18.168ZM156.334 10.376C158.398 10.376 159.742 11.688 159.742 13.672V19H158.622L158.59 17.224C157.998 18.456 156.798 19.16 155.454 19.16C153.79 19.16 152.67 18.184 152.67 16.696C152.67 15.16 154.046 14.12 156.126 14.12C156.91 14.12 157.79 14.216 158.59 14.408V13.816C158.59 12.28 157.614 11.304 156.062 11.304C155.054 11.304 154.334 11.64 153.742 12.248L153.214 11.544C153.982 10.792 154.974 10.376 156.334 10.376ZM155.774 18.296C157.118 18.296 158.59 17.192 158.59 15.224C157.838 15.048 157.006 14.952 156.27 14.952C154.83 14.952 153.87 15.64 153.87 16.664C153.87 17.656 154.59 18.296 155.774 18.296ZM165.212 18.168C165.804 18.168 166.364 18.072 166.908 17.864V18.808C166.348 19.048 165.66 19.16 164.86 19.16C163.5 19.16 162.572 18.216 162.572 16.824V11.496H161.1V10.536H162.572V8.056H163.724V10.536H166.78V11.496H163.724V16.6C163.724 17.528 164.332 18.168 165.212 18.168ZM171.35 10.376C173.414 10.376 174.758 11.688 174.758 13.672V19H173.638L173.606 17.224C173.014 18.456 171.814 19.16 170.47 19.16C168.806 19.16 167.686 18.184 167.686 16.696C167.686 15.16 169.062 14.12 171.142 14.12C171.926 14.12 172.806 14.216 173.606 14.408V13.816C173.606 12.28 172.63 11.304 171.078 11.304C170.07 11.304 169.35 11.64 168.758 12.248L168.23 11.544C168.998 10.792 169.99 10.376 171.35 10.376ZM170.79 18.296C172.134 18.296 173.606 17.192 173.606 15.224C172.854 15.048 172.022 14.952 171.286 14.952C169.846 14.952 168.886 15.64 168.886 16.664C168.886 17.656 169.606 18.296 170.79 18.296ZM184.607 7.352C183.647 7.352 182.991 7.976 182.991 8.904V10.536H185.871V11.496H182.991V19H181.839V11.496H180.367V10.536H181.839V8.728C181.839 7.304 182.831 6.36 184.287 6.36C184.959 6.36 185.551 6.456 186.015 6.696L185.919 7.608C185.551 7.432 185.119 7.352 184.607 7.352ZM188.495 11.96C189.103 10.904 190.239 10.376 191.855 10.376L191.759 11.432C189.695 11.432 188.511 12.472 188.511 14.088V19H187.359V10.536H188.479L188.495 11.96ZM196.494 19.16C193.902 19.16 192.158 17.4 192.158 14.776C192.158 12.136 193.902 10.376 196.494 10.376C199.07 10.376 200.798 12.136 200.798 14.776C200.798 17.4 199.07 19.16 196.494 19.16ZM196.494 18.168C198.35 18.168 199.582 16.808 199.582 14.776C199.582 12.728 198.35 11.384 196.494 11.384C194.622 11.384 193.374 12.728 193.374 14.776C193.374 16.808 194.622 18.168 196.494 18.168ZM212.571 10.376C214.571 10.376 215.899 11.688 215.899 13.672V19H214.747V13.896C214.747 12.376 213.787 11.384 212.347 11.384C210.907 11.384 209.947 12.376 209.947 13.896V19H208.795V13.896C208.795 12.376 207.835 11.384 206.411 11.384C204.971 11.384 204.011 12.376 204.011 13.896V19H202.859V10.536H203.979L203.995 11.88C204.507 10.936 205.451 10.376 206.763 10.376C208.107 10.376 209.131 11.032 209.627 12.104C210.139 11.048 211.147 10.376 212.571 10.376ZM229.931 7.16V8.168H226.123V19H224.907V8.168H221.083V7.16H229.931ZM237.565 14.664C237.565 14.808 237.565 15.064 237.549 15.192H230.797C230.941 17.032 231.933 18.232 233.613 18.232C234.749 18.232 235.693 17.672 236.349 16.792L237.229 17.288C236.413 18.504 235.117 19.16 233.613 19.16C231.197 19.16 229.565 17.4 229.565 14.76C229.565 12.136 231.165 10.376 233.581 10.376C235.965 10.376 237.565 12.088 237.565 14.664ZM233.581 11.304C231.949 11.304 230.909 12.488 230.797 14.376H236.365C236.269 12.488 235.213 11.304 233.581 11.304ZM243.754 10.376C245.834 10.376 247.226 11.688 247.226 13.672V19H246.074V13.896C246.074 12.376 245.002 11.384 243.402 11.384C241.786 11.384 240.714 12.376 240.714 13.896V19H239.562V10.536H240.682L240.698 11.96C241.258 10.968 242.282 10.376 243.754 10.376ZM256.614 6.52H257.766V19H256.646L256.614 17.176C256.038 18.376 254.918 19.16 253.238 19.16C250.87 19.16 249.174 17.416 249.174 14.792C249.174 12.152 250.87 10.376 253.238 10.376C254.918 10.376 256.038 11.16 256.614 12.36V6.52ZM253.51 18.168C255.366 18.168 256.614 16.808 256.614 14.776C256.614 12.744 255.366 11.384 253.51 11.384C251.638 11.384 250.39 12.744 250.39 14.792C250.39 16.808 251.638 18.168 253.51 18.168ZM267.846 14.664C267.846 14.808 267.846 15.064 267.83 15.192H261.078C261.222 17.032 262.214 18.232 263.894 18.232C265.03 18.232 265.974 17.672 266.63 16.792L267.51 17.288C266.694 18.504 265.398 19.16 263.894 19.16C261.478 19.16 259.846 17.4 259.846 14.76C259.846 12.136 261.446 10.376 263.862 10.376C266.246 10.376 267.846 12.088 267.846 14.664ZM263.862 11.304C262.23 11.304 261.19 12.488 261.078 14.376H266.646C266.55 12.488 265.494 11.304 263.862 11.304ZM270.979 11.96C271.587 10.904 272.723 10.376 274.339 10.376L274.243 11.432C272.179 11.432 270.995 12.472 270.995 14.088V19H269.843V10.536H270.963L270.979 11.96ZM275.797 19V6.52H276.949V19H275.797ZM280.393 22.68C280.025 22.68 279.641 22.616 279.368 22.488L279.497 21.544C279.689 21.64 279.945 21.688 280.217 21.688C280.937 21.688 281.241 21.208 281.577 20.488L282.329 18.888L278.537 10.536H279.801L282.937 17.624L285.977 10.536H287.241L282.713 20.648C282.185 21.88 281.657 22.68 280.393 22.68ZM295.506 10.376C297.57 10.376 298.914 11.688 298.914 13.672V19H297.794L297.762 17.224C297.17 18.456 295.97 19.16 294.626 19.16C292.962 19.16 291.842 18.184 291.842 16.696C291.842 15.16 293.218 14.12 295.298 14.12C296.082 14.12 296.962 14.216 297.762 14.408V13.816C297.762 12.28 296.786 11.304 295.234 11.304C294.226 11.304 293.506 11.64 292.914 12.248L292.386 11.544C293.154 10.792 294.146 10.376 295.506 10.376ZM294.946 18.296C296.29 18.296 297.762 17.192 297.762 15.224C297.01 15.048 296.178 14.952 295.442 14.952C294.002 14.952 293.042 15.64 293.042 16.664C293.042 17.656 293.762 18.296 294.946 18.296ZM305.613 10.376C307.693 10.376 309.085 11.688 309.085 13.672V19H307.933V13.896C307.933 12.376 306.861 11.384 305.261 11.384C303.645 11.384 302.573 12.376 302.573 13.896V19H301.421V10.536H302.541L302.557 11.96C303.117 10.968 304.141 10.376 305.613 10.376ZM318.473 6.52H319.625V19H318.505L318.473 17.176C317.897 18.376 316.777 19.16 315.097 19.16C312.729 19.16 311.033 17.416 311.033 14.792C311.033 12.152 312.729 10.376 315.097 10.376C316.777 10.376 317.897 11.16 318.473 12.36V6.52ZM315.369 18.168C317.225 18.168 318.473 16.808 318.473 14.776C318.473 12.744 317.225 11.384 315.369 11.384C313.497 11.384 312.249 12.744 312.249 14.792C312.249 16.808 313.497 18.168 315.369 18.168Z" fill="#D7D7D7"/>
<path d="M38.2251 18.6934V6.60587H46.37V8.71292H40.7807V11.5931H45.951V13.7002H40.7807V16.5863H46.3936V18.6934H38.2251ZM50.4558 9.62774L52.1201 12.7972L53.8258 9.62774H56.4051L53.7786 14.1606L56.4759 18.6934H53.9085L52.1201 15.5593L50.3613 18.6934H47.7644L50.4558 14.1606L47.8588 9.62774H50.4558ZM57.8983 22.093V9.62774H60.3772V11.1505H60.4893C60.5995 10.9065 60.7588 10.6586 60.9674 10.4068C61.1799 10.1511 61.4553 9.93858 61.7937 9.76939C62.136 9.59626 62.5609 9.5097 63.0685 9.5097C63.7296 9.5097 64.3394 9.68283 64.8982 10.0291C65.4569 10.3714 65.9035 10.8888 66.238 11.5813C66.5724 12.2699 66.7396 13.1336 66.7396 14.1724C66.7396 15.1836 66.5763 16.0374 66.2498 16.7339C65.9271 17.4264 65.4864 17.9517 64.9277 18.3097C64.3729 18.6638 63.7512 18.8409 63.0626 18.8409C62.5747 18.8409 62.1596 18.7602 61.8173 18.5989C61.4789 18.4376 61.2015 18.235 60.9851 17.991C60.7687 17.7431 60.6034 17.4933 60.4893 17.2414H60.4126V22.093H57.8983ZM60.3595 14.1606C60.3595 14.6996 60.4342 15.1698 60.5837 15.5712C60.7333 15.9725 60.9497 16.2853 61.233 16.5096C61.5163 16.7299 61.8606 16.8401 62.2658 16.8401C62.6751 16.8401 63.0213 16.728 63.3046 16.5037C63.5879 16.2755 63.8024 15.9607 63.9479 15.5593C64.0975 15.1541 64.1722 14.6878 64.1722 14.1606C64.1722 13.6372 64.0994 13.1769 63.9538 12.7795C63.8083 12.3821 63.5938 12.0712 63.3105 11.8469C63.0272 11.6226 62.679 11.5105 62.2658 11.5105C61.8566 11.5105 61.5104 11.6187 61.2271 11.8351C60.9477 12.0515 60.7333 12.3584 60.5837 12.7559C60.4342 13.1533 60.3595 13.6215 60.3595 14.1606ZM70.9301 6.60587V18.6934H68.4158V6.60587H70.9301ZM75.5293 18.8645C74.9509 18.8645 74.4355 18.7642 73.983 18.5635C73.5305 18.3589 73.1724 18.0579 72.9088 17.6605C72.6491 17.2592 72.5193 16.7594 72.5193 16.1614C72.5193 15.6577 72.6117 15.2347 72.7967 14.8924C72.9816 14.5501 73.2334 14.2747 73.5521 14.0661C73.8708 13.8576 74.2328 13.7002 74.6381 13.5939C75.0473 13.4877 75.4762 13.413 75.9248 13.3697C76.452 13.3146 76.877 13.2634 77.1996 13.2162C77.5223 13.1651 77.7564 13.0903 77.902 12.9919C78.0476 12.8936 78.1203 12.748 78.1203 12.5552V12.5198C78.1203 12.146 78.0023 11.8568 77.7662 11.6522C77.5341 11.4476 77.2036 11.3453 76.7747 11.3453C76.3222 11.3453 75.9621 11.4456 75.6946 11.6463C75.427 11.843 75.25 12.0909 75.1634 12.3899L72.838 12.2011C72.956 11.6502 73.1882 11.1741 73.5344 10.7727C73.8807 10.3675 74.3273 10.0566 74.8742 9.84022C75.4251 9.61987 76.0625 9.5097 76.7865 9.5097C77.2901 9.5097 77.7721 9.56872 78.2325 9.68676C78.6968 9.8048 79.108 9.98777 79.466 10.2357C79.828 10.4835 80.1133 10.8023 80.3218 11.1918C80.5304 11.5774 80.6346 12.0397 80.6346 12.5788V18.6934H78.2502V17.4362H78.1794C78.0338 17.7195 77.839 17.9694 77.5951 18.1858C77.3511 18.3983 77.058 18.5655 76.7156 18.6875C76.3733 18.8055 75.9779 18.8645 75.5293 18.8645ZM76.2494 17.1293C76.6192 17.1293 76.9458 17.0565 77.2291 16.9109C77.5124 16.7614 77.7347 16.5607 77.8961 16.3089C78.0574 16.0571 78.1381 15.7718 78.1381 15.4531V14.4911C78.0594 14.5422 77.9512 14.5894 77.8134 14.6327C77.6797 14.6721 77.5282 14.7094 77.359 14.7449C77.1898 14.7763 77.0206 14.8058 76.8514 14.8334C76.6822 14.857 76.5287 14.8786 76.391 14.8983C76.0959 14.9416 75.8382 15.0105 75.6179 15.1049C75.3975 15.1993 75.2264 15.3272 75.1044 15.4885C74.9824 15.6459 74.9214 15.8426 74.9214 16.0787C74.9214 16.4211 75.0454 16.6827 75.2932 16.8637C75.5451 17.0408 75.8638 17.1293 76.2494 17.1293ZM82.5853 18.6934V9.62774H85.0996V18.6934H82.5853ZM83.8483 8.45913C83.4745 8.45913 83.1538 8.33518 82.8863 8.08729C82.6227 7.83547 82.4908 7.53446 82.4908 7.18427C82.4908 6.83802 82.6227 6.54094 82.8863 6.29306C83.1538 6.04123 83.4745 5.91532 83.8483 5.91532C84.2221 5.91532 84.5408 6.04123 84.8045 6.29306C85.072 6.54094 85.2058 6.83802 85.2058 7.18427C85.2058 7.53446 85.072 7.83547 84.8045 8.08729C84.5408 8.33518 84.2221 8.45913 83.8483 8.45913ZM89.628 13.4523V18.6934H87.1137V9.62774H89.5099V11.2272H89.6162C89.8168 10.7 90.1532 10.2829 90.6254 9.97596C91.0976 9.66512 91.6701 9.5097 92.3429 9.5097C92.9725 9.5097 93.5214 9.64741 93.9896 9.92285C94.4578 10.1983 94.8218 10.5917 95.0815 11.1033C95.3412 11.6108 95.471 12.2168 95.471 12.9211V18.6934H92.9567V13.3697C92.9607 12.8149 92.819 12.3821 92.5318 12.0712C92.2446 11.7564 91.8491 11.599 91.3455 11.599C91.0071 11.599 90.708 11.6718 90.4483 11.8174C90.1926 11.963 89.9919 12.1755 89.8463 12.4548C89.7047 12.7303 89.6319 13.0628 89.628 13.4523Z" fill="#D8D8D8"/>
<path d="M9.72506 19H7.59573V6.23439H0.0651617V4.10505H17.2556V6.23439H9.72506V19ZM34.7889 19H32.0052L26.1781 12.9963L20.3717 19H17.5776L24.7966 11.5525L17.5776 4.10505H20.3717L34.7889 19ZM34.7889 4.10505L28.297 10.7839L26.9155 9.36087L32.0052 4.10505H34.7889Z" fill="#ADFF00"/>
<path d="M28.2066 41.16C24.6226 41.16 22.2226 38.712 22.2226 35.048C22.2226 31.416 24.6226 29 28.2066 29C30.1426 29 31.5826 29.736 32.6706 30.92L31.9026 31.704C31.0706 30.744 29.8706 30.008 28.2546 30.008C25.4066 30.008 23.5026 32.024 23.5026 35.048C23.5026 38.104 25.3906 40.152 28.2226 40.152C29.9826 40.152 31.3266 39.32 32.1746 38.088L33.0066 38.856C31.9506 40.28 30.2706 41.16 28.2066 41.16ZM34.8596 41V28.52H36.0116V41H34.8596ZM41.631 32.376C43.695 32.376 45.039 33.688 45.039 35.672V41H43.919L43.887 39.224C43.295 40.456 42.095 41.16 40.751 41.16C39.087 41.16 37.967 40.184 37.967 38.696C37.967 37.16 39.343 36.12 41.423 36.12C42.207 36.12 43.087 36.216 43.887 36.408V35.816C43.887 34.28 42.911 33.304 41.359 33.304C40.351 33.304 39.631 33.64 39.039 34.248L38.511 33.544C39.279 32.792 40.271 32.376 41.631 32.376ZM41.071 40.296C42.415 40.296 43.887 39.192 43.887 37.224C43.135 37.048 42.303 36.952 41.567 36.952C40.127 36.952 39.167 37.64 39.167 38.664C39.167 39.656 39.887 40.296 41.071 40.296ZM53.7384 32.536H54.8904V41H53.7864L53.7544 39.592C53.2104 40.584 52.2184 41.16 50.7944 41.16C48.7784 41.16 47.4344 39.832 47.4344 37.88V32.536H48.5864V37.656C48.5864 39.16 49.6104 40.168 51.1624 40.168C52.7144 40.168 53.7384 39.16 53.7384 37.656V32.536ZM64.3951 28.52H65.5471V41H64.4271L64.3951 39.176C63.8191 40.376 62.6991 41.16 61.0191 41.16C58.6511 41.16 56.9551 39.416 56.9551 36.792C56.9551 34.152 58.6511 32.376 61.0191 32.376C62.6991 32.376 63.8191 33.16 64.3951 34.36V28.52ZM61.2911 40.168C63.1471 40.168 64.3951 38.808 64.3951 36.776C64.3951 34.744 63.1471 33.384 61.2911 33.384C59.4191 33.384 58.1711 34.744 58.1711 36.792C58.1711 38.808 59.4191 40.168 61.2911 40.168ZM75.6274 36.664C75.6274 36.808 75.6274 37.064 75.6114 37.192H68.8594C69.0034 39.032 69.9954 40.232 71.6754 40.232C72.8114 40.232 73.7554 39.672 74.4114 38.792L75.2914 39.288C74.4754 40.504 73.1794 41.16 71.6754 41.16C69.2594 41.16 67.6274 39.4 67.6274 36.76C67.6274 34.136 69.2274 32.376 71.6434 32.376C74.0274 32.376 75.6274 34.088 75.6274 36.664ZM71.6434 33.304C70.0114 33.304 68.9714 34.488 68.8594 36.376H74.4274C74.3314 34.488 73.2754 33.304 71.6434 33.304ZM90.2876 41L88.9596 37.912H82.6876L81.3596 41H80.0636L85.2476 29.16H86.3996L91.5836 41H90.2876ZM83.1356 36.888H88.5276L85.8396 30.632L83.1356 36.888ZM93.241 41V29.16H94.457V41H93.241ZM104.447 40.168C105.039 40.168 105.599 40.072 106.143 39.864V40.808C105.583 41.048 104.895 41.16 104.095 41.16C102.735 41.16 101.807 40.216 101.807 38.824V33.496H100.335V32.536H101.807V30.056H102.959V32.536H106.015V33.496H102.959V38.6C102.959 39.528 103.567 40.168 104.447 40.168ZM111.338 41.16C108.746 41.16 107.002 39.4 107.002 36.776C107.002 34.136 108.746 32.376 111.338 32.376C113.914 32.376 115.642 34.136 115.642 36.776C115.642 39.4 113.914 41.16 111.338 41.16ZM111.338 40.168C113.194 40.168 114.426 38.808 114.426 36.776C114.426 34.728 113.194 33.384 111.338 33.384C109.466 33.384 108.218 34.728 108.218 36.776C108.218 38.808 109.466 40.168 111.338 40.168ZM128.817 28.52H129.969V41H128.849L128.817 39.176C128.241 40.376 127.121 41.16 125.441 41.16C123.073 41.16 121.377 39.416 121.377 36.792C121.377 34.152 123.073 32.376 125.441 32.376C127.121 32.376 128.241 33.16 128.817 34.36V28.52ZM125.713 40.168C127.569 40.168 128.817 38.808 128.817 36.776C128.817 34.744 127.569 33.384 125.713 33.384C123.841 33.384 122.593 34.744 122.593 36.792C122.593 38.808 123.841 40.168 125.713 40.168ZM140.049 36.664C140.049 36.808 140.049 37.064 140.033 37.192H133.281C133.425 39.032 134.417 40.232 136.097 40.232C137.233 40.232 138.177 39.672 138.833 38.792L139.713 39.288C138.897 40.504 137.601 41.16 136.097 41.16C133.681 41.16 132.049 39.4 132.049 36.76C132.049 34.136 133.649 32.376 136.065 32.376C138.449 32.376 140.049 34.088 140.049 36.664ZM136.065 33.304C134.433 33.304 133.393 34.488 133.281 36.376H138.849C138.753 34.488 137.697 33.304 136.065 33.304ZM142.078 41V28.52H143.23V41H142.078ZM146.498 30.408C146.05 30.408 145.714 30.072 145.714 29.64C145.714 29.192 146.05 28.856 146.498 28.856C146.93 28.856 147.266 29.192 147.266 29.64C147.266 30.072 146.93 30.408 146.498 30.408ZM145.922 41V32.536H147.074V41H145.922ZM152.374 41L148.598 32.536H149.862L152.95 39.672L156.038 32.536H157.302L153.542 41H152.374ZM166.049 36.664C166.049 36.808 166.049 37.064 166.033 37.192H159.281C159.425 39.032 160.417 40.232 162.097 40.232C163.233 40.232 164.177 39.672 164.833 38.792L165.713 39.288C164.897 40.504 163.601 41.16 162.097 41.16C159.681 41.16 158.049 39.4 158.049 36.76C158.049 34.136 159.649 32.376 162.065 32.376C164.449 32.376 166.049 34.088 166.049 36.664ZM162.065 33.304C160.433 33.304 159.393 34.488 159.281 36.376H164.849C164.753 34.488 163.697 33.304 162.065 33.304ZM169.182 33.96C169.79 32.904 170.926 32.376 172.542 32.376L172.446 33.432C170.382 33.432 169.198 34.472 169.198 36.088V41H168.046V32.536H169.166L169.182 33.96ZM182.34 32.376C184.708 32.376 186.388 34.12 186.388 36.744C186.388 39.4 184.708 41.16 182.34 41.16C180.66 41.16 179.54 40.376 178.964 39.176V44.52H177.812V32.536H178.932L178.964 34.36C179.54 33.16 180.66 32.376 182.34 32.376ZM182.068 40.168C183.94 40.168 185.188 38.808 185.188 36.76C185.188 34.728 183.94 33.384 182.068 33.384C180.212 33.384 178.964 34.728 178.964 36.776C178.964 38.808 180.212 40.168 182.068 40.168ZM189.604 33.96C190.212 32.904 191.348 32.376 192.964 32.376L192.868 33.432C190.804 33.432 189.62 34.472 189.62 36.088V41H188.468V32.536H189.588L189.604 33.96ZM201.284 36.664C201.284 36.808 201.284 37.064 201.268 37.192H194.516C194.66 39.032 195.652 40.232 197.332 40.232C198.468 40.232 199.412 39.672 200.068 38.792L200.948 39.288C200.132 40.504 198.836 41.16 197.332 41.16C194.916 41.16 193.284 39.4 193.284 36.76C193.284 34.136 194.884 32.376 197.3 32.376C199.684 32.376 201.284 34.088 201.284 36.664ZM197.3 33.304C195.668 33.304 194.628 34.488 194.516 36.376H200.084C199.988 34.488 198.932 33.304 197.3 33.304ZM207.009 41.16C204.449 41.16 202.721 39.4 202.721 36.76C202.721 34.136 204.465 32.376 207.073 32.376C208.161 32.376 209.041 32.696 209.809 33.304L209.153 34.104C208.545 33.608 207.889 33.384 207.073 33.384C205.185 33.384 203.937 34.728 203.937 36.776C203.937 38.808 205.201 40.168 207.089 40.168C207.969 40.168 208.801 39.864 209.393 39.256L210.065 40.04C209.297 40.776 208.225 41.16 207.009 41.16ZM212.451 30.408C212.003 30.408 211.667 30.072 211.667 29.64C211.667 29.192 212.003 28.856 212.451 28.856C212.883 28.856 213.219 29.192 213.219 29.64C213.219 30.072 212.883 30.408 212.451 30.408ZM211.875 41V32.536H213.027V41H211.875ZM218.103 41.16C216.903 41.16 215.847 40.856 215.191 40.264L215.671 39.544C216.375 40.056 217.223 40.232 218.103 40.232C219.303 40.232 220.103 39.672 220.103 38.808C220.103 38.008 219.351 37.56 218.327 37.272L217.415 37C216.087 36.632 215.175 36.104 215.175 34.84C215.175 33.352 216.359 32.376 218.151 32.376C219.287 32.376 220.215 32.616 221.031 33.144L220.535 33.928C219.815 33.48 219.047 33.304 218.231 33.304C217.111 33.304 216.359 33.832 216.359 34.664C216.359 35.448 217.015 35.8 217.927 36.056L218.839 36.328C220.119 36.68 221.287 37.32 221.287 38.712C221.287 40.184 220.055 41.16 218.103 41.16ZM230.815 36.664C230.815 36.808 230.815 37.064 230.799 37.192H224.047C224.191 39.032 225.183 40.232 226.863 40.232C227.999 40.232 228.943 39.672 229.599 38.792L230.479 39.288C229.663 40.504 228.367 41.16 226.863 41.16C224.447 41.16 222.815 39.4 222.815 36.76C222.815 34.136 224.415 32.376 226.831 32.376C229.215 32.376 230.815 34.088 230.815 36.664ZM226.831 33.304C225.199 33.304 224.159 34.488 224.047 36.376H229.615C229.519 34.488 228.463 33.304 226.831 33.304ZM231.552 43.32L232.64 39.704H234.016L232.72 43.32H231.552ZM244.321 41.16C241.761 41.16 240.033 39.4 240.033 36.76C240.033 34.136 241.777 32.376 244.385 32.376C245.473 32.376 246.353 32.696 247.121 33.304L246.465 34.104C245.857 33.608 245.201 33.384 244.385 33.384C242.497 33.384 241.249 34.728 241.249 36.776C241.249 38.808 242.513 40.168 244.401 40.168C245.281 40.168 246.113 39.864 246.705 39.256L247.377 40.04C246.609 40.776 245.537 41.16 244.321 41.16ZM252.115 32.376C254.179 32.376 255.523 33.688 255.523 35.672V41H254.403L254.371 39.224C253.779 40.456 252.579 41.16 251.235 41.16C249.571 41.16 248.451 40.184 248.451 38.696C248.451 37.16 249.827 36.12 251.907 36.12C252.691 36.12 253.571 36.216 254.371 36.408V35.816C254.371 34.28 253.395 33.304 251.843 33.304C250.835 33.304 250.115 33.64 249.523 34.248L248.995 33.544C249.763 32.792 250.755 32.376 252.115 32.376ZM251.555 40.296C252.899 40.296 254.371 39.192 254.371 37.224C253.619 37.048 252.787 36.952 252.051 36.952C250.611 36.952 249.651 37.64 249.651 38.664C249.651 39.656 250.371 40.296 251.555 40.296ZM259.167 33.96C259.775 32.904 260.911 32.376 262.527 32.376L262.431 33.432C260.367 33.432 259.183 34.472 259.183 36.088V41H258.031V32.536H259.151L259.167 33.96ZM270.846 36.664C270.846 36.808 270.846 37.064 270.83 37.192H264.078C264.222 39.032 265.214 40.232 266.894 40.232C268.03 40.232 268.974 39.672 269.63 38.792L270.51 39.288C269.694 40.504 268.398 41.16 266.894 41.16C264.478 41.16 262.846 39.4 262.846 36.76C262.846 34.136 264.446 32.376 266.862 32.376C269.246 32.376 270.846 34.088 270.846 36.664ZM266.862 33.304C265.23 33.304 264.19 34.488 264.078 36.376H269.646C269.55 34.488 268.494 33.304 266.862 33.304ZM276.014 29.352C275.054 29.352 274.398 29.976 274.398 30.904V32.536H277.278V33.496H274.398V41H273.246V33.496H271.774V32.536H273.246V30.728C273.246 29.304 274.238 28.36 275.694 28.36C276.366 28.36 276.958 28.456 277.422 28.696L277.326 29.608C276.958 29.432 276.526 29.352 276.014 29.352ZM284.957 32.536H286.109V41H285.005L284.973 39.592C284.429 40.584 283.437 41.16 282.013 41.16C279.997 41.16 278.653 39.832 278.653 37.88V32.536H279.805V37.656C279.805 39.16 280.829 40.168 282.381 40.168C283.933 40.168 284.957 39.16 284.957 37.656V32.536ZM288.766 41V28.52H289.918V41H288.766ZM292.625 41V28.52H293.777V41H292.625ZM297.221 44.68C296.853 44.68 296.469 44.616 296.197 44.488L296.325 43.544C296.517 43.64 296.773 43.688 297.045 43.688C297.765 43.688 298.069 43.208 298.405 42.488L299.157 40.888L295.365 32.536H296.629L299.765 39.624L302.805 32.536H304.069L299.541 42.648C299.013 43.88 298.485 44.68 297.221 44.68ZM12.4541 65.16C9.89406 65.16 8.16606 63.4 8.16606 60.76C8.16606 58.136 9.91006 56.376 12.5181 56.376C13.6061 56.376 14.4861 56.696 15.2541 57.304L14.5981 58.104C13.9901 57.608 13.3341 57.384 12.5181 57.384C10.6301 57.384 9.38206 58.728 9.38206 60.776C9.38206 62.808 10.6461 64.168 12.5341 64.168C13.4141 64.168 14.2461 63.864 14.8381 63.256L15.5101 64.04C14.7421 64.776 13.6701 65.16 12.4541 65.16ZM20.8302 65.16C18.2382 65.16 16.4942 63.4 16.4942 60.776C16.4942 58.136 18.2382 56.376 20.8302 56.376C23.4062 56.376 25.1342 58.136 25.1342 60.776C25.1342 63.4 23.4062 65.16 20.8302 65.16ZM20.8302 64.168C22.6862 64.168 23.9182 62.808 23.9182 60.776C23.9182 58.728 22.6862 57.384 20.8302 57.384C18.9582 57.384 17.7102 58.728 17.7102 60.776C17.7102 62.808 18.9582 64.168 20.8302 64.168ZM31.3868 56.376C33.4668 56.376 34.8588 57.688 34.8588 59.672V65H33.7068V59.896C33.7068 58.376 32.6348 57.384 31.0348 57.384C29.4188 57.384 28.3468 58.376 28.3468 59.896V65H27.1948V56.536H28.3148L28.3308 57.96C28.8908 56.968 29.9148 56.376 31.3868 56.376ZM39.7987 65.16C38.5987 65.16 37.5427 64.856 36.8867 64.264L37.3667 63.544C38.0707 64.056 38.9187 64.232 39.7987 64.232C40.9987 64.232 41.7987 63.672 41.7987 62.808C41.7987 62.008 41.0467 61.56 40.0227 61.272L39.1107 61C37.7827 60.632 36.8707 60.104 36.8707 58.84C36.8707 57.352 38.0547 56.376 39.8467 56.376C40.9827 56.376 41.9107 56.616 42.7267 57.144L42.2307 57.928C41.5107 57.48 40.7427 57.304 39.9267 57.304C38.8067 57.304 38.0547 57.832 38.0547 58.664C38.0547 59.448 38.7107 59.8 39.6227 60.056L40.5347 60.328C41.8147 60.68 42.9827 61.32 42.9827 62.712C42.9827 64.184 41.7507 65.16 39.7987 65.16ZM48.0481 64.168C48.6401 64.168 49.2001 64.072 49.7441 63.864V64.808C49.1841 65.048 48.4961 65.16 47.6961 65.16C46.3361 65.16 45.4081 64.216 45.4081 62.824V57.496H43.9361V56.536H45.4081V54.056H46.5601V56.536H49.6161V57.496H46.5601V62.6C46.5601 63.528 47.1681 64.168 48.0481 64.168ZM52.3777 57.96C52.9857 56.904 54.1217 56.376 55.7377 56.376L55.6417 57.432C53.5777 57.432 52.3937 58.472 52.3937 60.088V65H51.2417V56.536H52.3617L52.3777 57.96ZM63.3556 56.536H64.5076V65H63.4036L63.3716 63.592C62.8276 64.584 61.8356 65.16 60.4116 65.16C58.3956 65.16 57.0516 63.832 57.0516 61.88V56.536H58.2036V61.656C58.2036 63.16 59.2276 64.168 60.7796 64.168C62.3316 64.168 63.3556 63.16 63.3556 61.656V56.536ZM70.8603 65.16C68.3003 65.16 66.5723 63.4 66.5723 60.76C66.5723 58.136 68.3163 56.376 70.9243 56.376C72.0123 56.376 72.8923 56.696 73.6603 57.304L73.0043 58.104C72.3963 57.608 71.7403 57.384 70.9243 57.384C69.0363 57.384 67.7883 58.728 67.7883 60.776C67.7883 62.808 69.0523 64.168 70.9403 64.168C71.8203 64.168 72.6523 63.864 73.2443 63.256L73.9163 64.04C73.1483 64.776 72.0763 65.16 70.8603 65.16ZM78.7824 64.168C79.3744 64.168 79.9344 64.072 80.4784 63.864V64.808C79.9184 65.048 79.2304 65.16 78.4304 65.16C77.0704 65.16 76.1424 64.216 76.1424 62.824V57.496H74.6704V56.536H76.1424V54.056H77.2944V56.536H80.3504V57.496H77.2944V62.6C77.2944 63.528 77.9024 64.168 78.7824 64.168ZM89.3539 60.664C89.3539 60.808 89.3539 61.064 89.3379 61.192H82.5859C82.7299 63.032 83.7219 64.232 85.4019 64.232C86.5379 64.232 87.4819 63.672 88.1379 62.792L89.0179 63.288C88.2019 64.504 86.9059 65.16 85.4019 65.16C82.9859 65.16 81.3539 63.4 81.3539 60.76C81.3539 58.136 82.9539 56.376 85.3699 56.376C87.7539 56.376 89.3539 58.088 89.3539 60.664ZM85.3699 57.304C83.7379 57.304 82.6979 58.488 82.5859 60.376H88.1539C88.0579 58.488 87.0019 57.304 85.3699 57.304ZM98.2311 52.52H99.3831V65H98.2631L98.2311 63.176C97.6551 64.376 96.5351 65.16 94.8551 65.16C92.4871 65.16 90.7911 63.416 90.7911 60.792C90.7911 58.152 92.4871 56.376 94.8551 56.376C96.5351 56.376 97.6551 57.16 98.2311 58.36V52.52ZM95.1271 64.168C96.9831 64.168 98.2311 62.808 98.2311 60.776C98.2311 58.744 96.9831 57.384 95.1271 57.384C93.2551 57.384 92.0071 58.744 92.0071 60.792C92.0071 62.808 93.2551 64.168 95.1271 64.168ZM113.698 60.664C113.698 60.808 113.698 61.064 113.682 61.192H106.93C107.074 63.032 108.066 64.232 109.746 64.232C110.882 64.232 111.826 63.672 112.482 62.792L113.362 63.288C112.546 64.504 111.25 65.16 109.746 65.16C107.33 65.16 105.698 63.4 105.698 60.76C105.698 58.136 107.298 56.376 109.714 56.376C112.098 56.376 113.698 58.088 113.698 60.664ZM109.714 57.304C108.082 57.304 107.042 58.488 106.93 60.376H112.498C112.402 58.488 111.346 57.304 109.714 57.304ZM122.52 65H121.112L118.36 61.448L115.624 65H114.216L117.656 60.664L114.408 56.536H115.8L118.36 59.88L120.92 56.536H122.312L119.064 60.664L122.52 65ZM128.551 56.376C130.919 56.376 132.599 58.12 132.599 60.744C132.599 63.4 130.919 65.16 128.551 65.16C126.871 65.16 125.751 64.376 125.175 63.176V68.52H124.023V56.536H125.143L125.175 58.36C125.751 57.16 126.871 56.376 128.551 56.376ZM128.279 64.168C130.151 64.168 131.399 62.808 131.399 60.76C131.399 58.728 130.151 57.384 128.279 57.384C126.423 57.384 125.175 58.728 125.175 60.776C125.175 62.808 126.423 64.168 128.279 64.168ZM134.711 65V52.52H135.863V65H134.711ZM141.483 56.376C143.547 56.376 144.891 57.688 144.891 59.672V65H143.771L143.739 63.224C143.147 64.456 141.947 65.16 140.603 65.16C138.939 65.16 137.819 64.184 137.819 62.696C137.819 61.16 139.195 60.12 141.275 60.12C142.059 60.12 142.939 60.216 143.739 60.408V59.816C143.739 58.28 142.763 57.304 141.211 57.304C140.203 57.304 139.483 57.64 138.891 58.248L138.363 57.544C139.131 56.792 140.123 56.376 141.483 56.376ZM140.923 64.296C142.267 64.296 143.739 63.192 143.739 61.224C142.987 61.048 142.155 60.952 141.419 60.952C139.979 60.952 139.019 61.64 139.019 62.664C139.019 63.656 139.739 64.296 140.923 64.296ZM151.59 56.376C153.67 56.376 155.062 57.688 155.062 59.672V65H153.91V59.896C153.91 58.376 152.838 57.384 151.238 57.384C149.622 57.384 148.55 58.376 148.55 59.896V65H147.398V56.536H148.518L148.534 57.96C149.094 56.968 150.118 56.376 151.59 56.376ZM160.514 56.376C162.578 56.376 163.922 57.688 163.922 59.672V65H162.802L162.77 63.224C162.178 64.456 160.978 65.16 159.634 65.16C157.97 65.16 156.85 64.184 156.85 62.696C156.85 61.16 158.226 60.12 160.306 60.12C161.09 60.12 161.97 60.216 162.77 60.408V59.816C162.77 58.28 161.794 57.304 160.242 57.304C159.234 57.304 158.514 57.64 157.922 58.248L157.394 57.544C158.162 56.792 159.154 56.376 160.514 56.376ZM159.954 64.296C161.298 64.296 162.77 63.192 162.77 61.224C162.018 61.048 161.186 60.952 160.45 60.952C159.01 60.952 158.05 61.64 158.05 62.664C158.05 63.656 158.77 64.296 159.954 64.296ZM169.392 64.168C169.984 64.168 170.544 64.072 171.088 63.864V64.808C170.528 65.048 169.84 65.16 169.04 65.16C167.68 65.16 166.752 64.216 166.752 62.824V57.496H165.28V56.536H166.752V54.056H167.904V56.536H170.96V57.496H167.904V62.6C167.904 63.528 168.512 64.168 169.392 64.168ZM173.177 54.408C172.729 54.408 172.393 54.072 172.393 53.64C172.393 53.192 172.729 52.856 173.177 52.856C173.609 52.856 173.945 53.192 173.945 53.64C173.945 54.072 173.609 54.408 173.177 54.408ZM172.601 65V56.536H173.753V65H172.601ZM180.174 65.16C177.582 65.16 175.838 63.4 175.838 60.776C175.838 58.136 177.582 56.376 180.174 56.376C182.75 56.376 184.478 58.136 184.478 60.776C184.478 63.4 182.75 65.16 180.174 65.16ZM180.174 64.168C182.03 64.168 183.262 62.808 183.262 60.776C183.262 58.728 182.03 57.384 180.174 57.384C178.302 57.384 177.054 58.728 177.054 60.776C177.054 62.808 178.302 64.168 180.174 64.168ZM190.731 56.376C192.811 56.376 194.203 57.688 194.203 59.672V65H193.051V59.896C193.051 58.376 191.979 57.384 190.379 57.384C188.763 57.384 187.691 58.376 187.691 59.896V65H186.539V56.536H187.659L187.675 57.96C188.235 56.968 189.259 56.376 190.731 56.376ZM199.142 65.16C197.942 65.16 196.886 64.856 196.23 64.264L196.71 63.544C197.414 64.056 198.262 64.232 199.142 64.232C200.342 64.232 201.142 63.672 201.142 62.808C201.142 62.008 200.39 61.56 199.366 61.272L198.454 61C197.126 60.632 196.214 60.104 196.214 58.84C196.214 57.352 197.398 56.376 199.19 56.376C200.326 56.376 201.254 56.616 202.07 57.144L201.574 57.928C200.854 57.48 200.086 57.304 199.27 57.304C198.15 57.304 197.398 57.832 197.398 58.664C197.398 59.448 198.054 59.8 198.966 60.056L199.878 60.328C201.158 60.68 202.326 61.32 202.326 62.712C202.326 64.184 201.094 65.16 199.142 65.16ZM212.408 65.16C209.816 65.16 208.072 63.4 208.072 60.776C208.072 58.136 209.816 56.376 212.408 56.376C214.984 56.376 216.712 58.136 216.712 60.776C216.712 63.4 214.984 65.16 212.408 65.16ZM212.408 64.168C214.264 64.168 215.496 62.808 215.496 60.776C215.496 58.728 214.264 57.384 212.408 57.384C210.536 57.384 209.288 58.728 209.288 60.776C209.288 62.808 210.536 64.168 212.408 64.168ZM221.912 53.352C220.952 53.352 220.296 53.976 220.296 54.904V56.536H223.176V57.496H220.296V65H219.144V57.496H217.672V56.536H219.144V54.728C219.144 53.304 220.136 52.36 221.592 52.36C222.264 52.36 222.856 52.456 223.32 52.696L223.224 53.608C222.856 53.432 222.424 53.352 221.912 53.352ZM231.439 64.168C232.031 64.168 232.591 64.072 233.135 63.864V64.808C232.575 65.048 231.887 65.16 231.087 65.16C229.727 65.16 228.799 64.216 228.799 62.824V57.496H227.327V56.536H228.799V54.056H229.951V56.536H233.007V57.496H229.951V62.6C229.951 63.528 230.559 64.168 231.439 64.168ZM235.768 57.96C236.376 56.904 237.512 56.376 239.128 56.376L239.032 57.432C236.968 57.432 235.784 58.472 235.784 60.088V65H234.632V56.536H235.752L235.768 57.96ZM243.295 56.376C245.359 56.376 246.703 57.688 246.703 59.672V65H245.583L245.551 63.224C244.959 64.456 243.759 65.16 242.415 65.16C240.751 65.16 239.631 64.184 239.631 62.696C239.631 61.16 241.007 60.12 243.087 60.12C243.871 60.12 244.751 60.216 245.551 60.408V59.816C245.551 58.28 244.575 57.304 243.023 57.304C242.015 57.304 241.295 57.64 240.703 58.248L240.175 57.544C240.943 56.792 241.935 56.376 243.295 56.376ZM242.735 64.296C244.079 64.296 245.551 63.192 245.551 61.224C244.799 61.048 243.967 60.952 243.231 60.952C241.791 60.952 240.831 61.64 240.831 62.664C240.831 63.656 241.551 64.296 242.735 64.296ZM253.402 56.376C255.482 56.376 256.874 57.688 256.874 59.672V65H255.722V59.896C255.722 58.376 254.65 57.384 253.05 57.384C251.434 57.384 250.362 58.376 250.362 59.896V65H249.21V56.536H250.33L250.346 57.96C250.906 56.968 251.93 56.376 253.402 56.376ZM261.814 65.16C260.614 65.16 259.558 64.856 258.902 64.264L259.382 63.544C260.086 64.056 260.934 64.232 261.814 64.232C263.014 64.232 263.814 63.672 263.814 62.808C263.814 62.008 263.062 61.56 262.038 61.272L261.126 61C259.798 60.632 258.886 60.104 258.886 58.84C258.886 57.352 260.07 56.376 261.862 56.376C262.998 56.376 263.926 56.616 264.742 57.144L264.246 57.928C263.526 57.48 262.758 57.304 261.942 57.304C260.822 57.304 260.07 57.832 260.07 58.664C260.07 59.448 260.726 59.8 261.638 60.056L262.55 60.328C263.83 60.68 264.998 61.32 264.998 62.712C264.998 64.184 263.766 65.16 261.814 65.16ZM270.014 56.376C272.078 56.376 273.422 57.688 273.422 59.672V65H272.302L272.27 63.224C271.678 64.456 270.478 65.16 269.134 65.16C267.47 65.16 266.35 64.184 266.35 62.696C266.35 61.16 267.726 60.12 269.806 60.12C270.59 60.12 271.47 60.216 272.27 60.408V59.816C272.27 58.28 271.294 57.304 269.742 57.304C268.734 57.304 268.014 57.64 267.422 58.248L266.894 57.544C267.662 56.792 268.654 56.376 270.014 56.376ZM269.454 64.296C270.798 64.296 272.27 63.192 272.27 61.224C271.518 61.048 270.686 60.952 269.95 60.952C268.51 60.952 267.55 61.64 267.55 62.664C267.55 63.656 268.27 64.296 269.454 64.296ZM279.657 65.16C277.097 65.16 275.369 63.4 275.369 60.76C275.369 58.136 277.113 56.376 279.721 56.376C280.809 56.376 281.689 56.696 282.457 57.304L281.801 58.104C281.193 57.608 280.537 57.384 279.721 57.384C277.833 57.384 276.585 58.728 276.585 60.776C276.585 62.808 277.849 64.168 279.737 64.168C280.617 64.168 281.449 63.864 282.041 63.256L282.713 64.04C281.945 64.776 280.873 65.16 279.657 65.16ZM287.579 64.168C288.171 64.168 288.731 64.072 289.275 63.864V64.808C288.715 65.048 288.027 65.16 287.227 65.16C285.867 65.16 284.939 64.216 284.939 62.824V57.496H283.467V56.536H284.939V54.056H286.091V56.536H289.147V57.496H286.091V62.6C286.091 63.528 286.699 64.168 287.579 64.168ZM291.365 54.408C290.917 54.408 290.581 54.072 290.581 53.64C290.581 53.192 290.917 52.856 291.365 52.856C291.797 52.856 292.133 53.192 292.133 53.64C292.133 54.072 291.797 54.408 291.365 54.408ZM290.789 65V56.536H291.941V65H290.789ZM298.361 65.16C295.769 65.16 294.025 63.4 294.025 60.776C294.025 58.136 295.769 56.376 298.361 56.376C300.937 56.376 302.665 58.136 302.665 60.776C302.665 63.4 300.937 65.16 298.361 65.16ZM298.361 64.168C300.217 64.168 301.449 62.808 301.449 60.776C301.449 58.728 300.217 57.384 298.361 57.384C296.489 57.384 295.241 58.728 295.241 60.776C295.241 62.808 296.489 64.168 298.361 64.168ZM308.918 56.376C310.998 56.376 312.39 57.688 312.39 59.672V65H311.238V59.896C311.238 58.376 310.166 57.384 308.566 57.384C306.95 57.384 305.878 58.376 305.878 59.896V65H304.726V56.536H305.846L305.862 57.96C306.422 56.968 307.446 56.376 308.918 56.376ZM27.0436 76.52H28.1956V89H27.0756L27.0436 87.176C26.4676 88.376 25.3476 89.16 23.6676 89.16C21.2996 89.16 19.6036 87.416 19.6036 84.792C19.6036 82.152 21.2996 80.376 23.6676 80.376C25.3476 80.376 26.4676 81.16 27.0436 82.36V76.52ZM23.9396 88.168C25.7956 88.168 27.0436 86.808 27.0436 84.776C27.0436 82.744 25.7956 81.384 23.9396 81.384C22.0676 81.384 20.8196 82.744 20.8196 84.792C20.8196 86.808 22.0676 88.168 23.9396 88.168ZM38.2758 84.664C38.2758 84.808 38.2758 85.064 38.2598 85.192H31.5078C31.6518 87.032 32.6438 88.232 34.3238 88.232C35.4598 88.232 36.4038 87.672 37.0598 86.792L37.9398 87.288C37.1238 88.504 35.8278 89.16 34.3238 89.16C31.9078 89.16 30.2758 87.4 30.2758 84.76C30.2758 82.136 31.8758 80.376 34.2918 80.376C36.6758 80.376 38.2758 82.088 38.2758 84.664ZM34.2918 81.304C32.6598 81.304 31.6198 82.488 31.5078 84.376H37.0758C36.9798 82.488 35.9238 81.304 34.2918 81.304ZM43.2356 88.168C43.8276 88.168 44.3876 88.072 44.9316 87.864V88.808C44.3716 89.048 43.6836 89.16 42.8836 89.16C41.5236 89.16 40.5956 88.216 40.5956 86.824V81.496H39.1236V80.536H40.5956V78.056H41.7476V80.536H44.8036V81.496H41.7476V86.6C41.7476 87.528 42.3556 88.168 43.2356 88.168ZM49.3732 80.376C51.4372 80.376 52.7812 81.688 52.7812 83.672V89H51.6612L51.6292 87.224C51.0372 88.456 49.8372 89.16 48.4932 89.16C46.8292 89.16 45.7092 88.184 45.7092 86.696C45.7092 85.16 47.0852 84.12 49.1652 84.12C49.9492 84.12 50.8292 84.216 51.6292 84.408V83.816C51.6292 82.28 50.6532 81.304 49.1012 81.304C48.0932 81.304 47.3732 81.64 46.7812 82.248L46.2532 81.544C47.0212 80.792 48.0132 80.376 49.3732 80.376ZM48.8132 88.296C50.1572 88.296 51.6292 87.192 51.6292 85.224C50.8772 85.048 50.0452 84.952 49.3092 84.952C47.8692 84.952 46.9092 85.64 46.9092 86.664C46.9092 87.656 47.6292 88.296 48.8132 88.296ZM55.8806 78.408C55.4326 78.408 55.0966 78.072 55.0966 77.64C55.0966 77.192 55.4326 76.856 55.8806 76.856C56.3126 76.856 56.6486 77.192 56.6486 77.64C56.6486 78.072 56.3126 78.408 55.8806 78.408ZM55.3046 89V80.536H56.4566V89H55.3046ZM59.1331 89V76.52H60.2851V89H59.1331ZM65.3924 89.16C64.1924 89.16 63.1364 88.856 62.4804 88.264L62.9604 87.544C63.6644 88.056 64.5124 88.232 65.3924 88.232C66.5924 88.232 67.3924 87.672 67.3924 86.808C67.3924 86.008 66.6404 85.56 65.6164 85.272L64.7044 85C63.3764 84.632 62.4644 84.104 62.4644 82.84C62.4644 81.352 63.6484 80.376 65.4404 80.376C66.5764 80.376 67.5044 80.616 68.3204 81.144L67.8244 81.928C67.1044 81.48 66.3364 81.304 65.5204 81.304C64.4004 81.304 63.6484 81.832 63.6484 82.664C63.6484 83.448 64.3044 83.8 65.2164 84.056L66.1284 84.328C67.4084 84.68 68.5764 85.32 68.5764 86.712C68.5764 88.184 67.3444 89.16 65.3924 89.16ZM69.5439 91.32L70.6319 87.704H72.0079L70.7119 91.32H69.5439ZM82.3134 89.16C79.7534 89.16 78.0254 87.4 78.0254 84.76C78.0254 82.136 79.7694 80.376 82.3774 80.376C83.4654 80.376 84.3454 80.696 85.1134 81.304L84.4574 82.104C83.8494 81.608 83.1934 81.384 82.3774 81.384C80.4894 81.384 79.2414 82.728 79.2414 84.776C79.2414 86.808 80.5054 88.168 82.3934 88.168C83.2734 88.168 84.1054 87.864 84.6974 87.256L85.3694 88.04C84.6014 88.776 83.5294 89.16 82.3134 89.16ZM90.6896 89.16C88.0976 89.16 86.3536 87.4 86.3536 84.776C86.3536 82.136 88.0976 80.376 90.6896 80.376C93.2656 80.376 94.9936 82.136 94.9936 84.776C94.9936 87.4 93.2656 89.16 90.6896 89.16ZM90.6896 88.168C92.5456 88.168 93.7776 86.808 93.7776 84.776C93.7776 82.728 92.5456 81.384 90.6896 81.384C88.8176 81.384 87.5696 82.728 87.5696 84.776C87.5696 86.808 88.8176 88.168 90.6896 88.168ZM101.246 80.376C103.326 80.376 104.718 81.688 104.718 83.672V89H103.566V83.896C103.566 82.376 102.494 81.384 100.894 81.384C99.2782 81.384 98.2062 82.376 98.2062 83.896V89H97.0542V80.536H98.1742L98.1902 81.96C98.7502 80.968 99.7742 80.376 101.246 80.376ZM110.173 88.168C110.765 88.168 111.325 88.072 111.869 87.864V88.808C111.309 89.048 110.621 89.16 109.821 89.16C108.461 89.16 107.533 88.216 107.533 86.824V81.496H106.061V80.536H107.533V78.056H108.685V80.536H111.741V81.496H108.685V86.6C108.685 87.528 109.293 88.168 110.173 88.168ZM113.959 78.408C113.511 78.408 113.175 78.072 113.175 77.64C113.175 77.192 113.511 76.856 113.959 76.856C114.391 76.856 114.727 77.192 114.727 77.64C114.727 78.072 114.391 78.408 113.959 78.408ZM113.383 89V80.536H114.535V89H113.383ZM121.371 80.376C123.451 80.376 124.843 81.688 124.843 83.672V89H123.691V83.896C123.691 82.376 122.619 81.384 121.019 81.384C119.403 81.384 118.331 82.376 118.331 83.896V89H117.179V80.536H118.299L118.315 81.96C118.875 80.968 119.899 80.376 121.371 80.376ZM133.543 80.536H134.695V89H133.591L133.559 87.592C133.015 88.584 132.023 89.16 130.599 89.16C128.583 89.16 127.239 87.832 127.239 85.88V80.536H128.391V85.656C128.391 87.16 129.415 88.168 130.967 88.168C132.519 88.168 133.543 87.16 133.543 85.656V80.536ZM141.096 89.16C138.504 89.16 136.76 87.4 136.76 84.776C136.76 82.136 138.504 80.376 141.096 80.376C143.672 80.376 145.4 82.136 145.4 84.776C145.4 87.4 143.672 89.16 141.096 89.16ZM141.096 88.168C142.952 88.168 144.184 86.808 144.184 84.776C144.184 82.728 142.952 81.384 141.096 81.384C139.224 81.384 137.976 82.728 137.976 84.776C137.976 86.808 139.224 88.168 141.096 88.168ZM153.652 80.536H154.804V89H153.7L153.668 87.592C153.124 88.584 152.132 89.16 150.708 89.16C148.692 89.16 147.348 87.832 147.348 85.88V80.536H148.5V85.656C148.5 87.16 149.524 88.168 151.076 88.168C152.628 88.168 153.652 87.16 153.652 85.656V80.536ZM159.861 89.16C158.661 89.16 157.605 88.856 156.949 88.264L157.429 87.544C158.133 88.056 158.981 88.232 159.861 88.232C161.061 88.232 161.861 87.672 161.861 86.808C161.861 86.008 161.109 85.56 160.085 85.272L159.173 85C157.845 84.632 156.933 84.104 156.933 82.84C156.933 81.352 158.117 80.376 159.909 80.376C161.045 80.376 161.973 80.616 162.789 81.144L162.293 81.928C161.573 81.48 160.805 81.304 159.989 81.304C158.869 81.304 158.117 81.832 158.117 82.664C158.117 83.448 158.773 83.8 159.685 84.056L160.597 84.328C161.877 84.68 163.045 85.32 163.045 86.712C163.045 88.184 161.813 89.16 159.861 89.16ZM165.149 89V76.52H166.301V89H165.149ZM169.744 92.68C169.376 92.68 168.992 92.616 168.72 92.488L168.848 91.544C169.04 91.64 169.296 91.688 169.568 91.688C170.288 91.688 170.592 91.208 170.928 90.488L171.68 88.888L167.888 80.536H169.152L172.288 87.624L175.328 80.536H176.592L172.064 90.648C171.536 91.88 171.008 92.68 169.744 92.68ZM183.05 81.96C183.658 80.904 184.794 80.376 186.41 80.376L186.314 81.432C184.25 81.432 183.066 82.472 183.066 84.088V89H181.914V80.536H183.034L183.05 81.96ZM194.729 84.664C194.729 84.808 194.729 85.064 194.713 85.192H187.961C188.105 87.032 189.097 88.232 190.777 88.232C191.913 88.232 192.857 87.672 193.513 86.792L194.393 87.288C193.577 88.504 192.281 89.16 190.777 89.16C188.361 89.16 186.729 87.4 186.729 84.76C186.729 82.136 188.329 80.376 190.745 80.376C193.129 80.376 194.729 82.088 194.729 84.664ZM190.745 81.304C189.113 81.304 188.073 82.488 187.961 84.376H193.529C193.433 82.488 192.377 81.304 190.745 81.304ZM197.128 78.728C197.128 77.304 198.12 76.36 199.576 76.36C200.248 76.36 200.84 76.456 201.304 76.696L201.208 77.608C200.84 77.432 200.408 77.352 199.896 77.352C198.936 77.352 198.28 77.976 198.28 78.904V80.536H201.16V81.496H198.28V89H197.128V81.496H195.656V80.536H197.128V78.728ZM203.24 78.408C202.792 78.408 202.456 78.072 202.456 77.64C202.456 77.192 202.792 76.856 203.24 76.856C203.672 76.856 204.008 77.192 204.008 77.64C204.008 78.072 203.672 78.408 203.24 78.408ZM202.664 89V80.536H203.816V89H202.664ZM210.652 80.376C212.732 80.376 214.124 81.688 214.124 83.672V89H212.972V83.896C212.972 82.376 211.9 81.384 210.3 81.384C208.684 81.384 207.612 82.376 207.612 83.896V89H206.46V80.536H207.58L207.596 81.96C208.156 80.968 209.18 80.376 210.652 80.376ZM224.088 84.664C224.088 84.808 224.088 85.064 224.072 85.192H217.32C217.464 87.032 218.456 88.232 220.136 88.232C221.272 88.232 222.216 87.672 222.872 86.792L223.752 87.288C222.936 88.504 221.64 89.16 220.136 89.16C217.72 89.16 216.088 87.4 216.088 84.76C216.088 82.136 217.688 80.376 220.104 80.376C222.488 80.376 224.088 82.088 224.088 84.664ZM220.104 81.304C218.472 81.304 217.432 82.488 217.32 84.376H222.888C222.792 82.488 221.736 81.304 220.104 81.304ZM232.965 76.52H234.117V89H232.997L232.965 87.176C232.389 88.376 231.269 89.16 229.589 89.16C227.221 89.16 225.525 87.416 225.525 84.792C225.525 82.152 227.221 80.376 229.589 80.376C231.269 80.376 232.389 81.16 232.965 82.36V76.52ZM229.861 88.168C231.717 88.168 232.965 86.808 232.965 84.776C232.965 82.744 231.717 81.384 229.861 81.384C227.989 81.384 226.741 82.744 226.741 84.792C226.741 86.808 227.989 88.168 229.861 88.168ZM243.798 88.168C244.39 88.168 244.95 88.072 245.494 87.864V88.808C244.934 89.048 244.246 89.16 243.446 89.16C242.086 89.16 241.158 88.216 241.158 86.824V81.496H239.686V80.536H241.158V78.056H242.31V80.536H245.366V81.496H242.31V86.6C242.31 87.528 242.918 88.168 243.798 88.168ZM251.184 80.376C253.264 80.376 254.656 81.688 254.656 83.672V89H253.504V83.896C253.504 82.376 252.432 81.384 250.832 81.384C249.216 81.384 248.144 82.376 248.144 83.896V89H246.992V76.52H248.144V81.944C248.688 80.952 249.728 80.376 251.184 80.376ZM258.3 81.96C258.908 80.904 260.044 80.376 261.66 80.376L261.564 81.432C259.5 81.432 258.316 82.472 258.316 84.088V89H257.164V80.536H258.284L258.3 81.96ZM266.299 89.16C263.707 89.16 261.963 87.4 261.963 84.776C261.963 82.136 263.707 80.376 266.299 80.376C268.875 80.376 270.603 82.136 270.603 84.776C270.603 87.4 268.875 89.16 266.299 89.16ZM266.299 88.168C268.155 88.168 269.387 86.808 269.387 84.776C269.387 82.728 268.155 81.384 266.299 81.384C264.427 81.384 263.179 82.728 263.179 84.776C263.179 86.808 264.427 88.168 266.299 88.168ZM278.856 80.536H280.008V89H278.904L278.872 87.592C278.328 88.584 277.336 89.16 275.912 89.16C273.896 89.16 272.552 87.832 272.552 85.88V80.536H273.704V85.656C273.704 87.16 274.728 88.168 276.28 88.168C277.832 88.168 278.856 87.16 278.856 85.656V80.536ZM289.56 80.536H290.68V88.392C290.68 90.968 288.824 92.68 286.04 92.68C284.552 92.68 283.272 92.312 282.312 91.576L282.568 90.648C283.48 91.304 284.584 91.688 285.992 91.688C288.12 91.688 289.528 90.344 289.528 88.328V87.176C288.952 88.376 287.832 89.16 286.152 89.16C283.784 89.16 282.088 87.4 282.088 84.744C282.088 82.12 283.784 80.376 286.152 80.376C287.832 80.376 288.952 81.16 289.528 82.36L289.56 80.536ZM286.424 88.168C288.28 88.168 289.528 86.808 289.528 84.776C289.528 82.728 288.28 81.384 286.424 81.384C284.552 81.384 283.304 82.728 283.304 84.76C283.304 86.808 284.552 88.168 286.424 88.168ZM297.481 80.376C299.561 80.376 300.953 81.688 300.953 83.672V89H299.801V83.896C299.801 82.376 298.729 81.384 297.129 81.384C295.513 81.384 294.441 82.376 294.441 83.896V89H293.289V76.52H294.441V81.944C294.985 80.952 296.025 80.376 297.481 80.376ZM60.4552 113.16C57.8632 113.16 56.1192 111.4 56.1192 108.776C56.1192 106.136 57.8632 104.376 60.4552 104.376C63.0312 104.376 64.7592 106.136 64.7592 108.776C64.7592 111.4 63.0312 113.16 60.4552 113.16ZM60.4552 112.168C62.3112 112.168 63.5432 110.808 63.5432 108.776C63.5432 106.728 62.3112 105.384 60.4552 105.384C58.5832 105.384 57.3352 106.728 57.3352 108.776C57.3352 110.808 58.5832 112.168 60.4552 112.168ZM71.3478 104.376C73.7158 104.376 75.3958 106.12 75.3958 108.744C75.3958 111.4 73.7158 113.16 71.3478 113.16C69.6678 113.16 68.5478 112.376 67.9718 111.176V116.52H66.8198V104.536H67.9398L67.9718 106.36C68.5478 105.16 69.6678 104.376 71.3478 104.376ZM71.0758 112.168C72.9478 112.168 74.1958 110.808 74.1958 108.76C74.1958 106.728 72.9478 105.384 71.0758 105.384C69.2198 105.384 67.9718 106.728 67.9718 108.776C67.9718 110.808 69.2198 112.168 71.0758 112.168ZM84.9321 108.664C84.9321 108.808 84.9321 109.064 84.9161 109.192H78.1641C78.3081 111.032 79.3001 112.232 80.9801 112.232C82.1161 112.232 83.0601 111.672 83.7161 110.792L84.5961 111.288C83.7801 112.504 82.4841 113.16 80.9801 113.16C78.5641 113.16 76.9321 111.4 76.9321 108.76C76.9321 106.136 78.5321 104.376 80.9481 104.376C83.3321 104.376 84.9321 106.088 84.9321 108.664ZM80.9481 105.304C79.3161 105.304 78.2761 106.488 78.1641 108.376H83.7321C83.6361 106.488 82.5801 105.304 80.9481 105.304ZM91.1212 104.376C93.2012 104.376 94.5932 105.688 94.5932 107.672V113H93.4412V107.896C93.4412 106.376 92.3692 105.384 90.7692 105.384C89.1532 105.384 88.0812 106.376 88.0812 107.896V113H86.9292V104.536H88.0492L88.0652 105.96C88.6252 104.968 89.6492 104.376 91.1212 104.376ZM96.9251 108.84V107.976H101.613V108.84H96.9251ZM106.377 113.16C105.177 113.16 104.121 112.856 103.465 112.264L103.945 111.544C104.649 112.056 105.497 112.232 106.377 112.232C107.577 112.232 108.377 111.672 108.377 110.808C108.377 110.008 107.625 109.56 106.601 109.272L105.689 109C104.361 108.632 103.449 108.104 103.449 106.84C103.449 105.352 104.633 104.376 106.425 104.376C107.561 104.376 108.489 104.616 109.305 105.144L108.809 105.928C108.089 105.48 107.321 105.304 106.505 105.304C105.385 105.304 104.633 105.832 104.633 106.664C104.633 107.448 105.289 107.8 106.201 108.056L107.113 108.328C108.393 108.68 109.561 109.32 109.561 110.712C109.561 112.184 108.329 113.16 106.377 113.16ZM115.408 113.16C112.816 113.16 111.072 111.4 111.072 108.776C111.072 106.136 112.816 104.376 115.408 104.376C117.984 104.376 119.712 106.136 119.712 108.776C119.712 111.4 117.984 113.16 115.408 113.16ZM115.408 112.168C117.264 112.168 118.496 110.808 118.496 108.776C118.496 106.728 117.264 105.384 115.408 105.384C113.536 105.384 112.288 106.728 112.288 108.776C112.288 110.808 113.536 112.168 115.408 112.168ZM127.965 104.536H129.117V113H128.013L127.981 111.592C127.437 112.584 126.445 113.16 125.021 113.16C123.005 113.16 121.661 111.832 121.661 109.88V104.536H122.813V109.656C122.813 111.16 123.837 112.168 125.389 112.168C126.941 112.168 127.965 111.16 127.965 109.656V104.536ZM132.878 105.96C133.486 104.904 134.622 104.376 136.238 104.376L136.142 105.432C134.078 105.432 132.894 106.472 132.894 108.088V113H131.742V104.536H132.862L132.878 105.96ZM140.829 113.16C138.269 113.16 136.541 111.4 136.541 108.76C136.541 106.136 138.285 104.376 140.893 104.376C141.981 104.376 142.861 104.696 143.629 105.304L142.973 106.104C142.365 105.608 141.709 105.384 140.893 105.384C139.005 105.384 137.757 106.728 137.757 108.776C137.757 110.808 139.021 112.168 140.909 112.168C141.789 112.168 142.621 111.864 143.213 111.256L143.885 112.04C143.117 112.776 142.045 113.16 140.829 113.16ZM152.885 108.664C152.885 108.808 152.885 109.064 152.869 109.192H146.117C146.261 111.032 147.253 112.232 148.933 112.232C150.069 112.232 151.013 111.672 151.669 110.792L152.549 111.288C151.733 112.504 150.437 113.16 148.933 113.16C146.517 113.16 144.885 111.4 144.885 108.76C144.885 106.136 146.485 104.376 148.901 104.376C151.285 104.376 152.885 106.088 152.885 108.664ZM148.901 105.304C147.269 105.304 146.229 106.488 146.117 108.376H151.685C151.589 106.488 150.533 105.304 148.901 105.304ZM165.997 100.52H167.149V113H166.029L165.997 111.176C165.421 112.376 164.301 113.16 162.621 113.16C160.253 113.16 158.557 111.416 158.557 108.792C158.557 106.152 160.253 104.376 162.621 104.376C164.301 104.376 165.421 105.16 165.997 106.36V100.52ZM162.893 112.168C164.749 112.168 165.997 110.808 165.997 108.776C165.997 106.744 164.749 105.384 162.893 105.384C161.021 105.384 159.773 106.744 159.773 108.792C159.773 110.808 161.021 112.168 162.893 112.168ZM177.229 108.664C177.229 108.808 177.229 109.064 177.213 109.192H170.461C170.605 111.032 171.597 112.232 173.277 112.232C174.413 112.232 175.357 111.672 176.013 110.792L176.893 111.288C176.077 112.504 174.781 113.16 173.277 113.16C170.861 113.16 169.229 111.4 169.229 108.76C169.229 106.136 170.829 104.376 173.245 104.376C175.629 104.376 177.229 106.088 177.229 108.664ZM173.245 105.304C171.613 105.304 170.573 106.488 170.461 108.376H176.029C175.933 106.488 174.877 105.304 173.245 105.304ZM181.663 113L177.887 104.536H179.151L182.239 111.672L185.327 104.536H186.591L182.831 113H181.663ZM195.338 108.664C195.338 108.808 195.338 109.064 195.322 109.192H188.57C188.714 111.032 189.706 112.232 191.386 112.232C192.522 112.232 193.466 111.672 194.122 110.792L195.002 111.288C194.186 112.504 192.89 113.16 191.386 113.16C188.97 113.16 187.338 111.4 187.338 108.76C187.338 106.136 188.938 104.376 191.354 104.376C193.738 104.376 195.338 106.088 195.338 108.664ZM191.354 105.304C189.722 105.304 188.682 106.488 188.57 108.376H194.138C194.042 106.488 192.986 105.304 191.354 105.304ZM197.367 113V100.52H198.519V113H197.367ZM204.971 113.16C202.379 113.16 200.635 111.4 200.635 108.776C200.635 106.136 202.379 104.376 204.971 104.376C207.547 104.376 209.275 106.136 209.275 108.776C209.275 111.4 207.547 113.16 204.971 113.16ZM204.971 112.168C206.827 112.168 208.059 110.808 208.059 108.776C208.059 106.728 206.827 105.384 204.971 105.384C203.099 105.384 201.851 106.728 201.851 108.776C201.851 110.808 203.099 112.168 204.971 112.168ZM215.863 104.376C218.231 104.376 219.911 106.12 219.911 108.744C219.911 111.4 218.231 113.16 215.863 113.16C214.183 113.16 213.063 112.376 212.487 111.176V116.52H211.335V104.536H212.455L212.487 106.36C213.063 105.16 214.183 104.376 215.863 104.376ZM215.591 112.168C217.463 112.168 218.711 110.808 218.711 108.76C218.711 106.728 217.463 105.384 215.591 105.384C213.735 105.384 212.487 106.728 212.487 108.776C212.487 110.808 213.735 112.168 215.591 112.168ZM231.704 104.376C233.704 104.376 235.032 105.688 235.032 107.672V113H233.88V107.896C233.88 106.376 232.92 105.384 231.48 105.384C230.04 105.384 229.08 106.376 229.08 107.896V113H227.928V107.896C227.928 106.376 226.968 105.384 225.544 105.384C224.104 105.384 223.144 106.376 223.144 107.896V113H221.992V104.536H223.112L223.128 105.88C223.64 104.936 224.584 104.376 225.896 104.376C227.24 104.376 228.264 105.032 228.76 106.104C229.272 105.048 230.28 104.376 231.704 104.376ZM245.01 108.664C245.01 108.808 245.01 109.064 244.994 109.192H238.242C238.386 111.032 239.378 112.232 241.058 112.232C242.194 112.232 243.138 111.672 243.794 110.792L244.674 111.288C243.858 112.504 242.562 113.16 241.058 113.16C238.642 113.16 237.01 111.4 237.01 108.76C237.01 106.136 238.61 104.376 241.026 104.376C243.41 104.376 245.01 106.088 245.01 108.664ZM241.026 105.304C239.394 105.304 238.354 106.488 238.242 108.376H243.81C243.714 106.488 242.658 105.304 241.026 105.304ZM251.199 104.376C253.279 104.376 254.671 105.688 254.671 107.672V113H253.519V107.896C253.519 106.376 252.447 105.384 250.847 105.384C249.231 105.384 248.159 106.376 248.159 107.896V113H247.007V104.536H248.127L248.143 105.96C248.703 104.968 249.727 104.376 251.199 104.376ZM260.126 112.168C260.718 112.168 261.278 112.072 261.822 111.864V112.808C261.262 113.048 260.574 113.16 259.774 113.16C258.414 113.16 257.486 112.216 257.486 110.824V105.496H256.014V104.536H257.486V102.056H258.638V104.536H261.694V105.496H258.638V110.6C258.638 111.528 259.246 112.168 260.126 112.168ZM263.816 113.16C263.352 113.16 262.952 112.76 262.952 112.296C262.952 111.816 263.352 111.432 263.816 111.432C264.296 111.432 264.696 111.816 264.696 112.296C264.696 112.76 264.296 113.16 263.816 113.16Z" fill="#D7D7D7"/>
<path d="M16.4981 125.16C18.8341 125.16 20.3701 126.6 20.3701 128.76C20.3701 130.984 18.8181 132.456 16.4981 132.456H13.4101V137H12.1941V125.16H16.4981ZM16.3381 131.448C18.0181 131.448 19.1061 130.392 19.1061 128.808C19.1061 127.224 18.0021 126.168 16.3381 126.168H13.4101V131.448H16.3381ZM25.8536 137.16C23.2616 137.16 21.5176 135.4 21.5176 132.776C21.5176 130.136 23.2616 128.376 25.8536 128.376C28.4296 128.376 30.1576 130.136 30.1576 132.776C30.1576 135.4 28.4296 137.16 25.8536 137.16ZM25.8536 136.168C27.7096 136.168 28.9416 134.808 28.9416 132.776C28.9416 130.728 27.7096 129.384 25.8536 129.384C23.9816 129.384 22.7336 130.728 22.7336 132.776C22.7336 134.808 23.9816 136.168 25.8536 136.168ZM43.854 128.536H45.134L41.838 137H40.67L38.062 129.864L35.438 137H34.27L30.974 128.536H32.238L34.91 135.672L37.55 128.536H38.558L41.182 135.672L43.854 128.536ZM53.9711 132.664C53.9711 132.808 53.9711 133.064 53.9551 133.192H47.2031C47.3471 135.032 48.3391 136.232 50.0191 136.232C51.1551 136.232 52.0991 135.672 52.7551 134.792L53.6351 135.288C52.8191 136.504 51.5231 137.16 50.0191 137.16C47.6031 137.16 45.9711 135.4 45.9711 132.76C45.9711 130.136 47.5711 128.376 49.9871 128.376C52.3711 128.376 53.9711 130.088 53.9711 132.664ZM49.9871 129.304C48.3551 129.304 47.3151 130.488 47.2031 132.376H52.7711C52.6751 130.488 51.6191 129.304 49.9871 129.304ZM57.1043 129.96C57.7123 128.904 58.8483 128.376 60.4643 128.376L60.3683 129.432C58.3043 129.432 57.1203 130.472 57.1203 132.088V137H55.9683V128.536H57.0883L57.1043 129.96ZM68.7836 132.664C68.7836 132.808 68.7836 133.064 68.7676 133.192H62.0156C62.1596 135.032 63.1516 136.232 64.8316 136.232C65.9676 136.232 66.9116 135.672 67.5676 134.792L68.4476 135.288C67.6316 136.504 66.3356 137.16 64.8316 137.16C62.4156 137.16 60.7836 135.4 60.7836 132.76C60.7836 130.136 62.3836 128.376 64.7996 128.376C67.1836 128.376 68.7836 130.088 68.7836 132.664ZM64.7996 129.304C63.1676 129.304 62.1276 130.488 62.0156 132.376H67.5836C67.4876 130.488 66.4316 129.304 64.7996 129.304ZM77.6608 124.52H78.8128V137H77.6927L77.6608 135.176C77.0848 136.376 75.9648 137.16 74.2848 137.16C71.9168 137.16 70.2208 135.416 70.2208 132.792C70.2208 130.152 71.9168 128.376 74.2848 128.376C75.9648 128.376 77.0848 129.16 77.6608 130.36V124.52ZM74.5568 136.168C76.4128 136.168 77.6608 134.808 77.6608 132.776C77.6608 130.744 76.4128 129.384 74.5568 129.384C72.6848 129.384 71.4368 130.744 71.4368 132.792C71.4368 134.808 72.6848 136.168 74.5568 136.168ZM90.1994 128.376C92.5674 128.376 94.2474 130.152 94.2474 132.792C94.2474 135.416 92.5674 137.16 90.1994 137.16C88.5194 137.16 87.3994 136.376 86.8234 135.176L86.7914 137H85.6714V124.52H86.8234V130.36C87.3994 129.16 88.5194 128.376 90.1994 128.376ZM89.9274 136.168C91.7994 136.168 93.0474 134.808 93.0474 132.792C93.0474 130.744 91.7994 129.384 89.9274 129.384C88.0714 129.384 86.8234 130.744 86.8234 132.776C86.8234 134.808 88.0714 136.168 89.9274 136.168ZM96.8769 140.68C96.5089 140.68 96.1249 140.616 95.8529 140.488L95.9809 139.544C96.1729 139.64 96.4289 139.688 96.7009 139.688C97.4209 139.688 97.7249 139.208 98.0609 138.488L98.8129 136.888L95.0209 128.536H96.2849L99.4209 135.624L102.461 128.536H103.725L99.1969 138.648C98.6689 139.88 98.1409 140.68 96.8769 140.68ZM190.636 129.96C191.244 128.904 192.38 128.376 193.996 128.376L193.9 129.432C191.836 129.432 190.652 130.472 190.652 132.088V137H189.5V128.536H190.62L190.636 129.96ZM202.315 132.664C202.315 132.808 202.315 133.064 202.299 133.192H195.547C195.691 135.032 196.683 136.232 198.363 136.232C199.499 136.232 200.443 135.672 201.099 134.792L201.979 135.288C201.163 136.504 199.867 137.16 198.363 137.16C195.947 137.16 194.315 135.4 194.315 132.76C194.315 130.136 195.915 128.376 198.331 128.376C200.715 128.376 202.315 130.088 202.315 132.664ZM198.331 129.304C196.699 129.304 195.659 130.488 195.547 132.376H201.115C201.019 130.488 199.963 129.304 198.331 129.304ZM206.744 137.16C205.544 137.16 204.488 136.856 203.832 136.264L204.312 135.544C205.016 136.056 205.864 136.232 206.744 136.232C207.944 136.232 208.744 135.672 208.744 134.808C208.744 134.008 207.992 133.56 206.968 133.272L206.056 133C204.728 132.632 203.816 132.104 203.816 130.84C203.816 129.352 205 128.376 206.792 128.376C207.928 128.376 208.856 128.616 209.672 129.144L209.176 129.928C208.456 129.48 207.688 129.304 206.872 129.304C205.752 129.304 205 129.832 205 130.664C205 131.448 205.656 131.8 206.568 132.056L207.48 132.328C208.76 132.68 209.928 133.32 209.928 134.712C209.928 136.184 208.696 137.16 206.744 137.16ZM219.456 132.664C219.456 132.808 219.456 133.064 219.44 133.192H212.688C212.832 135.032 213.824 136.232 215.504 136.232C216.64 136.232 217.584 135.672 218.24 134.792L219.12 135.288C218.304 136.504 217.008 137.16 215.504 137.16C213.088 137.16 211.456 135.4 211.456 132.76C211.456 130.136 213.056 128.376 215.472 128.376C217.856 128.376 219.456 130.088 219.456 132.664ZM215.472 129.304C213.84 129.304 212.799 130.488 212.688 132.376H218.256C218.16 130.488 217.104 129.304 215.472 129.304ZM224.397 128.376C226.461 128.376 227.805 129.688 227.805 131.672V137H226.685L226.653 135.224C226.061 136.456 224.861 137.16 223.517 137.16C221.853 137.16 220.733 136.184 220.733 134.696C220.733 133.16 222.109 132.12 224.189 132.12C224.973 132.12 225.853 132.216 226.653 132.408V131.816C226.653 130.28 225.677 129.304 224.125 129.304C223.117 129.304 222.397 129.64 221.805 130.248L221.277 129.544C222.045 128.792 223.037 128.376 224.397 128.376ZM223.837 136.296C225.181 136.296 226.653 135.192 226.653 133.224C225.901 133.048 225.069 132.952 224.333 132.952C222.893 132.952 221.933 133.64 221.933 134.664C221.933 135.656 222.653 136.296 223.837 136.296ZM231.448 129.96C232.056 128.904 233.192 128.376 234.808 128.376L234.712 129.432C232.648 129.432 231.464 130.472 231.464 132.088V137H230.312V128.536H231.432L231.448 129.96ZM239.399 137.16C236.839 137.16 235.111 135.4 235.111 132.76C235.111 130.136 236.855 128.376 239.463 128.376C240.551 128.376 241.431 128.696 242.199 129.304L241.543 130.104C240.935 129.608 240.279 129.384 239.463 129.384C237.575 129.384 236.327 130.728 236.327 132.776C236.327 134.808 237.591 136.168 239.479 136.168C240.359 136.168 241.191 135.864 241.783 135.256L242.455 136.04C241.687 136.776 240.615 137.16 239.399 137.16ZM248.442 128.376C250.522 128.376 251.914 129.688 251.914 131.672V137H250.762V131.896C250.762 130.376 249.69 129.384 248.09 129.384C246.474 129.384 245.402 130.376 245.402 131.896V137H244.25V124.52H245.402V129.944C245.946 128.952 246.986 128.376 248.442 128.376ZM261.6 128.376C263.664 128.376 265.008 129.688 265.008 131.672V137H263.888L263.856 135.224C263.264 136.456 262.064 137.16 260.72 137.16C259.056 137.16 257.936 136.184 257.936 134.696C257.936 133.16 259.312 132.12 261.392 132.12C262.176 132.12 263.056 132.216 263.856 132.408V131.816C263.856 130.28 262.88 129.304 261.328 129.304C260.32 129.304 259.6 129.64 259.008 130.248L258.48 129.544C259.248 128.792 260.24 128.376 261.6 128.376ZM261.04 136.296C262.384 136.296 263.856 135.192 263.856 133.224C263.104 133.048 262.272 132.952 261.536 132.952C260.096 132.952 259.136 133.64 259.136 134.664C259.136 135.656 259.856 136.296 261.04 136.296ZM271.707 128.376C273.787 128.376 275.179 129.688 275.179 131.672V137H274.027V131.896C274.027 130.376 272.955 129.384 271.355 129.384C269.739 129.384 268.667 130.376 268.667 131.896V137H267.515V128.536H268.635L268.651 129.96C269.211 128.968 270.235 128.376 271.707 128.376ZM284.567 124.52H285.719V137H284.599L284.567 135.176C283.991 136.376 282.871 137.16 281.191 137.16C278.823 137.16 277.127 135.416 277.127 132.792C277.127 130.152 278.823 128.376 281.191 128.376C282.871 128.376 283.991 129.16 284.567 130.36V124.52ZM281.463 136.168C283.319 136.168 284.567 134.808 284.567 132.776C284.567 130.744 283.319 129.384 281.463 129.384C279.591 129.384 278.343 130.744 278.343 132.792C278.343 134.808 279.591 136.168 281.463 136.168ZM301.006 137L299.678 133.912H293.406L292.078 137H290.782L295.966 125.16H297.118L302.302 137H301.006ZM293.854 132.888H299.246L296.558 126.632L293.854 132.888ZM303.96 137V125.16H305.176V137H303.96ZM308.605 137.16C308.141 137.16 307.741 136.76 307.741 136.296C307.741 135.816 308.141 135.432 308.605 135.432C309.085 135.432 309.485 135.816 309.485 136.296C309.485 136.76 309.085 137.16 308.605 137.16Z" fill="#D8D8D8"/>
<path d="M174.665 124.917H169.178V137.525H170.964V126.703H174.665C177.262 126.703 179.375 128.816 179.375 131.414V137.525H181.161V131.414C181.161 127.831 178.247 124.917 174.665 124.917Z" fill="#D8D8D8"/>
<path d="M130.001 130.125V137.526H140.215V135.75H131.777V131.901H140.215V130.125H130.001Z" fill="#D8D8D8"/>
<path d="M130.001 124.917H140.199V126.692H130.001V124.917Z" fill="#D8D8D8"/>
<path d="M150.904 126.609C150.324 126.068 149.678 125.65 148.986 125.365C148.29 125.079 147.621 124.934 146.997 124.934H143.529V126.677H146.643C147.337 126.677 147.97 126.808 148.523 127.068C149.082 127.33 149.563 127.676 149.954 128.097C150.346 128.519 150.654 129.008 150.871 129.551C151.086 130.093 151.196 130.658 151.196 131.229C151.196 131.903 151.069 132.526 150.819 133.081C150.568 133.639 150.227 134.122 149.807 134.517C149.385 134.914 148.893 135.228 148.345 135.449C147.798 135.67 147.225 135.782 146.643 135.782H146.358V137.558H146.997C147.731 137.558 148.463 137.395 149.172 137.074C149.875 136.756 150.512 136.312 151.064 135.753C151.616 135.197 152.068 134.527 152.408 133.764C152.75 132.997 152.923 132.155 152.923 131.262C152.923 130.28 152.729 129.384 152.348 128.597C151.97 127.819 151.484 127.151 150.904 126.609Z" fill="#D8D8D8"/>
<path d="M155.723 124.917H165.92V126.692H155.723V124.917Z" fill="#D8D8D8"/>
<path d="M155.723 130.125V137.526H165.936V135.75H157.498V131.901H165.936V130.125H155.723Z" fill="#D8D8D8"/>
<path d="M112 126.289L112 133.573L116.182 137.56L118.182 135.194L118.182 139.322L119.932 139.322L119.922 135.053L122.256 137.56L126.114 133.551L126.114 126.332L119.035 118.994L112 126.289ZM114.064 126.71L118.182 122.442L118.182 131.001L114.064 126.71ZM119.922 122.474L124.028 126.732L119.932 131.001L119.922 122.474ZM120.451 133.011L124.374 128.936L124.374 132.805L122.267 134.978L120.451 133.011ZM113.74 132.784L113.74 128.936L117.695 133.043L116.042 134.978L113.74 132.784Z" fill="#ADFF00"/>
</svg>
