<svg width="129" height="42" viewBox="0 0 129 42" fill="none" xmlns="http://www.w3.org/2000/svg">
<path d="M16.3006 33H12.7831V11.9122H0.34317V8.39473H28.7405V11.9122H16.3006V33ZM57.704 33H53.1055L43.4796 23.0824L33.888 33H29.2724L41.1975 20.6974L29.2724 8.39473H33.888L57.704 33ZM57.704 8.39473L46.9799 19.4276L44.6979 17.0769L53.1055 8.39473H57.704Z" fill="#B8F029"/>
<path d="M66.655 30.4969H73.2058V32.5684H64.1586V19.4667H73.0642V21.5382H66.655V24.9021H72.4976V26.9559H66.655V30.4969ZM84.3669 32.5684H81.4987L79.2855 29.4346L77.0724 32.5684H74.2042L77.8514 27.6818L74.4167 23.0254H77.2849L79.2855 25.9113L81.2862 23.0254H84.1544L80.7196 27.6818L84.3669 32.5684ZM91.2365 22.8484C93.8037 22.8484 95.8044 24.7959 95.8044 27.7526C95.8044 30.7448 93.8037 32.7454 91.2365 32.7454C89.7847 32.7454 88.7401 32.1611 88.0673 31.1874V36.4634H85.6595V23.0254H87.9788L88.0319 24.4595C88.7047 23.4503 89.767 22.8484 91.2365 22.8484ZM90.6877 30.6739C92.2457 30.6739 93.308 29.5231 93.308 27.7703C93.308 26.0529 92.2457 24.9021 90.6877 24.9021C89.1119 24.9021 88.0673 26.0529 88.0673 27.788C88.0673 29.5231 89.1119 30.6739 90.6877 30.6739ZM97.711 32.5684V18.7585H100.119V32.5684H97.711ZM106.375 22.8484C108.818 22.8484 110.465 24.3179 110.465 26.5664V32.5684H108.146L108.093 31.2051C107.455 32.1966 106.357 32.7454 105.189 32.7454C103.206 32.7454 101.878 31.5592 101.878 29.7887C101.878 27.9474 103.507 26.7434 105.95 26.7434C106.605 26.7434 107.331 26.8143 108.057 26.9559V26.7788C108.057 25.5041 107.207 24.7428 105.756 24.7428C104.853 24.7428 104.127 25.0084 103.525 25.5041L102.48 24.0877C103.507 23.2556 104.711 22.8484 106.375 22.8484ZM105.879 31.028C106.995 31.028 108.039 30.1428 108.057 28.5847C107.437 28.4608 106.8 28.39 106.251 28.39C105.118 28.39 104.392 28.9211 104.392 29.7356C104.392 30.5146 104.906 31.028 105.879 31.028ZM114.026 21.4674C113.194 21.4674 112.592 20.8831 112.592 20.051C112.592 19.2188 113.194 18.6169 114.026 18.6169C114.858 18.6169 115.443 19.2188 115.443 20.051C115.443 20.8831 114.858 21.4674 114.026 21.4674ZM112.822 32.5684V23.0254H115.23V32.5684H112.822ZM123.151 22.8484C125.435 22.8484 126.958 24.3356 126.958 26.5664V32.5684H124.55V26.9559C124.55 25.7166 123.665 24.9021 122.319 24.9021C120.974 24.9021 120.088 25.7166 120.088 26.9559V32.5684H117.68V23.0254H120L120.035 24.2293C120.761 23.3264 121.877 22.8484 123.151 22.8484Z" fill="white"/>
</svg>
