<svg width="128" height="30" viewBox="0 0 128 30" fill="none" xmlns="http://www.w3.org/2000/svg">
<path d="M16.3006 25.9365H12.7831V4.84874H0.34317V1.33125H28.7405V4.84874H16.3006V25.9365ZM57.704 25.9365H53.1055L43.4796 16.0189L33.888 25.9365H29.2724L41.1975 13.6339L29.2724 1.33125H33.888L57.704 25.9365ZM57.704 1.33125L46.9799 12.3642L44.6979 10.0134L53.1055 1.33125H57.704Z" fill="url(#paint0_linear_381_7145)"/>
<path d="M66.655 23.4334H73.2058V25.5049H64.1586V12.4032H73.0642V14.4747H66.655V17.8386H72.4976V19.8924H66.655V23.4334ZM84.3669 25.5049H81.4987L79.2855 22.3711L77.0724 25.5049H74.2042L77.8514 20.6183L74.4167 15.9619H77.2849L79.2855 18.8478L81.2862 15.9619H84.1544L80.7196 20.6183L84.3669 25.5049ZM91.2365 15.7849C93.8037 15.7849 95.8044 17.7324 95.8044 20.6891C95.8044 23.6813 93.8037 25.6819 91.2365 25.6819C89.7847 25.6819 88.7401 25.0977 88.0673 24.1239V29.4H85.6595V15.9619H87.9788L88.0319 17.396C88.7047 16.3868 89.767 15.7849 91.2365 15.7849ZM90.6877 23.6105C92.2457 23.6105 93.308 22.4596 93.308 20.7068C93.308 18.9895 92.2457 17.8386 90.6877 17.8386C89.1119 17.8386 88.0673 18.9895 88.0673 20.7246C88.0673 22.4596 89.1119 23.6105 90.6877 23.6105ZM97.711 25.5049V11.695H100.119V25.5049H97.711ZM106.375 15.7849C108.818 15.7849 110.465 17.2544 110.465 19.5029V25.5049H108.146L108.093 24.1416C107.455 25.1331 106.357 25.6819 105.189 25.6819C103.206 25.6819 101.878 24.4957 101.878 22.7252C101.878 20.8839 103.507 19.68 105.95 19.68C106.605 19.68 107.331 19.7508 108.057 19.8924V19.7154C108.057 18.4406 107.207 17.6793 105.756 17.6793C104.853 17.6793 104.127 17.9449 103.525 18.4406L102.48 17.0242C103.507 16.1921 104.711 15.7849 106.375 15.7849ZM105.879 23.9646C106.995 23.9646 108.039 23.0793 108.057 21.5213C107.437 21.3973 106.8 21.3265 106.251 21.3265C105.118 21.3265 104.392 21.8577 104.392 22.6721C104.392 23.4511 104.906 23.9646 105.879 23.9646ZM114.026 14.4039C113.194 14.4039 112.592 13.8196 112.592 12.9875C112.592 12.1554 113.194 11.5534 114.026 11.5534C114.858 11.5534 115.443 12.1554 115.443 12.9875C115.443 13.8196 114.858 14.4039 114.026 14.4039ZM112.822 25.5049V15.9619H115.23V25.5049H112.822ZM123.151 15.7849C125.435 15.7849 126.958 17.2721 126.958 19.5029V25.5049H124.55V19.8924C124.55 18.6531 123.665 17.8386 122.319 17.8386C120.974 17.8386 120.088 18.6531 120.088 19.8924V25.5049H117.68V15.9619H120L120.035 17.1659C120.761 16.2629 121.877 15.7849 123.151 15.7849Z" fill="white"/>
<defs>
<linearGradient id="paint0_linear_381_7145" x1="58.9431" y1="-0.996813" x2="10.4518" y2="31.6687" gradientUnits="userSpaceOnUse">
<stop stop-color="#B8F029"/>
<stop offset="1" stop-color="#0CD579"/>
</linearGradient>
</defs>
</svg>
