<svg width="157" height="54" viewBox="0 0 157 54" fill="none" xmlns="http://www.w3.org/2000/svg">
<path d="M16.5926 32H13.0121V10.5344H0.349319V6.95385H29.2554V10.5344H16.5926V32ZM58.7379 32H54.0571L44.2587 21.9047L34.4952 32H29.7969L41.9357 19.4769L29.7969 6.95385H34.4952L58.7379 32ZM58.7379 6.95385L47.8217 18.1844L45.4988 15.7916L54.0571 6.95385H58.7379Z" fill="#ADFF00"/>
<path d="M68.782 29.9667H77.3573V31.3555H67.1066V15.0426H77.1589V16.4314H68.782V22.3393H76.6078V23.7281H68.782V29.9667ZM90.3855 31.3555H88.4456L84.654 26.4616L80.8844 31.3555H78.9445L83.684 25.3814L79.209 19.694H81.1269L84.654 24.3012L88.1811 19.694H90.099L85.6239 25.3814L90.3855 31.3555ZM98.6951 19.4735C101.958 19.4735 104.272 21.8764 104.272 25.4916C104.272 29.151 101.958 31.5759 98.6951 31.5759C96.3804 31.5759 94.8373 30.4957 94.0437 28.8424V36.2052H92.4565V19.694H93.9996L94.0437 22.207C94.8373 20.5537 96.3804 19.4735 98.6951 19.4735ZM98.3203 30.2092C100.9 30.2092 102.619 28.3354 102.619 25.5137C102.619 22.714 100.9 20.8623 98.3203 20.8623C95.7632 20.8623 94.0437 22.714 94.0437 25.5357C94.0437 28.3354 95.7632 30.2092 98.3203 30.2092ZM107.183 31.3555V14.1608H108.77V31.3555H107.183ZM116.512 19.4735C119.356 19.4735 121.207 21.2812 121.207 24.0147V31.3555H119.664L119.62 28.9085C118.805 30.606 117.151 31.5759 115.3 31.5759C113.007 31.5759 111.464 30.2312 111.464 28.1811C111.464 26.0648 113.36 24.6319 116.225 24.6319C117.306 24.6319 118.518 24.7642 119.62 25.0287V24.2131C119.62 22.0968 118.276 20.7521 116.137 20.7521C114.748 20.7521 113.756 21.215 112.941 22.0527L112.213 21.0828C113.271 20.0467 114.638 19.4735 116.512 19.4735ZM115.74 30.3855C117.592 30.3855 119.62 28.8644 119.62 26.153C118.584 25.9105 117.438 25.7782 116.424 25.7782C114.44 25.7782 113.117 26.7261 113.117 28.137C113.117 29.5037 114.109 30.3855 115.74 30.3855ZM125.478 16.762C124.86 16.762 124.398 16.2991 124.398 15.7039C124.398 15.0867 124.86 14.6237 125.478 14.6237C126.073 14.6237 126.536 15.0867 126.536 15.7039C126.536 16.2991 126.073 16.762 125.478 16.762ZM124.684 31.3555V19.694H126.271V31.3555H124.684ZM135.69 19.4735C138.556 19.4735 140.474 21.2812 140.474 24.0147V31.3555H138.887V24.3233C138.887 22.2291 137.41 20.8623 135.206 20.8623C132.979 20.8623 131.502 22.2291 131.502 24.3233V31.3555H129.915V19.694H131.458L131.48 21.6559C132.252 20.2892 133.662 19.4735 135.69 19.4735Z" fill="#D8D8D8"/>
</svg>
